<mxfile host="Electron" modified="2024-05-22T18:20:31.945Z" agent="Mozilla/5.0 (Windows NT 10.0; Win64; x64) AppleWebKit/537.36 (KHTML, like Gecko) draw.io/22.1.2 Chrome/114.0.5735.289 Electron/25.9.4 Safari/537.36" etag="nk6t6LQCS3uZZQwZe7y7" version="22.1.2" type="device">
  <diagram name="Page-1" id="A2uOkRDVMcRzVJvDIS-6">
    <mxGraphModel dx="3428" dy="1491" grid="1" gridSize="10" guides="1" tooltips="1" connect="1" arrows="1" fold="1" page="1" pageScale="1" pageWidth="850" pageHeight="1100" math="0" shadow="0">
      <root>
        <mxCell id="0" />
        <mxCell id="1" parent="0" />
        <UserObject label="" id="zqFV1SUlhvz9hyw7UpEj-10">
          <mxCell style="rounded=0;whiteSpace=wrap;html=1;" parent="1" vertex="1">
            <mxGeometry x="-560" y="80" width="2260" height="820" as="geometry" />
          </mxCell>
        </UserObject>
        <mxCell id="zqFV1SUlhvz9hyw7UpEj-1" value="&lt;span style=&quot;font-family: &amp;quot;Century Gothic&amp;quot;; font-weight: bold;&quot;&gt;&lt;font style=&quot;font-size: 53px;&quot; color=&quot;#050505&quot;&gt;Chatbot -Retrieval Augmented Generation&lt;/font&gt;&lt;/span&gt;" style="text;whiteSpace=wrap;html=1;align=center;" parent="1" vertex="1">
          <mxGeometry x="-560" y="160" width="2260" height="70" as="geometry" />
        </mxCell>
        <mxCell id="zqFV1SUlhvz9hyw7UpEj-3" value="" style="shape=image;verticalLabelPosition=bottom;labelBackgroundColor=default;verticalAlign=top;aspect=fixed;imageAspect=0;image=data:image/png,iVBORw0KGgoAAAANSUhEUgAAB6EAAAEkCAYAAABuYETqAAAAAXNSR0IArs4c6QAAAARnQU1BAACxjwv8YQUAAAAJcEhZcwAAFxEAABcRAcom8z8AAP+lSURBVHhe7J0FvFRHtvW/N2/eG38zE/dAgASNTVwguLu7u7s7BHd3d3fX4BoIkIRAiAtRAgESSNZXq7oONM250MCVcy/rP789fW+fOlW7pCvNXWfv+n8QQogA8f+EEEIIIYQQQgghhBBCCCFE4sbpPkIIEQjc1iSEEEIIIYQQQgghhBBCCCESK073EUKIQOC2JiGEEEIIIYQQQgghhBBCCJFYcbqPEEIEArc1CSGEEEIIIYQQQgghhBBCiMSK032EECIQuK1JCCGEEEIIIYQQQgghhBBCJFac7iOEEIHAbU1CCCGEEEIIIYQQQgghhBAiseJ0HyGECARuaxJCCCGEEEIIIYQQQgghhBCJFaf7CCFEIHBbkxBCCCGEEEIIIYQQQgghhEisON1HCCECgduahBBCCCGEEEIIIYQQQgghRGLF6T5CCBEI3NYkhBBCCCGEEEIIIYQQQgghEitO9xFCiEDgtiYhhBBCCCGEEEIIIYQQQgiRWHG6jxBCBAK3NQkhhBBCCCGEEEIIIYQQQojEitN9hBAiELitSQghhBBCCCGEEEIIIYQQQiRWnO4jhBCBwG1NQgghhBBCCCGEEEIIIYQQIrHidB8hhAgEbmsSQgghhBBCCCGEEEIIIYQQiRWn+wghRCBwW5MQQgghhBBCCCGEEEIIIYRIrDjdRwghAoHbmoQQQgghhBBCCCGEEEIIIURixek+QggRCNzWJIQQQgghhBBCCCGEEEIIIRIrTvcRQohA4LYmIYQQQgghhBBCCCGEEEIIkVhxuo8QQgQCtzUJIYQQQgghhBBCCCGEEEKIxIrTfYQQIhC4rUkIIYQQQgghhBBCCCGEEEIkVpzuI4QQgcBtTUIIIYQQQgghhBBCCCGEECKx4nQfIYQIBG5rEkIIIYQQQgghhBBCCCGEEIkVp/sIIUQgcFuTEEIIIYQQQgghhBBCCCGESKw43UcIIQKB25qEEEIIIYQQQgghhBBCCCFEYsXpPkIIEQjc1iSEEEIIIYQQQgghhBBCCCESK073EUKIQOC2JiGEEEIIIYQQQgghhBBCCJFYcbqPEEIEArc1CSGEEEIIIYQQQgghhBBCiMSK032EECIQuK1JCCGEEEIIIYQQQgghhBBCJFac7iOEEIHAbU1CCCGEEEIIIYQQQgghhBAiseJ0HyGECARuaxJCCCGEEEIIIYQQQgghhBCJFaf7CCFEIHBbkxBCCCGEEEIIIYQQQgghhEisON1HCCECgduahBBCCCGEEEIIIYQQQgghRGLF6T5CCBEI3NYkhBBCCCGEEEIIIYQQQgghEitO9xFCiEDgtiYhhBBCCCGEEEIIIYQQQgiRWHG6jxBCBAK3NQkhhBBCCCGEEEIIIYQQQojEitN9hBAiELitSQghhBBCCCGEEEIIIYQQQiRWnO4jhBCBwG1NQgghhBBCCCGEEEIIcVvi/lQqhBC+uK0i+Dh/hRAiELitSQghhBBCCCGEEEIIIW5L3J9KhRDCF7dVBB/nrxBCBAK3NQkhhBBCCCGEEEIIIcRtiftTqRBC+OK2iuDj/BVCiEDgtiYhhBBCCCGEEEIIIYS4LXF/KhVCCF/cVhF8nL9CCBEI3NYkhBBCCCGEEEIIIYQQtyXuT6VCCOGL2yqCj/NXCCECgduahBBCCCGEEEIIIYQQ4rbE/alUCCF8cVtF8HH+CiFEIHBbkxBCCCGEEEIIIYQQQtyWuD+VCiGEL26rCD7OXyGECARuaxJCCCGEEEIIIYQQQojbEvenUiGE8MVtFcHH+SuEEIHAbU1CCCGEEEIIIYQQQghxW+L+VCqEEL64rSL4OH+FECIQuK1JROCGR4gkiVvmQgghhBBCCCGEEMLg/mQihBC+uK0i+Dh/hRAiELitSUTghkeIJIlb5kIIIYQQQgghhBDC4P5kIoQQvritIvg4f4UQIhC4rUlE4IZHiCSJW+ZCCCGEEEIIIYQQwuD+ZCKEEL64rSL4OH+FECIQuK1JROCGR4gkiVvmQgghhBBCCCGEEMLg/mQihBC+uK0i+Dh/hRAiELitSUTghkeIJIlb5kIIIYQQQgghhBDC4P5kIoQQvritIvg4f4UQIhC4rUlE4IZHiCSJW+ZCCCGEEEIIIYQQwuD+ZCKEEL64rSL4OH+FECIQuK1JROCGR4gkiVvmQgghhBBCCCGEEMLg/mQihBC+uK0i+Dh/hRAiELitSUTghkeIJIlb5kIIIYQQQgghhBDC4P5kIoQQvritIvg4f4UQIhC4rUlE4IZHiCSJW+ZCCCGEEEIIIYQQwuD+ZCKEEL64rSL4OH+FECIQuK1JROCGR4gkiVvmQgghhBBCCCGEEMLg/mQihBC+uK0i+Dh/hRAiELitSUTghkeIJIlb5kIIIYQQQgghhBDC4P5kIoQQvritIvg4f4UQIhC4rUlE4IZHiCSJW+ZCCCGEEEIIIYQQwuD+ZCKEEL64rSL4OH+FECIQuK1JROCGR4gkiVvmQgghhBBCCCGEEMLg/mQihBC+uK0i+Dh/hRAiELitSUTghkeIJIlb5kIIIYQQQgghhBDC4P5kIoQQvritIvg4f4UQIhC4rUlE4IZHiCSJW+ZCCCGEEEIIIYQQwuD+ZCKEEL64rSL4OH+FECIQuK1JROCGR4gkiVvmQgghhBBCCCGEEMLg/mQihBC+uK0i+Dh/hRAiELitSUTghkeIJIlb5kIIIYQQQgghhBDC4P5kIoQQvritIvg4f4UQIhC4rUlE4IZHiCSJW+ZCCCGEEEIIIYQQwuD+ZCKEEL64rSL4OH+FECIQuK1JROCGR4gkiVvmQgghhBBCCCGEEMLg/mQihBC+uK0i+Dh/hRAiELitSUTghkeIJIlb5kIIIYQQQgghhBDC4P5kIoQQvritIvg4f4UQIhC4rUlE4IZHiCSJW+ZCCCGEEEIIIYQQwuD+ZCKEEL64rSL4OH+FECIQuK1JROCGR4gkiVvmQgghhBBCCCGEEMLg/mQihBC+uK0i+Dh/hRAiELitSUTghkeIJIlb5kIIIYQQV+C+KggRq7jlJYQQQgQa958tIYTwxW0Vwcf5K4QQgcBtTSICNzxCJEncMhdCCCGEuAL3VUGIWMUtLyECjVuuIonhpleIqHDLRgghfHFbRfBx/gohRCBwW5OIwA2PiAe+//57/P777+43ER+4ZS6EEEIIcQXuq4IQsYpbXkIEGrdcRRLDTa8QUeGWjRBC+OK2iuDj/BVCiEDgtiYRgRseEYd88sknGDVqFDJlyoQXX3wRCxYssIK0iHvcMhdCCCGEuAL3VUGIWMUtLyECjVuuIonhpleIqHDLRgghfHFbRfBx/gohRCBwW5OIwA2PiGXOnz+PFStWoFWrVkiWLBnX3xX2yiuvoFevXtiyZYu7Q8QFZqyFEEIIIa7CfVUQIlZxy0uIQOOWq0hiuOkVIircshFCCF/cVhF8nL9CCBEI3NYkInDDI2KJDz/8EOPGjUO+fPnw73//m+vumnbHHXegTJkyWLZsGU6fPu1qEbGFGWMhhBBCiKtwXxWEiFXc8hIi0LjlKpIYbnqFiAq3bIQQwhe3VQQf568QQgQCtzWJCNzwiFuAUc+MaG7WrBlSpUqF//qv/+J6u8oee+wx/P3vf/e99qc//Qlp0qRB586dcejQIVezuFXM2AohhBBCXIX7qiBErOKWlxCBxi1XkcRw0ytEVLhlI4QQvritIvg4f4UQIhC4rUlE4IZH3AQ///wzBg0ahIIFC8YoLv/xj3/Eq6++igYNGuDtt9/GypUrbYru+++/37c87b777kPFihWxatUq15K4Wcx4CiGEEEJchfuqIESs4paXEIHGLVeRxHDTK0RUuGUjhBC+uK0i+Dh/hRAiELitSUTghkdECVNmb968GU2bNsVLL73EdeVrTLOdMWNGDB8+HN988427+zJHjx61AvZzzz2Hf/7zn751/OMf/8CLL76IPn364P3333d3ihvBjKMQQgghxFW4rwpCxCpueQkRaNxyFUkMN71CRIVbNkII4YvbKoKP81cIIQKB25pEBG54xHX44YcfsHbtWhQrVgx/+9vfuJ58LWXKlOjUqRP27NmDkydPurtj5rfffrOpvMuWLYtHHnnEt04aRW1GUC9evNjdKaLBjJ0QQgghxFW4rwpJlnO/AqfOAt+fAb49DXxn7Efz+9lfzPfP312h+OLiBeOQafz0KePU98D578x75vU349Tv512hpIFbXkIEGrdcRRLDTa8QUeGWjRBC+OK2iuDj/BVCiEDgtiYRgRsecQ0YtcyU23/5y1+4jq4wnv/84IMPokCBAhg2bNgtnefMe6dOnYqcOXPaNN5e/ZFtVqpUCSdOnHB3iWthxksIIYQQ4ircV4VEz2+/AV/8AOw+DizYDYxYD/RaArSbCzSeDtSbDNSaBNQ11mga0GYO0H0xMHQNMHsnsPk94MRJ4PwFV+Gt8st54POPgbe3A2vnA/PGAZMGACO7A4PaAwNbAdvrA1/VBr5uDJxsC3zbE/h+JHDaOHZuP3Dh6ixCiQW3vIQING65iiSGm14hosItGyGE8MVtFcHH+SvETfHLL7/gwoUL+P33+H5MWyRV3NYkInDDI67B/PnzuX6uME8cpjDdrFkzHD582JW+debNm4eHHnroqrY84/nT7777ristroUZLyGEEEKIq3BfFRIlFIwPfgJM2wZ0mAdUHQsUHAi83g14pj2QoS2QrjWQuhXwREvgcWN85e9pzfvp2wBPtwNe6QLk7guUHwW0nAWMWg/sPAacPucaipYzp4xDO4AFE4ARXYFu9YDmZYBaeYEqWYGKmYEKGYGyr5vXV025tMCHyYDjKYylMpba/J4B+Mhc+zQ/8EU14JvOwKmZprPvAb/HlkIe97jlJUSgcctVJDHc9AoRFW7ZCCGEL26rCD7OXyFuikWLFmHFihX49ddf3TtC3BpuaxIRuOER1+DixYsYNWoUnnjiCa4jX0uXLh3atm2LVatW2QdobhSm7t6wYQMaNmyIe++917cNGs+QHjt2rLtLXA8zZkIIIYQQV+G+KiQqvvwBmLMLaDYDKDwIeLVrSFBO48Rlis9PtQOebh8So5/tcLXxfRrLPEmx2t1P0fr5jkC+fqGo6bEbgaNfuob9+P034MT7wEJTuG8LoHlZoHpOoEImoHxGoOIbQOWsQJVsQNXsznIANY0teQH4KL25Px3wIY2idBrg+BNOmKaZn0+8BHxaGPi6JfDTUuDCt67x4OKWlxCBxi1XkcRw0ytEVLhlI4QQvritIvg4f4W4KUqUKIFcuXLZc1iFiA3c1iQicMMjouCjjz7C6NGjkTZtWvzP//wP19RVxijlQoUKYfny5fjpp5/cnTHz3nvvWVH56aefxr/+9a8Y6yxatChGjBiBI0eO2PuUJSI6zPgJIYQQQlyF+6qQKDj2dShKueJo4PXuIeGZojNF5JjE5hs11kMBm/XSXuwMFBsC9FoGvP0xcNH76smHLY/sBSb0AdpUBmrkDonOFd4IRT1TbK6Ww9+uEqGNfRiTpQ0Tpc0ro6S/qAT8OMX48JVzJni45SVEoHHLVSQx3PQKERVu2QghhC9uqwg+zl8hbphdu3Yhffr0uOeee7Bp0yb3rhC3htuaRARueMQNcOrUKcyePRvlypWz+xSHMdL+8Ic/4NVXX8X48eNx4MABd2cIHjdAMblly5ZImTKl7/205MmTo3z58jY999mzZ93d4kYw4yiEEEIIcRXuq0KgOXkKGG/+OVxiKPB8p1DUMqOdY0t4jsmeMUaBm2I0f84zEOi3EvhqzyFgUl+gRdlQhDOjnhnt7Cc4+9kNidDhRkH68ZCdeB74ojzw41Tg4vdupIKDW15CBBq3XEUSw02vEFHhlo0QQvjitorg4/wV4oZp0qSJPQ+VVrlyZZw/f95dEeLmcVuTiMANj7hJdu/ejXbt2uHuu+/mGvM17mWNGjXCnj17bDRzvnz5rMDsV9YTrylQb9261bUibhYzpkIIIYQQV+G+KgSSXy8Aa94Bqo0NRSQz8tlGPYcJxfFhTxtL1x7I1vIbTGg6FT81qghUzx5KtU0R2k9ovpbdtAjtWToXHc1U3RSjawJnNgG/B+cIL7e8hAg0brkmOc6cOYOjR49ix/ZtWL16DRYvXWZt1erV2LZ9O46+fxSnTZmkipteIaLCLRshhPDFbRXBx/krxA1x/PhxvPbaa7jjjjvsuaipUqXCO++Yf4ELcYu4rUlE4IZH3CLHjh3DgAED8Morr+Avf/kL19tV9u9//xt//OMfY7yWOXNmDBkyBF9//bWrVdwqZmxFIsZNoxBCJBhuOxJJEDfFgePT74D+K4AsPUJRzxSf/QTiuDQbCW3sPx1+R72We7CrTiucr5oHqJT55sRnz25ZhPaMYnRq82rs46zAd0OAC8H4/uyWlxCBxi3XJMF7776HqdNmoG2HTqhWszaKlyyN3PnyI3O2HHg1U1a8likL3jA/58pbwF5jmbbtO5p7ptujsZISbnqFiAq3bIQQwhe3VQQf568QN0T37t2RLFkyPPDAA7j//vvx8MMPo3Xr1u6qEDeP25pEBG54RCyyePFim6o7JsE53PigDc/AX7RoUVRnSIsbw4yxSMS4aRRCiATDbUciCeKmODD8/juw8zhQfVxICI7N855vxChAZzD2Wvuz6Nt0Ib6qWQ6omgWodgNpt2OyWBOhPXPnRn/4NPBVA+D8ITeaCYdbXkIEGrdcEy3nzp3DsqXL0Kx5SxQqWhzPvfQakqVKjUceS4Xk5jXFE+mQMk16pHLGn1M8kdZeYxmWff6lV+29TVu2xpJlK3D2XOLPwOimV4iocMtGCCF8cVtF8HH+ChE13333HfLkyYN//vOfl9Jx87zVF154AZ9++qkrJcTN4bYmEYEbHhEHbN682R4v8OCDD3L9XbL/+Z//QZo0adCqVSu8++67+J1/dRRxAte4SLy4aRRCiATDbUciCeKmOBD8ehFYsh8oNBB4qq2xdv4CcVwbBej0xnK1+w7TG43C+eoFgGoUoLNfKSbfrMW6CO1ZmpB9Vhw4s8GMqBnQBMItr4QktbGVxr43dunfH8a2GmtpLJkxP/5s7GNjXvlOxuKSa7UX376EE03bfzRWy1g++1sixC3XRMdvv/2G5StWoEat2ngtU2akeDwkLD+e7kmkffIZpHvq2aiMZXkP733sibR4NVMWU2cdrFyxyrSReP9t7qZXiKhwy0YIIXxxW0Xwcf6KAMPzUj777DP3W8IzceJEpEiRwqbh9kRoRkMzMrpfv36uVMLz1VdfWcFcJC7c1iQicMMj4hCm127RooVNt/3iiy9i1KhR+Oijj9xVEZe4ZS4SKW4ahRAiwXDbkUiCuClOcM79AkzbBmTtBTzZLmGin2k8/5kCdOE2n2NV/Z74vVpOxEr0c7jFmQhNS2vsCeCTXMBPC4HfL7gRjl/c8koIKIwuNkYfrmW/GCtvLBKJ0CGu13YWYxuM8VopvpEYccs1UcHjr1q1bYfXM2XBY4+nRsrU6W9IeI7JWEfK1OmQIlVqZMyUGa3btcMHx4+7VhMXbnqFiAq3bIQQwhe3VQQf568IKBcvXsTs2bPRo0cP907ccK0Iv/Pnz+Pbb7+157Bs374dRYoUseeiegK0Z/fddx9ef/11bNu2DYcPH7aCDtPvJBTDhw/H4MGDceFCwvzDVtwcbmsSEbjhEfEA991Tp04p8jkecctcJFLcNAohRILhtiORBHFTnKBQgJ6wGXi9W0iA9hOH48O8COiibT7DhnpdERKfb+Hs55gsTkVoGs+Kfhz4ODPw0xzg91/dSMcfbnklBP2Msf1oLcgCakKK0NciubHwCHOJ0PHEspWrULh4STyeNgNSxZL4HGmsM1XqdLaNIqatlStXu9YTD256hYgKt2yEEMIXt1UEH+evCCiM5s2UKRNy586NkydPundjH4ouO3bswLx58zBt2jQMHToUPXv2ROfOndG0aVNUqlTJpuB+6aWXkDx5chv5HClC83xong3NMjlz5kT58uXRuHFjdOrUydZFQXjq1KmYO3cuNm3ahLNnz7rWY5/vv/8eZcuWxfPPP4/333/fvSsSA25rEhG44REiSeKWuUikuGkUQogEw21HIgnipjjBuHARmLLFCdBt/cXh+DB7BnRHIH/br7C+vnHGis9xIEDT4lyEpoUL0fPNSP8WGvB4wi2v+CZSHN1rLJ0xD0ZJ1zfmXactMBZUJELHMW65Bh7+PXHcuHHIlDmbPdM5dfqnfAXk2DS2wbYyZsmGsRMn4bdE9AC5m14hosItGyGE8MVtFcHH+SsCypo1a3DHHXcgVapUGD9+vHs39uGZLStWrMCrr75q2/vb3/6GP/3pT/jrX/9qjb/fdddd9szUSPE50ljm7rvvxt///vdL93t1/etf/7JnR8+aNStOReilS5fas1z/8Y9/YMqUKe5dkRhwW5OIwA2PuA7cV3h+84wZM3DgwAH3rgg6bpmLRIqbRiGESDDcdiSSIG6KE4zF+4CsPUMCNIVgP4E4ro3tPmksa/tTWNBwIOIsAtqzeBGhaRSiU4VSc59Z70Y8fnDLK755zRjbpjHd9gvG/AiPlj5j7G5jHtcSfsPv4/sPGxsc9t5BY+Ft5jTmibX0p5uxvxoL51rtRSNCMy02z772ytDY1kZj4QK8R/gYUaS/05iXVpvGPvC+mNquYsx7L9LeNXY9cTqy3gQVsN1yDTQXfruIwcNH4LmXX7XpsuMi+jkmY1ts83nT9tARIxONEO2mV4iocMtGCCF8cVtF8HH+igBy+vRpVKtWzUYYU0wtV65cnAq3ZMmSJfY81HvuucdGNVNU5qv3c7QiNF/D7+MrReyXX37ZCtBxmSKb48bobYrgd955p42IZkS5SBy4rUlE4IZHxMA333xjMywUK1bMZmvgkHHvadKkCfbv328ftBHBJbTKRWLFTaMQQiQYbjsSSRA3xQnCtqNAvv5ABgrQCXQGNI0C9MsdfsWYxpPxa/W8iFMBmhZvIjTNCdGfFgfOH3QjH/e45RXfhAustMhI6GiIVoTeaixccPWMAvArxt4Mey/cIiOvb0WEvpYg7FmkyBs+RhScwwVomifK34wIzfEeGfa7X5R5tA8KxAtuuQYWHl81euwYPP/SK/EuQHt2SYg2PowdOz5RHKnlpleIqHDLRgghfHFbRfBx/ooAsnfvXjz66KOXIouffvppLF++3F2NO3bu3IlChQpZAdcTkW/FWMf//d//2fOi165d61qJO7Zs2YJnnnnGnlHNtimoL1u2zF0VQcdtTSICNzwiguPHj2PkyJHIkiWLffCEQxVpzOTA4wG4D/zwww/uThEkzDyJRIybRiGESDDcdiSSIG6K452PvwEqj3ER0AkoQD9tjJHQ7Zqvx0/ViyEUBZ39StE4ti1eRWha2lBq7q8aABfi5+Fxt7zim0jh1DNGBRcyFg3RitA3a5HC682K0OEpscPrZHT2YmPePZGR3pFCfaR5bdysCM3ob+/3yLZJ+P0sHxkZHq+45RpYFixajNfeyIqUT6RNEAHaMytEGx9eN74sXLTEeRdc3PQKERVu2QghhC9uqwg+zl8RMM6fP4+WLVvaKGjvrOV//vOfaNiwoSsRtxw+fBglSpSwos6tCNG899///jdy5MiBbdu2udrjDkY79unTx/r9yCOPWB+YArx+/fr2nGgRfNzWJCJwwyMMv/76q30gp06dOnj88ce9PxJEZRkzZsSwYcPwxRdfuNpEEDBzIxIxbhqFECLBcNuRSIK4KY5Xzv8K9FwSEn+faucvDseXMQq6dJsTeL92HaBalqsF47iweBehjR1PbV4zAN8NBn4/72Yi7nDLKyG4XnTwZGPXio6+ERGakb4UUXnWdLjwSwsXhiN9ilZojtaX8PdJeHuRorefCF3eWCTRCuC08GjryPvCr0WOU6Tf8Y5broHk4MGDKFi4KB57PE2CCtCe0Qf6UrhIcRx85x3nZTBx0ytEVLhlI4QQvritIvg4f0XA+PDDD5EuXTorQHuCrpfOeuvWra5U3EIfqlatatv1fLhRYxQyIxCPHj3qao1beBZs1qxZbbvhqcNTpEhhI7xF8HFbk4jADc9tDaOYed47U+zzoRwOS6Tx7Pn06dOjQoUKSJs2Lf7rv/7Ltxz310GDBuGDDz5wtYuExMyJSMS4aRRCiATDbUciCeKmOF5Zuh/I0gNI38ZfGI4ve8rYa+3PYVGDgfjdRj/HcRpuzxJChKYdT2nayxwv50O75ZVQXE+IpjEVtV90dLTCb2SU77WE5kjRNvzazYrQ1+JaKa8jRWi/lNnkZkVoEj5O4fXHFL2dYLjlGjjOnjuHJk2bIcXjqZEmw9O+onBCGH157Im0aNKiJc6dj/uHWW4WN71CRIVbNkII4YvbKoKP81cEjAEDBlgB+v77779C1GVUb5cuXVypuOfbb79F27Ztr/AhGqMATP/r1atnz2qNL8aNG2fPzw6P3qYvd9xxBzp37oxz5suyCDZuaxIRuOG5LTly5Ah69OhhU/pTZOZwRBpT/hctWtSK1B9//LG97+LFi3ZPyJMnD/785z/73nfvvfeiXbt2StmfwJi5EIkYN41CCJFguO1IJEHcFMcbn34HVBoNpGuTsGm4bRS2sfbN1+GnGkURb1HQtIQSoWnHUgBf1gEufOlmJG5wyyshud8Yz2UOF0v9LFLYjVaEjkwlHSnuXis6OFqh+UZEaPY3i7HBxsL7fD0ROqY6b0WEDm8jXKwPfz/BU3ETt1wDx4yZs/HiS6/g8TTpfcXghLRUaTLghZdfxazZs523wcNNrxBR4ZaNEEL44raK4OP8FfHA77//jgsXLlj75ZdfrCB69uxZ/PTTT/j6669t5PE777yDlStX4vnnn79KgKYxtXWmTJkwd+5cmzKb9/Be1sG6WCfr9tphm7cK62zSpIkVf6JJze2lDi9VqhTOnDnjark1Yhq3kydP4sSJEzYCesGCBTbtd0yR288++yxmzZqFQ4cO2XNkOW6nTp26NG5Mgc40vxSuYmPcxM3htiYRgRue2wZ+Pjdv3oyOHTteM+U2P+88uoDpuU+fPu3uvhJ+rilOFytWLEYx+n/+53+siD1v3jy7J4j4xcyBSMS4aRRCiATDbUciCeKmON4YuQ54vhOQoa2/OBxfRgE6V7vvsK9OM6AqBeg4Pgc63BJShP4wjbGngVMz3IzEDW55BQUKtNWMbTB26d8nziJF2tgQoW+kzlsRoXn+M0Vn77qfXU+EjhSQPW5FhI6817t+rRTiCYJbroHiq5PfoEKVang0xeO+InAQjL5VqloDJ+MxIOZGcNMrRFS4ZSOEEL64rSL4OH9FPEChc9OmTejevTvq1q1rU11TFKGozLSxqVKlspYsWbIr0nBHGiN7H330UVuW4gzv5TmnFFCqVatmz43u1KkT1qxZY8WX2ICRghRv/Pzxs7/97W82HW5swHOeeZ50165d0ahRI1SvXt2OW+bMmW1K3fBx8xPuPeO4sUz4uL322msoUqSInQvOSYcOHbBu3bpYE8/FjeO2JhGBG54kDR8y4YM1M2bMQKFChWKMev7v//5v+9kdOXIkdu/ebfeIaOB+uHfvXpQsWRKpU6e+VF94ym6K0blz58bkyZOtEH4jsO7BgwfbDBB8mChav4Q+94kdN41CCJFguO1IJEHcFMcLhz4Fig0B0rb2F4bjy7wo6D5NF+Fc9QJAtcxXC8VxaQkqQhtjNPQXFc2X91B2o7jALa8gwnOJ6xu79O8TY9EKv0ESodleZJT3RmNMMZ4z7L2EEKFJZEru8POgI31KMNxyDRRTp03H08+9iCfSPekrAAfB6Nszxsdp0+L2YZabxU2vEFHhlo0QQvjitorg4/wV8QCja3meM88spij6yCOPXBKceYaxZ0wPG36ecaTx2n333XfFPazDq49CbJYsWWwUYWzw0UcfoXjx4jYVuJ8/kcZIaKbGzZkzp703Njhw4IBNqcuoR/aRIjzHgWMV7bjR/MaNddH4c7Zs2bB69WpFQicgbmsSEbjhSdJ88cUXyJ49O9eArzHDQqVKlTB27Fh8/vnn7q6b47PPPkPv3r3tgywxnRv9wgsv2L3nelA4b9q0qd2bvHv//ve/24dlpk+f7kqJa2HGTCRi3DQKIUSC4bYjkQRxUxwv9F8JPN0OeMqYnzgcX0YBOnfbbxMmCpqW0CL0h2mNZQB+5PfouPl3uVte8cm1RNNIwgVRWvi5xdeqJygidKT/N+LLta6Fcy2/ohGhw8swJfeLYb8HIhU3ccs1MJw58zPqN2iIR5Kl8BV/g2QPPZYK9Rs1wc8//+y8Dw5ueoWICrdshBDCF7dVBB/nr4hHDh48iLJly1rRlOYnlt6MUURlfYzsZcrp2ILR288995wVeCNF3phEX4q9zzzzDBYuXOhquXXee+89O24Uj68V8XyjRl/vvPNOG3m5Y8cOCdAJjNuaRARueJI0/PwxypndpVEcDheIK1eujB9//NGVvnWYnaJnz5743//930vteW151qZNG1f6Shi1vWvXLpsKPE2aNFfd5xn78/TTT9uz/G9VOE/KmLESiRg3jUIIkWC47UgkQdwUxznHvgbKjADStPIXhuPLGAWdwVjPZkvxc/VCiPcoaFqCi9DGjqcEvqhkvnTHTTS0W17xSaQwG34WcSSRAmtiE6GvJwJXMeZdSygROnI+tob9HF5XguKWa2DYuGkzsmbPhZSp0/kKv0Ey+pg1Ry7rc9Bw0ytEVLhlI4QQvritIvg4f0U888knn9j0zxRU77777qjOWr6WUZSlmEqRJraFDp6jTD8jfaTfFL7Zdvg5zJ4wzfIDBw50tcQO3333nT2fmvWzv16bN2P0j3UwwrtMmTL2XGmR8LitSUTghidJ8/3331tRmKItuxxpPBKA575PmTLFnud+s3zwwQcYMWIE8ufPjz/96U++4jP3PGaA2Llzp7srBIVrpgvnNZ7RH3nftYz7TrNmzWItS0VSwoyPSMS4aRRCiATDbUciCeKmOM6Z9FboLOgnA3AW9OvtzmJzvY5AVQrQ8RwFTQuCCG3Phv4PcHqZm6HYxS2v+CZcYKUdNMb01OGkNhZ5NnS4iJoUROhwP+NChI68Ns6YH+FiuGfXajPeccs1MAwdNhwpnkiLNBme9hV+g2T0kb4OHTHSeR8c3PQKERVu2QghhC9uqwg+zl+RAJw8eRLNmze3Yu6tCNEUSyim1q5dG99++62rPfbo16+fFWrYFn1ktDXFF0ZHt2jRwhrPpGY0cbhYzfNceYZzbEMRqGPHjrYdtne9FNwxGceMfalRowY+/jjuzpsSN4bbmkQEbnhuC/ggDc9W5tnt7Lqfvfrqq1aMpnAdLe+//74VudOnT+9bJ+3JJ5+0Uct79uy5IisCI5+HDh1qjxmI6axqnjPNvWnOnDkoUaKEPV/arxyPKyhcuDDGjRsXa+f2J3bMuIhEjJtGIYRIMNx2JJIgborjlO/PAI2mAqkTOAqalr4jUK/lXnxVsxxQ9Q1/kTiuLRAitLHjqYCT7YGLN//waUy45RXfREbfRmORYvK1xNegiNCR7zPqO50x9j/yvOv4EKE9i4w+jxTLaYFJxU3ccg0EZ8+eRZNmLfBQIkjF7Rl9bdK8pfU9SLjpFSIq3LIRQghf3FYRfJy/IoE4ffo0evToYc8SpaDqJ5bGZBRhGYGcIkUKtG7dOlbT1HpQ4KlTpw54Fivb4+tjjz2GqlWr2rOTPbZt24Z69erhiSeesGeh0j++li5dGj/88IMrFXtcvHjRikn0JTwKO1qjAM0ztCkY3UpEpYh93NYkInDDc1vBh2r4EAyF4fA03Z7xvZQpU2LIkCE4duyYu+tKuMcuXrwYtWrVQvLkya+qw7MMGTKge/fuOH78uLszBM+p7t+/P1577TXfiOk//vGPeP7559G2bVscOXLE3QUrLm/fvh3169e/4qzocPvDH/5gH+ah4P7VV1+5O29PzHiIRIybRiGESDDcdiSSIG6K45Qt7wO5+wLp2vgLw/FlTMX9dEdgSqMx+L1aTqBatqsF4viwwIjQqYFPcgHnY++oMQ+3vBKCGxGiGSkdmbL7WuJrUERoEt7e9Sw8Ujo2RGgSPhaeRYrQfnMRWU+C4pZrIHj3vfdRskwFJH88ja/gG0SjryXLlMO7777nehEM3PQKERVu2QghhC9uqwg+zl+RgDDabuLEiXj22Wdv6KxjluU9TCsbV9F0Bw4cQLZs2WzKaoq9BQoUwNSpU200ciS//fYb5s6da9PU0jeK0IyQpkAdVzCS8KWXXrqhcWPkdNq0aTFo0CBcuHDB1SSCgtuaRARueG5L+KAIo56zZMni/XHgKnv00UfRvn37S+mzKWAzIpl7VkwRybS8efOib9++Nkrag/vp22+/bVNn82x7P/GZ50hnzZoVw4YNs8cEXIujR4+ia9euVsiOrMczCtlsb+XKle6u2wszBiIR46ZRCCESDLcdiSSIm+I4ZcwG4Ol2xtr7i8PxZUzFna3dKeyo2xqomhEJkoqbFhQR+sN0wPE0wE8LzSxdzlAUG7jllZAw7fZgY3uMXfo3gbF3jU029pQxPxKLCE2yGAtPLc52mRqbfsXka2yJ0BSY3zTmXaetMRYp6l/rfOoExy3XQLBh01vIwvOg06T3FXyDaPQ1S/ac2Lhxk+tFMHDTK0RUuGUjhBC+uK0i+Dh/RQBgxDHPWI42vTRTujIVdlwKqcuXL7ept1988UX06tULJ06ccFdi5ssvv8SAAQPw+uuvW3F4woQJ7krc0KZNG5vOPJpxYxlGQJcsWdJGU4vg4bYmEYEbntsaZntYu3atFX/vuOMO748FVxgzSuTJk8eWiUl8ZiYE74GayCMM1q9fb69xL/a7l/UzE8SKFStuOIsCxerZs2ejYMGC9nxrv/r58A5TdS9cyD+23T6YvotEjJtGIYRIMNx2JJIgborjjNNngVazgCda+gvD8WnpOgK1Wr2NT2tVBqpm8heI48MCJUI/DpzsDPz2k5ux2MEtLyHCRehApeImbrkGgvkLF+HZF17CE+me9BV8g2j09dnnX8KC+QtcL4KBm14hosItGyGE8MVtFcHH+St8YDQco3vjizJlylgx1U889TOewVy9enV8/fXXrobYhSItI5spuOzYscO9Gz179+61Z0KPGjXqirNVY5MzZ86gYcOGdjyiFaFpOXLkwM8//+xqiXt4nqyIDrc1iQjc8AgD9+XDhw+jYsWKNksDhyca40MxPDZgy5Ytvns7U/z/7W9/u+IeLwqaKbW5n23evNmVvnm4H1DE5oNHTz/99KU2wiOumaqb/vhlnUiKmD6LRIybRiGESDDcdiSSIG6K44wjn5l/hw8H0gbgPOi0HYG+TRfgXPUCQNUs/gJxfFhgRGhjTMn9WUng14/djMUObnmJ2xtGaoefCR0ZTZ3guOUaCCZPmYrH0z6JNBme9hV8g2j0NXXaDJgydarrRTBw0ytEVLhlI4QQvritIvg4f0UEZ8+exfDhw/HNN9+4d+IWRshlypTJRjfz7GU/ATXcKKSy3Msvv4x33nnH1RK7UKTheai3cmYyz2P9+OOP40zM5zmqb7zxho1u9hsnP2MkY+rUqa1f8QEj1YcOHRpnDwskNdzWJCJwwyMi2Lp1q80IcS0xmmdKv/nmm7bstR6IYYaE8PsoCnvCMM+fZ0rw2MqgwD2RKcAzZ858VVue0e/bZd8w/RWJGDeNQgiRYLjtSCRB3BTHGavNP6Uz9wCebOsvDMeX2fOgO/yOOQ0GA1UzI8HOg6YFSYT+MI1p/xXg3H43Y7GDW17i9iMyjbdnkedFBwK3XAPB6DHj8GiKx5H2yWd8Bd8gGn19LOUTGDc+brMz3ihueoWICrdshBDCF7dVBB/nr4hgyZIlyJAhA7Zv3+7eiVvWrVtnI+IY3RwumHqRu56FX6MIzcg+po+9XTly5Ig9C9bvTOiYxu3ee+9F8uTJsWbNGldL3PLee+/ZtcRzv8X1cVuTiMANj4gBnrvMKGcvjfY//vEP+2DPkCFD8O6777pS14bpvjt06IAnnnjC1hFpTKFN0XjatGk3/XAORezVq1ejSpUql4TzSPGZ+1ndunVtBorb5dgA02+RiHHTKIQQCYbbjkQSxE1xnDHxrZAAndDnQT9pLHP709hYrxMS9DxoWqBE6LTGMgCnl7kZix3c8hK3HzGJ0IGLgiZuuQaCUaPH4pHHUiU6ETp5yscxbtw414tg4KZXiKhwy0YIIXxxW0Xwcf6KCCpUqGAjZps1axYv6VAHDhyIxx9/3Aoo4SIqf/fOO+Y5puHXaTw/lNF5tyvLli2zojLHxhsTjhFFHL7yGn8OF6L5O6Mau3btGmdpwsNhO3xgIF++fDZ9uLg2bmsSEbjhEdfhwIEDaN68OWbOnHnTn7effvoJgwYNsg+PcOj9LFu2bOjfv7/NYhEt3KsrV65sM1741cl9iuLztm3b3B23D6b/IhHjplEIIRIMtx2JJIib4jjh4m9A76Wh86AZiewnDseXpe8IFGnzGQ7UaeRE6DBROL4tUCJ0OmNpgR/GmBm7EJq4WMAtL3H78Udji415/wZ711h5Y4HELddAMH7iRKR4Ik2iS8edKnVaTJo0yfUiGLjpFSIq3LIRQghf3FYRfJy/IgwKAP/5z3/w73//G+nTp8fx48fdlbiDwgNF70gRlUIHhdaVK1ciT548VlT1hFS+0kemoqVocrvBc1UZtUiBl2PljRsF6SxZsmDRokVYu3YtChcubK95Ij6FHt5TqlSpOEsT7nHy5EkbjcmIR0Zfx8Z5skkdtzWJCNzwiHjg2LFjOH/+PD777DNMnz7dfoZ5RjOnIdKYMpvCMjMe+O0nP/zwg82CUKRIEfzpT3/yrYN7Es+H3rlzZ5zvSUHFjINIxLhpFEKIBMNtRyIJ4qY4Tjh1Fmg7B0jd0l8Yjk/jedDVWh3GR7WqAlUzXS0Mx6cFTYTmudDfdAV+/9nN3K3jlpcQgcYt10Awc/YcZHjmP0id/ilfwTeIRl+fND7Pmj3b9SIYuOkVIircshFCCF/cVhF8nL8iDEbReZHHfO3Xr5+7EjdQ7KBQyqhmCtEUSp999lkMHjzYnsnsQUFzxIgR9hrFVgrS9C9v3rw4ceKEK3U1PFOUQsrYsWNtGprEYGPGjMGMGTPwySefuF5cDc+bLlq0qD0PmnNFS5MmDXr06IEvv/zSlQK+/fZbjB8/Hi+++KIdW47bXXfdZX9n+t24hKmAU6ZMaduk8F2zZs3bVmSKFrc1iQjc8Ig4gme38yGRJk2a2EwJ3GPbtWtn91Zmw5ht/uHKvZZT4WfcvytWrIhNmzbZzzgjpBn5zAeJ/vd//9f3Hh7B0KBBA3tW9e2OGQ+RiHHTKIQQCYbbjkQSxE1xnPCl+adg/SlA6lb+wnB8WuqOQLMWW/FtjdIInQkdJgrHtwVRhP6qEXDxezdzt45bXkIEGrdcA8GKVWvwasbMeDxtBl/BN4j2eNonrc8rV61yvQgGbnqFiAq3bIQQwhe3VQQf569wMOr5jTfesJGrjDSmsPnaa69ZATiuOHz4sBVEmaI1VapUaNiwoT3D1O8sUIob77//Pho3bmzPLaW4mSxZMuzfv9+VuJpDhw4he/bsVrD2IoGDbJ5Q/Morr2Djxo2uF1dDoZljwHO0OW41atTAO++8Y8WkSJh2+6OPPrIPGPAezi/Tn19r3G6Vs2fPokCBArjjjjvsWmJadUbWc75FzLitSUTghkfEMt9//z2WL19uP6t//etfuf6uMJ45z2MZPvzwQ1ueWSm4/0aW84zZKYoXL47cuXPHGPlM8bl79+74+OOPbZ1Cn/vEjptGIYRIMNx2JJIgborjhBPfAFXHAWlb+wvD8WlPdAK6NFuFM9ULGaey+IvD8WVBFKG/qAZcNBMWS7jlJUSgccs1EOzbtw8FCxdDiifS+gq+QbQUT6RDAePzvn1x93e/m8FNrxBR4ZaNEEL44raK4OP8FY7evXtb0YFCqCdCM40yI2njCkYoP/XUU8ifPz/Wr1/vK6JGQoGaEXcUOxjVu2DBghjPNz548CAyZ85shV2aFzV8PWMkYEzmV57mV9Yzv/IxGYXl559/HuvWrXO9uBL2lf1PkSIFcuXKZVOWRztu27dvtxHU6dKls9HmccW8efNsGxSfuZa4phi1zfTpImbc1iQicMMjYglmSBg6dCgyZsyIf/7zn1x31zRmqShTpsylh0iYqrt+/fr2M+1X3s/44MvAgQPtQ0biSsz4iESMm8ZY4ffffrPZB079dBo/nvopTu37H0/hp9Nn8MuvF/Cr+Q7x89lz5v3T+MFej5v2fzh1ytrPZ8/aNs//8itOn/nZvc8ycdHuaXxv6j9l+nr+/C/2+xKz8HCMOQZx1Ve2yVe2dcF8/zpn2qYP3hhElr91C/WDdZ86fRpnz5+zY3zunOtrnLRJu7xmfv75rFlPv9o1dfrMWdtm6FocmunbGdNuaD2ZMf4pNMa+ZWPB2J9Txs6Ydfur6WtQcNuRSIK4KY4T3vsCKDcyOCJ076aL8Gv1vEC1rFcLw/FpgRKhjR1PY758lwMufO1m7tZxy0uIQOOWayBghsWadcy/f1M87iv4BtHoa8069fB1HAYV3QxueoWICrdshBDCF7dVBB/nrzAwNTOFYEYkUzSkMTKXAiqj5KIROW+GqVOnYtiwYfbs0BuFf9ijkDJnzhx7RrIfjA5mSlgv0tjrW0zmnbHMcfCzf/zjH5fOrw43vhdTeZqXkjryPj9j2ZdeesmK8n5QTGZ63OHDh99USu2ff/7ZpsrluMck3t8qVapUuRQF7RnF9ZdffhlfffWVKyUicVuTiMANT5KHafb5AAcFXh6FENufFYrH3C8pPv/Xf/0X19tVxmwYfPjI7xqtQoUKmDlzpq2P/xjnEQB84MSvLO0///kPunbtik8//dTecy1i2seTOmacRCLGTWOscPbcebx95H0sXrcZc1asxVxj81etD9nKmzDv3vD7zc/zVq7D9MUrsXLzdnz46ef46POvsGXP2+baBsxattpcj7gn3PzqjPLazKWrbP07DxzCp1+exNETn2Lttl32/dnL1pgyG66+91p1Xs/MPXNXhPq6dMNbOHT0OL44+a19XbR2I6YvWnHtvsZk4T5F3uvem75kJeaacWZbX333Pd4xr8s3brF9nbOcfY24L+zeq67F9H64mbHjemH97Os+s444xu+8fxwL15i+Gn+uqiOaeq9l7l5vzXANHf/kc7umNuzYi5lL2FezhiPvu5bF5FP4+8a4hmns21um3Y+/+Arvn/gYyzZsMWuJ/qyL+f5o3o/B2J8FpuzGnXvxiWkzjr5G3zBuOxJJEDfFccLhz4DSw4MjQvdtuhAXq+eBROgIsyJ0aeBC7P27wC0vIQKNW66BgFkZu/XohYeTp/QVfINmaY09/FhK9OjZE78F5cuKw02vEFHhlo0QQvjitorg4/y9LaH4yGgbighMtdq/f3+kTp3ais7hwiEjWZnCmaIny7E874sN6ENsiA70xy99N7lREZoCNM8xzpMnjz0DNdIoyD/55JOXyrNORgNmyJDBt3y+fPlsXWnTpr1qbGOy64nQHDcKybcKRfzYOqOZdX3zzTc27TdFNEZyU3QO7xejvHneLFPxMvU7U4qzH3ElhCdG3NYkInDDk2Th52f+/PkoUqSIPV+ZXaZxX+Hn5VbOb2ek1p49ezBy5Ej7EIhXd7hRkH7hhRfsgy08i/+9996zD6ow1X9MYvWrr75q6+QDRPwsszyjnZmGm3147rnnMHny5CvOqI8J/ndg9+7dqFSpEkqUKIEDBw7cVufHm/EUiRg3jbHCdz+cwoylq9Coe39Ua90NNdp0Q+0OPULW/ibMuzfs/jrm55rtuqNM47Zo1384NuzYg7d2v40BE6ajTseeqNyiE2q1fzPmNn3qjOZanQ49UbFZR1N/Z4yeuQA73z6MlZt3oOvQsajYvCOqtOpi27/q3mvUeT1jmzXadkfZxu3QrOdAzF21HnuPvI95qzagYdc+KNOore0ry/ndH6OF+xTpl3uvbJP2qGHGee7K9VaAnrtqHVr1HmzHoFqbrv5tXqfOq94Ps1Bfu9mxbGr6OmXhcuwwYzx3xXrU79zb+nNVHVHUe01z91Yya6amGceBE2dg/fY9dk31HDkRFZp2QHWzjuv43RuTxeRT+PvGarV7065j9o1rd8veA1i+aSta9BqEKi07h9ZwTPdH834MVq11V9Q167T3mCnYeeCw+W9VML7Duu1IJEHcFMcJRyRC+xtF6FrZgWXPAx+nC4gIXUYitLjtcMs1MMxfsAjPv/RaojgXmudBP//SK8bnBc774OCmV4iocMtGCCF8cVtF8HH+Jml45ueWLVts+uYlS5ZgxowZGDdunBWd27VrZ//oX6hQIRvJRpEwXDQMN15nucqVK9v7Bg0aZOthRNzSpUtt/Uz1fCtiSVxwIyI0I5WZmpaRgF6KPQoh4UZat25ty7I+itZMi81zUz0xNbI862Jk8N/+9jffdiPteiJ0QnHmzBls3brVzjVTgM+aNcumamda706dOqFatWo21fczzzxjx8cv8ptjRmGLYn758uXtWDLik2nZp0+fjsWLF9v6eR727Rgx7bYmEYEbniTHBx98YPdifm6YMYFd9TOefT9kyBBb/kbg55RnwTMrgV+9fFCED8pMmDDBPkASyU8//YRJkybZM+r97qfxOIURI0bg1KlT9h7+94YPLUXz3wLumfzvUtOmTe150l6d3CtLly6NVatWxfiAUVLC9FkkYtw0xgonv/seI2fMQ9lGbZGvakMUqN4IRWo3vSkr7Czy/aJ1mqFQzcbIUrYGarbtZiOCGT3arv8wFDPXcleuh8K1mlx1n7Va/nVGY6w7Z8U6yF2lHnqOnIB1W3di1tLVaNilN3JWqoO8VevbMl55r51rtWevGZ88iyzLvhas0RhZy9VExWbtMXb2QmzatRfjZy9C6Qat7BiwrywXfl+0di3fspavhQJmnMfOWoDt+w5i3OwFqNqykx2D/NUb+rZ5rfpo17oe6msjO5bs65BJM7Bmy06MmbkQJeq1sP5E3nO99jy7VI7jHPa+Z7kq10UhM47tB4zAgtUbbXRysx4DkKNibd++RtvutYzzxnVcon4Lu3aXb96GGUtWonKLjshTpf5Vazi8zZttn/flq9YAxeo2Q8veQ2y0t/ddP6Fx25FIgrgpjhOOfgmUHyUR+iqjCF07O7DieeCTIIjQqYHPywMXlY5b3F645RoYPjrxEcpVqIRHE0FKbvpYtkIFfHjihPM+OLjpFSIq3LIRQghf3FYRfJy/SZqPP/4Y1atXt8ImhYi//vWvNkqNxp8jUybHZJ7oyvIUCHg/X1kHz2XmdQqxn3/+uWs5GNysCH0t4aNNmzY2+jlchKbQExOsq2rVqolehOY5snwAgeeGU7xif8LXAkUkjoef+Bxu3nWvjsj1yNTmpUqVwpEjR1zLtw9uaxIRuOFJMmzbts2ej86MAexetMYsDdx/jh496mq6GmYXWLRo0aUHX/zq4WevbNmyWLt2bVRnWjJSm1HNr7/+um99NKbd5v4QTeQz047zLP+KFSvaz71ffTT6z4efGGWdlMVo01eRiHHTGCtQhB4xbQ7KNGyNfFUaIH+1hlZMCwlqodcC1Rsib5V6yF2pLvKYV4p8FOOKXFGmEfJUrW+v82evjlA9Ta1YmaVMddRo2xULVq3DkrWb0LbvEBSt0xS5K9dFYVNfUZY1xrrzV2tgxWley1O1AQqY+0N1hcrw51C5hshjytC3fFXqo6B5z5YzVtS0m7NibeSuUhc9ho/Dqs1bMWPxCjTo1Mu+n8/4WoxCnynLPtJ3r4/8vXCty32ksW4K1yyTi+J2pTqmba8sy4SEw4Km/1nL1UCFpu0weuZ8rN++C2NnzUepBi2RpWx121dvTLz6WA/Fxkvj6sz6FlaOY8KxYTle84xls5WvaescPWMetuzejzEz56FKi47IWaG2vYdjzbK2Xa+vtr7QfIbXd61yl/wzfWDfOZbs66AJ07By0zaMmj4PxSlCl6tp6/H6wfryhfXD669XJryc7S/n3lh+M/9871K7xnKZsee9bfsNu5QGu2n3/shu+sp67VyE1UeROFTf5fHzrke2z/XNdiPnlvewruL1mqONWbtL17+FaYuWo1JzitD1LvWFdqmvrg/82WvTs0JmfdEXtsP+cn2F++0Zr3HuGHG9YfseidAiznFTHCd89C1QbTyQppW/MByfFigRuoqxutmBtc8Bn6bzF4bjzUz7FKG/rAFc/MbN3K3jlpdIGP5s7GNj3r95OhkTPrjlGhj4AHWffgOQ4om0SJPhaV/xNwhG31KkTou+A/oHMuugm14hosItmwSHnyR+648rU35QIW4Ot1UEH+dvkufgwYMoU6aMFYv9xMDribOe+ZWj6Mh6KXgwXXfQuFkR+lpnYMckQsf0BS+pREITRic3adLE9tvP92jGmeZXhuPPtUTRad++fa7F2wu3NYkI3PAkaviHaj4UxM8PU/OzW5H2xz/+ETly5LCZAXgudEwRzPysdOjQAe+//76rHTh79qxNhc+o6piEXT4owgwEq1evtsLyjcLU2xS4CxcuHKPATd94FAEzY0TCbAqMlC5YsCD+/Oc/+97vZ3/4wx9sNg5mXOAYJjVMH0Uixk1jrEARmkJp+SbtUbAGRa+mVkAsXre5taK1m1kxl5GtpRq0Qsn6LUPv12l2qQytGF9NGZajXa4j9DvryFGhDmq3fxMLVq/HknWb0b7/cFtfKNKzOUqYsoxMZpu8t2SDlijVsBWKmzJFWVcdr71Q3SzL+0rVp28tzf2h69YX225LKz7mr97ARkKvYuTq4pVo1KUv8lYJCZtem7SStp7W1qdQ3aH6Q20aY99cW2VMOQr3pY1/JU07Xhm2WcT4z+hjphkfM3MB1m/fbaOSyzZuayN1Wbf107x641rKjWuo3ctt8meONdtlJDXb9t6zZew4h8aDwizHjm2+tXu/Fb6rt+5i+hqK0mVbtn7brhm3sPn0fLJzx9/te/yd5VpeHhOvXVvW9NWsF45x5eYdMWTiDDvGXE+lzdjkrFjXlDNj5uqib6H+sj4zr+b9yHVEC/lnypmxpY+sg+uHdYT62gL5qjaw66HDgOGYv2qdPTO5eY+BVtwuVDPU11Bdofr486V+uDZC4+zWq/3ZvO9eWY5mr12qK7Q2S5u5b99vOJZteAvTFy1H1VadwQcvQv6F6vD6xTpKG/Pu93zxylHQLm7m1lqYH14/aXadmrFu3WcINioSWsQDborjhK9/BBpOBVJLhL7SKEI3zAZs/g/wWUBE6K+bm39MxF7GObe8RMIgETpK3HINFPv27UfeAoWQ/PE0vgJwEIy+5S1QGPv273deBws3vUJEhVs2gSCuhGLWKxFaiJvDbRXBx/l7W8AI5YYNG9qU29GIhNEYxVJa3bp1o4p+SwgkQsc+jGLs2LGjFdLoq18fbsZ4/jgjI4P4MEN84bYmEYEbnkQJPy9jxoyxRx9w32B3Iu1///d/kSVLFhtt/N1337k7QxHTvI+Ry373JU+e3O5HFGYZhRwpDHvnOfMce2aqYOTztfa2aGEdrIt7PzMXhLfpGQX1adOm2fJM683IZ6b+/r//+z/f8unTp0e9evVsiv5rpf/mntujRw/7cFVSwfRLJGLcNMYKl0Topu2teEcROiTKUfgLCWaVm3dCq16D0X3YWLTrNxy12na34lpRJyzy52qtO9tIzdZ9htpzpT1xlHWVNFbMlMtZoS5qt3sTc1euxaLVG21dFF8ZeeoJghRwS9VvhbodeqLTwJHoOmSMFRcZbWoFY3O9mHmlXxSBKWp36D/clmMkbMVmHawYyDIU7ig2s/43h4/Hio1bMH3hCitCM/U4xT3Wx3prtO5iI7O72T4Os2nD6Rv7R2O5Ss072JTP3YaOQd/Rk6yw3dH4WLt9d+sPBVkK0iERuq4VoUdPnxdKUT1rPspZETokFLO/7FPzngPtGdWsp17HnijbqI0d15CQGRKFK5nxb2HKdTftdhw4Ajxju2SDVk70DI0x+8CoW4qfjETeuHMvxsyYZ+aiqx0DitBFa5vy5h4Kxi17DjL9GIsOA0bYOeGYXxZ5zavpB/1nu7Zcf69caN5Z1q4B02fWz5TUgydMx3IzxqNMu2UatkGuSvVcfVxLzVG+STs06dYP3YaMtnNbr1NPK1bb+XLGOeMcci67mDntbMo27NInNC5m3Lz68pv5Y1/4IMPcFWvsmmpm1kmeyvVRuGZoDdv+GKtk6mv2Zn+7Rjpw/Nr3sOI2o45Zl1eW/eK6ZT87DxqFjmZsarULrXWWtSKy8YEPIHDtMpp/6oKlIRGaa4n323lrZh84oN+dB49GV2ONzM/lGrW117w1VdqMUYPOvdBuwHD72eE51/z8WT/ol7NCNRrbddWK6bgVCS3iATfFccLpc0CHuUDqlv7CcHxaoEToyjmB1lmAHc8EJxL6mx7Ab2fdzN06bnmJhEEidJS45Ro4evbuY8+FTp3+KV8ROCGNPtG3nn36OW+Dh5teIaLCLZsEwYtSjuS33363mfouXrh5u8DXi8H4d0RiIVxxufBbaAw9JOLfvritIvg4f28beGYnxUM/AfBGjYIhU8N26dLFnjsdVCRCxw2Muuzbt69dA1wLfv2I1vhgBCM+a9eujS+++MK1cHvitiYRgRueRMWxY8fQvXt3ZM6c2YrM7Eakcf3XrFkTc+bMwTffxJxij2J0jRo1rjg3OdzSpElzhbhL8dkToGkUoXnWemzC9PyjRo2yffDaCTdGOlMY55nPzG4QU+Q00/szwjlcVGbdCxcuRMmSJfGnP/3J9z7uwY0bN8aBAwcCmWbsRjD9EYkYN42xwtfffmdFy3JNLovQxeqEBGgaBWeKraOnz7fnGo+esQC9Rk5E/Y49wWhWCn7VW3VFjxHjMW3hcoybvdCKxhTzQqJcSEijCElhtqapb8aSVVY4pGBNcS1/NZ5D3QyFTNtlGrVFs+4DMHD8dEyYswhjZs7HsCmzrShYtUUXFKvdwvhIMbKlFfn6jp2CEdNm23ZHTJtrxUGKmGyPdeat0tCmkaaQunjNJkyetwQNOvVBnsoNbDQt+1CnQ0/0HjXRRg6zPYryPU0f65n3GfXKM545NhSJB06Yjsnzl2KKsRFT55j7JqF+5162r4Ws+BkSoXOZvlJkHm58X75hq/WNwmy2srXs+FZv3RVdhow24znftLvQptAeMH4amnbvZ8YgJERzPKq17IKuQ8Zi2NTZ1jeK2exz4279rG8c/5CQ2hK5KtW1bXO81mzZgeHGv2qtulhhln1gndXN7z2Gj8cY0y7HjG33Hj3JjElv6x/7wL5UNeUoUDNV++R5SzF+1iLb90Zd+1r/C5vxYLsU3ilCV2zWEf2NX4vWbLB9pm+5Tbv0h8brbfsOs75xDsbNWoDBE2fYtUJBmPXRv0qmHOeQ14ZOnmX8W2DumWVFcwq7oTOim6GAWTMUmNv2HYqZi1di5pKVaNK9v43K5piwLvrJOWA/RprxZ3/Hz1mMQabuxqYfbNeuc1M2tPaboFrrLug7ZgrmLFtj57iNWaOMQLfjx7LG2De+zwjsCXMXoUqLTjYSuohZlxw7PtDBhwvYznizhsdzbU6da30t25hj3MR8JlqiQec+po8zMWv5aoyYPseuQ34Wwh8EoRWqwcjulqbOQVi7ZScu/HrrD3bFBm47EkkQN8VxAr8+DVgJPNESeMZHGI5PC5QIXSkn8OYbwL6nQ2dC+4rD8WVs39iPE82Exd7RNG55iYRBInSUuOUaOHg0VonSZZA8VWpfITjh7Bk8lvIJlCxV5prHdyU0bnqFiAq3bBKc9778DBNXLEKHEQNRt2cn1HyzPWr06GCt+k1Ze1Tv2QGtRg/Cgi0bcPqXX1xLIib4V7/zFy5g1ILZqNyllbVWIwfgs6+/lAh9G+O2iuDj/L2t4HmhjCKj8Eex83rCrJ8xZTJTozK679y5c67mYHLo0KEEPxOagvbNiNAbNmxwNQQTjhEjHXmuLdeEX1+uZ+wrx71ly5Y4efKkq/n2xW1NIgI3PIkCRiVzb2RkL133M17jPvzee++5u6LjxIkT9mENfnb86o0Un733+Mr9h3vbihUrbilzxWeffWbPaH7mmWeuaMcz7qGpUqWyUc9Myx1T5PMLL7xgx4APCsUE98633nrLpv/mXutXD+vn+dZMMR7kB6KuhemHSMS4aYwVvvj6GytWlm3czopjVuSr1cwKeeUatkW3IWMwa+kqK4D2HDEBQyfNtKJazxHjrdjLcg079cbIafOwfMNb9szl1r2HWBGNgh1FOU+EpkjKyNxJ85Zg6sLlaNFzkC1H4Y3iZ0HTfv2OvTB8yhxMWbAMQybNsGc5h4TaBWjZc7AVSpk2nJG6jDKdvIBicEignbVsNYZOnIm67XvYfjCClBHPFCwpYs8211mOYjKjdJm6mSJtD9OvKaaekdPnWLGa4ifFwzeHjbNicb5qpo7qjaxATMGeIuqIKbNtZHir3oNtHRQ8OW4UC9nv3KZ+RuBSuJ2/ar0VJCleZi5dHWUbtUWnQSMxYd4i2w7bp4A7ae5i9Bs72UbfUhhlPynScqzGm2sUi4ebvk5duAyDTL3VWna2ArsdY9Mu26QPbHPJuk2mzemoasrwfQruFEAZ3Ttj0UpMnLPYPlwwzPZ1oX2wwPbVjBfbptjcd8xkKwBTEB43a6FNed3HvEfh3ks/bUVoU3eFph1sHVwrfICAwi3Fb64pjgf7wbGfOHeRPTt64PhpNiqdY03h1yvHKHrWwzYZlc65n2Pmrd/YqTa1uPdAgNc+I/S5njgnFJbpC6/TON7NewywAv8EN37DzFqfaXyk4M8HIih+sy7Wy4j9Vr0H2bKL1my0qds7mXXDaG2OM/2jsd6WvQZhulnrXA+MLOc54Fxv9IkPR3C+J5gxHjh+qvF9CmYuXoWxsxegQefeVkQvWa812vYbiilmLldu2opJ85eivvkc2ah149MVIrT5na9Nug/Asg1bcebn2ItMvBXcdiSSIG6K44xp24Cn2xlr7y8Ox5cFSoSumBMY/hrw7pPmi31Ci9BpjT0FnFntZix2cMsrIfijsVrG9hi79H3e2C/GJht7ylhM8N43jX1vzLvvXWMtjf3VWExkMbbSWGR7G42lMxbJa8a8cnuN3WlsQ9h7B42F30e/chqL7BPrL2QsEj8R+mFjg8PeY7/KG7utccs1kMyeOw/Pv/wqUqVO5yMGJ4ylNL68aHyaO2++8zKYuOkVIircsolfqGg6VfPYya/QcsxgPFutBB4omAl35XsVdxfKiHuM3UsreGv2r7yv4IEiWVCsXWPsPnIo1KhFsqofe947gkcKZ8G/87+Gfxd8HX/P+QIGTZ3grorbEbdVBB/n720HheMRI0ZYIeRG0ilTLGQkHgVoRu7FRlrXuIYiT/bs2W9IhGZa3GvBs1gjRehWrVq5q/5Uq1bthkTol19+2YoviYFVq1YhY8aMNpqZY+jXJz9jGl9GcA4ePNimLBb6Qh4TbngCzZEjR9C2bVu7P9LlSPvv//5vZMiQwQqvt/pkMqOG+eAGH/7wROZwATpSiI605557DgMGDLAPJUUL0+Tznqefftq3TkZ789prr72G//znP77iM892ZlT2kCFDrJh9I/Cc+Dp16tj9MbJez15//XUMHz480WVUML6LRIybxljho8+/xOBJs2wEcqGajW00KNNUF6nZ1KYlHjxxuhVo2/cbhnKN26FJ174hYXLSDJuymlGbjARt13eYTf88duZ8tGAktEtPTQuJlaHoYIqio6bPNeUW2NTMLBdKjd3Ylm3TZwgmzVtq263drjsqN++ArkNGY6S5h4IgBb9Q1GmoLAXGIZNnYtSM+VbQ6zNqEqq37GKjR1mnTcddraGNwqVYSWG7lvE7V8U6ViRt3IX9mW2FbAqWFZq2t6mgeb4xhdKGnXvb1M8FTB1MqTxk0kzbJkVGCtZMV12lRUcrLHpRyfSNInf5pu1shPXURcutAMq0zpnLVLfjNXDiNHtONEVhitUUxgeMm2rqn25TR4ciYBtbQZ/C/lDjY1PjXxcK7/OX2nvrdexh++aNMcVm+tDLtEkxmG1yvHJWCPWV89XftMFx6GLGsqLpa2PbJ0Ydz0T9Tr0u1ccIeIru9Tv1tO9zXOcsX2OjsL0HByjIUjDlmdNMNU7fJs5dbEVkRrjTH64lirsUlBlZzIcXuAbqdHjTRpJzHdjoarMOOF/lGrexUfZNu/W162iIWZv0lw9DVGrGc8tDIrT107TPueJ6Ytpz3kdfmBqbc1ahSXszR2PsfHU3c8Vx5xwyKn0MH2roNdj6z4cjuA5rtumKDv2H2XkYbtY413k78zvnjeuI40Lj703N2uXDGIMmzLACPNekF53NdO5cr33M+HPM+eAFHwxgP7iGGenOsnzYoPfoifaBC4rZTEHPdthHzqdnod+b2cjp+as24LsfTrlPb8LitiORBHFTHGesPwJk7wVkaOsvDseXBUaErmqsSk5gxsvmy28G8x9mP2E4Pi0NcOJ14FzsHkPjlld8Q/E1XMyNyfwig5MbCxefI43C8N3GIqlizK98uJUyFk64CM16I30+Y8xrK5o+LTAWLpJHitDTjcXUt9s6Stot10DCgIwePXshbboMeCJtBqR7+j++wnB8mU0Pnu4p9OrdBxcDclRITLjpFSIq3LKJX5z+u2zXNrxSowzuyZsRDxbNikdL5kTyUrli3R4pkQN3FciIpyoVwfrdO0KN20TgEqIj2bB3Fx4ukg2PlMqDZCVz4+4CmdBmzGB3VdyOuK0i+Dh/b0t4htn48eOtCBiNQEuj4EGRYf78+TeV/pRRajNmzECvXr3Qr1+/OLeBAwdaoeapp57y7Y+fUeCgiNS0aVMb3RxpFJspslB89u6hIM33WrRoYS3yniZNmtxQtDDr5rzwfNRBgwb59i22jcLY1KlTr5kS+FowupKRjTfSR0ZL9unTB78o7cgl3NYkInDDE2j4OaKrnoULwfw8M3o4tsVRPgDCTA/hbYa3y70pderUMYrS3Ov4QNK1shB88skn9nP67LPP+tbxl7/8xYrO3AP534d//etfV1zn2dB///vf7f3ckz/99FNX881BAZ9j+fjjj8eY4pv94t75448/uruCjfFZJGLcNN4y/Fb1/omP0X/cNBvt6YnQPEOZYhsjS60YO24qyjdpi5eLVrSiHYU0pqumeJq9fG3kpohXp7lNmUyRkeIxzyfOUaG2FUApPvPn14pVtuIkI2wHmDZrtO5qBcBMpaoha7kaNjK5+ZsDrDjZsudAZCtXE2+UroYabbvaqGNGnzLCNmvZmshjyjbo1AtvDh9n0zfzTGWKru37D0eFJu1se1nL1rJ1ZylTw0agUmjtbsqXbdQGrxWvjDfMtbrte6LfmCnoMGA4eF4vy1NcZbpl1l2zTTdTTw1r5Zu0sQIxfePZ0K37DLHnUVNMZBrobOVr2b5yTF4rXgWFzFi2N/WOnDbH+kUh+IVC5Wz7fUZPtsIuz0lmmxRVm3Xvb899pq+M6GU/edYyhdT2A0JnQTft1h+DJ8ywwjHPIs5i/Mpu2mWq89dLVEEO03Z7Mx5jZi6wbXJeXi1WCRlLVEXVFp3Qa+QE09/JVpzmGDCClw8YUCxnpDHHPIepjyIuo6fzVWtgU1qzLo4dz+DOVamOma+al/r6RqmqKFyjcUg0njgT7fqG+sr6Wa6AWU+dBo2wUdw8j/n14lWtSM9zprkOKKazHc4T1xLntqAZD/rYZdBoOz8UxIvUbmL8q4XsxjKXrmH6XMeKvH3GTLJriusxU8mqdtzeKFUdJeo2R6eBI2zfuNY43+wX18sg42dTM5ccu9dLVLbrv0XPAXYNc4wpJFO4bvpmPysCsz32lUahm2eIDxo/3T6IwAcsMpt5YJk8pl8cB0a28/PD/tOfJqYtRnczNTjPlX65SMVL/jMSninS+VBAppLVbR85n7xO4/38nSL6lIXL8eXJb0Mf4ATGbUciCeKmOM449jVQYRSQupW/OBxfFhgRuoqxOsZWPR+A86CN8TzozysAv37uZix2cMsrvulnzPu+3s2YJ8wyCnixMe8ao5RfMOYRKdrGZIxaDhd7w4Xr8Doj2wsXlUm4CO1nnjDMCOjweq5l4WJytP2hRfp2W+GWa2Dh386aNmuOlKnTInW6J33F4fiwJ0zb9KFJsxbGp2B8L7kWbnqFiAq3bOKdWW+tQ7LSeXFn/oxIUTwvUpTMg+Sl4s4eLZ0HdxTIhJdqlMGJr13mQmnQV7Fp/148WjQnHimRF8lK5sW9BTOj3fhh7qq4HXFbRfBx/t62UMCgEOgnEvoZBUYKjZs3b3Y13Bg8I7V48eJIliwZnnjiiXgx9u9GonNpLM9zSpMnT+5rLBMp2vMev7I01hVeNhpjfYywpoDk16/YNqZnL1iwII4fP+5m68bYvXu3jYZmPdd7oMF76IF9mzRpkqtBELc1iQjc8AQappVmBgO6G2l//etfbUr+LVu2uNK3Bh/oGTlyJAoUKBDjmcncQ9asWWOf0h47diyyZs3qW45G0ZYpxD/66CNbP7NcMK04hXUKzH730DJlymRT8r///vsxRoCz7zzb+dSp2I8WY+T5//zP/1xqK1JsZ/8TA8ZXkYhx03jLMGrh4HsfWJGuVIOWYNSql+qYEc4UDPuYa4PGT0O9Tj1QpHZTK5oxNTJF0EZdeqNUvZYo3bAVqrXqbEU7RpAyRTVTPzNtcZmGra3oSvG4UPXGVrBllOgYFzHNa8VsGusW5p626Dx4lE1LzVTYZRq1Ron6zdHS1GfTM5v6a7XphlL1W9pU1D2HjwtFq/YbZgVqpj3m7+37D7PtF6/Twgp+FCMpovL83sGTZtqU34VrNLHXmM6Z4mjfsZOtwMqzequ37mZFQfab0dGMfKXVatcNTbr1RYNOPa1wyihm9oMRr5VbdrJl2N9SPCvb1F/FvMdrjHTtM2qyjSSnWF3HtMM02BTbGQ3O+xhNzZThjFRua/pToVl7Gw3NcW1t+s++c0x6j5yI8bMX2IjzxsYXpjrneDBNOaPXOc4Ut6cvWoneoyfbKFwKzUXNNUZ9UyQebcafYn+x2s1tVDIjl5lmnQI76+JaYMptpg2va/pp01hPnmnHmX3iWcosw7ljXzmOVc37nP8JsxdZH8s1aWsjuTmvFU1fOA5Mc82IdArjjFLua/xjBDP7xwh0jgOFZI4Fxfe6HXvaFPCjps2z0d2MnuZ6K1nPtGnq4FgzEp3nVvPMZ0Z1FzXrlmPCvrHvPLN72NRZdn0w2rlKi85WsOa88QEB+s/yXAd8SIE+dR0yxq43lqFoz7Td9C3U79b2wQGmF2eKeEZCMx0754rrrZwZM0aEjzL+cD7tejD3dTVjw5TmrI+R+qHzyFvaepiSnG036tzHfBaa2wc1OJ+8l8ZU6/y9Sbf+mLdqPb754Qf3CU5Y3HYkkiBuiuOMc78A7eeFzoX2E4fjywIjQvM86HaZge3PBECENu0ffxz4tg/we+ym/nfLKz4JF14jRWZCwXirsXbGIlNkR0Yzh4vA9Y2FXwuPag4XvSMjisPrjPTHT4T2S40dWS484pkpwMOjmyOjpyNFaE+UZ59GuvdofmN12+CWa6Dhv5/r1K2PVKlSWzE43VPxGxH9uGkzxRNpUbdefXxk/v2eGHDTK0RUuGUTr+z84F2kL18IdxTKjIdL5UXyeBKhHy2VG3flex1dJ4wMOSIR+iokQotI3FYRfJy/ty2jRo3CP/7xj6hFWkavUrBk5NzNQKEid26zqd51l60rru3++++3r359uZ55Qqmf+ZWn+ZX1zK/89Sy8D3Fp9I/RjExbfrMiNKPjKZr79cPPuOaY2p3na4vLuK1JROCGJ/B89913NqtA2rRpvT8cXGGMEq5YsSL279/v7rgxWH/Hjh1t1LFf/Uz5zc9W+/bt8fbbb7u7Qpw9e9YKxkzFzbTYfvfT786dO6NChQpWVPaLoOZ7OXLkwOjRo684g5lpsMMFYa8sX/nfjRIlSmDdunWxcowD+8KU3q+88oqNtI70k78zQvzzz2M3aiSuMD6LRIybxlvm/C+/Ys/BIzbil4JYweqhVMfWajS2whcjN2cuWWnPGF6ydiPWb9uF/Ufex9vG1m3biYWrN2CReX/Fpm3YdeAQDr1/DFt27zflN2OxeX/xWt63yf48b8VarH5rOw4dPY4jH3yIzbv22nILVq7HwjWmrGlj276DeO/4Cew2dfHeBavX4y1T38H3jmLH/newcuM2LDZlV2/egf2H38NB096G7XuwavN22/7hYx9i18HDWLre1LtqvTX6uG3vAVvvgXePYt3WXZi3cp29tmnnXivEh/qzCwtXbcAK08bOtw9h/6H37HWeD0xbY3xn/1du2mLPv35r9z68/+HH9v6Vm7faMvSZ/rH+FRu3Yu87R3DUlOHr0nVv2XOrOQb049D7x80Y7LP3LTP10ce9Zj7YX/5Ov5etfwtrtuzARuPH1j1vY5fx6/AHx3HY9Ju+LDR9YHtsd75pk+O899C7+OCjT7HHvK7avA1zzbgvMNdYnv3k2L9l2uW4Lzc+7jbjxfc37NhtfDHzaepbYNvegi2mTbbH8V+7dad9P9TPjaF5ZVnjA/tK39479lGor2b8Od/sA3/eY9p414z/VtPHRXzPjMU+49+ho8fMGO+x64C25q0dxs/dZox22DXFPr9j+nrZv422TrZJHzg/vM562L/5q9a56xvMnJg1acbzgJmfTWaueDb3SlMn6zpsynP+WB/b3c51d+yEef+4mZv37c8ffPSJnSf6461nlmd/uHbfNWV4nXWyTa6dJWtDdfFzsNOsV84L1/ZOszY57jvffseM1RbMXb7G1sV6uH4OmPGl//Q7NL78zIRs4erQ7xt27MGHn36O3wPy1yG3HYkkiJviOGXqFuD5jsBT7fwF4viwwIjQPA96aJDOgzZ+xPJ50MQtr/gkUngdZ8wTbK9FZLQxhd5wrnc9JsIF5OuJ0DHVGS5yR0ZhEwrdTOdd11gyvuGIHIvIeyPbj0wXftvglmvg+fDDE2jUqAkeT50Oj6eJnzOi0xt7PE16aw2bNLM+JBbc9AoRFW7ZxD3uK/2Pv5xH+e5tcU/u1/FYibx4tGRePGIsmY9wHBd2f+GsyFKnEr6JgyCOpIBEaBGJ2yqCj/P3toQpkCkAMkrNTySMSTjlub9MVX0zUITOmzevPQvYr25ZwhhFK6bLzZUr102L0Eyzy9S4fg80xLSWKHxXqlTJRmqKEG5rEhG44Uk0MOV0w4YN7eeB7kcaxejKlStj79697o5rw7Pt27VrZ48W8KuPoqt3zvP1PsNMUb1gwQK88cYbMYrRfsb/VjDymg+cxHSWNKPBu3fvbjNQxFQHMyasXr0aX37pUgzdAIzO7tmzJ1566SXf+v/85z9bYZrHPtzomdMJifFdJGLcNN4yP589h+37DtjIT0ZbeiI001EzepYplRt26QMK0Cc++cza3kNHrJBGoZGvFNy27z+IHW8fwh7zHoXF3QcOW8GY79vrrgxFVpbbd+g9K/DuPngoVM5d5yt/p4hKwfiTL77Cp198bcU7CsxsbwfLGaNIzHJ7D79r72HdFPr2HX7Pvk8BMNS2adO87j5I396z/lEspdjNazsPvGP9pkjKPh05ehxffn0Sn375lanrXVPuwCX/KNZSJKYv9GMXx8HUadtzvtEXr+873DjtN9dZ/3bz/la26d6nWb+Mzyc+/RxfffOtFT/pr9cm6+Drlj37rWjK9+mvHX+2Y/rN6zT2yRu/fUfet+V4P8eG97Gvtg/vvIt33vsAxz76BJ99+bV5/dSW5XiExsz11/STQj+NfeZYUET2roe/sl0+0MAx5qs3J159vJ/1HDZzyb5+/PkXdl7pj51TluHaML7tP2x8N3VwrFiHN0Z73uEYsqx53xnnnGPBeeWa8Ob1cruH7UMPJz5jm1/ahwboB9vdxfEz9dm1ZOqgOH3o/Q+sgEzR/cC7oYcTODYsc7mvobFhm97nIdRmyNgPjjHr+viLL/HZVydx5Fior5fWsK3HzIfzn8b7rN/ueqRx/ug7Rfd3jhofafTVGH2lmM2HD7754RR+jYWHr66H245EEsRNcZzy9kdAkcFA2gRMyR0IEZqpuKsbm/8i8El64ESkKBzPxijoT4sCvxxzMxV7uOUVn0SKxZ5RpG1pLFykDSdSsPUTZMOjmv3EYI/7jTFCebCx8Cjl64nQfucy36z4TSL7FFl/5PnXEqETAV999TW6du2GZ/7zHB57PDXSPvmMr3gcG8a6U6R6As88+zy6dX8TX339tfMiceCmV4iocMsm7nEi9II9W/FQ0Wx4pHgupKTQWSovHjUWXyL0Q8VyIF25gth+5FDIIXEF0YrQnM5oTCR+3FYRfJy/tyUUKgoVKmRF5XBhkJG3FImZMvvuu++2kbLh1ykilC5dGufPn3c1RY9E6GDarYrQ586dsw8mRD7QQPH5zjvvtGuJZ21zbYW3+X//9382ovKDDz5wNQm3NYkI3PAkOg4fPmzPhedeym5EGlNp16pVC1u3bnV3XMmhQ4ds5DPPP/a7n+Kzd9ayl0r7RqBYy+wUfnV79r//+78oUqQI5syZ4+6KGT5Qsn79eixbtgxDhw6NMSKcRr8HDx6MM2fOuLtjhsI5U/c/+eSTvnXR2A+mHf8hIKlRbwTjv0jEuGm8Zc78/LMVNzsPGo3iFKFrNLZnPjNtMcXobGVr2XTQMxYtx56Dh7BwzQa06z8M9Tv1RKteg9CmzxB7djKtVe8haNlrsE17zPTKoWuRNtRcM+V6hsoxbbd3v2c8R5fnLTPFMiOqKf4NnzrHtskzfNu6ungeM32w9bg2WV/L3uZn11bIQj/TtxY9vbLmvb7eNb4/AE2690PHgSMwdcFS7D142EYQ85zohl16u3Js07Rh6mH91myf2Q+ORajPl64ZC42J5yPvM22yXfM+/Wj25gC0MuWYgpvR0TvePohR0+fZFN309VK7pv7L9YSMP9t+hPWR9bNdOw/sq89YML04z57mmcWMtmak8bSFy+348dzly2W9etk+58v4b15D9UVaqF07/ta/yHkdYua0v+37kMmzbF/Xb9+FQROn2zZ5xratx5sT+xrqD+uydqltV8b9HFpP/uPBMWTKd6bfZnQxo7qnL15h6h9i2w2tU1PetMd77RyZV/uzuea1He6T1zbXgu2rnfvQe/Z9cx/HmGnC+46ZhE279lqBmem2G5t5pa/WT9bHdu2aipyry/WFG8uyfvu54f39hl0ypvVmfwdOnInNew/gh59Ou0953OG2I5EEcVMcp5wx/6xvPRtIc7uL0EzF3ca0vfXZgKTiTgl80wv4LXZTcRO3vOIbirvh4mqkUQymIB0uIkcKstezyDOUef4zRWe/sp5dT4T2E4GvJyRfC4nQUeKWa6Lh/LnzmDZ9OgoWKYbkKZ9AqtTpkD6WxeiUps5kKVOjYOGipq0ZOP/LL671xIObXiGiwi2beKPOwO64p1AmPFo6N5KVzhOvRhH64RI5kbJ0PmzYu9t5JMK5ERE6JnjtN2ci8eO2iuDj/L0t4dmkzzzzzCWxkK9Mj0xxkH/Mb9GiBbJkyWKvMX22Jxz+85//RObMma24cqNIhA6m3aoIzShNzisFZ68+rhmunRdffNGKcIygpBjNNcYyvEZRmpGdjMoUIdzWJCJww5NoOXLkiP0c8HPB7kQa3y9btqzdV3/66Sfs27cPHTp0sGms/crzgQ9+tvr373/LKacpAi9cuNCe7xyeTpsPjtSoUQOrVq2yPl0LPpS0aNEiFCtWzO4l6dOnR9++fbF9+3YrkDO1N1OFh/fBMwrLTGHuJ6J/9dVXNvKa/81hvX73v/rqq5g8eTJOnjzp7kp8mH6IRIybxlvm9JmfbXRtp4GjrhCheYYyReisZWuhcvOOGD97IdZu2YGhU2aiSJ2meKN0VRSowXOjm9izo3lf3qr1kbtSXeSuXA8Fqje09fB6oTBj2UI1GyNfFZatgzy2rFdPyHKUr43cVepZEY+puJev32JFvTdKV7P1e+V4fnVerx5Tnm0WMu/RL3u2tSvH9/JVa4hc5t5cFesin/HT9tNdL0x/qjVATlNPyfot0X3YWKx+axsmzV+CkvWamzGoYcuwP/lNPfSBfuc397Ae+h86S7uxfY/R4xwDlsldiVbXjs0VPpmyjDS3Y2Xer9OhByYvWGpFYYqMOSvUsWcGs13bT3M/66WfBU0/+R7vYz1eP+y4Gv9s+6bdfFXonxlbNw9eX0NjVteefz1m5gKb/pnnXxeq2Qg5K9a+ojzr5PiFLKytMAu9x3k1v5sy7BfHhb+Hl+ccFa7d1J5jPXn+UpvivUHn3mZe6thxtfWxv85CfjS1r3acjQ+2XldneLucAzsPvC/ser6qDZHfjGPtdt0xYupsLDTrqefICfYergeWv9Su893W414v1Wv7E9G2vceNTdj7dr7MGHMt8Pz02cvX2PXEs8RzVKgd6qvrhx2z8Hpsn0Nmrzvz3mObnq+he0P303JXNuvStFvXjOm8VRvx9beXj66IK9x2JJIgborjnDm7gFe7Ak+29ReJ49oSXISuaowi9MjXgKMZApCKOw1w4kXzRX2dm6HYxS2vhICi8AZjl77L+xijoz0h+VZEaD/Re6OxQsZyhr0nETqguOWa6Nj/9gF07tIVb2TOimTJHkPK1GlvKTKa91J8fvixVHgjS3Z07trdtpFYcdMrRFS4ZRMvnDpzGtnqVcJ9hd9AsgQUoR8vVwBbDl55vN6NElOk7/mLF/HD6dP48ptv8NW33+L02XO48PvVJWO6/0Zh3afPncNX332HL06exI+m7Yu/3bz8eyPpuC+aDpw5fw5ff/8dvjL2k/Hjl7C+2p9uoJMs6lkkv/52ET+eOYOTpp/f/vADzv3661Ui97Xu55u+718L756IG9nv02fP4iszx198fdLMwY2PN+fop59NHd99a9bJd/jhzM+m3hv2MF5wW0Xwcf7elsybN8+KhhQMGaVHYZjpXHkeKP/wTz755BO0atUK//nPf2xZlmFkNAWGmTNn2jI3gkToYNqtitAbNmywQhLroXDFtcLfGzRoYOecMJKRaXR5lu19991n1xzLU4geNGiQLSP0hTwm3PAkeo4dO4bGjRvbzx27FWlM083PSEyCK8XnnDlzWsH361hOu8Uo5lmzZtnsBFWrVsXGjRvdlZihgM2o56JFi9oHlCL95TnxrVu3xq5du2zUdcGCBa8q4xkFd6by5n93eG40I5/58EpMKcNTp05tyyeFTAqmPyIR46bxlrEi9K596DhgJIrUbm5FTIpuRWo1RX7zmrl0DVRs2sGKlas3b7fRnMXrNUe2cjVM+abGmllxkIIpxVFPmCvAeswrhTOWo1hoy5vfrYhmyrKdcNGN11iGonL+6g1stCfP8F26brONlM1WrqYVVovWaWbrYJts54o2KUSbOkNtNrEiY4Fqppx9PyTWUcj1RE+2WdSU5f0U8Eo1aG1FaJ4lPGn+UpRu2Ao5KtSyAiHvoVGgLOwES1uPqdPrJ62o6SvrLFwrJBRSRPWueX0N9bep9YU/16UIPX+JFaHb9R16SeRm/VZ4Nu2zrlA/Q+J3eJ30Ib8b05BoG/KNrxwfryz7y7FgnXU79sDoGfMxf+V69Bo5AcXqmLGvXDc0D8Y31sv6KNrnrRLyh+1cqsuZ1zbHzxNfQ4J16Lr1zxjLFK/fAk3f7IdJ85ZgxuKVaNS1H/Jy7dDPsPL8ne2yTs4zx5/ve216vlGct+MT5hevWfHatcm6OL4jp82x50VThC5Wx6x1U2+onOuHrdOMjdffS35dbterP7TmL/eX8+GVs33lujDv1Wr/pj0DfOWmrbbfFOI9odyri21wDFgX+xP+ueE8XC4XWvOsg20XqMa55foyfTdrjWuG79ft1AvzzJx+/c137lMed7jtSCRB3BTHOV98D1Qdm3DR0AkuQlOAbpgNWP0c8FlCC9DGGAX9ZX3gQtyk2XXLKyFhOutqxlYau/T9Psy89NaRgm20gmxkuuxrnbt8LRE68pqH0nHHA265Jkou/Pqr/fd0127dkSd/QaR4PA0eSfG4FZNTp3sS6a4hSlN0Tp3+KVuW9zz2RDrkKVAIXbq9aercZP+tnJhx0ytEVLhlEy8c/OgYnq5UFA8WzYKEEqHvL5IVL9Qsh8++/dZ5dXOE64VfnvoB87ZsQOPRA5CvTX28Wrs8XqpRFi8be6N+FRTt3AIdpo7Burf34PSvl7Mr/H4jomNY0V9+u4it77yNvtMmonTHlni9biW8XLMsXqxWGq9WL4vCLRug6fABmGV8+vL7G+tnNCL00U8/xpC501GmU6jt56uXMlYaL5t+F+rUDH3nTcehT248kyS7GD4kX3zzNeasW4XGI/oid9Papm/l8FJV0061MshWryrKdWmFPrMmYeu77+BcmBB81ajyDXf5g6++QL/pk9B5zHB0HTviKus8ejjeHD8Ke48eseV/C6vtw88+xbAFs1DKtJuxdgXrS/qKRVB3UA+c/eX62Yy/O30KK3a8hfZjh6Jw28Z4rU4FvFCtlLVXTX3F2zRBd9P2qj078P0vl7P03NA6iQPcVhF8nL+3HVwgTIPKqDdGpqZJk8ZGvO3e7Z/ugelVKUowJSyFBgqNjHK7UW5FhKZgeaPmV0+4+d1zPfOrJ9L87ruW+dURbn73XM/86onJWP5WROjp06fbdURLnjy5Tde+YsUKd/VK3n33XTRq1MhGQLP8H//4Rxt1L0K4rUlE4IYnyXDgwAErzvI4BHbvesbPSvHixa2Qy/T31+Kbb765buTytfjtt9+u+w9b+uBFPjOtvp/P4cYsCDzT+u2338aSJUtQuHBh+9n3K8sHWLgXhUdlhxujqrt27YqjR486bxI/pl8iEeOm8ZY5feYs3tq5D+37j0Chmk2R2wphIVEtT5UGyFiyGso3aWfFSorQw6fMRqkGrWzEbPG6zVCsbnMrqjF9d402XdCoax/UatcdpU0ZCmcUjFmG1/lKgZNiJ+us26En6nfqhYrN2ttrxUxZlqOQRgG3bd8hNkp32fpQdHCuinWs8MuyFA6L1m6Cyi062nTZrKt8k7Yh4c6Ybc/URx9K1GuOKi07opEpV7+zKdfYlHPiHsvwOn+mqFmucTsbFUwRevKCZeb3tjZilkIfBb/y5nq9jj1tm1VadLL3h0TCpqaeFqjeuotNpc3UyE2790fjrv3QoFNvVGreEcXNdZa3fTUWSnne2P7MiGCmAV++cQs69B8OPgxAcZLzUKpBS9Ru39343wfV23RFyfotbHteHRxjGt9n+4269rWia9nGbYxvTeyY88EBrzzHhO2yzbGzFmDh6g3oM3qSvZ+CruefFedNOYr7nuAfmr/QPIWPMX31RPP81UKRwd7c27qMsVzpRq1thDujvhkJzfTq7CPbCm/XCtuX6gsJ/bZdjqEr44myFI7tnJtr3nXPrB/mWgOzzkZNn2sfaugzin1tZe+3fXDGOtgP1se2KfazXZ6PzuteWfaL48IyXvvha5195QMDvK+uWStzlq2xqd2Z8p2ieBFXLjR+Xl9D/fQEdfrsjTGNdbFOXufn0wrf1U05rgOOi/kscn7ofwMz//PNnJ5UJLS4BdwUxwvjNwMvdkqYaOgEF6Er5gQGvA4ceTLho6CPMwr6WeCnhW5mYh+3vIJEemPhwqwnGt+s2Hs9ITf8HOmbEaFJP2Neucg04IT1bDXWzlg6vuGQCB0lbrkmQi7/Qf7CxYvYs3cfJk+ZipatzffeYiXx/AsvIXmKVHgoWQo8muJxPJryiZCZn+175ufnXnwFRYuXRKs2bTFp6jTsNXXwofGkgJteIaLCLZt4YfvRQ0hToQAeKpYVCSVC35nvdTQdcuN6ix/nfvkF4xfPQ+ZGVXBv4cy4u2AmPFQ0Bx4qntNYrpAVy4n7C2fDnfkz45HiuVG0fVMs32a+EDpuVGBcvXsrynVrhWRl8uCugplxfxHTnmmDbT1YNCceML/fXyQ77jbt3VMoKzLWq4LBc2faKOJouJYIffbCBfSbNQkZKhfGvwtkxL1FsobaLZEL95t+310oi/EpC+40r09VKo6BMybbiOWocUPxvfF18OwpeK1mGdxpxvQuM7bsy70Fs+I+83p/4ey4r2h23F8sG+4olBEpzdxW7Noabx3YG6ogElfvhQsXUa9fd/wl50u2vnuMn372z7yvomCrejhzMfR3219/+w3D507HC6ZP9xYw81zY+GDG+AHT538VzoInSufH4Q9j1nrY7ozVy5CraS0zTqZdM6YPmD6wHw+wHmO2T4XMOinwhqk7C/K3aYh5m9ZeWh8JKUS7rSL4OH9vO5i2tFSpUvjHP/6BkiVL2rM+r/eF5lfzwaQAwrNBKR5Urlz5hhfZzYrQjL6m+M2zSaMxihcUVR955BHf+mi8xv6zrF8dfkaxJfKMbM8o5DLFNNv1uzcmizxHOdJY5434yXLX8tPPbkWE5hpo3769/QcS7x83blxUZ7wuX74cFStWtL4y/bsXfX+7E9qZRCRueJIcH374ISpVqmQzArCbkcaHOrhH8/iEX65z3hPPQl67di3eeOMNZMiQwaa5ZwaC2OTnn3+2IjIFce5Lkf5yD+LDSty3Iq/RmAWBArJ3bnT+/PmtwO5XNtJ4vnSXLl2S5Bnypn8iEeOm8ZY5dfpnbNq5154JXbJBGxSuTRGtBUo0aAVGRuesUBfVWnXF+LlLsOatHVaELtOgtY2YpYBGUbJy8w7oPHgUxs9ZiNnLV9tX/s6zpCkKUpyjQEsxjYJdhcZt0W3oGMxYsspGxDbvORAl6ofKeWUonrbrNxQLVm/A8g1b7Hm4jPT0UkKXadjanqE7ctpcU89KTFu0Ar1HT0Kd9m9a0Zb3U5wr16SdjaIePnU2Zi5ZgSkLlmLg+Glo0LnXJXGP4qsVFk3d5Zu0R88RE6xoOGVhSITOXq6WFap5D++leMpzhQdPmmHThJdr3MaKxoyapoA8ftYCc30lZpn+0Sj0UmxlG2yPY+EZ+8LXhl36YKppb8WmrfZcakYAU1Cs0aYreowYh8lmnGYvW43RM+bZM7kparN/Vvis0xwVm3VAe/P+6BlzzVgst8bziGu17Wr7GRIqm5u+cmxCkbUUtcfNXmjPSuaZyRy3AtUb21TsFEmL1W1mRX72kePPsQ0J4CGfWR/F/OJmvdRo0w1teg82czYc9Tv2smPBdugf22R5/l7GjBXPUebYzlq6yp79TXGV/rEMxVfeU8msKZ7Z3LbfMDs2ZRu1NtdCgjL7yzJ8CICCOwVm9p/302++esY2WXfDzr3t2HE99TF9LW3WDx8qYH9sOdMn3sv+UiTnGPMetssHEFhHSVc/6+SDE6Hzs4fYdcE1wPHimHDNc1zoZz3j29zla+0Z2C17DbRRzhSp2SbXAuviwxONu/ZBe9NXrpOKzdvb9+3YmnJefaXN547novPMaJ4tbR/eMH7xAQP2w/tsNDLXFpg5PfmdRGhx87gpjhc+/Q6oNBpI19pfKI5LS1ARunJOoEE2YOkLATgL2tjxFMCXtYELcffvY7e84pvUxpoZ+9KYn7AbLuqGi83hgjGtmzEvqjmLMQq2k40xzbbH9YTc8LZuVoQOL0cLj7aOTDseXo9E6ChxyzXJcOrUjzh8+IjNJDh37nyMGjMOffsPxJu9+ljjz3xvzrwFWL9hoz2q69RPp9zdSQc3vUJEhVs28cL+o0eQoWIhPJAAInRyYxT/nq5UHEc+OeE8ukEo0TiZ5v3PP0Hp9k3xQN6MuLfgG3ioZG6kKJUPKUoXQLKy+fFoybxIViovHi2TH8lopfPjEfPegwUyI1WxXGg7dgi+Px+Kdr1gKr2e+vPjmdPoMGEYHiuV04rd95vXR8vmw2OmbtojpfPi4RJmTEuxr/mRvJRp0/hzb5FsuNP0u3Crhth7LJRJNYR/i1eI0MYounaaMganzp9DnX5dcXeB13Fv0Sx4qEwePGraoiUrk8/0L5/52fTXWHLzM4XVe/K8hkaDe+G0uTdath47gvwt6uKefK+b+cqEh0vlNm3lM/3Ng7uLZsddhbPi3sLZ8ECJXHiwfD48VC6fGddcZg4y4gmzpnrMHI+fL0YI366r534+h2LN6+OuYtnwaLmCeMTMk2eP0sw4Psq2SubE0zVK4fNT3+PsbxfQYnh/3Gf6cl8RRvCH5tWz+0rkRHpT18H33ws1EsGJr79Eze4dcW+hN3BXocxmnvIgpZmfFCWM72acKT7fXzgHHjRr4lEzX3admHm834x7MjN3jQf3xPfuv1PXWyNxhdsqgo/z97aDUXjlypWzaZBv9BxNnj/apk0bNGnSBB9//LF7NzpuRoSmmMGUrkzj2rZtW3uu6vWMEYYVKlSwEdt+dVJ05RmsjNhlX/zqiDS2zag/+kKfIuukuELBiO22bNnSt45IYzkKULw/JtGYEYRlypSxUYR+dUQay1Eg4n1+9fnZrYjQX3zxhR3vZs2a3XBk4qlTpzB06FD7QMNbb73l3r29cVuTiMANT5KFEcL169fHn/70J/vHBn5++XneuzeGJ+XC+O677+wDQtmyZcNf/vIXe79nPNd/7NixruTNc/bs2Wum3ab4zDOleTbzl19+iXfeecf2JyYx+s9//jNq165txeidO3eiWrVqMYrRzNTRrVs3m0Xhenz77bc2kjuxYfopEjFuGm+ZH376Cdv3H8TomQvQceBotO03HO36j0CHQaPsz026D0Cf0ZOxfONWbNyxF4MnzkCp+i2Rs2IdK85RsOw8aKQ9u5kRywvXbMAiYxRquw0di7JN2lqxj2KZFWGdIMjU0/uPvI/Nu/dZQZoiWijK9rII3bbvUBu5ynop9lH45jUKkYy4phC8wvjFFMtL12/GvJXr0H/cFNRo09mUa2AFQUb7Dp08CwtMPQtMucVrN2Hdtl0YMnkmyjdtZ0U7z7eQCN3OitCMhKZQWrZRG3smNM/2pYhJX5gefL5pi3VSxGVUNFOXl2rYygrnTPtMEXjtWzuwfd9BOyZMLU5RmX28QiQ1v1PcpNDK9hgJTTGZ0dclG7RAvzGTsWTdJiwxfnNcF63eYMVqpuzm/YyiLVGvpR3TCcYXnnk8a+lKrN2206aAZprtik3b27bZxytF6N4YN4v3UJid5EToULkSphwj2nuMGI/JC5bYaN4RU+eg+Zv97ZhwDug7hVFGevcfOxXTFi63xrOX2d9yLjL9Ul/Nz5dE6AXLzBpZhWZvDri0PjhfLFe1VWd0GTIaE+cuxoylq+xDDRTmKboySrhY3Rao1rqLFc75AMKoafOsGE2/Q+MRNr6mTdbNdeBFQvdmXxu2tuI3y9h2jdVq182m6uZZ4DNNu3x4gCJ4BbNOWAf9pCBcvU0XvDlsrEspvgLDp8yy65PCudcPKyA7EXrO8lAkNB+G8MbXivzmeqUWHU3fRtoz12csWWHrZDr4qq07O8E7lJa7gpnDdn2HYezM+VbUHj9nkX3Qg2PFzw7bvEqE/lbpuMXN46Y43pi2FXilK5AhnqOhE0yE5lnQFKEHvw68xyhoH1E4Pu34E8CJl4CflrgZiRvc8opPIgVbnvscHh3sicne9XDhNVK0vZZ5gm7kPYxUZnuMrK7v3vPsZkXoyCjta1m4QC0ROkrcck3SMAPZ+fPnrSX2NNvR4qZXiKhwyyZe+PTLL/ByjdK4P55F6EdK5cZdBTMhXfnCWLnDfBEjVPRuUtV758MP8Eb9Srgzz6t4pHhOK7w+XCqfjUS+i5G6RXMgVbnCSFm2oBUZ7yicBfcZH5KXyY8UZfPh0ZK5cXf+11F3wJv4/pfzNlP0b9cIQmQa5yo92uHughlNOzlNPXmt8Xzrewtlxn3GHjM+pChD8Tcr7i7wBh4wvlhh2LT5sLnGCNuXqpTE5oP7XK3+7V0pQuez/tce0hsthw/AffleN/3NYd7LgrvyZ8SDJXPisfKmfvph6n+oSDYkN31LXprie17cWzIH/p33VfSbNjGqoV59cC+erFrc1k0hNpmxB834/sv078HiufFcrQp4vVF1vFK3CtJWKIo7C2fFfcVzhUR3096DJbLjHjNG7cYOxa8+gaC/X/wNLQb1wT+zv4S7871h2nkDdxpjVDQF+8dcPQ+Zfj1ZvSQOf/YJBi6YgXvymn4Xy4mHzZp9wFy7t1g23F0ki2k/M/6e/zWkK1cAH5iykRz9/FPka1IHd+bLiIdK5LIPCtxv1uPdBbPi0cI58UKNcnijUQ1kalgdz1QphQcKZsN9ZrwfNfNGIf/hkrnw73yvomLnlvjh9M1n47xV3FYRfJy/tx08S/TIkVD++JuFgjIFyBvhZkRoirOM6mPK5xuB4g2jbP0EY4quFEGiOfM0HKaffeaZZ2zUYmS9PAeZkXo7duxwpaPj0KFDNiqbInZ4fayffvKc1M2bL6fCiAZGGVO48eoJr9fPbkWEZupfPqF5K5w4cQIffXTj5zEkRdzWJCJww5NoOH369HXTZvuxbds2DB8+PMajEcLhQxwUffm59cTrmOyVV16x5z3faJpufjbnzp2L7Nmz2z0isl5mxaDQzQwI3AsiobjetGlTu49H3kvjGdj58uXD+PHjrchN4Zr/feA1pt3u3LlzVHsSI755xETGjBnx0ksvoXfv3vj++7iPPIstTH9FIsZN4y3zo/l8vnv8BLbtPYD123Zj3dZd1tZv34U1W3da8ZlC6gcffYLdB49g4PjpVrjLWq6mFeWqt+6KifMWm7I7rGDKVNVvDh9rRdrxsxfZSF6W884l5u9dBo/GuNkLsHnXXqzbthNdh4y2QlpIEG4eSvtcuwna9B2CeSvXYum6TWjdZzCyV6hlz8Ot1LSDFSAZXTphTkgEbj9guBXxeP5uy54DbEpvCouMamX0ct/Rk9GixwD0GTURG7bvxnRTtkbbbpd8Y1QqRWhGTr85fLyNSJ44d5EVlnNWrGuFwpWbt1pRlCJqk259rSDIdOHsD1OUUwhk5DRFX0bHTpizyNYzYtocK+hacd308QqR1PxOEZoi6aQFS7DY9JUR3jwfmCm4KWBSmO46eJQp0xMDx02zkctDJ82yacV5VnKZRq2tmDtiymz0HDHeissUzNds2YGxsxeidrs3bRpnjm+4CE3heow7E7q3TVHd0qaX5rVKzTqg/7ipmGvap+jN85sXmr4ykryV6T/Touer2hANOvY27c6xUdoURin4zzZjNHXBMjv2HJdQ9HIo6rdMozZmHgZasZXR4kxZzjngNY4Fo5v5UAIFeQrMFIIp9tNHzgFFYNbZadAI++DB9n0H7MMHFL3pN9NUXzG+rm1GS3Me5pr11GvUBDuvoVTbobTX1Vp1sQ9bcLzpG9tl2amLV6DjoJFWeM9Robb1n0L1zKUrbSQ3H6aYunC5fRih2Zv9bVshgd6J0ObzwHIrNm2xEf8Uoe2aM75SVKeQTCGbovfI6XPswxtzlq+1bVBg5jrm+elMR8+HLvi5oo8cb85F50GjUKZhG1sf16+d1659Mc/M1Vc6E1rcAm6K443vTgP1J4dScj/T3l8wjgtLMBGaZ0G3MO1t/E8AzoI27VOE/roNcDFuox/d8opvIiOaY7JIUZZECrN+Ns6YJ/SSSOH7WhYu9EYrQhMKyuERz35GwT08VbdE6ChxyzXRER9Z/r768ssETX96K7jpFSIq3LKJFy7+9hsKtmuIe4plRvIyeS6JqTQ/8fhWjem372OK5YJvIE/r+th25J2QI/xo/06R8sY/459+exJZm1S30cgpSuW14i/TUd9TOBsyNaiOLlPGY8HWzVh/8G2se3sf5m1Yj2bD+iND5eK4r0hWUz4PUpbJFzqfOl8mdJwwwjuu2JdfLlxAg0E9cEf+V/FQ6ZxIRhHb9O2+wpmRrlJR1B/SGzM2rMaqfbux/sBeLNr+FjpPG4/XjY/3F86KB0vmtkJ0itL5cH/+N/BqtdJ499gxV/vVhIvQyUsaP41R3E5m6nm4aA48Wjg7CrVtjJFL5mHF7u1Y/84+LNm1FQPmTkfWxjXwgGnj0ZK57Pgz6ve+otnwZPkiOHAi9HfHmEb80IkP8YLxjQJ68pJmXE27nDtGlzcc0R+rdu3Asc8/x5c//oCPTp7ErnePYMj82chYt6pNY/1oaa6jfFakf9DcN3rebFfzlXxi5m/s4vkYOGsaBs2dgeEL56DOwJ5Iwch1jhX9LpUL6asUQ+sxQ/FslRJ4oEi20FgWyoz0FQsjW9OaKPNmW1Ts2R7lurXFxNVLcTHivxfffPcdirVogLvyZrT9YYTzfcWNb8YqdmuPJZs34f2PPsbn33+Pz03Zg8c+wPRVK1C0VWMkK2D6UyIPHitTwI7hvwu8hiZmni8kUECQ2yqCj/NXxBM3KkJTQPVE6IkTJ7paomPr1q02Yi8mEZYRg6tWrXKlo4Npy59++ukYRWgKv5s2bXKlo4Ni07VE6NSpU9sUuzfCwoUL402EFrGL25pEBG54Ag8j+jt06IAXX3wROXPmtKm2YhtGPvOhnBw5clxXfA63//qv/8Lzzz+PmTNnXlcgp/jcv39/u1//4Q9/uKoupv1n2m+Kx4w+vh588Ilnv6dKleqqumgUs19++WXrGx+6Yb3HrvHFMxzuy8wWEVkns1YMGzYs6noSEuOvSMS4abxlzp0/jx9O/YTvfziFH340Zn727PtTp/DtDz/i9Jmfzef3PA5/cAKDJs1EsXrN8Ubpala4bdp9AOatWo8l69+y5xC/VrwyKjfviMnzltoU0jyjOHelejatN88xbtFzEHqMmIBOA0da8ZqRqUwvzPNtc1eqi7xVGiBbuVrIVbmuFXoZUUzRrXHXvnilaCVkKlUVVVt0smnBKU53HDDC+sKzfxndPHfVOivY5axQB/lMXYwgpZjHiN3S9VuZdkdYIW+I6Ucp816uinWRu3I95KlcH9kr1EbROs3t+dj0a9iUWTZ9cnZTF4Vpit79x09Fjoq1ka18LXQdMgZzlq5BtyFjUcrUzXThmcvUQEbjI9N3U/yeMHeRjdpmJDLborjsnf9LY58pulPMHzVjnhXR63XqaQVPpstmlDLHgMLrq8UrWcF99rI1Ng152YZt7P2sm+I366CQXLJeS/QbOyUkZpqxpnCavXxt288C1RrZ11xmTvhAwJCJM039K2w6dp7lnLl0dXvmMCO/J81dYqOVW/ceYqOdKTYv27DFRpvnrdoQWcvWtCLyVOMfI5sZDcw1wPPDKZS/OWycTZvujXEuY1wDTNc9cvpcjJuzCHXa97BR9fSH0d8U6xlxPXH+Eis6M8133zFTTH2bbEp1itQUmpkafMKcxXZOvLOleX+2cjWvGF+2ydTm1Vt1xQAzHxxLRu4zojqHmVf6xrXH9UW/J89fita9BqOGGUuK1bPN2hthxprpvjOWrGr9b9N3qLk20QrAbw4fZwVoPnDAOji/ofE1c121vl17FLW5nhgVnb1cbbs22edaZoyHTZ5to8cpvFMI53qetnCFjVDngwlMBZ/DzB0j0IdNnmXLdTDrkz9PN/PWc/gEFDOfQ64XlmO7Ndp2x/Qlq/HZV1c/pBXbuO1IJEHcFMcrW48CefoB6eMxGjpBRGhGQNc2r9NeCYnAJyJF4Xi24ymBzwqbLwTXz4R0q7jllRDcb6yWsT3GLn1vN0axlym1nzIWE7z3TWPh9/K+jcbCU3GHwwjryLTYnlgdnpI7PFL5RkRowojonMYi+7TVWHlj4cI4kQgdJW65Jgr4sPfChYtRv0EjFC9ZGu06dMRbW7bgwoUbOG/0Ovx64YKtk3UXL1EKdRs0xPyFC/Hjqdg9giuucdMrRFS4ZRNv9F0wHXcVyhinIvTDpXLh3sJZcH/eTMheryomLVuE097f6KxYaGOP+QvfiZqLv/+GegN74B+MAi5n/C6b3537nB1dpozBN9eIVj184hjKd2ttU3dT7PQiXVMYW7tvlyt1NSOXzsM9hTKFhN2yefFI6dy4p8AbKN2tDfZ/GPNRel+d+QldZ05EKgqzxXJaEZoRyncVyIhSbRvj53P+xxH6idBW9C6eHWnLFcKY5Yvs2dB+fP3jD2g2uC8eLpgVyUqYuTD3JjNze2+hLOgxeZwtwxGPHPUz58+hfLvmuCd/JjN/bDMvHjD3vFyrLNbtv3YA0WfffINaZk6YpvvRkqZNMyf3lciBZ8sUxv4PwtOPxwzTodfp2wV3FzbjbMaX6/ExmpknG0VfNAuer1kGQ2dNwXuffmRTk5/77SJ+NevhQgwPK3UcPgj/zvOqmWMK28anojmQoUJRzFy36irBOpyfzDrtOWkskhXJHhKizb1WWC+cGQs23ph2FVu4rSL4OH9FPHErIvSECRNcLdERjQi9cuVKVzo6Zs+efV0R+kajq+NChOZZsBKhEyduaxIRuOEJJDwnmRG/tWrVsmm06a5n3GeYcj+atNrXgmf28yxkpr1nVDMzOYS3Q6MgTZGZ0dGMemZa/sgynlHA9kvT/dlnn6Fnz55WRPe7z0u7zf2YwvKNwj6MHDkSzz77rG/9tKxZs8YYWR2Ol/I7MgV5pPGMaj4YEGQx2vgpEjFuGuMNRj28++EnGDR5lk2HnKlUNSvYNu3WHzzbee6KdajfqZcVwiiuhUTopajXsQcK1+Q5v82toMjoWkakUgikeLd0/VvoNXIiKjRpb6NHi9RqZs9XpqjMiFtGw7JuitcUPSmyUegcNX2eFWiZtjlf9QYo3ahNSIQ2ZSnSsR7WR9GwYE2mjW5jz9ydOGeRscVWWGWkaug8YkbMNrOCc9lGbU2dY7BwzUaMNG0w1TXL9Bk9CSs2bsGgCdNtWdbbfdg4KwT2GDYelZp1tO0x0pXidkvj7+QFS220NAXdUNQtUzDzXOGQ8Sxl1h2KmO2BcbMWWOG4Sbd+KFTD9N/UwRTijESu0qKzFTd5hjIjYkdMnYtqLbvYBwHC+8lx7Dhg5KXoXArZjC7ndb6WMG2yPNul2M3U2RRxKRjTN45vqfqt7fjMWLwKY2YusOdkMxq8bZ9hNip7wtzFKNe4vRWtGYE9bu4ijJ29wN7DNTBsymx79vLgiTPtWmBbXAOFjHFseJby2Fnz7UMIPAuZEby8Rh8ZPT15/jIMnzoHlVt2Qq6K9awYa6OxzVhT6KaQznv4sACjjCnitjbvsx2uHY6rN8ask2NUt0NPDJk0y64nzluJ+q1sHQXNOJcxc05xd+LcJVao5oMLfHCinllnU+YvNXO80qZL53nZrJtpt3kmd8223W3qbKYNp3DOMnZtGOP6ZdrtOh3etFHdC1dvtIK95zv9YvT2JPMZ4QMFHCc+CMF1NHTSTBt53nngyFB9ZmxqtemORmYcGKFer2Mv6yczDXQdPMYK/UzFzej00Lz2xqzl6/DlSUVCi5vHTXG8cvE3YOR64MUuwJPt/EXj2LZ4F6G9NNx9MwGHmIY7gaOgbRruF4FT08x/6OM+ksQtLyECjVuugYbZyWbMnIUKlSrj5dcyIcXjaZAs5eN4Iv2TyJI9BypXrYbBw4Zjy/Yd+PHHG89w8MMPP2Lrtu0YPGSYqas6MmfPhdTpn0KyFI/jMdPWi69lRJmKlTF1+oybqj8hcNMrRFS4ZRNvvPflZ3i2RgmbkvuSCF2aZybfnBBNgdR7pah7V8E3rACdq2ktjF46zwqjV+LJoJ5Fz1s7dyBFkZx4qKRpr2wBPFQqPx4olhNDFs9xJUI1ehK3Zx4/nTuLCt3a4J5CmY3PeW1q7juKZkKxDk1w7pfzrtRlPvz6KzxfvTTuL5oVj5WmoJsP95n+1e7bzabx9ghlbWBL3utlxq9eipTGx4eK5TB1MG14LjxYMAtmrFzmSlxJpAjNNNUUYlMWzYVp6yIDDb0xvHym9c8XLqBMx5a4r0BmJC+Rx9ZxX5EcyNu8Ln4+7y98z1y1HA8VyGJF1+QlzZgWyYb/VC+J3R/4n7NMbJ+dmPvzr7+iau8uuJsCP8/HLpsfdxR4Aw379TBf+a4cj5joO2uSued1My+5Lq3LR8vkwZ1FMiN7izo4/NGHruTVsPfhp3rvPfwO0plxe6B4djvPD5Yw41csNxa/dVnPol/XyrbRi0J0QX5GGIme30aFF2hWFz+d+dmViD/cVhF8nL8inpAIfTUSoUU4bmsSEbjhCRQ8s2n+/PkoUqSI3RPoZkzG/aFOnTo3fI4+2b9/vz0TmfuEX93cy3hmPoXn8DP+f/nlF6xbt87uuX/961+vuo+R0dzPmDmB6azXrFmDzJkz2/fDy/z3f/837rjjDitcUxyOjTTXFJinTp1q93a/NN80Rk0zyvlX84UtHB4lwbP8KS773ReTcfyY3psPDAQN459IxLhpjDeYJuydo8fRb8J0KyhnLlvTCmm12nbHmBkL7Dm1HQaMsBGkPUeOx8qNW+35yUxx3KrXYJvSmOIkRcz123dj4Zr1WL9tF3YfPIwl6zZbUY1n3rbuNQTNewxEqz6DrUC6dssObNyxB8PMzxQjm3Tvh96jJmLeinV4a/d+K/S27D0InUz9PLd47dad9uxfipKt+wy14nVb8zpwwgx7rjIjZ3n+btfBo61oyjLt+g230a0teg2y4jijl1n3orUb0aH/cJs+mhGyTEvOiFZGcfPsZ5ZbvuGtkBg4ZIyN6G5p+sqoaUYGsy2mTaZQzjramv7ZM7f7DbtkFCJ5vnP/sVPsWdMbt++xIiT9HjJphun7btsnjiPrHjp5JpaZNim+UjhmnewHU4SzL4wQX75hiz0re8zM+dZXXmM5r02ODeeEbc5fvR7rTP0UWzn+jbv1tRHIjApmuxSTOT4UXCnAM207z8vmed+cJ54ZzUhoziujn+kXr3POKKhTvGcfGZ3O1w6mbvZrybpNNkU162S/Wtm5GGIfUFi1eTvmrgitpzrtethobvaJfrJPjL6v36m3jWbnGNMo5LIO+hQ+vqyTc8vIcNa5dstOTDJ9bW/qZru0zmYtTDbzxT5QMOZYUbRmanO2y3HgWeih9WLM9YUPT8xautqmr2d0PR+wYAr51sZauXaZNp79eWvXfusv1wHbZD18kIJjNW/VOhtNX7djTzvWjD5nX/mwhO2DaZfvtzdrrsOA4XZu+PDG3OXrMGj8dLQ3a9SuAbNm+FlgtP76HXvx409n3Kf3xuE//q/1BwAPtx2JJIib4njn29NA8xnA0+1D5iccx6bFuwjNNNxtsgBvPZvwAvSHqY0ZH052Bn6LnzP13PISItC45RpIfjPfx5evWInyFSvjuRdetoJwyjTpkfbJZ5DuqWeRJsPTSPFEWiRPlRpPP/ciMmfLicJFiqNW7Xro2acvJk2ZiqXLVmDjprewbccOa/x5iXlvornWs3dfU7auuacYsmTNjqf/8wIeS5XG1JnO1s022BbbZNvPPf8iKlSohGXLlgf+bGk3vUJEhVs28cqwJbNxb6E3rLj5WBnvLN58xq6Mjva10iGjoMpzhx8onxf3Fs+OOwsyjXMelOnSGjM3rMYPZ8wXravgd/5Ii46Lv/2Out062LOPUxh/6fPdhbOj5qCel2phhOtF85snPnvmvUdOfPUFnqte2p7dnML04aFSOZCsSDas3faWK3GZPtMn4I6CGW0/2d69RXMgW+MaOPmjy85gGr5c/2/u/0M/eT7xtd34YTYlOQXl5MbuMWOft1lt/PDz1f+G8hOh7y6UBQ2H9HElvJHj/7w2L/ePbHh7L1IVz2PPdE5uhfrceKpKcRz56ESogOec4edffkGBVvVNG5lN2bz2LOj7zXgwxbUlvGI/XF3vffoJnqlWCveVyGmF6HvN2kpXsQgOfRyzeBxOr+njcGeB1/EoRWiuLzPmd5fIjv9UL4V3PnZ+RwHdbTy4F+7MT0E7rxk/sz7zZ0a7UUNDBZgF3qwls1hCr7whbDy8nxm5z3HhAwv2AQRTz0NFs2P5zm2hAvGI2yqCj/NXxBMSoa9GIrQIx21NIgI3PIGA5z0zlX/FihXxt7/9jXN2lflFKtN4xnunTp2u+znjPxz5uW/durW9x68utp0/f34rhNOna7F06VIULVrUtx4aU2uHp8qm+OyJ0Yx+ZrrrTz75xNUWuzCaOVz4DjcKzZ7ozcjntm3bxpjSO3ny5HZsGeFdsmRJ/Pvf//Ytx72Obc6YMcPWGwSMXyIR46Yx3jh77jx2vfMueo6aZEVopv9l1GXpBq1s5PH4WQvt+cIUayna7TNlt+59G4vWbrIpphesWY9123Zh7ztHcPC9D7D/yHs48O5RHHr/GPYeetfcswPzVqy1qaZnLl1t0yCv2rwNuw8cwh5zD8U6niHMqOtFqzdg0/a92Hf4XWzevd+eo0whcufbh7DrwDv2HGbeP8fVt2j1RmzauRf7D7+HHfvfsVHOjPJlGQqTjJ5mWfpJkXnttp3Wp23Gf55JzehZiuFvH3kf2/YdwGJzP40/v/3ue1ZM531zV6yxdVJMfmvXPuzcf9D2mWcWU5z12go3+sf3eb4x69tz0PR10zZ7RjCFRor0fI9iKNvYuHOPHTeWXcg2l6+16cop+DLaluL5gXfft688S5n1UCgNbzN0prDx09S/Zc8+7Dp4CBu277J+sK/zVq4PjacZK4rOFL0pRvMsbW8M2BbniXVR8N514LCZy+O2bY4z/d5oxnyxGQu2xQcE+Mq6V27aYup428zFQSv88n07X8ZWmrnj+1v3vG3nMfTgwA7bJv2hX/Rx6sLlVsTm+uC8U+idvWyt9Smyr5zbZRvMnOw2fTXlefb5XDMnbHOWaZvjynna8fZBMx77scq0wfnlAwbs/05zD/3kGNNXjikfLmBq8m37DmLfofesvxzPOWYN0GZzXjivpv87337HlHnX1LHVzoXXV/q8ff8Bs4b32X4vNe2xz5t3mrVj7qFgzj6wTa57nnnO6P8tpq29ZozXb99j55h+hXxbbdcw69lj2vv865M2rf6Pp89cbT+dwemfz+HCRf6L/2okQgs3xQnCu18AFUaGzoeOayE6XkVoCtCNswHLXgA+SpfAabjTAscfB76sAfwa/R8RbxW3vIQING65Bo6jx46hVZu2eOnVjEiZOh1SpUlvReGYjJHLLEdBOlXq9Hjy2efx/Muv4ZWMWZAxczZkyprDGn9+OWNme41lUpl7HrP3pLV1+NXt2ePGB5Z76dXX0bJlGxw9GnMa3ITGTa8QUeGWTbzCc46bDemLuwq8gUdcyuGQCB0mNsdgFJ+tAF0yF+4vmg13FsyEZ2uWsecubzy4H7/G8J0/BL/zR1p0HD7xIZ6tXAwPlciBlKXy26jd1OWKYPex0F7AVN1+AnS4ea2NXr4A9+XPZEXPe/O/jn9lfhbDpl95ROq3P/2EHI1r4J7CWcDzhJmm+sHC2TFj/epQAVvhZRn46v+FrpGPT57ESzXK4oEiOa2w/GjJnHioSBas37vTXg8nUoR+uHhue17y+iMHQwV82+Tvlzl99ixyN6mFh9me8f0hcz/TXK/b49oLG/a3Dr1t2gqdlcyI9vuKZkXOZrXx4/lQ+vQbSV7TeswQGwXPVOc8B5tRzKOWz3VXr02vaePMWrosQtvU5YXfwOAFs+z1aFfKV999j+dqlMIDZm0yrfiDZgyerlQchz//NFTAitBh5ioOf4tGJqxcYtOSP1rC+FQqn+1b46H93NX4w20Vwcf5K+IJidBXIxFahOO2JhGBG54EhdHCc+fOtZHPMYnP/Lx17drVRhXzXGN+fv3KUUhldPOHH1751BufqKbYSoGb0cd+93ri87x582z6r2jhH7EZGZ0xY0Z7prNf3TQ/Qfjuu+9Gvnz5bNT09c6TjhZGeDOimfu7X5vPPPMMevXqhV27dtkIZp7xHFmGljJlSjRv3tyOWzg8n7tq1ar417/+5XsfjeI7x/Gs+RKakBhfRCLGTWO8QeHqrT0H0HXoOJvemGcRF67ZBIVrNUHFpu2tEM2zb3fsO4jD7x/Hhm2MhA2JbRTlKHBS7Fu4mrbBipgLrPHnDTbtNEVolqN4x1eKt7xngbmHoiHfp81bbq4bm79yrRVnKQQe+eBDKxYyGteKnq4OW8+KdbYOts2oU4qAFAlD1y8Llt7v81ettf4wupXv0X+K0dYP8zuFv7VbduGd94/h0AfHsOatUMQzRehL7a1cH7rf3Beqw6+9UP3eK/vLuvkaKh/qP+ujyLhkw1tWMP7gxCdWpOQ4hATmUFnbLsd4zYZQHcYnK1Beo136OP+Kvl72h+NIEZXC/ZFjH2LvoSOhKGzbVzcfHEdjbJdiP8d/waoNtk76cLktz/g+585r88rrbHOumR+K8nz44MNPPrMR6BxfCtmhsQmtK5bn+ITaCtV9dV9dmyzLNi/19XK77IN9UMLM76Zd+3D808/wrukvzxxnqnKeee7V5/WZr7Yfpj723c5bWJ1eea9dXucavnzdGPti+jFr6Ur7wANF44PvHcXitZtCbdg+hu4J/e7WFtsznxm27322vHLez7zOueMDDau37MDqrbSdWGV+Xrl5O1Zs2o7tbx/Ctz/cWgpNtx2JJIib4gRj21Gg8EAgQ1vgmTgUouNNhK5srF52YMbLwPH0wEeRonB8mhOgPysZL+dAh+OWlxCBxi3XwMB/Ty9cvAQFChfFE+metOKzF/kcrbE8BWXe/3jaDLYORjPT+HMq8x6vsczN1M06njB1FChUFIuMr9E8yBbfuOkVIircsol3zp47h+ZD++PBgllxX+FseCRChLZn8jrz3uP5wg+XyIm782dC8lJ5kKd5PQxdMAtHPYHPcfGXizh//hf8+suvEeKhp/qFW3TM2LjapkSmHykZBV0wMyq+2QEXXLrn6wnQ4cYzlRdsXo9eU8ejx7TxGDR/Bo5/9bm5cpmthw8iWbGc9mxlit73FcmOrA2q49uwKGjWdq3/XTTmxUS3HTEI9+QPRRvb6NwCGdF7wmh7LZxIEfpeMz95zTh/79JA//57eAve/64Uodlig8G9cD9TcpuxesT4z+jmS2cahw37wBmTbZR26OzkPDbyd8Dsae7qjbH+7T14ojhTepu6zHqiiFy7j/kCHAUUoe8oeDkdN9fZc5VLmHn50pWIjhWbN+KxYrnwcPFcZu5C41d1wJvu6o3xxbff4amKxfBQ0Rx2Lu4vkgO5G9eJMa15XOG2iuDj/BXxxNGjRyVCRxA0ETpSFBPxi9uaRARueBIEniXct29fPPnkkzY1Nd2JNAqhrVq1skJo+D/0fvrpJ3Ts2NHuYX73PfbYY1a0/uKLL3D48GGUL18+xtTeTKnNtNvch3gO9c1CEZmR0dmyZfNtJ6aoZNof//jHSwL4zYrR7GeTJk1s3/3a4H7UpUsXG+Hdvn37GCPBGfnMMb9eem3OX40aNfDUU0/51sM+vfrqqxgzZgy++y7uz+30w/ghEjFuGuMF7i/ffP8j1m7bgw4DRtkzhXlmbugs4iYoWKMRKjTtYFNSMxp07dZdNn00z4Dm+bWNuvaxZxM37Nzbnhlcv2NP+8pr9dzPDbv0DpXr2veS8T1b3hhTcfO9xrxm6uK50HXav4n2/YfZlNyM0p26YBmadOuP2u3edGVdfZfaZls9XVuuDWfe7yzLti75Zepgm3yPbdYydfNs3/5jp9roWEawMl10nfY9TBvsq6ujU6i9BnzP/H6pfmNXtcnfTRnbV9MuffXeq2feY3/oD1NZMxqcUc5M980ybPdS/WyXvtt+Gt9dPTEZ62/g2owcX75XrXUXey73tEUrbJsUVJmGumqrzqZur83Q2NQ3c2nN1EdfL8/rlX1n3eHzeqkeZ+wPU7wzXTUFZ0Z9T563BNWNL0z17tVHP+2ccg1xTsP6Gjm29j3T5uW+unkyZufWzBXXKvsxdPIsG6XPyGamwubZz+xLpJ80rx+8zrqv6iuNY2n886uD7fG88KotO2HinIX46LPPsfqtbWjZc6B9n+s7vLw1U9+ltRVDm3yPfnG9evPAdWTfM79zfJlevdfoSThy7NYiIN12JJIgbooTDH6tXfUOkK8/kKEN8IyPgBwbFi8iNAXoutmBKa8AH6QPhgD9aRHg56tTXMY1bnkJEWjccg0EP506hQEDB9soZQq914tMTkijb/TxhZdfxUDjM/8mESTc9AoRFW7ZJAj8y970tSuRqX5l3F8sG+4tksVGNz9YMqc9u/gRYw+Zn3m27r1FsuI+Y89ULoFGA3th5Z7t+PFC2NFy53/HD++dxLG1h3Fw3m7smbYN+6ZtxwdLD+KrfZ/hwikvjb4XisrWw9TQ69Bl0igblUxRNUWpvLgz3+voO3uyvcZawkXm61lMhD/TMmH5QtvfR0xbKUrlx135M6HugO7uKgn5H0qK7f8/itD8H5mzcTUeLZYdyUrlsZHCrLtMl1Z2NMKJFKHvyvcGqvfqHLpomoxGhCbdJ4zC3fky2fF6lCJ6oSyYs8GdKR3Wz9p9u9qIcEZBP1I6t/Vr0KLZOPDhMez74L2QHbu+HTj2PhZs24R0pQsgWclcVoS+x6ynfE1r4sLF6x+hEClCUwyv2b0jLl681oxdTe8ZE3Bvwcx4tCTTkefD/YWyo+GoQdh//Cj2vW98PRqdHfjgKNYf3I+XqpfFQy6C/f7iOfFczXJ477PQQxfx9RCU2yqCj/NXxBMUAxhNJxH6MkERof/xj38gd+7c+Oijj1wtIiFwW5OIwA1PvLJt2za0aNECzz//POflKvvTn/5khdwhQ4bYve3iNdLqfPnll2jcuLHv2cy0Z5991u4tftf+8Ic/oFChQjYF+JkzN3+upB/c08LFWQrQnoX7EGkU4/nQyo1ERu/duxc9e/aMMaKZY8MxWrRoEUaPHo306dP7luO+Xrt27Rs+25nnZffp0yfGcaZRjGY67/gWo03bIhHjpjFe4Bf5r775Fis2b0ebfsNRpFYz5Klcz0ZE0/JVa2jPh6aoPHb2QkxbvMKKXm+Uro5s5WvbqOlwy1mxrk3nTctZsc5V1z3LZSy8HH/3rmV375dt1BpvDh9r0133HjUJBao3RuYyNZAzrKxXF+uIrIuv4fV6Zss6867zvaxla5r+NrD9mzB3sT1DuFa77rZN1u3df7m9OmHt1bt0zbNQmVBfPLtcPlQmW7la1so0bI2+oydj0ZpN9jzi3GYOMpc2fTXjeWWbpg5jXh2eXbM9Y+Fl+X7GklVRol4L9OIZ3CvX2bOqS9ZriddLVLmi/JX1hnyPbPtSWW/uK9K/q+ee45vFWMn6Le3Z0Ux13n3YWGQqVdWsp2q2z6G63ViGrSXW59c2f7f+ObP9ddfyVDbXzL2ZSlUzP9e354IzNTyjjUsZH14uWtGWj6wv1C77fPXYXSpj7NK42P5eWYZrlOvmteKV0GXwKJvGfMr8JShWp6l9P2u5mleUt/W5NsP7EGkch0vtGuPPXCP0M4f5PGY2n0t+Nut26mmjzW8Ftx2JJIib4gSFR8KtOgjk6wekpxAdBxHRcS5CV84ZioCe/Apw9MmACNBFgZ83u1GOX9zyEiLQuOWa4Hz62Wdo0aoN0qR/ykYv32iEckIYfWREdFrjc+vWbfH551+43iQ8bnqFiAq3bBKUr079iCkbVqNK787I3qgGnq9eBukrFkaGioXwdOWiyFS3Isp2b4MBi2dfTmvsOPfDWXy65zjembUNuwavw7a+67Gr/2bs6bcVe3pvxb6em7C7zwa8PWkfvjv8rbvrxsW7Wr274t4i2a2oyrOnHy6RHTM2hkRVT1y+EaMHnheRr6TzuOFW9H6Y6cdL5cN95uc+c6a4qyRUw7VEaO9/ZM/RI0hTJi8eYnR1qby4v2gOZK5bBWd+uTKqNlyETlYyH+4ukAVNRw4MXbQOhtfs/e9qEbrP1Am4M1/GSyL0/YWzYnaECH32/C8o3r4J7i78hhWhrRDNs5zNnPMM6ScrF4neqhRF2iqFbbR8SNDOg3uLZkXm2uXwzXfevMfMm1PG4N8uHXeyMrlxR/5X8ebUce6qIXxyrkGzYX1xV77XzRox82bGL5kZx9TliyBD5RJ4smJxPFWpBJ4yP1/TTJlnKpXEMxVLIHWpAkjuHgi4v2RupK1YDNsPh7JUSoSOwPmb5Pn111+xfft2myKW6VgTwpgadfLkyXj99devElxjMonQ8SdC8/xUCjDTpk3D5s2bfecwvoxi29dff+16c3vhtiYRgRueOIfpsD/++GMbqRtTRDIjZyk+c0/64Ycf3J3R8e6776J69er2nGW/uj3xN1wI5mupUqViPUsBhfMBAwbEeMYy9x7uJT169LB7lF8Znn3Nh1cYtRxTSuvPP//cRjQ/+uijvnVw7+F51WyL+0+WLFmswO9d98bh//7v/+xDTEzP/UvEF9EbgXvLqFGjkC5duktthBvbY2Q7BfNPP73yHxBxhWlXJGLcNMYL3KO++Poklm7YipZ9hqJwTUZC17WR0LR8VRuiSJ1mqN+5N8bPWWTTXTfvMQB5qzRAwRqNUbR2UxStY8y8FqnVBIVqhKKnQ9Y4VI9X5lK5pihUs/GlcoVMOab/9uoqVKuxvV6tZWf0GzPFpjweNGE6SjVsZfxpcLm+2s3szzy/mnWE12XLeOWuaNsrG2qDvng+FajeECXqt7T9m7ZouT0fmBHcHAPPvyK1m9ifbR3mfr6y/cvtNbNm23F9LOT84thwfC/73xQFq5sxMFbV9HXIxBk2BfmA8dNsHZf6aoxR6SG/3ZixTes72wvVSb+8654Vtn28PLZ85b0Ueis274CBE6bZFNGjp89FpWYdkLuimXtblmN7ZV9tf43Rl0v1XRrXsDmtSf9Mu+b+y+02Q4FqjZC/WkNUMu2OMu3xLO8+Yydb8ZnrqVhdPvjgU59fP1y7l8aFZY3xZ88/1kf/81auj+J1m6PDgJHYuGMPlqzbjMotOiB7uVqhMbRz5uqzY8h2Q2bbDe+HMfpxud2w/ob5xzHMX62BFZYp9DMV98zFK1G+SVs7rwXMnNt2uYYv9TVk4X3w2rQ/2/kIXffGJTTOvBbqK9vMV7U+mpk1vP/w++5TfnO47UgkQdwUJzgUote8AxQdHErN/VQ7fzH5Zi3OROiqxngGdIPswLSXgfczJKwAfTx1yD4rA/y8zY1u/OOWV1xQyb0Kccu45ZqgfPDBB6hdt7490znI0c8xWer0T9qzouvWa4Djx4OR9dBNrxBR4ZZN/OJUWD8J7dszZ3HkoxPYdWQfth3aj4MfHMVn33x7VcTumU9O4ZO1R7Fv7BZs67cCO/utxq6Bm7B70FZj27FnwE7s6b8T+/vvwL7+27Czz2bsGLgRX+/+2NUQPYyGLdOhJe5xInSyErmRomxeLN291V73hOVbsUiaDuqFuwpntiI0BU2Kx2NXLnZXOXIhi1aEPvrFZ3iyYmE8UJTR0PnwQLFceKVaGZz88Xt73eMKEbpESIRuOWZo6KKdsPCavf9dLUL3njreitBs65GS+Wwk9Kx1V4rQ3//wI/I1q417TT8vidDGHiiWHffZqPjo7d6imXFv8Sx4qFROe+b1IyVz4Z7Cb+DFSsXw8RdXpjr3Y/i86fh79mdxd+HXcVfB143vr2LGpjXuavTU7dMVd+XPaEXjlGb8KEQ/WDw3HiiSAw9FaQ8ae6Aof86Jx4rlQfLiee3rg2bOkhXLjfV7dtm2JEJH4PxN8vAs0xw5ctgIZNq9996bYEZR2U8I9TOJ0PEjQtPYFsv6zVl8Gtcnha1ly5a53txeuK1JROCGJ844ffo0duzYgbp169rPApuMNArHFEj5MM2tRspyL+HRBOH1RwrP4e/zlSnzmzVrZv8hfCt89tlnNkV42rRpL7XhZ1mzZsWhQ4fsPd9++609lzkmwZpWoEABK0bzoSfCSGX6G1PkM0XlwoUL2/3Nqz/yrGqv74yK5oNMt5KGPBLWNWLECDun3tiHjzvttddei5f0ZaYtkYhx0xgvUIT+/KuTWLRuM5q+OQh5qzREtrI1rVhIY0QmxT2m+qUIzXOQW/cZbIWwYnWa26hWWvF6LawYVqR2M5Sq3wol6od+p5hWrI55r0FLlDZGMTAknja1kbilGrRCcVMPBTxeY4RqMfPKn2u17YaB46bZc6UZqVu+STtbn9cm7w+JpU1tFC/rKkYxjgKeeZ8+sD6W5St/9+rmvbYec49XF+sp27iN7d+MJSut4N70zQGgaMt7SvJ+tuf5St/rtrDtUags6frj1cc2GeHMOssZK9uozaXrnoUE0GY2hfLwybNsCnCK0SXNWBViX02/StRrjsIUQk250uZ+z1eOY8iPUN9Lm7Zse6Yd/szxLt3QvH+pzVCf6TMF96qtOtmIZJ4vPHbmfFRr1cXOuTc2jNoN7ysFekbFU/gs4dplnbxOXzj39Nube47VpXE2Zn02xnbGmPY279qH/uOnWl8ovob8NPWZ+wqbclwjHEOup5AIG+ov62Lbxc240D/OuTeu3oMJLMe+85ViLcejy5Ax2LRrrz37minA+bCF55+tz5T1RF3rsxl7Oz+uvlB/OS6hNkLrOuQz/bi8Blx/zXv5qjSwD1K88/4H9uzryi06htanud+uSVOeY0orYdoryb66Nr3Pl13DplxxJ9KHfGHfQsKzLWfHg36EPnOteg/B20eOuk/5zeG2I5EEcVMcGPaeAKqOBZ5uFxKj/QTlm7E4EaGrGKMA3cLUN/9F4IOEFKDThaKfPzQ+fFkXOBf6jp1QuOUVm1B8PmFM+5GINdxyTTCOfnAM1avXRMrH0yBNhqd9Rd7EYIzgTvl4atSoWQvHjh93vUs43PQKERVu2cQrnnR24YdvcWHfVpzfvAK/bF+FX99/x7wZQwZEp3Ke/e5nHFl+ELuHbsauXmuwq99G7B24GXsu2VvYM2CLs23OtmKf+X13343YPWANfnj/ZKiyKLlw8TeUbNcMdxe9LEKnLJMHq/futNc9IflWLJJGA3pcIUI/WizX/2/vPeClKLL+/f/7bnj3t/vuvq5r3F3XuGZXXXNElCAGQJGgCCpmAUVRETGjCCKIGDBhAlFBRBFRUcAERsw5Yc7imiOefz91qy51i+qZnrkz984M59nP2YvT1RV7arr7W+eUXDNjmj1aJ0BjWUXo+R9/IBsaEbqVrGxE6LayzSH7yIefN3z3GhOhTyiJCN1yMRH6s8//I7v0P7SBCM2+0P/o2k5W6YwA26YIa21s1cT+3nEHOXToqfLtd9/XFZiDtz56X/qOPFM6ndhXOp3QVwaOOU8+/qrwd5WHDzs96TP2LN9NVje2u6zcZRf5e6edZSVr/9irXcHGeSt02Ena9+8r7374oSlLRegAW9+aBxGa0KmIjQioCLvNZaH4mcsQRTmHvVgnTJhgW5MNQr8icqSJsAidhQrGhIndeOONU0VoRB2ErEJA5MklQiMmI74UwvTp001dXD5+vvksHK+mNvqW0OB33HGHbc2ShZ2alADbPWXj9eRhLNyj2AmShJ7u06eP2UcZsbSUjB071ngC++XlM4Tg0047rWAxGi/sIUOGmNDfYZ5pIizfx0MPPdR4hwNhxfEQZl7x0zlzIcrx9k4Tnwkvjrh79dVXNwhhjre0v+e2Xx/yQqR++eXGeYqFsBd3v379Uj3TDzzwwJKHQI+RlKVUMXYYmwS+M+988JHxhD5xxBjZ87DjTOjiTkccZ6z9IUdL574DpN+ZI+TqybfJTewdPOx8472L4IeIhrCL12mP/icZz+HTzr9UBl94ufQfMtIIx06wc4Yge/QZw2Xw6EtNqOL+Z40wXrjkhcCGCEe6Q08cLOeNHV8vQu979KA6AdSmIw0hu9kb95SRF8uZF1wuJw6/QA464XSThxMj69LXCaN7J+nZ9/mU8y42+/727H9yfV6Id/skx0845/x6EfqYJC0CqREGj6gTJ81+ykmas5I2njJyjBx+0llGiDTeqJSZlLdf0p7+SZ+dnrTvzCTd4Asuk5NGXGj2gEYQNXVKjDph7Ft8kRWhR189wQi5iP8IrKTFc/fYpD/PGH2ZMfqZutIf1J3yjh1ynimLENeUd2rSxuPOHmlEX/IgXd3f44zHbK/jTzVl3TbzPiNC442Nly7pEKBJy57GA4bS1ivk1FFjzB7N1B8xtK5P6sYKcfW4oaNMuaecl6RLxqR7Ml5G9E/yIS/6F6OcehF67DhTFzyDTR8meSHm7nfsyfXtPT25no5J+rJncn1xvG686vLFs7jf6efIaaMuSdo7xuzFvG9yzZGG49QNkRvR9vQkLydCc40QwtpdH3Wib9KO404xnvC0g7EjPxYRmD4hT2v7096zRyX9fUVS9hizjzPj4fIx7U3GBi9swqwjQt94+wzjBW6E7qQfSEd/kD97PZvvTXIN027az9hz3bp2kKfby5s+Yc/0PqeeXTceyXHMeK4n+Q8YpiK0ko4d4orijY9ETrlJZJvBIusNFNmoBOG5Sy5CIz4fnPwd3FLknk1F5q/fjAI04bfXSMrfRuSTs0V+bP6wuPbyKgW++OxMUUqCvVybhbffeUeO6HuUrPbPtatagHZGG1Zfc2058sijzaL05sQOr6Jkwl42TYKTzBbKt/LN/bfLl2f3lx+P7CLf9e4k3xy5h3x9Ug/58pIz5ceXnzNpfzEKbfIvLOGrj76Qx6+9X+aee488NvJ+eey8+zzxObcI/dj5yX+PelAeO+ceeX78w7Lw6/Tt/kIW/vKL7HfGIFl2z1Z14bi7tJNVurWTqQ/VbfnhhORCjNL5a9qZWMjAMaOS8mw47q67yt+SskdPvt4ehbozs4rQL7z9hqzbo72s2Km1/KPrLrJCkt/2h/eUBYEjSlOK0F989bV0OKGP8VhGgGb/73/27CjX3z9Tnnz5RZnXCHv85RfkiVdelM+//qqusFx4lWf3aL8tsbHJRb9RZ8tyHXaQ1ViskNjfOrWREbdMSur0gjzyYmIvvSiPJfUr2JLzHn7heXm3ibc2BDtVVD62vjUPIvQuu+xixM5CRcnmNoRJhFjEk+eff16effbZvIawO378eCPupLUXr0L2Hc2aJ+kIXUsIV+oU5rvsssvKWmutJddcc40pP5ZHaKTDIxKxGbHHz4/8+ZywsJdffnnmer7wwgsyevRoI1S5fPx8K92oLx7shXqp1wp2alICbPeUDUI0I4xSVGgIowMGDCjpPsGE8eYaP+GEE+q9f0MRmO/D7rvvbv66z3wjvDXCLGG1czF//ny58MILzfwUy8eV6Zcd2lJLLSVHHXVUvQhM/U855ZScntGh0Y+E/Mf7OBZuHw9qtgLYb7/9ZJlllonmwWId+oz5sDHQJ+zlTZ9Qr7DtzMf0mRPfy01SplLF2GFsEn5IvidvvfehzHz4Cblg/GQ5Zsgo6XPqOdI/+YsdNXiEHDdstAy/YrzcfNdsI0Ij0vkiNOIXwvJJIy6SKyfeIpOmz5BpM++TCbfeYcRBhF6Esd0PPsoIbieee4Fcc9OtcnuS5uYkv6sm3WpEtf2PPblO3LRCXpoIbUTv5DgeogjYl0yYZLxM2et3cpLfiMuvlYNPOKNO0DRi33GCly5/EfvGT7ldbp99v5x/1XVmz2faQZm5RGiEYkRo0p+b5D/+lttl6j33mrpdPG6i9Bt8rhEMCS2NSNkvKefS624yxyfdfreMu3maXHLdJDkh6UvaQRrakSpCJ/2KeErdDjj2FCN4X3tz3SIAROOrJ0+VE4afb9LRJwefMFhGXnFt0g93mTRT777X2CUTbpKjzzy3ThRN2sfffCI09dnL1mnYpVfJuKS/br17tunby2+YnJQ72ngZtz+kn+lfFhoMuWhsMu53m3Q33TnThNs++swRRrR3QnQuEbpD0lbGlLJZzHDGBZfKhKl3yM13zjLtuSZpL6IrxxhXxgSxmWvu8usnJ2nuNnbp9TfJwHMuMH2MIMu45hOhMTz7EX6HjrnShM2+ZcYsmXL3LJPfgGGjTFmIypR9YHIuiyzGT5metPdeU+7YiVOSdOebvOgTPMVzidDUzaRL+oXvw7VTpiXfr1lyS9J/jDMLCPZLvjfuGqH/WEwwdMxVcn3yvWIssAuvvUEOGTTY9CvpTLjuxFSEVnJhh7ji+PJbkXEPinS6oG6f6PUSi4nLWa1kIvQBybk9dxA5qqXI5duIPLGxyFvr1YnQUYG4nIb38z+Tv+uIvNtV5IvJIgu/sz3YvNjLqzHExGdnilIS7OXa5PCse+JJJ8tqa65TFfs/Z7V1N9jIeEQPStpW6LZipcQOr6Jkwl42TUKdhvmjfH/n1fLdUV3l576d5Zf+XUT6d5OFx+4tC4/pIgv7dpFvTzpMfnymoQPaz9//LE/f+IjMGTpDHj/Pis2LCdD288VEaGcPyryRD8ijI2bKgpcK26LymAtHyLIddzIi9OrddjXeu2NuT+47EhAtC7E06mTlOkZNHN9gT+jlOraU3uefbY9CXeqsIvSMxx6SVbvtLH/vsrOwJ/QKe+4kuxzfR75f2LBGTSlC/7zwF9n3rBNl6Q7b1YXiTuq3Uuc28ujLL9YlaCpsfd788H156tWXjX2woM5Byo1HVk4ee5Es36GlrL5Pcp3s015W2KOVXDN7hj1aIgqtVCOxU0XlY+tb81SzCI1Rb7z38OZu3bp1Xmvbtq0RO0Jh1zeObbnllpnzJN2mm25q6hLLj37lGHkS+jyWR8yoZyw/Z+S7xRZbZK4n+7Nuttlm0byqwVSEVmLY7ikrePmOGDHCLDKhSMwXJzfccEOzP/L33+cPlZILQlYzR7ElgMvbGeWxeAbPa6I5wNNPPy09e/Y0kR3C9Niaa64pJ510kpnnfT7++GPjMR2Kz5Thm38ML2WiOvz+979v8LkzvpuI0S+99JIpAzH5rLPOSt3vGWMP7a222sos+mF/6HwQ9QKBu1evXqn1oLz+/fsXLEbjyY4InibIk+/RRx8tjz/+uD2jaUjKVqoYO4xNwg8//CjvfviJzHv+FbnjgUfkxun3yPW33SUTb7/H2PXTZsjkO2fLPXMelblPPCOT75olx5w1wojQdcIuIYkHylGnn2OExRun3WWEzTHjJxrxEEHv1JEXG3Gs7f695cgzzpGrJt1i9nm+cuIUE3r6+iTNtZNvk37JMSfiIR4eOiguQjtR7oiThxgh+cakjgi8510x3uzjjCh4ziVXG1Gxbj/hY2RXI7qeJqOvuV7uefBhufeRx41weOTpw3KK0Hhzm/17k+P7HjPIeKreOO1OuTJpA/tUI44iRF52/WTjpdq652GmDScNv1Cuu2W6TE76c9SV1xkvaPI95MTBQshlxEfaQFuwUIQmD8RZ6jNg6CgjTE64dbrpj8uuv1lunjFTrp1ymxxz5rmmT7r3GyTHn40n9BVGqKRP7n14nhH48dJlnGgfYZ0RNhcXoacYcXiXXn1NWwnpTVtvSK6Fq2+aasTii8ffmFwLM+Wqm26V3qeeLbsleZDvsWeNNIIxYb3HjJtowrYjHg+/9GrjSe0WDeQSoRGKEYIJyT1oxEUy/pZpRtSmj0cn1wjX1RU3TpHjk75A2EbsP/Sks8xnjPllSX5jJ95ixm3M+ElyaNKfhBbnWmogQj9iReiBp5tQ87SVNCxoQNDmupx8B3uQXyeXTJho2oWQz6IC8kHAx9MbYX58Mr6MB9cm+0yzAIPxdXl2PLSf7Jr057mXXVO3J3RSzwOOO9Vck7seeKQZY7zxuYamzUr6LrmGEZWvT8okr4HnjDYe8bSD/btPHXVJMp5TzQIIrpVLrrvJ7Ol9ePI9MAsuknJVhFayYIe4YnnyLZHTpoi0PFtknROKD9HdaBEa8bnH9iKHdxAZvr/I9BYir6wh8vbagTDcFGZDbyNAv9VK5JMzRb5v4heWebCXVzHkEp+dKUpJsJdrk8K99vmjL5Q1112/JjygQ6NNaydtu+CCC+u30Wpq7PAqSibsZdNk/Dhvrnzfb3/55ah9RI7dNzH+7iO/HId1T2xf+emo9vLV2f3k588WRUr8+Kn35OFRd8nj590bEZ59yyVCYw/JI+fcK/PvfakgLe/8W26UZXZvIavu3V7W6LZr8u/t5LiLRphj5OME5nzmynzurTfk7nmPyKzHHpFHnn3WhIzmmDt++7yHZPlOO8nf924nq+2zq6ywx07S7uhD5fMvv7ApXGosVlKdNIxIDaNuuFqWab+trNxtFyNCL7PHjtL74uH26CKaUoSG468YLX/usH1Sr3YmFPeKHXeUsbcUJ+6HbSmEe554WDY+cE9Zs8fu8s/uu0qbfgfK08kYFcrlM6bK3zu3kdWSPv7n3rvLinu2liNHDbNHS0Nj2lkMdqqofGx9a55qF6Ex6u08kPNZzFM5NLcHcinzxPy0+Yx0WCwf31za8PyYZa1npRp1VxFaCbHd0yTgWUzkBcRYig6NhSaE8v/uu+yeDN9++62JztC5c+eosIo3Lh7RSy+9tBGnu3fvLo8++qg9uw7KZKEJWwmE52NEjCAKAmG3Bw8eLJtsskmD46HoHArQq666ar23M1EVDjvssFSPZBem++233zZ1++STT+TMM89cbD9tFtlcfPHFRhDPxYIFC+TSSy81+2RTL8Jvb7/99kYQ5rMwX2fMF3ipO8E+jZ9++knuuusu2XzzzaP994c//MH07RNPPNFk+5b4JHVQqhg7jE3CTz/9LJ9/8ZW8++HHMv/d94296dn8d96Td97/UD765DN54+135ZYZ9xqv3zoRuk643f+4U434iTfypddPNsIjYZJHXzNBZs55RMbeMMWIgIjQhJG+eNyNMvSSK00Ya8TrcTffbsQ/wj4bD9IkT4S8NBGavZK7HTXQhIe+7pbbjUja99Sh0q3PABO+GS/sidNnGIEZUdV4bR9xrAwafqERVW+5a5YR+hCuERfdHtWUGxOhXYhqQmkj/OFxjec24aPxMkaEvuv+ucYTtu3+R5i8Tjr3QiMcI65TJ8TGvqcNM2IiHtOI0FiaCE14c0Teg08cbDyvEfRHJn1BHyDijp00RWbNfSTpn3FGzETYNH2TGGL5ReMmJnnNlRFXjKsPiU698onQ7fav8+RmP+7LJkw23tSI0XiBI7KPv3W6TJ/9gJx2/iUmv85JvyB+4w0+7JKr5eCBg821MPXu+5L23JCM4ZkmP9e/aSI0XvLtDzrKHpsst91znxl76k6o7wuS8UeUdp+16Xm4HHbyWWYxwIRkrC5Iyrp4/CSZMHW6XJrUG4/1LCI0+33j0Y3XPd7b9yTXK2Xh6c2+0ZffOCUZ79lmDKkfIbLxbGbMEad7n3J2ct2eJ3feO0fuSsZuUDLu9DFpjdicIkK32e8IM5Z4r3MuCxboO743LFqYctdMGX3VBBNqm3qy4IJ2Ie4jtp89Zqzx2j7zosuN8I04bvpYRWglA3aIK5pvfxC542mRYyaIbH9WnRiNd/TGBYTpLkqEPrC1yAE71onPB7cVObufyIxbRD58QuSb8SIf7C/yxoYir6+WGGL0ep5QXA4j7PY/rfjcQuSjgUk97hX5pXELWMuBvbwKIYv47ExRSoK9XJuMhQsXyrRp02WTzbaQtdffMCri1oKts96/TBun3X6HLDTxhJsWO7yKkgl72TQJv/z8vXx3yWD55aguIsf1sNY9sX1Fju8uvyT28wl7y8IB3eSHYzvLt/dPqRfcXpr8jDw2fLbMOz+fCI05IXpOYHUi9GPDH5QXbntKfi7g+3nvM0/KanvtLP/o0k5W33s3+ftebaTl4fvLRwsWmOPU0xdE0wymP/ygrLlve/nLHjvIih1ayiodWsnkGXXv6F2atz77WDY+bG9ZvnNrI0Ivs/u20vqoXvLZFw2dY+qg9MXNCdBff/+9dB54pAl7vWqS1z+67yp/7riDXDdzcV2gSURojwn3z5AVO7eSlbu2k9X23lX+tsdO0vOUAXWh2BNcv2UxuGPO/XLcpefJMZeOlIGXj5bn3si2T/+w68bKH3bdQv7WtbX8NanPCh22k2vvud0ezc4zb74u63ZvL6t03UXW3Lu9/C25ZrY7dH/5+Iu6xQN1I5KdOS8+U9eei0fIsRePlNlPNHyP3RTYqaLysfWteWpBhMaoeyEWyyO02HlpFjs/ZrFz0yx2fmix83JZLI9qMeqvIrQSYrunSUGQZN6k+Jh16NBBnnzySZs6DuLqjBkzpGPHjma/5Fg+GMIoe6Hjiew+Iz0ibLjP/JQpU3LWC09qPx9noQjtDIEXr+JnnnnGlrAIPkOMThPkEW+PO+64eo9kQpYPHDjQ1O/EE0+Ud955x3yeBquv2fN+p512arAftDMEe8ThI444wvRhmijOns4HHXSQ3HfffTbnOtg/d86cOeYYobxj566//vrGOx0hvblI6qFUMXYYmwQWSfz880L58aefjHGN8991f50lD1oLf5GPPv3MiIsItyZE9WF1+88i1o28YrxMnDbDeGbuc9RAI6ASUhmhFA9ewhA7z94DTzjN/MVTmf10jbft5KnS57RFXsmIxtFw3Em5lElYb4RsvJLHjL/RiJe7HXiUCbeNoI1nKXvrtul5hPGEps6I34QIJ3zzJeMnGRGaNJTnBHVfhEb0RIRGSERIRXxHACS8NiGf2+3fO2nDKcZL996HHpPTR10iux7Yt04EHDrKeLgSMvnam6fJuMm3Jf99m5yStBehkfwQtqMi9DUTjOhLXuz5e1FSb/r2rIvGJmnxKO4v5115ndz/8OMm5DdC5e6H9JOdD+gtHQ7tJ31PHybjbLhwvHtJbwTjpMz0cNx1IvTO+/U2nsaI5nhR33zHTOOR27rn4ebzy26YbETcYZdcJT2S8aBvCcVOXoRdR0hFEEaoxyObz/ZiX+Ok7LgIPd5cKxiLBViYwPVCWG/2eGaBAOUOufhKMx542LN/eNv9DjeCLtfdTUkdqdMdSd+RZvhl1xjhGrGXvs0lQnMdc/zowXVh2u+4d47ZU3u3pO8plzHBwxvBl3HlmmcBwo2332VCaCPQn3vZ1Wb8udYR4Pc5Mrn+D6xrT5oITX/yb8Kgz7h/rlyclIM3Ntc3odenJu1nEQAe6QjuLKhAqL7r/odM37KIYlJSB8KFI4QzxrSVOprrT0VoJQd2iKuCz74SmfaUyImTRNqdK/KvQSLrDkz+npRfkM4sQiM89yLkdou6sNtH7iEyKino7ptF3g+2UfnhTZH/XJN8fojIm1tagXgNMeGxSyZI4/W8VmKrJ7auyNs7i3ycNObre0QWfmkrUnnYyysLqySWVXxWK78xHksM9nJtMl566WXpsOdesuY660fF21qyfyZtbL9nZ3nplcbdfxSDHV5FyYS9bJqEHz98T74/4zCRfr4Indjx2L7yy4DustDaz/06yddjh5rzfvjuR3n8msfk0XMIwR3bBzpi9d7QznwReo68dOszZmFMVr785hvZtd+hsnzHlma/39X2RljdUS695SabYnFR1DenPn709ZfS9siDZendtpe/d2snK3VpJyt22FEm3FUneJq0CbyXOPK8IfK7tpvJCrtvL5sf2EVunXOvPZoNJ3jefN9M+cdereQf++wiq3TfVZbv0lo2PqirzH9v8f3r729iEfrNTz+WLQ/Zx4j6q++9q6zcZWdZo3M7uW/eY+a434e5DGY8NEfW7LyzLLXbNvLnDtvKH1ttKiOuutwezc3w666Sv+zRQlalj7ruIv/otJNcO7NwEfr7H3+SvU7qJ8vtuVOS1+4mfPvfOraRMbcuuk7yYgfuubfmy6b7d06ulW1luY47yFJtNpeDTx1Qd7AJsVNF5WPrW/NkFaF9ITOfxc73LXZOLovlEVrsvDSLnR+z2LlpFjs/ZrFzc1ksj9Bi56VZ7HzfYufkslgevsXOyWWxPJxxXEVoJcR2T5ND6O1JkyZJixYt3IN/AyPywOGHH76YJ+6XX34p119/vQmPn0t8xmLCsG8Ir4cccojxcHZwwzdt2jQzr8cEZ9+c+ByWg8B7/PHHZwo9jVc2dUDs9fNwttxyyxmhmL2Ws/BNcoM8e/Zs6dSpkxHNY3n6hpc4Iczxvu7SpUvqOQj5hC5HuEfcJj11i6XFU/zcc8+VN99809aq+Ujqo1Qxdhgrjk8WfC5T74mL0OddMa4ufPLVE2TvfgNlt4OPlDMvvFxmPfSoERUPOO4UI74hrCL+IcCeeO6FctXEW4znK0LnPkcPMqIjAjTHc4rQ/U40wiB7IF86YZLx0kXIZB9iPFfxpMVLuXWPw2S//qfIpddNkttnPWDE5bE3TjF1umHqHSbEMSGgKZN8EdAXE6GTOjsRGs9bwjUPHH6BCQmNF/ik22cYEfK088YYcRcxkJDlePmOTPoF0fLyCZPlrvvmyhUTpxiRGIHTCdBYqgh9Sp0IfVNSl7MvvjJJWydcn3/V9XL/I/OMmL73kQNN3+KFjYiOsItwirB/RHK+8eROznHe1/lEaNIQNh0Pc/ZGPjFpK6Jpt74nGM/g6ffOkWGXXm3EYEKV79qrT9IXvY0HNnVEbCeEdp9Th9aNpfX8zidCkxcezHgzM36nj75U9kjqTV8haNMHeFwznvQ9nuXUceLtdyf1qgvHjQc8Y4Roy3hSHh7R9SK0vye0J0LjoU+Y67semCtnJ9cV9eGci8dPNKG2+Yx+3+PwY0ze5191nRHpaSeLGh587Em5+4GHjMc011NDEXrRntCLROjD6kXoux98yCyI4Lw9kvqcffFY44GOZzbXeduk7xHJb0iuSbzQL7v+JhPqfPIddxsBe/AFl5m60l7agne3itBKLuwQVxX/+VZk7qsiF98jcvjVIq2G1gnRCNJ4SPPvjU6uE6Y3PqXO1mwgQu9YJzY7I9T2/i3rhOf9EuvTQeSsI0Wuvzi5Sb1X5NM8+yb++K7IV7cn6YaJvLePyPzNFgnShM1+Ay/pdesE5byGt3OSnvNeQ3heR+StpL4f9BH5/AqR7x4RWfiNLbhysZdXVhA+r0qs/j46jylKSbCXa5Pw7Xffyamnn2H3gY4Lt7Vk6yZGW08948yk7cmk3YTY4VWUTNjLpkn47o3X5LuTDhU5ulsmEfrbCweb877+6jt55MqHSiZCPz7sQXnj9hfEeQrnxSa7aOJ1skL7HWTVrrvK6t12l+X3aiubHdBNnvYWm/jCKKc5gRT479OuukT+2r6lrNJ5F5PPX/doJVsd0VPeWvBZfRrHw889LS377i/7nXmivPBmXWjoL3/8UT4OtgpsABl4mbz69lvS8pB9k7q2kpX33c14QS/TvoWcdMkFNkVDmlqEhlOvGCPL7d7CeELjqb3CHjvKXsf3lU+s1zfF/mzN9WvIWx9/LC2OPFCWTcpZZe+djUfzykk+Mx6eY1Pk5twbrpU/G0/x3WSVZFz+0amVTJi9SDdx3RorO+Sau6fJ0h1ayEpdkzHeu72ssNfOstnB3eTltxe9G82X15c//CA9zhhoFius0i3JJ7EVd91OLr7pOpui6bBTReVj61vzZBGhfZEwq8Xy8S12Ti6L5eFb7JxcFsvDt9g5uSyWR2ix83JZLI/QYuflslgevsXOyWWxPHyLnZPPYvlgHFMRWgmx3VN22H+5b9++JsSzv9/w119/LePGjTP7L1Od0LhmTz31VHnssceM+Mx8Gwv7jBDM5zFROJ8RqnvUqFEN9lUmJPgtt9wiW2+9deoe02E5eAT36NHDeA0XElIcCNONcExd/Dyd4TF95JFHygsvvGDPWJy33nrLiL9pQjKhvtdbb73oMcolHDpe1gceeGBqOvbPRpCOHVt33XVN+dQjhJWmTz31lFlE0JQk9VKqGDuMFcfHny2oE6EHI0L3M4IxIh8ezXgB3zDtTrNPMSLusWePlCtuvFmmz37QiMx49BKme7/+J8sBx50mg0dfZjyWCWONdyvenAhpJqxwLhEaYfFQ9vA9wYij106eKtffdocRLI8afI7ZQ/jWGfeaPXsHDBttBMsThp1vwnZPmTHL7GdM+nvmPCx33PugEbLJl/JCEbo+HDdhmHsfJ4cMOtN4+VIfPL7ph7MIPZ30CR7iJ4+8yAizR5wyRAYOH21CJiNAI8YOS8pBWEU0RaBGWHXeqzERmnDciND02bAxV8nkpC4It/3PGmnaPX4KYbEflPOvvM6EzkbY7ZLk2ff0c0zIZgRvPHrxGEeYpH2Eic4nQuPdTVtZWEB9EEPpU9qA8I4379SZ9xtvY7zO8XAnLPnBJ55hBGUE3luT/hly8Vgj9JIXAj77X8dFaBuOO+ljwmLvn9SJPsYT+oqJN5vr6Phho8zCAUTYC5M6HX/2KOmZjOsp510s05MxxNscIRZP8ZvvmmXqcGIyhu5aySVCc5x0/DeC8owH5taN0ZkjTEh1hHw89RGGGVf6gUUYePmzpzh7N+Nd/8Aj88yihWPOHGnai7htFl2kiNA773+EdO83MMn3CtP/k++8x5R33Nnnmf3FaStCd79kPKkbxwhrf2PyOQsb2Bub/arnzHsq+Y5cZ65h8t394CNVhFbyYoe4KsGB553PRB5MLu/xc0ROnSzS4xKRtsNFtjy9zlN6gxNF1k/+rnqSyLCjJsvP+7cS2W/7OtF5/x1FDm4j0q9zcvKhImPOFLltvMhj94m896bIjwWGuSYs9g9JZb6+Q2TBGJEPj04quIfIm0l5b/xL6jyaEZj56xufWaF6/ibJzWxrkff3S35ok0b85zqRb+eK/PShLaQ6sJdXoWQVoxWlJNjLteywwHvmrFmy0Sab1+Q+0GlGWzfadHOZde998ksBHpeNxQ6vomTCXjZNwtdvvSxfn3KYyNH7ZBCh95LvLjojOesX+f67n+WJax8vmQj96NDZ8uHcwp0lPvj0E2l12AGyYvsdZZWuu8lq3XZL/r2TtOzTSx58YfHIhz4IqOdNvE5W3rOtrNSlrayanL9y111khd22k9FTbqhLFFE6F3z5pfzwM2cnt2evvCj7nH6CtO5zoFx551T5Ps+88tjrL0u7Yw41AvBK3XeRlbvvKivu1Vq26NVNXnmrbuu/sLzmEKFfevcd2eKAbvJX4z28qwk/vmLHHaTXWYPk3QWL9gVP4+Xk/E4Dj5Hl9tjRiMirdt9N/rzbNnLgmYPkhx+y7c1/6lVjZLn2dV7u7Jm9XKeWctWMqfZoYXz27dey63G9ZbndWiR57Z70e/ukbTtKx36HynOv5X8m/ejLL+TwUUNk+Q47GE/5VbnOOu4o7Y48SD7+T13496bEThWVj61vzZNLhCYUK5/vuOOO0q1bN7NnaT7be++9jWcg52J+fk5kJIRq7NyY4dlGOFbyCvdIJq+VV15Ztt1228z169q1q7Rp08aILX5evi2//PKmzaSN5REaZdPmVVZZZbE+xKg39aTdtCeWR8zw7uP8WJ7Oih2bMB9XBnusxs6NGW3ZbLPNotcOYtFaa61lwhLHzo0ZAtZWW22VOjaUoSK0EmK7p2zgyTxs2DBZbbXV3MsTI6iedtppRoB2vPvuuyY8dZpH8K9//evons8YnxO+GoHUicOhQLzhhhvK2WefLSeccIIstdRSDY75aW644Qb56quvbK3qQJTFK9rP2y8D0RcvYfaWZo/qxnD//febfnB5h0YbEfIJR+5AmD7jjDNk7bXXjp7D/En4cUKcE9b7sssuM3s4x9LSTn7TKANPdH/c0ozxPOCAA2Tu3Lm2Rov44YcfjKc5ffi///u/Zh6/+uqr5dNP899QloKkfkoVY4ex4ghFaBc2u0vf442IjMfuzXfNNCLv5On3yC13zZbLr7/ZeMeecf5lxjP69PMvMaIqe+rOe/YF482L4ItgipCJUGryTSxNhCZkd5fex8shAwcbj9Cb7rjbCICEKEYMxhN36CVXmRDO7FM8NDHCRyMII1YijhN2GbEUMRzhmTzZTzcUoY85a6Tx0KU+HDt55MVGdKRMQmRTN8q+4JrrTehr2ndOUifCNPMZdbpy4q3mnCl3zpQRl19rBF7EYMqMitBXT5DOfY4z+yQjnvY/89wkD/YmniXXJ/kgtCLgj7lukgxJ+o02nJm065gk3eCkj2fOfdSkRfjHWx3hFxGYMtNF6JuNOIxoSn0I8U17xk2ZlrTvnqQdd5pFBnWexrfKiCuuNe1ECD7y9HPMf7P/9+PPPJ/8fTTp4ynGu50FCoiyiOC5RGiEco4hziO049VMvQh1jtiKFzTX16ikvozfKaMukRPPvcB4tE+9Z7YJpX3dLXcYoR+P5n5nnGPGk4US5B0VoffrbcaAsaVfjhsyMmln3Z7XlIu4Tb6Iviw2OO+K8XLhtTdYwfsKU/at99xrvhO3z7rfhEhn0QNlukUNux7QUITGc57PaTNpCD+OFzTX401JP3Mt0VYEferL9Y84zmIJyqXf2Hv9mpunmZDzt9w920QUoP70H99L8lcRWsmFHeKa4D/fiLz2ES8dRe55TuSmR0XG3ity/l0iQ6aL3HvLU/LLDWNEbkzs1muSRFNEHp4p8tzjIm+9lmSQ3Ff+4r2JbBRJPj9/nNwEviDyTXJviKc0gvKCS0U+Oy+xcxfZggtEPr9S5MvJdWG2v3tM5Mf5Igsb3otXE/byKpZ8YrSilAR7uZYdnvn2P6CXrLnuBlGxtpaNNu/f6+CkD+q8HJsCO7yKkgl72TQJP370pnx/Wt86EdoIz3X2y4DEjq/bF9qI0Cck1q+T/HjFMHumyCu3vSKPnoPA3BgR+iF59Nw58sSYOfLNB8U5RtzxwH2ySsdWsnznNrLK3rvJql12k7/uvpNs0GMPOe3KMTL3mafkgwUL5PuffpIffvpZPkjmv7vmPSy9zjlVVt2jjay8x851AnS33WTpDttLxxN6y6df1e0XXC8IR27F7njoQdm4e0cjbC7fYUf5e6dW0v3ME2XqQ/fLmx99KJ///JN8KQvl/a+/kkdefkHOGneZbHhwZ/nLXjvJKt13N8LsX7u2kZX2aCU33O3pAUF5zSFCw9W33yZ/7bijrNiljay6d1L23u1k+eS/Wx17uIyfdZd8+Nnic+hb770nY6feLNsdtn+SfytZjb2Y920vKyR9s3WvbvLsm3X7Qfvd+W7SVw8//aQ8+tyzdfbsMzJp5gzZ6rCesvJe7Pe9u9nze4W9WsluA46QOx6ZI4++8Kw8/NwzxuY886S8/Nb8JM/IIHnc9+yTsuY+ST6d2NN798R2SdrXUjbv1VUunjJR5r+7+NaKHy34TCbed4+0P/5I4xn+j712ljWSMfjbnq1klaRNdz1c9641d8mlx04VlY+tb82TJkK7f+MZhvfe+++/b0SWfEa6sWPHmhf/Li9nCJMIoISKxWMvdn5opJs4caL885//NKFnw/zwdsMDMGv9yO/WW281Ik4onDpDDLruuusy15GyEUU22GADU6cwX+qNIMveooW0e/r06WZcyNPPj/zpRzwvEZwKGZsrr7zS1MXl4/JE+KWshx56qKA6nnTSSWZswgUC9O/OO+9sxKUs+ZEG78OzzjordWz4TEVoJcR2T8lB8GRPYwRQiokZgiT7MBOa20G45+7duxvBMnYOhkDLPscI03jwEpabsNKxtBtttJERn33vXLyO999//6jXMXluv/32MmHCBFMvRGEWyPiisBOgqQPi6oMPPmhzLh3PPfec6QfKiAnSLDzBO3zIkCGyzjrrLHYcY17p16+f2YObVeg+H330kZnPmHdj5yLss0hn0KBBRoxeddVVF0tDvxMW/aab4nucsBc0ntExIZuQ3ZdffnnZxeikLKWKscNYcSwmQh9xrBEYCR1NGOj+Z46Q88aOM4LmNTfdZkJG9z9zpBGo2UP51FFj5LRRlxhBGKGYUNqETr5o/EQZfOFlcuigM40ImU+ENp61ibGHLnmTH96j5EUIY8TJw0/GG/kCIx7yl7w5HwGY44h8CNhHnX6OdOkzoE4kTfKOidB4tVIf0hx4wummDQii19w01XjoIvz2PW2oCQ+NN/Rp519qPGlPGTlGLrnuJhl7wy0yZvwkU8++pw41YZddG9JEaIR918c9jznJCLqIkZSHp+65l19jPHKpP16yiOPGe3fERUaoRIQnlHPHw44x3shOgM4nQhNG2nmi9zr+NJPfBUnfUyZ9TFjqAcPON33Eft6Dkr7EsxvPaLx3Ed0JU4339MAkDWHYaSd1iIvQ442nMkIx6Si7e79BpgwEXwRv0o64YpwpZ0CS53lXjpdBIy40Y4pXOP996YTJpn78m8/2O/akuusoya+BCO3vCb1f7/pxoF7scT0o6Uv2DqcNhIrn+kHMP3rwuTLkorGmndTtmCEjzV7PlyZlci3g6Y6XdOcj6hZRGFE4EKFv8ERozOx3naQjb/oLr2r6GTGbkO1HnHy2Wbhx7uXXygnDRpvvA9cuojUiP6HJTzv/EuNdbcT0pK3Os1tFaCUXdohrlp8Xinz3o8g3yW32j98n//j+28S+E/kpm2dIyfnl58SS8n9J6lFvP3Cg7niNYC+vxpImRitKSbCXa1khEtbUqbfJuhtsKOv+a+OoUFvLRpvX3WAjmTrtdvnZejOWGzu8ipIJe9k0DT99Lz9cco7IUd1ETtgvsZ7m7y8Dkn8PSP49oEdi+yafdZcfju4s38+8w54osuCVz+WR8++TeefdL/POf0Ce8CyTCD3qIXkssTnDZ8ir971scy2O4RPHy3Ltd5AV92pjBOXVuuwmK3XeWZbr0FLW6t5Rdjz6EOkw8CjpOLCftDzyAFm1y86ybIcWsnK3XWS1brsaYXbp9i1l64P3kWdey1aX484dIn9s+e/k3HYmbPU/uu4sy++xo6zcuZ1s16eX7HriUbLbSf1kp/6Hybr775nUZTv5W+fWskr33Yyo+vfObWSZPVrIOTdcnfOO674nHjci9MpdEaF3TfLZSQaOvajuoDnRF5/d/3KL0CsnfbTiHjvJxFnpIvTPv/wiZ199WdJP2yf92kpW2XsXWSmxZfdoJX/t2Eq2T9rY/cyTpPcFw+Xw0cOky+knyFYH95C/tt9J/tapTdIn7WXVpO+XT8ZknX07yu0P1b2fpcqubm988J6063ewrJn04XrdO8j6+3Ywf2nv3/E43qe98YRGiF4j6bOV92wtqydjt17PPWTdHh2NrdV9d9nkwM5y57yHbK7pjJtxe5J3G/lrp1bGu5s9olfotJOsmFw7Wx+yj+x92nFyxPlDpO8FQ6XHmSfIDn32l5U6tZYVkjYTynu1ZAxW3DP5dzLOl9wy0eba9HfMdqqofGx9a558IjQv+PGOKwRE5tVXX90IpaHQyWeIO4WAiIJw6ovQ5ItA8a9//UvGjx9vU2YD4QMx06+bb4TEnTlzpk2dDYSojTfeOCpC42WHyBLzsssF4X8Zl9AzmPzpR/IkbG4hMDYsLHD5uDzx/kZsQwwuhJEjRxoxPBSh8Xbs2LFjwV6Vl1xySerY8JmK0EqI7Z6SgGhLaO3evXtn8qDFEFjbt28vkydPtrnUwb7Ge+65Z1SAxQiRTVhoRNrYcea2c845R15/vW4FXIxnnnlGdtttt+j5GJEIEKtZWBOrB3VgIckXX9jViyXklVdeMeG3KZuyKD+sA3NjWr3wzL7rrvQbPQd7SF944YWyxRZbLJYPhhhNNA3EaAR3J1pvt912ZoFVrO14ko8ZM8ZE2UDUD/P0jRDgpEWwLgdJGUoVY4ex4oiJ0IhtTshDFEYQO+LkIcYQ3BB4EZZ7HnuyHHD8qXLQCWcYgRjBrs9piZ16tvl7yImDzZ7CiK8IaoigaSK0E1MpExEPkZaQ1L2TvBAXux11gglN3bP/yUZI7ZHka8RtW1/yIcw11j35N17CTohETA/DcVMm9THt7HOcCXHNHtQI4Aih/Df5IvrSxv2OPcUIzfscdaIcPHCw9DllqKlfz/4nmdDV5OPakFOEplzKTIz8eg043ZSJ9+x+5JWcj2hOeXV2smkT+yozDuQfCtDmszwitGknlqQjf8aMvalpQ4+kr7sdOcD06f6MaVIOZR5+UvIwefqw+nGlnnzO+a7c3CJ0PzNGjAV1RjSmfuxpba6lpH0cr+v7020Y8AGLrjnSncI1d4qpH+NU19YcIvT+R9SPhWszeXLNIABznRI+3vRzcl30MtfM6cm/T0yusYGmfZTJNUB/4J3f2e5/bdqbjF+dCH2NPPPSKyaUOfWrE6CPqS+TtFyrjCvtOCDJt2vSBupM2+h/+p167Ju0n+8F/XsQdUnq4fKhrSpCK1mwQ6woJcVeXqUiFKMVpSTYy7WsEIFrn333lbXX3zAq0i4JttZ6G0r3HvslfdE0YVTt8CpKJuxl02T8+Myj8v3xPeTn/t1k4YCexowg7UTo43vKL0d1kq/POVYWfvSxOQev04U/LpRX73pB5g6/Rx4/7/4CReg58viIB+WB4XfLMzc/Kj98xeK34mEZ36ibJshqnXeRZdrvKCvvxf7Ou8sqe7eXlbrsKit0aiPL7dHKGALkP7q0NXv6Ih6v1LmtLLfL9tKmz0Hy5MsvmvxoXz5h8YmXnpfWR/aSpXbfRlbs1Dopa1dZde/dZeWk3BU74TXcytgKe7aWv3XZWf7RPanTPgje7WS59i3kH912lnMnjzdhwYHyYmXOfvxRWWnPNvUi9LIddpIBl9v9o80Jvvjs/re4CD3s2rGy9K5WhE4MEfqGexYtKvBxvjI//fyzDB8/Vlbfo03SrzvIStShW12fLrdHa1m2Y+vkb3KsQytZevcdzb9X6rqb2Xf5b8nfv+y2o2x14L4y7fFH6jJMoF6ubnc+9ID8dbcWRpz/+147G2PxAG1drdvuxla1Rqh1wmCv3GUXk2aRtU3K3lbOuOZSm2tubpx5p6y33x5mH+5/dG5nrpOVk+tmxWSclmm/vSxrbLvk39uZvbDpr9X27mDqtMzuLeWf+7aXS6bFHX6aCjtVVD62vjVPPhF6/fXXlxkzZtjU2UCQzSVCP/LIoi9VFu65555UERpB4aqrrrIpszFnzpycIjQCSKFCJ97aeCzmEqELFfMRy3OJ0ISupW8KgbGhLi4fl6cTod944w2bMhuIZGkiNMLc559/blPmh9WViEkqQsexU5MSYLunUXz88ccmQgLe+7H9kzHmn0MPPdQImbHjeDLvt99+i+0nfNtttxnB0w/TnSZMY3xvWIyRS3wOYe9n6h7LD2MOIkw15j7z60BY/YsuusiEnm4sRFPAe5nvq8vfWUyIDg3h/pprrrG5ZYfw3ngmMw/H8qXteD0T1hvRmDEPYb9n5mn60u+rLIYIfsopp8iHH5Z2378kb6WKscNYcdSL0GfYPaGtx6cRwBLDA5TP+DeCGEIb/434az5LzAh0Voh1n9flgXB3nBEhG4jQV4w3Yb3TRGgT0tqGPyYvykPoNHkfsUicw/jMmK2TK79OhK4TSffuN9B424ae0C4vztnzcJu/Ld+UR7uTz1x5rl78JW8+q+uL/iaNawNpMCNCj/NE6ORYh4P7mTLMuaYvbZn2v12ZJo3Jsy5f1zbK8cNwO4uJ0IjCoQhN3cN2mfq6cu3niKMuX+rhBGBjyX+7f8dFaBeO2xOhXTmJmfwSM2Nmza8PoqufzoUfZ09t8iNNe/aE7huI0CYc9yIRGnP5dUrON/knZvqScpP8+G/SmH7hb2KuHm48/Py4Vnc5oI8Mv+xqK0LfaURorifqSBpT5+Q8U2ebn8ubcvbCkn/7RhqTzj8v6XP+UiaLF45XEVrJgR1iRSkp9vIqNU6MVpSSYC/XskEUrntmzpQNNtp4iRahafsGG22S9MXsxSKTlQM7vIqSCXvZlB976f/yy3fy/V3j5av+XeWHYzrJz8ftY8Xn5O+xXWThkd3kmzMOl+9ef7TulF8QOX/iH/LzNz/JK7c9L3PPuUfmDb9Pnhg5V5447yGZN3JOYg82tBEPyuP8PfcBefyc+2Tu8Lvl2VvmyfdffEeudcpkI7+Otz/2kOxyfB/5W4cdZYXdd5C/7cV+z+1kla67JLarsZW7tjNeyCvsuZMRg9fae1fpP2qYvF3/zitpV1KZLFV55z+fybFXjpa1e3SQv+y+vQn1/PcuO8tK3XaRf3TbVf6ByJ38/XvXnWWFLq1lmY5JnfZoJe1POErumPewzSUhaTvlxcp86NmnZKX2LWX5PXYyovZSO28rZ119ed1Bc8Ii6XnR/xYXoUfdOF7+2GpzU8fl92wlKyRtv/n+WfZoQ8KhmP7Qg7J7/96y4u4tZRnqkfTfX5N+/TttTIz2/i357xWT/l5+r9byl6T/V036+vDhZ8lz860eYxvo5333vEfkb7u3SNq1gxHFV2hgyRgaCz9vaMt3bClLtdtShl6fXUN7+KXnpPvgE2SVPdrIckmbEKD/3plrpU1irWUlwqR3aWs++9teSZqOO8nfk7Z1OvVYmf3sPJtL82GnisrH1rfmURF6kcjpTEXo7KgI3XTYqUkJsN1TFAiGeD6zv3Ba+Gyub8TFp556ypzDwxfhm4koEEvPHHDqqaeacNEOzm3VqlV9mlCIxVu4ZcuWJl//vELAI3j48OFmrkwrh+8PnsFp3r3sCc+2AcXsC42oy37VfE9jeWNOhA7rxX9vvfXWRkxvrEex2zOa/bH9MpzR123atDFCt1/Wyy+/LMcee2x0v20E6X333dfUj/7hfCJmhOkw5mzCp7OPdClI8lSqGDuMFcdHny4w+xHjIdp2v8Nll159jXjo224HHSm7HtjXGIKm+xxvV46545zrG3sRO4/YXZPzOBfv13MuudrslYtHNCLgzvv3rs+zQd6UmeRhyrT58DkCp8sXUbc+va0L+y67z9od0Ef2OLy/HH3WuTJuyu0y4bY7pc+pw5K29l68LfXlLao3f+vKq0ubls63XQ5I2p8YnsyjrrrOCKQjr7jWHGvb8/AG9TN9R18FebkyXfmm720dXJt9oy2texxqPLfZy3nKjNkmXDgif6t9D22QN2byjLa1rjzy43g4nqYOXl70L0Y5F4+fKPc+/LgMu/QqU5c2SVsRZ0ln6nxQXT0Xtbdhn7r/xsu5Ph1lMk62zI6H1OXRpsdhyb+PNqHFZz/8mFlIgedyi24Hmvzq8nGWtIn8kjK4Duv7PzFzzfCZPceNR9rYcq3uuM/BMuTiK+TpF1+WCbfebjza2+53hOkHPy3nmzKT/OrblnxGeQ3zX9TesNzdkn/j3d02sX5njpQnnnvJfnOLw05HSg1ih1hRSoq9vBSlorGXa9ng2brf0cfIOusvmaG4ndF2hOh+xxwr3xTxjqBQ7PAqSibsZdOk/LLwR/n24Xvkq/OPlW9P7Ck/9+8uPx7XVb49dX/57pLh8sP8V+vSsWjjF2REVNM6KXHhDwvlvcfelGevfUTmjZ4rj46cKw+PmCMPn+vZiAeMPXreffLEBffKc+MfkveeeFt+/MH6AVuBsl6dbARffPO13HTf3XLIWYNk60P3lnX3bS+r7dVGVtpzJ/lHYqt1bSfr7reHtOjTS0687AKZ+8Iz9kyKr5Nv+V8hPPbGyzJo/KWy4zEHy7/231NW79ZO/t5pJ/lbUt7KndvI2kkdNj90H+lxzqky8cHZSR2/sWcm2HanNf+b77+Tky+9QHZM6tuiz/6yzxknyCvvvm2PcoYTnv3/LS5Cv/D+O9Jz8EDZ8che0rLvAXLsxSPlk6/y7MPtVejLr5J+nX239Bp6smx+2N6y1j67yapJ2+jTlfbcUVbt0lbW7tFetundU44fc548+Gzdu2Ywl4pVn+0fwyfffi39LhwmLfr2lB37HSA79esVMT4PbdHxHY7cT7qdeow887Yndmfgxx9/krsff1j6jh4q2/XpKev36JBcG23lb512TMZtR/nHXq1l7e67J+O2t/QaeYZMffQB+faHRVtWNid2qqh8bH1rHhWhF4mczlSEzo6K0E2HnZqUANs9BUG4ZfaSZ1/fUBB1xl7niM/svxzjnXfekdNPPz01bDfexZdeeqmcf/75JlS/84T2y2NP4t13391sKVDIdyUXCKsjRowwbXPluHIxPLapc5rHMGkI8Y3Y+t13dqVlCtxYs9c8omtaOGzaGIreri78m3kHz+9CtwLIB3UfO3as2RfaL9f9G8MrmrDhLBrwxXvfCMnNPOd7iSPSE34dz+owT2fM+yeffHLBWzuEJHkpVYwdxrJSjFfCpwv+I9Nnz5Hjh55vvDj3PmqgCRPc0AaZsNoY/w6P+cdDc+kIY431OW2YXHjtjXLbrAfkkgmTTThqvFsb5llni/KIlen/t//5omMIo4Q/3v/4U+Xk88bIpOn3yJS7Zpu9rAkpjmAbnp9env/Z4u3zbe8jBxojhPVl198s98x52AjCHKOPG56XlpdfZlq9FhltwVP48JPPkjHXTZLp982VqydPNYsL8L6lLxqek6sNdWW5476FdcAbGTv8lCFyVVLe3HlPywXX3lDvUUxIaj99w3L9vBb/71g6wp/TVvImrDb7Wc+Z95Tc+cBDJow23vyLtzXMr+HnsXIbfrbIuFbxVD7/quvkhdfekJvvnGm8+xlXrrUwfawNi5dZ91msXELLUyah6E8aeYk889Jr9ptbHHY6UmoQO8SKUlLs5aUoFY29XMsGz4hbbrP9Eu0F7Yw+2Gq7HeSV1xp3P5IFO7yKkgl72TQZvyysCz2NLfzqY/nuxTny/dw75PtHZsgP81+QX9z7M9TDn5P/+wXhmL/JGd4z+8/f/iSfv/6pvP/ce/Lus+/Iu8+8ay3597NvyzvPvCUfvvCOfPXuAln4fen3Yzf1r/tnPR/8Z4HMefpJmTx7hoy7c6pcd+dtMvXBe+WxV1+WT75ruABlkfxc979i+M/338lzb7wmd8y5T2644za5bvpUmTJrhjz41BPy7mef1ofeBtN99t9AiblK/e6nn+T7xPBBX0TdWYv/r6EI7crhXPLA6vErkQGSv7vgM3nw6Sfklll3y4Tbk35N2nnbA7PlsZdfkE+//qouoYcpgv9LjHr5RfLf3/z4g3zz0w/ybWLfFWw/Lmqrn3EBfP7VVzLvhefl9gfulevvnCYTkrG7ZfbdMveZp+Sj/3zeMNuFSe8W8a6qlNipovKx9a15VIReJHI6UxE6OypCNx12alICbPdk4t133zXiM17HnBozvlfsH/zSS9k8j15LHsYQq9M8qf09n33BEo9bylmY/DCXg+uuu858r115vvH9ZL9lvm98r2Jp8PTF45c548cf2TmmIYQdR2BP8win3QjAkyZNMl7HfHfdMdcP/GVeRwRmtXmpwRu5R48eqZ7f6623XqrH9KqrrmrCirPYIA3q/OCDD5q9t/Ewj+VDuzt37iyPP/54tB/zkeShVDF2GMsGN/U/J3PIwuRvITf4X3/zrTz14isyYeqdMurK62T0NdcbkbiBjQss7fM0S9KSL3blpKly1wMPyRMvvCR3z3lExky4SUZdNWFRnrnyDj9PS1//+Q1y/tUTZMx1E2Xi9Bny8NPPyWPPvGDCco+6coJc4LfVP9/PJ9d/+597dv7V1xu7ctKtMnPuo/Lcy6/J3Q88nBy7ISl3fHLODXVpc+UVO4a544HRlpFJ3ldMvEXufvAReToZU8JUX3HjLTLiinFGGG5wTizf8LNcZvM5Pxk7xo9y703Ke+XNt40gzL7Q55m2Lkq7WB7uWK7/9s0eo63kfdH4iXLL3ffKy2++JU+//KqMTeow/LJrFpXnLJZP7Fi+tInR3hGXXyt33PugvP/Rx/Lo08+bhQZ4vHOtNUgfyyv2WY7PL7gmuYZtH994+z3y9nuN2+bBTkdKDWKHWFFKir28FKWisZdrWeC91LXjrjMC7DobbLSYKLukmeuDceOvM31TTuzwKkom7GXTpPDEnfupe2Fdggav+fKfVesU0wOuG8Nz3WeLkauAXMc8UpNxIEMeGZPlpiSZlIZiqmLOMSsHmr8RdqqofGx9ax4VoReJnM5UhM6OitBNh52alADbPan89NNP9eIzYbc5JWZrrLGGEUOff/55e2ZhsBey73XrG2Krb3yGSLvpppvKBRdcIB988IHNpXHwHWK+PuKII8x86cRXVybGfDR06FB7hhhP5pNOOinVE5hQ1F27dpVZs+r2QMHD+PbbbzdewLH0GF7gzMv8vgDtY19sP43fFxi/GSNHjlxsT+1CoQ+efvppI/AzH7tywvLSjHDdxx9/vMybl33/EsqcPXu2dOnSxcyFsXzxCO/UqZPZI7yQvbeTc5XKgf0Md6j7ZzbsMJYNJ0JjhYjQPyXX7OdffClvvPOePP/K68a7s5yGSPneRx/LZ8mc8P7Hn8iLr88va7nPv/q6vJSUMT9p3ycLPpdPP/+PvPF2edv6/Kt1RltpI/1Lm82xMpb7XJL3K/Pfkvc/+lQWJGV++Mln8vIbb8mzL78WTV8Ko39p08tJuR8k5X359TemrdQFi51TCqNMrp233v9AvkjKpL20va6t8xdL33gjz7prlUUF737wkXz73ffJNfUf08emHxKLn9sIM9cSeb8h89/9QL7+JndUknzY6Uhpegr+zSgUO8SKUlLs5aUoFY29XMsCC40PPqy3EV+X5FDczugD+uLQw44oy8JxHzu8ipIJe9koiqJEsVNF5WPrW/OoCL1I5HSmInR2VIRuOuzUpATY7ony5ptvGkGR72aaALnTTjvJeeedlxp2uxAI83311VcbwdX3vg0F0LAuhOtGjC5ERAphT2PCS4fez2FZfI8QQkMP7Ndff13OOOMM+eMf/9ggvTNE8+7du0u3bt3M9zuWhvkKsd8JyXj+Xn755UZsd2nCfgjrx2/OkCFD5NNPPzV5FAJeyywkSBOCXXlhmc7wWCY0emN44okn5MQTT0zdM5rPCcGOkJ/FMzo5R6kcEBMYk9n233mxw1g2mDP4LmOFzh/uXCdil9NMHZPyTJmJxdKUw1y/1Hpb/TIx8/nPi6crhzVoa1OVmViTtzUpY+HCuu9YfblNYK6tjcFOR0rTU/BvRqHYIVaUkmIvL0WpaOzlWhZYwL5tix1lrfX+FRVll0SjL7bfYUd57/33bS+VBzu8ipIJe9koiqJEsVNF5WPrW/OoCL1I5HSmInR2VIRuOuzUpATY7olCGGiSOPPFR65Z9j0u9V7E8PHHHxuhMVZumgCKtW7d2syPhbxwfvvtt82ezISPdvk4oTVmHOf7iVcuQmgIYvQxxxxjvmsuv3zGdxNv6ieffNLkwXf5pptuko4dOxrP4tg5zvx6+cZvCHtb8xIgH19//bWZ27bffvsGeaXlHX6GBztzz5dffmlzbDzsI4Y3NnuLx8KBE76b/uFayUWSVqkcnKDgLK+wYIexrDgxTlEUJYadjpSmp+DfjEKxQ6woJcVeXopS0djLtSwQAWzjTTfX/aA9oy823mwLmTW7sHeahWKHV1EyYS8bRVGUKHaqqHxsfWseFaEXiZzOVITOjorQTYedmpQA2z1R8PhlDiOZMydA/vnPfzZeuqUET2j2Wj744IPN9z4sMxQ/+e/wMwRLzn/mmWdsrnHYi3r48OGL7WkclhXm7xuhtg899NDo3ER46Vz7KWP04X777WfqAoSZvvXWW2W33XaL7pFNSOrwM99i/cH8cuWVV9aH9vahv6dOnWrEXN87O18fhP/dq1evkoVED2HPaOYuV25Y9h133GFTxknSKJVDKCg4SxUW7DCWFRWgFUXJhZ2OlKan4N+MQrFDrCglxV5eilLR2Mu15BCBZPSFF8m//r2p7gftGX2xwcabyflJ3/DerlzY4VWUTNjLRlEUJYqdKiofW9+aJ4sIfffdd9vU2bjllluMCO3yctZYERpRx88P4ZP6Ef62EObOnZtXhEZIKoRJkyblFaHvu+8+mzobjz/+eJOL0PPnz7cps5FPhI4JR2lww68idDp2alICbPekgictIbl9AdQXAhFa77//fpu6ONgnGa9qvIt9z99QcPQ/d8f8f/vGd/y4445bzFOW7yjfu1B8dubnFeYbE4axpZZayng/f/jhh7aURTCfI/L66RGf9957bzP/uIdQ2p/L85nvMKI/4jZ7Vodhv10/xPoC23LLLc1cz5zCPt+MWYcOHVLb5PIJ//rmf8Z8ShjtfJ7JWfn2229l3Lhxsu2229aH5vbL4/eCvbk/++wze0acJK1SOaQJCs4WExbsMCqKojQbdjpSmp6CfzMKxQ6xopQUe3kpSkVjL9eSw6Lqo4451uyDrPtBL7K6/tgo6Zv+8v33P9jeKj12eBUlE/ayURRFiWKnisrH1rfmySJCE46mEPBMSxOh+Ttv3jybMhuIFgidMREaT2he9BcCIjgCSEzoRPhBMChU3EWAcSJ0mKcTofGIKwRC21KfNBEaYb6YsUFscfm4PJ0ITWjfQjj33HOjIjT9i0BEmNxCuOiii1SETsFOTUqA7Z684HHKXMcpofGdZz9lt5dxVgjfjOfvHnvskSqGYngcM1etu+66DT7PIpTy/Ud0ZhELf9k/2j/OOc78z31jPqZ9eFcjbK+yyirRdIjRhPYOF6Mg+o4dO1a22morsyc0fcmiEWBRT//+/U146ViezFOEpX7++edNegf/3aVLF/Od9tOH7fD/m3+3aNHCiP2+p3nM0vqkTZs2svXWWy/2uTP6G3GYcNrFgFcqC7dYhBPbX5vFEBxz3uP5SM5RKod8goKzemHBDqOiKEqzwVykNAsF/2YUih1iRSkp9vJSlIrGXq4l55tvvpGOe3aWNXU/6AaGCM2+0J26dJNvvv3W9lbpscOrKJmwl42iKEoUO1VUPra+NU+aCO0MYZKX9vvvv7907949r5Fup512WiwfzOVPefvuu2/0/NDwUtx5551N/UKBl/zYBxVRgpCwsfN922effUx+lB8Ku74tt9xy0rZtW5Mn58Ty8o107CmKsBPrQ+pNP7Zr186UH8sjNPpn1113NefH8sToE+pZyNhQTwTsMC9EZD5HTMtaR9Ih5tC2sI70L8L7XnvtlWmsSUNf4zWYNjaUoSK0EmK7JzOE72chBqeGtt5665nQ+vkWT/BwiviM529MaHSGCLrZZpsZD3/CPb/zzjty5JFHym9/+9vF0jnB1P3b/bezX/3qV0bM9j/zLUyP8b3Bw5kFLQjJjhdeeEEGDBiwWD2c8d0lBPaCBQvsGXWwMtyJz3iYsw8080Ysj2WXXdbMEYitaSG7EGwJBc485p/r94X/ecxcX/nnxM5jQdXJJ58sH330kfFcv+KKK+Tf//73YumcrbbaanL66afnDYvug/czZcT6hIUOrVq1kgkTJsinn35qz8hPcm45OC2xxeqoVnKbUsiWFIqiKOUgmYsai/5mNI1NSWypxDJjh1hRSoq9vBSlorGXa8nhOW37HXaSf66zflSMXZKNPmm5U2v5/D/le76xw6somTsGqSMAAIEqSURBVLCXjaIoShQ7VVQ+tr41Tz4RGnES7zhCVOPpls9IR/o04RQjVHPs3DRznrEx8ZTPCQ1bSP0oP5aXM44V0+bQG9jPzwmosfPTjHrG8nNGnqWsJ4agFjs3zfBGjI01bUZMJjRv7Lw0W3rppVPHxvWhitAVzSqJNSq0YKHY7imIN9980+yFzPVGFr4hzLZs2VIeeOABm3oRiM8u7DbXa3iuM0TQLbbYQkaNGhXda3j69Olm8Yyf3v+3L6T6x2IWO873uGvXrnn382d/fBb5xEJoky8COh7QeHw7PvnkEzn//PONV3R4DsacwMKcmTNnGtE6C+ztjKhPn/zmN79ZLM+wP/x/+39jRl8ccsghZo/9EEJvsygh3DfcN+YxvMdzidE//vijicjBdRPLg3lr5MiR8sUXX9gzspOcr1QOWb3aPk8M0WYpO4yKoijNRjIXKc1Dwb8ZiRWEHWJFKSn28lKUisZeriWHBdRbb9tC1lx3g6gQuyQbfbLNdi3kjflv2N4qPXZ4FSUT9rJRFEWJYqeKysfWt+bJJ0JjiIKFWCwP32Ln5LJYHqHFzkuz2Pmhxc7LZbE8YhY7N5fF8vAtdk4+i+XjLJY+l8Xy8C12Ti6L5eFMReiqwL1wa/Q+d1mx3VMUhOZn/iOb0H7961/LGWecIe+//74RYW+77ba8ns94KjvPZ7ye83HppZeayBFhPr6oGoqu4TH3b4zvByGup02bJt9//70tJT+I4ptvvnmDvHwjGgZiLaI64nqaRzahuglFneb5nIXrr7/eCON+vmE7w8/DfnHWuXNnufHGG23O6SAijx49OlVYx1i840Ka+yC2E8UhVv4yyyxjBHn6BK/vYkjyUSqHfILCYkKCHUZFUZRmw05HStNT8G9GodghVpSSYi8vRalo7OVacuY98YRsuc32KkJHjD7Zauvt5Yknn7C9VXrs8CpKJuxloyiKEsVOFZWPrW/Nk0WEVlOrBFMRuioIX7iVXYy23VM0ToBM2yd5ww03NHMkkQn8z0PRccsttzT5EKa6EAj9PWLECLMNgJ+fb2FZ4X8T4YDQ94jJeGsXA2GqEcVzeQWHRj3YC3u77bYz+7njJV0KENCnTJliwleTf0zgjX3mDI/kyy67rGDPY8Kv5fOM5rfy+OOPN57yp5xyitkSIpaO64F9vLN6g6eR5KVUDmmCQqqQYIdRURSl2bDTkdL0FPybUSh2iBWlpNjLS1EqGnu5lpwH58yRLbbeTveEjhh7Qm+Z9A19VC7s8CpKJuxloyiKEsVOFZWPrW/NoyK0WrWYitBVQdoLt7KJ0bZ7Gg0CJGGXCe9PtlkMj2A8iBGf33vvPZtTcTz11FPSs2dP4z3rl+HE1vAvYav5Tuy9994yderURoudDoRbPLk32WSTxeoQ/htv8RNPPLHRbU+DvZvPPffc+nDhafVwhrcy3uuvv/66zaE46INLLrlENt1008XKcBYLYY6tvvrqMmjQILPvdilI8lQqh3B+yysk2GFUFEVpNux0pDQ9Bf9mFIodYkUpKfbyUpSKxl6uJefee++Tzbfa1giuMSF2STb6ZIukb+69917bW6XHDq+iZMJeNoqiKFHsVFH52PrWPPlEaEIkL7/88mbvVDW1pjKEuHDvahWhq4I0EdpZycVo2z0lA+/VHXfcMVZ3Y4ifCJB4ul5wwQXy1ltv2TNLw+mnny6/+93vFivTia7u7//8z/+Yfa2LDfOcj1dffVU22GCDBnXw/+3+e4011pB+/foV7AGehYsvvth4otPWsFz33/xlXhg4cKDMnTvXnlka8CrHO3zrrbeuL8sv3zcWJPTv3z/n3tHFkOStVA5ufsssJNhhVBRFaTbsdKQ0PQX/ZhSKHWJFKSn28lKUisZeriVn9uzZKkKnmBGht9zW9FG5sMOrKJmwl42iKEoUO1VUPra+NU8+EXrFFVeUddZZxwgu7AWK15+aWjmNa22jjTYy4ZH9a1FF6KognwjtrGRitO2eksK8yP7GZO/MFx+7du1qwleXCoTkefPmGRGTUNB4GPtl8jcmfv7lL38xew6/8sorNqfGw37OiLnku+yyy0bL9+vlPltttdWMVzQe5Y2FB9uDDz5Yfv/739fn78qLlb3CCiuUdV7As7pt27bRemDsJY33OKHdS02Sv1I5bJRYQUKCHUZFUZRmw05HStNT8G9GodghVpSSYi8vRalo7OVaclSETrc6EXobFaGVisFeNoqiKFHsVFH52PrWPLlEaLyg8cgbMmSIfPbZZybkKt5uamrlNPaVnTlzpuywww4NvKGbUoQ+9dRTmazUym9TEmvUyzk7ZCUHD+fddtstVmfjmYtg3Niwz4jPTz75pBx99NGpe1KnmS+Csic0IaDffPNNm3NxvPbaazJ06NAGdfHL8S0UYp3961//kiuuuEK++uorm2s2CCf+8MMPyzHHHLNYSPJc5uqBdzrhzEsZHuzjjz+WcePGmd9I+tiV58qmnw466CCZP3++PaP0JOUoVYwdRkVRlGbDTkdKDWKHWFFKir28FKWisZdryVEROt1UhFYqDXvZKIqiRLFTReVj61vz5BOhEVsIiaooTcnzzz8vbdq0MSK0uy7VE7oqyOoJXbLQhLZ7ygLCKHsD451MUaGtueaaZg9iwjYXCoLxyJEjzXUd5huKu3/84x/NftWHH354g1DdYbp1111Xhg8fXvD+0ITeRnxOayf2//7f/5OWLVtmFsu33XZbufbaa20JuUHMP+GEE6Lic9jG5ZZbztQDL/BYGvb0Zp/sxorR7OnMHORCgfuG4N2+fXt54IEHbOrykZSnVDF2GBVFUZoNOx0pNYgdYkUpKfbyUpSKxl6uJQdniI023UJW/ec68s91N1DzjD759yabmz4qF3Z4FSUT9rJRFEWJYqeKysfWt+bJJ0L/9re/lcsvv9ymVpSmAVGqXbt2KkJ72Kmp0sknQpd8XzzbPWVlwYIFRqT93//931ibZLPNNpM5c+bY1Ll54403TOhm9lv+1a9+VZ8HQmoouHL9H3DAAfLggw+aMNnw+OOPS/fu3Y0Q6qf1bbvttjMrlN05abz99tty1llnGe9l//ywHi1atJCrr75avvjiC+MdzL7VCPB+Gmf+ubSvS5cuMn369Gio6s8//1yuv/56s9WDn0fMEOIJgz5t2jT5+uuvTQhy8vaFa79s+gfR/qmnnrKlZcP1ib8ftm9rrbWW2Qv8+++/t2eUl6RMpYqxw6goitJs2OlIqUHsECtKSbGXl6JUNPZyLTk8d7feeRfZcpvtZJvtW6p5Rp+02bmd6aNyYYdXUTJhLxtFUZQodqqofGx9a558IjQv8o8//nh56KGHjMjCDYeaWjmNa238+PGy9dZbqwjtYaemSidNhC65+Oyw3dMk3HXXXdKhQ4dY+0y4ZsJBP/vsszZ1Qz788EMZNmyYua7982LiM16+Tnz+7rvvbA4NueOOO0zIev+8MJ8ePXrIY489Zs9YBOLvlClTZOONN26QPjwfz+rzzjtP3nnnHXvmIgidj1iLZ7J/jsvDz4vFTHvuuafcd9995lx+d2688Uazz3KufZ+d7bTTTqbvv/32W3O+D/tX9+7dW/77v/+7wTnO+A3r27evEe9zQZ/ccssti/WJM+YfQoWzLcXChQvtWeUnKVupYuwwKoqiNBt2OlJqEDvEilJS7OWlKBWNvVxLzgcffCDTp9+RPBdOlalTb1PzjD65ffp0816jXNjhVZRM2MtGURQlip0qKh9b35onlwiNrbDCCiZEK55122yzjZpa2Y1rDc9Swv7616KK0FVBKEKXTXx22O5pMvCAxbN3ww039NtZb1ynI0aMMKImIOBedNFF0VDXodhK6GciANx0003m3HxQxqWXXmrmaT8f35ZffnkjwvKwiBcz4vP222/fIMx0WA9CWhNm/NFHH7UlpUPYasJf/+lPf2qQBxbmu/TSS8t+++1nPJj9sOJYTHxeffXVTUhv6p0PwoLhsY3g7efhjD5C2H/ppZfsGXWwLzcLX/CyDuvkjDnpkUcekZ9++sme1XQk5StVjB1GRVGUZsNOR0oNYodYUUqKvbwUpaKxl6tSY9jhVZRM2MtGURQlip0qKh9b35onnwjtzHmkqqmV23zvZ9/4TEXoiseJ0GUXnx22e5qcTz75RA455BAjrFINzBdR//3vf5uwzQiu7jOXJhRb2W955513NqGpCXldKAjdJ554ovme+Pn6tuKKK5p9jPkOxY5jiM94TxfzHXv44YelVatW0XzD9oYWHqcdeB3HvLhzQfjxm2++2Qj5fn6+0df9+vUzfcYYErKbqB+xtOutt56cffbZZnuA5iKph1LF2GFUFEVpNux0pNQgdojLBvdVX375pXz66afmnonFj7GoNEptYS8vRalo7OWq1Bh2eBUlE/ayURRFiWKnisrH1rfmySpCO4FQTa2pLHYNqghd8WyUWJOIzw7bPc0GXrQHHXQQ45PXQgEaQZSQ1DfccIPZd7qxPP3000ZETvMGdhaKvgjp++yzj/Embsxex+zVfN1110VDjvt/3b+duc8w6lHoPs4xxo4du1i4ct/YB3vbbbeNHvvNb34jgwYNkldffdXm1nwk9VGqGDuMiqIozYadjpQaxA5xyXn77bdlxowZZkuWPn36mGgxbKtCNBsWPY4fN07mzZtnBOp8PPnkk3LZZZeZ+zKMf3O/SiQapTKxl5eiVDT2clVqDDu8ipIJe9koiqJEsVNF5WPrW/NkFaHV1JrbVIRWYtjuaVZ4kTZmzBhZY401GKfFLBRaf/WrX5kXeng+f/XVVzaX0nHmmWdGQ0u7eri/7D3dpk0bmTRpkvzwww/27MbD78qECRNMWP1f//rX9WX6/eDX5X//93/N79Ctt96aKfR2Vng5Onz4cFlrrbXqy/XLDg3xGW/uK6+80nj/VAJJvZQqxg6joihKs2GnI6UGsUNcMj777DO5+uqrTXSeXJFz/vu//1vWXHNNOeqoo2Tu3LmycOFCm8PisL1LeD5RZirlPktZnGSMFKXisZerUmPY4VWUTNjLRlEUJYqdKiofW9+aR0VotWoxFaGVGLZ7KoL33ntPzjrrrOgezb4Ii6fyueeea88qHa+88orJF/E39Ib2y3eGV0s5GTduXP3e037ZYT3Yt5p9s8sFHtoHH3xwA0HcLx8j9DZe3ISbrCSSuilVjB1GRVGUZsNOR0oNYoe4JLz00kvmXun3v/99g/ujfLbOOuuYxXtpkXQGDx682DlDhw5VEbqCScZIUSoee7kqNYYdXkXJhL1sFEVRotipovKx9a15yi1Ckyd7kYaGSMPffGX6aUNj7+DYOfnM1cnly2fsCep/XkjeYX6lsrS+ceU11tLyx2LpsUL7ppRGfVWEVkJs91QUhLXefPPNzYu2NMOLpFevXvLggw/as4qHPYvxKtlggw0WKycmuPIZxvcZ0fy7776zOZUGXmTijb366qsvVnaaLbXUUrL77rvL/fffb3MpDeyxfemll0rr1q2NB7pruysXL+x9993XhFWvRJI6KlWMHUZFUZRmw05HSg1ih7jRvPDCC+YejCyLsWWXXVYuvvjiqLDM/WCYftiwYSpCVzDJGClKxWMvV6XGsMOrKJmwl42iKEoUO1VUPra+NU+5RWgEyzRzwmbsPCx2Tmix89KM9iG6uH8jPK+99tpm/9IWLVoY0QjRhHxdf1C/LP0S1qsUltY3rl6xc7JaLjHZ9VN4jjOOZemTUhtlqgithNjuqTjwCBk9erSZWwi9vcoqq5gXb6GxL/SAAQPk3XfftWdm55tvvpFrrrkmKj6HxpyB8O3+2xdiCUE9fvz4THv75YI9lHkJybzql+OX9cc//rHeI9lP4/6NB/cJJ5wgjz/+uM21eFgMwB7Tflm+7brrrnLttddW9L6EST2VKsYOo6IoSrNhpyOlBrFD3CiIALP33ns3uD/ybbXVVjP3sizm41mZrVxi6XiuvuOOO2yui1ARuvpIxkhRKh57uSo1hh1eRcmEvWwURVGi2Kmi8rH1rXnKJULzIIpnGw+1kydPlmnTppn9Pp1Nnz7d7Dm1xRZbmLSxPDbccEO54IILjOjon0teN998sxx44IHmQTh2bmhOTP7nP/8pnTt3lssuu0yefPJJefvtt83D96effioffvih8Shkb6tzzjlHWrZsaYQjzk0ThJdeemnZaaedTFtuv/32BvUs1mgfe7TywM+4uLLopz/96U/SoUMHue2222Tq1KnR8/MZ595www2y3XbbmTHy+3+55ZYzQvx5551n0oXnzpgxQ4444gjTL00tRKsIrcSw3VOxuL2Wn3/+eenTp09qmMONNtpIbrrpJvn2229N+lwsWLDAhI5GPPYF3JjxfR44cKA88cQTRnBlDoylw3bYYQfzPS8U5tCxY8fmzBuxvW3btmbuZo7r3r17A1E8tGWWWcaI0W+++aYtJTvM5YMGDTLzZyxv1ydZ+rq5SeqrVDF2GBVFUZoNOx0pNYgd4qL56aefzOLBcAsXjOfD4447zjz7sciQZ+ZnnnnGLFrkWTp2Ds+ovFvwURG6+kjGSFEqHnu5KjWGHV5FyYS9bBRFUaLYqaLysfWtecopQiO2IAT8+OOPtrSGvP/++6bslVdeuUHZ/JvzEWGfffZZm7ohPLiy9ymipF9uzBAz1lhjDdl///3l0UcfNcJDPs838qdvEIPbtWtn6sO+pX6+fPaHP/xBunTpYtpSSgiP261bt8XEXoScvn372lTF89VXX0mnTp1MKFq/TfTVuuuuK/PmzbMpF4fQtmuuuaapVymvmXxGWSpCKyG2e6oGXuClhTxk/+Q2bdrIww8/bFM3hHlp/vz5ZgGOL2bHhGi+K+z5/PTTT9uz6/jggw/ktNNOaxAq2z+fOYb8eeGYD15esnAHQfl3v/tdfR6hMcePGDHCzDsOziX09jbbbNMgbdgW9hocNWqUqXc+Pv74Y/NydNNNN22QhzMiObAw6qmnnrJnVD5JvZUqxg6joihKs2GnI6UGsUNcNG+88YZssskmDe6VMLyfWbDMvVoMFvsdeuihiwnRLGZmQaVPmgjt4FmfqD5Dhgwx96fnn3++zJo1S779Jn2h4Isvvmie0SdMmCDXX3+9qat7dv3666/NgkrKZcEh9SFyUIxXXnnF5DNy5Eg544wz5PTTTzf3nCz0RnTPBwvXXR34y0JL906AZ3ki8rCwm3axwJ18Q5EeuLcnD7bWOfXUU00d6AP/vjkfL7/8skycONGUR1sok3bxGeHWCyEZI0WpeOzlqtQYdngVJRP2slEURYlip4rKx9a35qlkERqvvOeee86mbsjChQuNqJFLhCYP9qhCVL3yyitNeNxiwMsPjzy8/HwhupwiNHUljGxMhD7yyCNtquLhoZZV7ITGdXljWURovMjpC+pVymsmn1GWitBKiO2eqoJFMLxoYjEHTQgNQffEE080eys7HnnkEendu7eZd1y6mPjMue3bt8/r0fzRRx+ZBS1pntlEmRg8eHD0JRxiOHtZH3TQQUbY9c/z68TLSOrMS860F5l4ihO2fMstt0zNB/v3v/9tFh7F5nHyvvfee6Vnz57ym9/8psF5GHtBb7zxxia6Q7WR1F+pYuwwKoqiNBt2OlJqEDvERcG96FVXXWUWQJKVM6JkIYLmg3s77s38c7HDDz/cpqgjJkIPHz7cPIvyTLnVVluZSF/uGFFyeM485JBDTBSfGBdeeKG5HyYiGfer3G9y3/zWW2+Z52SeGV1+u+22m7nn9WEBJfUiKhjn+veclM/5hB/nXcN7771nz1qcgw8+uL4O/OW+nvvRd955R/r162cWwXMP6vLmebZHjx4mGhtwPz1u3DgT2cgPc8459AHRx/IJyDwrnHzyyWZRJ+89/Lbwbz6jj48//vjUxf0hybmKUvHYy1WpMezwKkom7GWjKIoSxU4VlY+tb81TbhGaB8I08ZeHunwidNrDEqJDPk9oHuZY3c0q5MZCG3ggx3vQheb2RehcD6jFgLc2Hnvl8oT+4osvcorQufZjxRNaReimx05NSoDtnqrEvQSLhTTEeHmF50T//v3NvOMfC0VajO0NCKuYtvAnBmEWeQnn8gvzxROZl30urDgvHRGnmSv8dL4x9xJ5Ak/nrIt/8GJmsQ8v8Vw+1CWsDy/SCP3tRG08P/bbb78G5/lGXahvqefopiJpg1LF2GFUFEVpNux0pNQgdoiLgmdNItmQjW9E5OGeLAuInzybsQCS534WAhJpC29kR0yE5t4WIRqBNDzm24477lgv2PrgSf3rX/+6QVruO7mPDLd6CUXoBx54QHbeeefUe2/feO7meTlNDOeYn/7Pf/6zEfa5L/U/D42ISNxP4wG+wgorRNM469q1a6pXNu842BYs1/Y2vnEPfffdd9uz00nSKkrFYy9Xpcaww6sombCXjaIoShQ7VVQ+tr41T62K0Ag2CDjs01wqeFjnYZsHZuqnIrSK0E2JnZqUANs9Vc0dd9whW2+9tXlBlM9CUZYXT5tvvrnxJi52HiJkINEi1lprrQZ5+8ZcjccK87L/uV8fPDc222wzE5Iw35YHaSDMH3XUUQ32cw7bjPGSk7kord/4/eHlKvlVM0lblCrGDqOiKEqzYacjpQaxQ1wUhNTeYIMNGtw7IcyecsopNkV+EEd5Lps2bZp55ibiDFvK+M/+MRGa7WII+R1+HrPDDjtMvvzyS5tbHbwD8CP5UG8i6vBs7p+L+SI023Jts822i6XJZ+ThRydy8Kzup0OEpm2xqDy+cZxw5htuuGH0uG+k9cOXO55//nmzdVnaOaFI72z77bdPjTTnSNIpSsVjL1elxrDDqyiZsJeNoihKFDtVVD62vjVPLYrQnItQjOey897LxaeffmrqksV78N133zUPooi1lEUbCZuNqFtq9t1337KJ0MCe02l7QqsIXXnYqUkJsN1T9TBPsp/xRhttZF4SxSwUY/m+Ms8RfrAUsCcd++fle3kWMwRsQox//vnnNrfGwdyPB7j/Ei0mRseMPiQceTnm5aYmaY9SxdhhVBRFaTbsdKTUIHaIi+Lpp582z1dk44znZ/YmLiUxEdoJyNzHtmzZUtq1a5e6RQ3vCcKoZqEIzf2hH1acENsIvJzL8/Rnn31mwn8fcMAB9Wmc8WzNMzGLOdlDGS/l8D6YRZbHHntsAw9vCEVoFobiFU56Foiy4Jt70tj9K+Xyl4g9hP7eY489zAL6MB3GcRYN+BBeO0xHH7K3NntTT5482dxHh5GCqCNe6LlI0ilKxWMvV6XGsMOrKJmwl42iKEoUO1VUPra+NU8titA8zPEAyX5MuWAFMXnwQMrDJw9qrODOJ0aThtBZ9Bnl82A4adIkmT17tnlIdnbPPfeY8F3s9xSDz2nfXXfd1eC8WbNmyfTp002+4bjkE6HpF0LgTp061axKT7Mbb7zRrJ5mxbbfdypCVy52alICbPfUDHhrMH/RNN/cCyz+8v1jr7lXX33VnlVa8BQhrGFaiGvf2BOal1mvvfaaPbu04FHDHtd89/2XeLEXerx0JHT4Bx98YM+ufpJ2KVWMHUZFUZRmw05HSg1ih7goeG7lvolsnLHt1H333WdTlIaYCI3xHEokILypeSdA2O0+ffo02EMZ434v3KM6FKGdcd/KuwfuHfFc5jmcvzxz33TTTeY510+PcE2UM3ffSBQf6sM7gfA+k4XhPNv7hCI0hgg9YMAAc1/MPT3bxrBPdcwzmTyvu+46s8gdkfmhhx4yi93DdDyb0yYH4dI7duxo+op3A+TNc/Itt9zS4D0GizGPO+64xfLr2bOneQeURpJGUSoee7kqNYYdXkXJhL1sFEVRotipovKx9a15KkWERshwoib/Jo9CRWjOpVxEaB7ocvHYY4+ZcFR4AmOEpWbVM+IOIWcJh50GD4k8dPIgS11XXXVVs8p50003NXtQO9t4443NQx6hbmPgpc2qasKR+efy73//+99mTFzbnOUTob/55huzmpw8WQ2dZqy0dn3m568idOVipyYlwHZPTcH3j6Y540WYexmGBwPzRpYoD43hlVdeMXvH+fUI64KxIOfyyy8vW32Yi1k0w7zl1yO0Aw880CzAqTWStilVjB1GRVGUZsNOR0oNYoe4KFiUHC42XG+99VL3Py6WmAjN83oo6AL3nttss81i6dnr2d/mJSZCs0XW4MGDo8/w3KMeccQRDdJjPDMjAIcgXLO9TJj+9NNPtynqiInQeHaHe2rzPoNw4WFa8lu4cKFNVQf98qc//alBOt6VINg7eLdCXyFas8czi+E5HuYFEydOXEzY79Chg3kPk0aSRlEURVEqHvuzpSiKEsVOFZWPrW/N09wi9M4772xWAbtzMP5NfVgh/cwzz9jUDUkToRFEOC9NvAZWJRPyiodVynHlYqwIR8BldXguEGJpn6tvaK4vebhNE7R5ID744IPNiunw/DTLIkIjriOO++0KjbzcX99UhK5c7NSkBNjuqSnw2GBvvdgLMIyXSYcccoh5+VRqnnrqKbMf4DrrrGPKCUVnLPbZFltsITNmzLC5NB7mRxYTtW3bNurt4qxVq1ZyxRVXmDCLtUjSRqWKscOoKIrSbNjpSKlB7BAXBVG3WLhNNs7yPQMWQ0yERgRlO6wQFm6z0DJMj2eyL7DGRGj2t37jjTdsiobw+U477dQgPfexY8eOtSkawnuGM844o0F6rEuXLg0E5lCExiMZwTyEcOBhWurP1jEhbI3DAnc/Le8rWDSQD/qI9y6EDad/WVDA80J4z06EIRWhFUVRlGrH/mwpiqJEsVNF5WPrW/M0pwj9/vvvy5577mkETbzc2FMUc566CNQvvPCCTd2QtHDceDWzp2ma9zGrqNknaamlloqKsBgP5Dyw8cCYBiI19Xb9Fprz5iasbi4R+rDDDjPCciyPsF5YPhGah068qfHqpv9jRh6sfI/lryJ05WKnJiXAdk9NwvzMXBSGD3TGQhpeduV6kZQV5mlexv3rX/+KloUxN+ONETuGEVGCkIPz5s2zuRYHe1yzv3T4ctQZ82unTp2Mx8ubb75pz6pNkvYqVYwdRkVRlGbDTkdKDWKHuChi4bgRP++9916bojTEROhDDz1UvvzyS5tiEdyL4h0cps8iQhPGOtyz2TFnzhzzfOun511ArrbecMMNi+0NvfXWW5vtvByhsEx472HDhtmji1iwYIHZm9pPyzMtCwFCEKHD6D+8b2BxaozPP//cPLePHz9eTjrpJOnVq5d5t4PnNQv9wzZg6gmtKIqi1AL2Z0tRFCWKnSoqH1vfmqc5RWg+x+uOEKoPPPBAA2M/KoQMPHtjxERoVyahYdOgvQi/K664Ymp76Qu8odmbKo3nnntO2rRpY/KJ5UHe1CeLCE2dY3nELJ8IzT5QrKq++uqr5dprr40ae2L16NGjXij3TUXoysVOTUqA7Z6ahpdnhJumuTFjOwD2gUtbfJMP5lz24YvtV4fx3UNcfvHFF83CIIRvBHB3PPSwICIFLxh5kVYI7F13zjnn5BTCeeE3d+5ce0btk7RZqWLsMCqNgCgHRH1gjuMlPC/tQ+PzqVOnysyZM839Gfd61QL3s4gBzGu0wRl788cEFRZT0ifMxUSfoF9uu+02E5KVBTyKEmKnI6UGsUNcFMyVPKuSjTOeA/NtaVUoMRGa51/u+UJ4N3Daaactlj6LCE2UszQRmrkyXETJ836u513CW7O43T8Hb2u29HLEROihQ4fao4tgYXv37t0bpOWZNiYs47WdRYTmPQLzP+I7992UzZY9/nlppiK0oiiKUgvYny1FUZQodqqofGx9a57mFKEbQyhCu7qzgpuXcWm88847ZhUzD6J+fX0jrz//+c+pK46BkN4HHHCA2bOJtsbyaA4ROisjR45UEbrKsFOTEmC7Z4kAT2W+tzQ7NML6szDmkUcesanzw0s5PCaWXXbZaJ68fOvcubPcdddd9oxFIJCw3UDsPGd4YBAqO58ghKiCALPDDjtE88Hw6Bg3bpzZk39JImm7UsXYYVQaweuvv27ut4iQwwKVf//738aI+oLxbxbicO9CuNWzzjqrgadaU8P9Kfe9LArCWBwY26fTwT0iInvv3r3NfqzY+uuvb9oc25KG7Rq4Rxs0aJDZO3Xttdc2fUCYWH/P0HLiQr5Sd9rIv6mXUpnY6UipQewQFwVhpTfeeOMG91osRhwwYIBNkR+imrFQksWMDz74oFlE/vTTT5tnXEeaJ3SpReiOHTumitA8O/Kuw0/Pu4Bcz7ucQ4Qf/5xKEaH5nbn44otTnwnwfuYdBYvqeWYPxWkVoRVFUZRawP5sKYqiRLFTReVj61vz1JoIzR6qPACn8dJLL+VtK8cQoRF8EEdi8NLt+OOPN6JwNYrQ9J2K0NWFnZqUANs9Swy8NDr55JPNd4Lmh+ZegOUSawndx153fKdieWC77rqriaqQy7uauf2CCy4wAkgsD2dbbbWV8VZEjPFhfiXiBV7W4ctBZ8xJQ4YMkVdeecWetWSR9IFSxdhhVBrBs88+m7o/fmi8dGdhzcMPP2zPblqY0xBgCIvKAhyiz+CdnWt7F+5nX3vtNdlvv/0atAURAo/EcBEP95SXXXaZmXddFAoWDO21114lD6Obxrvvvms88Ig8ROQd/s1iAaUySa4RpUaxQ1wU3N/FouywuCVtb+UQwj/zzMwchGDLPShzkR9quxJEaATyddZZp0F6tqZCPE9j4sSJ8tvf/rbBOVtssYXxIHc0lwhNvcP2IDTzDE85p556qpmbEcyvuuoqUy8/rYrQiqIoSi1gf7YURVGi2Kmi8rH1rXlqSYTG8HJmRXYahNhG1IgJsM7Ih32iRowYsZho4qD8U045xYSkTctDRejSGmWpCK2E2O5Z4sBDrmXLlvUvlELDuwURxF9I8+mnn5qXUezFHzsHw9OQkNhvv/22PSs/eMKMGTPGzHl+Xn6YbuYuPKedOITXHOX4Xhx+erw48Iy+8cYbTfollaQvlCrGDqPSCAg73bp1a3O/xf1SbH9LPmOOwevrqKOOavS+9I2BiA077rijbL755rLddtuZ7QvybU3AvSb7iPrzIfehLNBh2xqfDz74QA4//PAGWyLQbhYEIQ43BUTC2GeffcziAO67ET0Q25XKJLlGlBrFDnHRsNCFuZOsnDG3IGLyrJsLIk7gGeyfizFv+VSCCM1CxhYtWjRIj2jLQqEYlMUCSD89Rshv5mBHc4nQLEb1j3P/zD127Ldv2rRpi/1uqgitVAC/S+ytxNx1+XViyyaWi20Tq7+OE5uS2JLGrxM7LLE5ifl9gfHZgMRWSUxRlgjsz1ZZYLGe7yjB/RFRZAqlXPn4xj1QLli8FjuPxXZZIyk2d/nloFRjk0a581fyk/R7dWDrW/MsaSI0L/OyitCErE57AEdAJhQibaStsTxUhC6tUZaK0EqI7Z4lEl62XXPNNbLpppvW39j4xgs2XjTx8o0XjYSq9fd99kVf5gPEmyeeeMLmXjhsd3DIIYcs5nHhl4OnIr8LeP0RQtxP5wzhBgF9wYIFNucll6Q/lCrGDqPSCFgQw5zBvpe8ZF9rrbUazB3crxGWu23btsarD+9cPItDWJCDsIClRbnhGAtkOO4sDT+Ny5dzCQeORyBzLXMhD+VZRHHubVgg5ISVX/3qV+aedsKECTZFXf24x0WUd+3HWLDDAp+0kNiubvwthLTziGxByHDaiLhBCHHE91y4vJxl6dsYuY4pcZJrRKlR7BAXDfvIs90JWfnGcxfhntOiOLA4CAGWeSo8j61efCpBhP7mm29MlAw/PcaWMyzQDHnzzTdl++23Xyw9z/5+PZpDhGb+C9vC+4GpU6ea4yH8Jmo4bqUCURG6MBCfhyTmtz+XjU3s94kpSk1jf7bKQrnE43KI0PnyPOaYY6LnlUqEboryy0G5ReJy56/kJ+n36sDWt+aptXDceJ7cf//9NtXiEI6bfUpztZVjhBZD3EmDfmP/PiaRahShdU/o6sNOTUqA7Z4lGuYY5lpf7PX/zVwU7mvn20EHHVTSmz9CsyIYxcoKza8n8y4v9Hj5p9SR9ItSxdhhVBoBogJRbPC0ZW7p2bOnLLfccvXzBvcsiBwIo+yt/Oqrr8pXX31lz66LusBCHEJVcz7GfSLzTLjQkJfy3P+QjzP+239Y5P6PxTqIwRxH/CVkOPkhzOCl7OqGsUjoyiuvNN7QhKgNBV3HRx99ZO7Nll9++fpzEdgJd+vuo4k6MWrUKCPEuzSkx/PQ985zsPUCfYcn3OTJk83+/oQLj4kuPtSTdLfddptMmjTJ7DXN/TNtp54XXnihrLjiig3qgMc3YWoRW+hzB3UncgdlE9kCsfrmm2823tSffPKJTVUH51E30rNiHvEekYz6MAa0hd8qPuOhXslGMkZKjWKHuGiYjwjbTDhtsvONZy4W9jAHMN/xnWUevuiiixbzKnZGep5vfSpBhAae62mTfw7tHj58eINFj8xx3FP7izYx5rxQNG4uEfqAAw5ocJz3A/6CJQfzNou3/LSYitBKBaAidHYQoKcm5rc9i81LTIVopaaxP1tloVQCYrny8S2XmFvseSHNXX45KNXYpFHu/JX8JP1eHdj61jzNKULzkPryyy+bl3e8cOKv/28enFi5HCNNhEYc5WVZGnjqsddVrvbyOftE5RI78bLhYfcvf/lLah7NIULzAo8XpuyLzQu8mPHylDx4mA7zVxG6crFTkxJgu0dJQGThxZLzEvQFXt/wiOAGqFWrVualFb8DpYZ5D1GI/fPSxHH3b+ZAQrvy3U6bL5dUkv5Rqhg7jEqJQIw8/fTTZeWVV66fR7inCz3vAMECsRLBE+81xAK2MEA84d/si88xf+sBXv4jyHCPtP/++8vBBx9sFhwinJIXQjP7hBI1ArGFNH369JEbbrjBCNJsS4BXsu91xv0L94scQ6QOBRqfe+65x4S49r0Lu3TpYu6VAcEbb2nEaXec0N+Iu774ggjPfRxlUr+dd95Ztt12W7PXP/+NiIyg5O/bCsy/iM9Eojj66KPNYiL6jN8V7rm5h0TE79Gjh1k05OpAhAvyZ5sa9l7lvp8Q4+wTTRQOVr+zTyx9z29CmzZtzP3v+eefb8Qt9xvEmPEiAhGKvmUcEOYRjxDf6ffjjjvOiDGhgK2kk4yRUqPYIW4UiMHMc2QXM+7RVl99dfN8yLNYLA3GdzsW9aFSRGjEZeYh/xyMZ3nmc+ZL5kbuR7lHDtMxZ4X3y80hQgPzoH8c47eHBQO8R2HBDguP0rbfURFaqQBUhM5GsQK0MxWilZrG/myVhVIJiOXKJzS2UonBfYX/3OZbqURorNzll4Nyi8Tlzl/JT9Lv1YGtb83TnCI0e9fxYmzVVVc16akDxr95wcjLKh6kYoQitDO8/fJ5MOOlggCb1l7KX2ONNcyLuDQee+wx87BN+lg+fNYcIjSiPS9kmeSXXXbZVMNrJVZvFaErFzs1KQG2exQLHhK33nprg71FnTnRl5s9hI183nClgJusf//73w3K94Vo5j+ECA2vGifpI6WKscOolAhEUwSKUITGyzacQxCXET8QdfGc5v6BBz8MEXeFFVYwx9hL+cMPPzTncL92/fXXG0GV9Bj3U4T6RvzGK5l/cx+F8Mpx7gURgRGhETI45uqGIShTJnuJIjLnWmiD2Izw7Xt640nNvqWIGDfddJMRg5zIzVyOwMvDvWs/94GI8oRr5Z4agQVvP+pAnbnPIyIQx+++++56UZyHZARhxCj2mOY87jndftvcr48YMcKURyhuf49R6oP4svHGG5vQr8z73L8PGDDA3FOSF3M9noX0B2kZA+6Tu3btaoRtJx4h8hPViL6lrv/6179kww03NOPFZ/yeNOX+17VAMkZKjWKHuNEwXyK++vdnhRjf0bTns0oRoQFPbj+ShG+52s6cFNuuprlEaO7z/d8JZ/z+8LvGPMmCej5zv3l+OhWhlQpARehs9ErMbzP2Q2Lh3s8rJsZe0QsSC9Oflpii1CT2Z6sslEpALFc+ofHbH3PiGzt2bDQ9VkoRutzll4NSjU0a5c5fyU/S79WBrW/N05wiNA8/vNQiLYKJEzXdv9mLCY/oGGkiNGXy8JrL04SHOF5skT7WZh7aeAnHA2MahChEyKXu4fkY+TaXCI14z8s6hPY0i4XixlSErlzs1KQE2O5RAvCC6NevX/0ND+a/YGN+wjsw9IQrFQgis2bNMot+KCssH0MQwbtNSSfpJ6WKscOolAi8X08++eQGD3NbbbWVCTfNQ56DhzuiPPAy3qXjPoJ7MoQAtzAGQ+TF+9k9NL/44otmbnTzFoaIiyiAAOwLH9wzHX/88eYcFi526tTJiBDuuG/c03L/GXs4d3BPzkJK2uTOowz20EdYPueccxqEzUVMJtS3H1ackNgI2U4MR/SlH2g3ns1ugRLH8YomVDnQBsJ6xxYwYfQZ3nf77ruv6ZuYYEN9Ro8ebaJycC/OvWKYJjR+B/CsxssbD27GgnxiaTH6Ay92wpsr2Uj6TalR7BCXBIRo5jOeE8k6i7EAhfcIiLtpDB48eLHzmKPSRGg8acL0RGbwRWhCaIdzbfv27fOK0ICAu9FGGzU4N5dtt9125n42Boto/LQstDn77LPt0UXwTiEUrJnL+e0KQYRmMbyflmdgPy19d+yxxzZYDBQz5nPeabBvv/85v4UqQivNTDlF6JUSG53Y44n56V9M7NrENkwsHy4PX9TlfPZa9sVfn1UT89NTPz6b7X12b2LrJZaFsI8wBOjNE0sjrAMW9m3Wvi9kjMrVX3MS89Pkan/oNZ6vr5QawP5slYVSCYjlygfj3sJ5GccEXZ4R+c13x8PtPBorQpe7fJ5P0T98T2rO4dnxqaeesqlyQx4sIvfL5XyemQsZG+6Tw7qsvfbaZmF32nNpqcZeKZ6k36sDW9+ap7lFaMrGo8Uvm39zPmGlChWhEYaZYFzowhi8xGSi4EWWK8sZAvQ666xjXoalgXjMAzUPj37Zvrl8m0OE5mGZfgiF59BiQnQWEZq9wGgbni30F+eExjFecIb5N8boUxWhlRDbPUoKCBd46tFVMWO+4KU/N0ilgn1IeenFXBArk3Dh7ENNaFdCtirpJP2lVDF2GJUSkVWExiuZOcZ5f/Gwincz4iXhVhFkfY9lhATCbTsII0053J9yrkvnDKGB+xK8gtmeBdjuBWEEccMPx819y5Zbbmk8qVkclGuRJCILD8rU3eWB2IsAjucgoWRdfYj8g+hN+GsH99t4cvueftzv8aDNvRv3rvSDO4awTMhW5my8ubn/dccQePhv9hNF3EGAvuqqq0zkCjwOEY/9tAjOLHziNwcheoMNNqjfUxUhnPtG7uu578e72RfT8bym755//nkTvhtPa3cMow95yMfTmpcd48ePj+6BrcRJ+lCpUewQlwzmUURaRGK+c/5c5htzK8/b5513nhFNc3HWWWeZc5jL3OIVnn/TRGjmyjA9gmvoCe3mEJeOaBNZRGjgOZ/n6VDsdUa78e4m+gXzUhp4j5Pe1ZPn9GHDhtmji0CEZgGPy5u/vMRk25oQ+pO+99OyMCdMyxzIb1rMs5vz+N1hMRZtdaK7y485XEVopZkplwgd8xyOGeJoGj0SC4Vc3xA3+ycWEoqqdyYWishZ2ukI24t1Sywf+c4rtQhd7v4aGHyW1gcxUVupcezPVlkolYBYrnwwFg/6n/Ec6OOfQ7lDhgypT4vlE4F9mrJ8BF+eG/20MUvzvnYMHDgweh5G2ZdddlmD+qeNDVHJfPE5NPLi3jSkVGOvFE/S79WBrW/NU0sitDuP8FS8VMsFD3g9e/Y0HsMu1CAv9PAWIRRgLmGEvaq33nprc64rOzRXl6YWoSmLl6mbbLKJEZ7SjJe2vFykjn7+iEb5RGj2PmzdurURr7bffnvjeR0aexTSl2H+jTH6VEVoJcR2j5IDXn6xryYv+umymBGaD+GmMSBkMH8yP8TKwAhpyD6ssZePyuIkfaZUMXYYlRKRVYRmHkJsdSIo93kIuUTfQVDlHskPT8r9THjfQzhphFfuY1w6Z9wrIUD7W8ZwT8cDM0KsE4p54U/e1IdjCCT5th4gH8Jec4/pyiM/7oFYYOjEDkQKIkm8//779kwxe1YT+pZ07lwWC9Je5ng8oX3BAgEGrz28GBEzXJnUm3tB8uI+nL2suW8mbDn37nhf+78n3McjNJGG3wHGyPfQQwhHWKK/WHV+ySWXmL2mXT9xb4dQfscddxjRBPHHnUs+7GuKMMZ+swhChOLOFdZcaUjSj0qNYoe45BCVgJeCvHTju33CCSeYF414KbPIZNptt2WORsBzM4tc2K8YYz4ktLUfwcGB0Mx8QxqXnnOZO/y5k8XmU6ZMaZBu7ty58vPPP9sU+WE+ZgsCXkDSLuZuPK5ZrMPizLQ6+tBHrg785f6W9oYwr5OWl7Nsq0B65rTYYhrqxRYTpCEtz90I0LG05IvIfPHFF5sXrfwuIZwT+tKJ5+TH4iDqR37UgXb7v5kh9vJSlHJSDhE6Jr7msliY6kLyCMXQUASNWSGhsUNBPev+zmHfYn65pRShm6K/sorLYX9lEeyVKsf+bJWFUgmI5coH4/6F33733ywy88Hpwz8WhsbmWawxInQ5yo+Vk8tY+Bzrz1xhwNMsNjZ+G/JZLhEeUxG66Un6vTqw9a15as0TmnN54datW7e8X25epuERw6TJgycv4O677z57NA7l8qCHp28ugdW1oalFaB6+eQjnRR4PsGnGvoTsr8VLWb/vs4jQjNujjz5qfizSjBeF7AvIft9+/Rtj1FNFaCXEdo+SATz28KZLC9+HZyB72RUT5pSXW8zneDnH8uY7jHdI2pyuxEn6Tqli7DAqJSKrCD1mzBjjmesEW0RVRGfucfiL4cmLBy9euiwsJA//fo388PwN9+bEuB+54oorbMqGcG/KvZorFwHVeUtnhXu4Nm3amPvDsGxnCOqID/6iyccee2yxKBS0EY9BVm+zSJN7ZD7joR9BmpDceEmzdYLzDqdcvK59L2uf2bNnm3tFVwb/RlBx+C8jGAMWP/qLnPA6x7PReVNT3k477WQ8nBGh8Xjmc/qPccTb0veCVAoj6UulRrFDXHZ4ZuV5vhCRt5qgXcz/WL6FQpUKvwXUvxRjZC8vRSkn5RChRyTmjuF92zExB6Ga+ybmnx+WGdYpzKNtYr4YGp4fE1UbExLabw9WiGdvrnNLJUI3VX+FYbZj9c2SRqlB7M9WWSiVgFiufDBET19sDfP2n8kQjENBtbEidDnK989xaVh46GDxdOglHYrfLIwOPZfxmmYxNKDrxLykw/qHbQ7rgjbhl5Pv/GLHXimepN+rA1vfmqcWRWjOxZuDlc1ZH8SyvtxiVTQeGnh1+OWG5urR1CJ0IbC6nT2iCMvt+j+LCJ0VfkzYP5F+CNtRjFFHFaGVENs9SgHgXYEXGt0XM0QX9iXNAmICXnt8R2N5YYR1ZI9QpXCS/lOqGDuMSonIKkKzwJBFcC4N907s/Yw3MJ7QCLzcYyI+4yXMnst4mrk98rkn5D6IBYqxPZIRcjnGPtDh/SPew24xDiIq94FZ96xyEA4c70Pun8KyMSL3UD794cMCQe4rqR/pKJ97J/qIemCtWrUyXuIIw4SvpT/xTEaEZoGly79Lly7Ge84JMvx1bUUkd+FiMf7tVn5zzxuK0PQz927cu5MHHnqk4Z6ONGkiNAumCPmLd2HW+3RlcZK+VGoUO8SKUlLs5aUo5aTUInQoQsa8hl0a9mXeK7HweBZP2rAOvodxTFQtxPPZJ2xPoXnl8qIulQjdlP2Vr6ys3tJKjWF/tspCqQTEcuWD8fwVCq7umSxMz+flEKFLWX54PK2v0uriCL2g08J2h4J3WF6Yj1+GI6wzYrsjrKeK0E1P0u/Vga1vzVNrIrQ7HxEaMRWP31Lx0UcfmZdyTLBhmaG5NlSyCI1ITx+VS4TGq1xF6NJhpyYlwHaPUiB4TLC3J98tujFmrChM+75xQ0UoWD9samgIPUSOYK5TiiPpR6WKscOolIisIjShVHnYRIQlDR6+gwYNMiItiwnZsoUtCgi7yud4NRNClXtLYF/mAQMGmPtTvIZdWc4I880xHlxJ60OevghNCGyiwxQCc+bdd99thPOwbITZbbbZRsaNG7fY/TV1YVU3Hs+kpe5sj4LITLvxbMa7mxDcp5xyivGAvu2222TWrFkmhKsL40372LLltNNOM+e9+uqrRjgmpDjwu+CL0HhUUx+gDwm9jYe5O859Jn1FOYwBvz20wUXl4L6aCEbUBRHa7V9K/fEkR/SuVQ/MpiDpS6VGsUOsKCXFXl6KUk7KLUJjeNUOSGzDxPKR1ZM2rLdfh1AIbYwXdKWL0E3dX/lE5iyCuFKD2J+tslAqAbFc+WCIouHnTgT1xWFXZjlE6FKWH4rCvqAbEgrEvjd0mE9MPIZcojfPtOg5sWM+Yfv9eoTHih17pXiSfq8ObH1rnloUoZ0RbhHvCyaWxkLo7gMPPNCI21lEVdcGFaFVhC4VdmpSAmz3KEWCsNC9e/f6sKihcaPEvqj+XnSIEu3atYumx/jeI3Cwb6fSOJL+VKoYO4xKicgqQrMtCd7NTuTk3mH//fc3D6CEjSZ6wxFHHCE9e/Y08x9i7IIFC8y5r7zyipm/CAPtysCzGGEUYRYvYfc596/c57I/qSP0hC5GhAZCeO+7776m7q48jHtGQlkjDIfCLG0gioXbr5ny8fRGTJ46dao5Rn25n+3atasRngnpzcMw4q8vLCNEI+ST9qijjjJ9wv2XE8i5V3RpEaGJruMgr/XXX7/+ON7QRNhgISfjsOWWW5rfFnec+0Tu6VkI4J/ri9BugYBSOElfKjWKHWJFKSn28lKUclJqERpCITK0FxNDlF4lsZCwPlnNF3dDoTRLm9KodBG6qfsrl+idVRBXahD7s1UWSiUglisfjGfbUCx1Xr++SOs+K4cIXaryw3zy1S30wHZlFJJPrrGJtTeLuXrE8ih27JXiSfq9OrD1rXnKLULjYeLvV+eDqJFPhHYx+0MIy8dLxFwiNHnw4pCwftddd13RofyYKDt16mRCcGftI9cGJr80EZ7JkfCHhYrQRx55pM2hcbBnc5oIjcjUWO6//34VoUuInZqUANs9SiNBVMBjji515vZTxTbYYAO58sor5fjjjzdztp/OGYIPgpCG3i4dSb8qVYwdRqVE8NCGp6/z2MV40ENg5SHPgRjrvKF58CQd8xke0dzvIiTz3xwjbDeeu++//75ZHIlgyz2Hyx8hd9ddd5ULLrjAeBATNtqJ2xh5IuyyWJH7PTyh3TGMiBDs1Vwon332mYkkQRv8/LinQvCN7VvKZ4QIx6vYF8tZlLnKKquYB3Xag7FPNOHJEaHhhRdeMFsnOC/q0BCG8ajmoZrfizXWWKP+GHnjYe3g3p3FAojTvkd0zKgH+0/jIU3/0TYnomP0PYsMuGdWiiPpR6VGsUOsKCXFXl6KUk7KIULHhNs0uzYxJ4ZCsaKqX+9SitBQyXtCN0d/hePvvJ3zeUkrNYz92SoLpRIQy5UP5jx8fcGX59s5c+Y0EGKdR3E5RGgoRfmF9lNa+kLyyZU21t4sliuPfG1SSk/S79WBrW/N09ye0LxcyiVCP/PMMzZ1Q3gZlc8T2hkv3fBe4eXaQw89lCqK+yBY4w1D/XkByEu5QvrHtYGJt9Se0KUUocu5J7R6QpcWOzUpAbZ7lBLwxRdfGC8+Ij7QtZgvROeyFi1amDmFbQuU0pH0rVLF2GFUSgQPbYTJdnseY//617/klltuMQ95PuxXz97Q22+/fX3a0BBnDzjgALNwBi/coUOHmnsiPw354ymNSE2eiNG+FzDGPSLnct/IHOofY3FPMSI097nsJY03tMsL72Tu2XmwTwOReObMmXLQQQc1mMtDw0P6vPPOq49yQf8hSB999NENBGZn3MuNGTPG3NPeddddDRYjcY/GywcHaRCiEeRzbdlA/eh/8qPeeHazeID7PZeGPaFZZKAidPEk/ajUKHaIFaWk2MtLUcpJKGJmCV2dT4QGhOjDEvNFyTRrblE1H6E3c9b88nlRV6sIHZbpxl9DcS/B2J+tslAqAbFc+fgCbiju4jjip3VicSlF6FKXX2g/paUvJJ9cacNjWS1XHvnapJSepN+rA1vfmqdcIjSGoIkHCKteeCl3xhln1NtZZ51lJiZeTqWJlAikCK5DhgxpcC4vtfBUad++vfFAiZ0bGl4ztA8xmvbizYJIygvDd955xxjhFNkvDw9rQgYSepGXbJRRbN/ghY03SNh+2kBow+222870U+zcmJEWscfPqxijT/E8wdvEz58XgngF9e7d29Qxdm4WI/9DDjnE9J+ff2NMRWglhu0epYSwQIjvL4te6OJcRhhvIjp8+umn9myllCR9rFQxdhiVEvHll18K+zn369fPhNHGuB9ErI2JlAjH7FXMfMb+THgxc9/VunVr6dy5szmXxYksCuQ+kL2KiXyDJzF5I+QiZPvhtgmTjXjbq1cvk2bvvfc291Pskf/666/L9OnT64/16NHD3FO++eab9uzCQJidNGlSfVvZjoXIPszRucAjmnbRPuq38847GzG+ZcuWJjw4/YHHMaJ6CH05fPhwEzabhZTcx3O/jQc64jf9zDYOLAZw9eJ+nvvnEPoNb26EZryu6fdWrVqZBajUi/pxnotUxCJRymALCPKlDvQr3t26J3Tx2OlIURRFUSqFUCjNIkKHYmO+8NQrJoYgfWdi/nm+OcEyqzCbi1BU9UNPF0MoumOhwEq9X0kMz+71+CAhrEd4XtjWtL7PJRI3V3/5Ht6U+dfENBT3Eoy91S0LpRIQy5VPLgHXN7+8MIR1qUToUpTPM6bvPZ2vbk0djruYcStFHkrjSPq9OrD1rXnKKUJj5IvQGRoesoid+bxkSUPaWB6FCpy0D0GZsNrkSx7sf+cbn3GM9KTFIybMpxCjfX6dfcvS/pil9WkhRp/m6j9CK8bOy2rkTx6xvIs1FaGVGLZ7lDJACNTNN9+8/qbJN76LiDjs1cnNnlIekr5Wqhg7jEqJQFzFy/bzzz834aoxIjjkinDDwx8Pey+++KLMnj1bbr/9drNdCHsqk48TN/nLPTFpWVRD3oT1Zn7zt3OhDl9//bU5RhrScg7nUg/Kc8ewr776qlECKvm5vCiD/86yvQxl0jdvv/22CXXNvRNhtJ988kkjYtOPsZDe5E378JBG/EUkJioRUS4Q64F2Uhe/Xu6YD/nTf5yLcE2/z5o1y+yRTb2on794gPTk4/KmH+m/LBGMlHTsdKQoiqIolUQYMjqXCJnPuzcLKyU2O7FYHsWI4iGlFqFDoTdWr7AP700sbGMozJZChG6u/gqF+ZMS8/PQUNxLGPZWtyyUSkAsVz65BFzfnDgL5RKhS1X+Mccc0+BcF8Y7hh8CHGPBuSPMx3lih4Se2f7YFCqKxyjV2CvFk/R7dWDrW/PwoqecIjR5IuQi/PLXmfvvXGWmneusMfUlT8InIjT7xmccK1VflKMNLs/GmKtPLH8sTF+o5cu/GKPdKkIrIbZ7lDLxySefyKWXXmq+z3Q3xu/FxIkTU7caUEqHuciVqsUOo1Ih8DDJvJVFxK012BonJhTno5R9hTDui85K02CnI0VRFEWpJELPZuyZxDZMzGftxEJhNSZ64vl8UGJ4PqcJmqGI6QvZhXpah5RahIZYH9H2AYmtkhhi8I6Jhf3jW9iOmKAfC2EdCtyhmN0c/RUT5n3TUNxLGPZWtyxUkwgNoSjrzBdnyyVCQynKzyUK+4R1wXyhOayLL4Q7YsJ5WF6YTy5RPEapxl4pnqTfqwNb35oHEZpQewgMhKwmHPOSYgilWT5Tqwzj+mT/bEJdLonYqUkJsN2jlBlC0Pbs2VP69OljvOqUpsFe5kqVYodRURSl2bDTkaIoiqJUEqEIWYiFgmUsr7GJ+WnwhA4FTF+0jOVxZmIuD0Tu0Ym9mBgeuKFYXg4ROiYYF2Jp4aljArML502ZQxLzj7s0fl7N1V9h3Qs9X6kh7K1uWYgJnVnNF1fLlU8+AdeZL86WU4QuRfkxYZg0U6ZMsSlEZs6cKTvssEODNL7QDbE+R4h+7rnnzHEicsU8t0OROKwvNmjQoHpBm62/2C6LqLpsZ8q2Vj5hPVSEbnqSfq8ObH1rHkLhsZfduuuua/ZL5q+aWiUa1yfhywknuSRipyYlwHaPotQk9jJXqhQ7jIqiKM2GnY4URVEUpdKIefrms7TQz2niZJrFRMtC6+N7/5ZDhIbGCNG3JRarQ2y/6XwWE7Sbo7/S6l6oJ7ZSA9hb3bJQLvG4EMuVTyjgxsoJ05RThC5V+QjEhfTXBhtsEBV200TxXBYTidM8vNPM95YO+0RF6KYn6ffqwNa35mGfNTxLr7jiCvPlUlOrZCMs8FtvvWWv3iULOzUpAbZ7FKUmsZe5UqXYYVQURWk27HSkKIqiKJVI28RCj9o0y7f3cMyDN2a5BM+swmooepZLhIY07+Qs5sJ3h3XJlx+e5L6wn+ZV3dT9FRPl810XSo1ib3XLQkxUzWq+uFqufEJBM+ZFHIahDvOIicBpNGX5CNGht3PMevTosViYbR80hNh5znr16tVg/+g0kThfPs7CcN35+kwpP0m/Vwe2voqiKBWBnZqUANs9ilKT2MtcqVLsMCqKojQbdjpSFEVRlEoFYfGwxNjPORSkERjvTaxjYllESsJuH5vY44ml5ZMP8iCUdFiXOYm5/ZhDyilCO3L1k6sbe2jHPKdj+yWH+0nTR9cm5kJnZxGhoan7KxS+y9HXShVgb3XLQiggFmLNIUJDKJbmC1NdShEaSl3+iy++aMJdh97TiM9h6Os0ELTJw52PtWjRoj7EdxYRGlw+YXjurbfeWoYOHSrz58+3KReRpc+U8pL0e3Vg66soilIR2KlJCbDdoyg1ib3MlSrFDqOiKEqzYacjRVEURVGWHHyhttZE2lCE1lDcSyj2VldRFCWKnSoqH1tfRVGUisBOTUqA7R5FqUnsZa5UKXYYFUVRmg07HSmKoiiKsmSBhzJe0zEv6Grld4m9lRj3N5iG4l6Csbe6iqIoUexUUfnY+iqKolQEdmpSAmz3KEpNYi9zpUqxw6goitJs2OlIURRFURSlmiEcuR8iHNNQ3Esw9lZXURQlip0qKh9bX0VRlIrATk1KgO0eRalJ7GWuVCl2GBVFUZoNOx0piqIoiqJUI6Hw7FsteXkrBWJvdRVFUaLYqaLysfVVFEWpCOzUpATY7lGUmsRe5kqVYodRqUJ+/PFHeemll2TcuHEyZMgQufDCC2XatGkyf/58WbhwoU3V9Pz000/ywgsvyMSJE2X06NGmbjfeeKO8++67NkVuPvnkE5k1a5ZcccUVcvbZZ5s8HnroIZMvvPnmmzJ37lx56qmnZMGCBeYzpbqx05GiKIqiKEo1kiZCT0lMWYKxt7qKoihR7FRR+dj6KoqiVAR2alICbPcoSk1iL3OlSrHDqBTI999/L++99568/vrrRvRFGHXGf/P5W2+9ZURSxOJy8M033xihd4sttjAvupZffnnZd999ZcaMGfWCbXPw7bffynXXXSdt27aVP//5z6ZurVq1kgceeMCmyM2zzz4rxxxzjKyzzjryX//1X7LMMsvIsGHD5NNPPzX9ith+wAEHSL9+/eT22283/fDLL7/Ys5VqxExGiqIoiqIo1UmPxMw9r7UX7WfKEo691VUURYlip4rKx9ZXURSlIrBTkxJgu0dRahJ7mStVih1GpUBee+01GTRokHTs2FG6d+9uxF9n/Peee+4pBx10kBFjP/jgg7KIpF9//bVcc801suqqq7oXXrLLLrvI1KlTyyZ8ZwFR+PLLL5dNNtmkvl4bbrih3H333TZFbp544gk58MAD6wVs7PTTTzfe1WPHjpWWLVvK0ksvLSussIL07t3bfN6cnt9K40nGWFEURVEURVFqCnurqyiKEsVOFZWPra+iKEpFYKcmJcB2j6LUJPYyV6oUO4xKgTzyyCOy6aabGoH0V7/6lfzmN7+R//7v/zb/7ewPf/iD8eh9+eWXyyZCE4p77bXXNuX9+te/lg4dOshtt93W7CL0lVdeKVtttVV9X2y22WZyzz332BS5Icz2oYceakRmzqVfhw4dasTpU045pf5zDA/rxx9/XEXoKicZS0VRFEVRFEWpKeytrqIoShQ7VVQ+tr6KoigVgZ2alADbPYpSk9jLXKlS7DAqBcIexXj30oW+ET4a499/+tOf5LjjjpNXX33VnlVaEKHHjx9vwlZT3m9/+1vjmU2I6uYMT02o8quvvlq23nrr+n7ZfPPNZebMmTZFbp555hk57LDDGojQZ511lhHzXZjvv/zlL7LssstK3759TQh0pbpJxllRFEVRFEVRagp7q6soihLFThWVj62voihKRWCnJiXAdo+i1CT2MleqFDuMSoHERGj2Lt5oo42M4Lr++uvLdtttJ+eff768++679qzSkiZC33HHHTZF88B+1IQJL1aEfu655+Twww+XFVdc0ZyLqH/qqafKxx9/LO+//75MmjRJBg8ebPr2wQcflO+++86eqVQryTgriqIoiqIoSk1hb3UVRVGi2Kmi8rH1VRRFqQjs1KQE2O5RlJrEXuZKlWKHUSmQhx9+WDbeeGMjkjpjP2ZEYUTSa6+9Vm666SZ58skn5auvvjLewZ988onMnz9f3nrrLVmwYIH88MMP5vMPP/zQ7DGNWM1/+yDovvfee+Y46X7++Wd7ZHER+ne/+5107txZpkyZYsphr2RCVfP3s88+s2el88UXX5hyCIf99NNPyxtvvGHqmQs8rqnXs88+a8rCW5nz2Lt5hx12qPcKTxOhCd1NmfPmzTNl0jdz5syRPn36yEorrWTOJY+TTjrJ1IX+eOWVV2T27Nny2GOPGWGaUNz0y3/+8x955513TPl8/u233xqjftQLj/TPP//clpwO5ZCefnjppZfMf5MPe3vTr2+//bbJk/73IQQ6xwgbTrh2znfjxvlKOsk4K4Xz68SmJma+J9amJJaFbRPzz5uX2O8TqwRoV9vExpr/qi1+l9hbibl+/zqxZRMrB9XSj7U83oqiKMoSjr3VVRRFiWKnisrH1ldRFKUisFOTEmC7R1FqEnuZK1WKHUalQBCh8XqmC50RQhqh8tNPP5WPPvrICL+Ij4ikCMmIw2effbYMHz5cJkyYYETZu+66Sy699FI544wzjGfvjBkzjJCKwImQet9998kFF1wgp512mlxyySXGAxtRG/GXvEMRul27dsZLeMSIEXLsscfKAQccYP6SDjE6FLkBT+IXX3zRiOeUc8ghh5g9mU8//XRzHgJxKLgCnyE8U/+jjjpKevXqJYMGDTLtGDBggNkTmv2yqVsoQtMntHPq1Kmm7QceeKD07t1bzjnnHDn33HNl7733lr///e/mXPKgXgi8CNWE5B42bJhJS38hEtMniNejRo2SM88804jgeIQTmnzMmDGmXnhT0++E+461h0UBCNzkj+iNNzbtoA/Ih/5n/EaOHGkWGeCx7WCsEcapO23p1q2bHHzwwabenF+ukOy1QjLOSnH0Ssx8T6xlFTVHJOafd1pizY0TIxckRp2yCurVRFOI0NXSj0vCeCuKoihLOPZWV1EUJYqdKiofW19FUZSKwE5NSoDtnrKCiPCPf/yDMchra6+9trRo0cIIIk0F3mt33nmnESkqAepz+eWXm71F//znP9f3DeFsXd/goZdG2N9/+MMfjGBU7RTTriSdT1N6+SglwA6jUiAxEXqnnXaSiy66SC677DI577zzzL7IeNQiuCKeIrKutdZaRjTeZpttZOeddzbzzb/+9S9ZY401TAjvHXfc0YjAiJkImG3atDGfc5zyunbtKjfeeKPxWiZfBFMnQiPW/u1vf5MNNthA1l13XSPiEiKc7/Rmm21mRNV77723gQCLeDpt2jQjmCIar7rqqvJ///d/Zj9rzttkk02kR48eMnnyZOPJ7eDfN998s3Tv3t3Ui3Ipa5VVVjH1pU7LLbdcA0/oWbNmmXPxWsZzGrF42223lX/+859mf2f2gOb3if4gH+YfzmVeZk9oRHT6dK+99jJtpJyBAwcagZcw3aNHj5Z///vfsuaaa5r2tmrVyvQv6chv9dVXN/Xo0KGDjBs3znhOO/hNQLQ+4ogjTJrVVltNll9+eeONzX/j1U34dcaP/Ah7TvsBYR9xG094+p1++P3vf2/6kf5kzO6++26TVomTjLNSHKsm5kQ8Z90Sy0X4O/1DYpsn1tyE3tkqQhdHtfTjkjDeiqIoyhKOvdVVFEWJYqeKysfWV1EUpSKwU5MSYLunrBQiQvvGi3zfm6vUOPHZCb28uG9u8GDzhec0Q/ggbQwVoReRpPNREbrKsMOoFEhMhHaiI6Iq+xkjiN5www3GwxYPZkRnP32a/eY3vzEi6F//+tfFjjEv4SXMvI2Yi/iJ8Bmmi9lSSy1lvHSpu+Oee+6RTp06yf/+7/+aNPxFZEV4XXnlleW///u/5f/9v/8nu+66qxFpKdMJtu3bt5f/+Z//WaycmJEfnsKABzQCNGJxLG1olIEHMkL+0KFDjRDsjnXp0sWEvX7zzTeN1zL19c9NM9pMyGxCaNMeRHH6hjGMpQ+NMb7yyiuNAM25++yzT/0xPNIZP9rHbywC/wMPPGDarsRJ+k0pDrxJw5Dc+byaK1X8UxG6NKgIrSiKoigVgr3VVRRFiWKnisrH1ldRFKUisFOTEmC7p6wUK0JjiBq8jC8HvHj3y2pOERqhYffdd29QnyxGCNcQFaEXkaTzURG6yrDDqBRIbE/o0JZeemnjFY0IzRyLkOsfR9x1YrPzGHaGVzOexHhAk49/DO9kROAvv/xSrr/+eiMa+8cRsVlog0euE5ed4XFMqG6+63gCM7/5afBCxrsYr+L99tuvXghHWCWkNWHFsRNPPNF4+7rzqD8CLvnjRR2KwVtuuaXxwiaMOAuT8Lr209AX1Pcvf/nLYsK2E6EJo00Ibl90R5BHnEaEpk603T+X/mWxAF7Wfnn0ISG72SOaOY6Q5+utt16Dc+lDPLNj44OnN17oeJJfc801xkvaHWMO3XfffeXII480ocYJGU6IdiWdpN+U4glDcufb3zkMxZ3Pc7qpUBG6NKgIrSjlwb9m/cU+4fc6l72Y2L2JdUxMaTy59pSvtmdS/7e8Un6XlRJgb3WblGOOOcZdS8Zq5V3VkgRbZfXt29c8s/pjiW299dZm+61yOhMpuaN5lvJ9cHJ+dWDrqyiKUhHYqUkJsN1TVhojQmPlujGtJBE6vBkvxBB6fFSEXkSSTqli7DAqBRIToRFAEXT/+Mc/GhEZT2LCR/MA8+ijjzZYBIPASVho9lMm9DZhoznPHScMNOGz8bYlRDT/7Y4hgDIn8d0MRWiEYcJCX3jhhXLVVVeZeQ/PYbc3M0a+hLZ+7LHHTDht9zliL3n37NlT+vfvL3vssYfx6HbH8TomrDRhtQkx7T5HoN50003NPsqUyZ7XhBv3RV8elhGhqTN7Rvv5IhAjJiPY0148hwmF7Y6zUMqJ0PQVQrk7htjL52+99ZYpHzGbz2kvbUEEZnsF9rf2hWI8mQnx/eGHH5oHePbOdl7QnEs4b/LDk52tGwgBjic5xxGk8XCeOHGi2QMcr27a4PJGSN9+++1l//33N/tIv/HGG/aqUdJI+k0pnjAkd67w2lleyq+U2OjE/DwRTnjJv0pi+VgxscMSezwxdz42J7EBiYV5hCJ6zNK8u9dOLKwr7b82sQ0TSyPsMwRQPpvtfYZQtF5ihUKd7kzM5YNRH/LKKoogrNCH9JmfD+YErHChQTH9WEw5Pu5aCcea6yVtDKppvBv7XVBqB/+7G35vCxGhfcu3YEhJJ8ue8tUmQue6xpQqxt7qNhlp7wXD91lKZcJzI9tAheOXZmyblWsbQaVwnPicK5qnitCKoijNjJ2alOYh64MWLwd5aAtfGGH5QjgWQ6V4OoT1wHhxxQtR/wUA/TMksTBt+KKg2h5ss1Kr7VJSsNO3UiAxEZrw20cffbQcd9xxRujFyxihl72bSe+L0AjDeCTjzcx+xngfO6/jX//618ZrmvDVeFFPnTpVtttuu3pvXDx2x48fb87zRWiOI67ixezASxih1gmoGKGjEWbZF3m33Xar/5xy8WJGUGUPZYRvhHHEZI4RTnzUqFFy8cUXG6HbnUe6Y4891ngjAyGqaY/vwU39aQ+hq+kfvLz5HOG+ZcuWZs9pByI3IjZlkqYQERpBnM9pB6L5448/bvJ86aWXGgjneEgjTCMi33fffWYvbudFTR6I94QNdyA4s6e0Ox8RmlDoeFJzbPvtt6+vL0afUQZ9jae0n5eyOEmfKcVTSEjufPdkPRLzBbfQuG/qn1gaviiQZuRBOY5iREnEQV9ATLM0kScUJRGN/XsfrJj7n9j9ozPafXBi+e6xwrqlWdi2Qvux2HIcWcrDQg/Fahnvxn4XlNrCjyARzpvhs1Mh1lzPxdVOlvcL1fhMm+s6U6oUe6vbZIROIM4qYVs8JTdE6YqNXT6rFYeYSiGLI5WK0IqiKM2MnZqU5qHQB63YS8u0c6rFIyONtLbm8nAJ68/LJt+zKK2/KYuXkP6Lq2cSSwu7lnXc8qULj7sXcWleHP4LYJ985eS7bpqqnj6cm+Z1FNY3rX+XWOz0rRQIonK4JzQevIihiMOIjgic3377rdlHee7cuQ0EX0Jr4WHLymWETMJMI/xyDBEUz1zEVQRsRFkEbCeSIjojQpO/L0LjwUuYa445XnvtNSOM//3vf68vm/2Q8dDGW7p169b1n+MJTThtxFO8iDH2NaZe/N1zzz1lyJAhMmzYMGnVqlX9eYjiiMPuwYs64w1NPi4NIjTtQBTu06eP8Rbmcx7YunXrZrykHYQux0vchQmn3VlFaBfKG0G/X79+RnwG+oo+dedRN7yk8YS+6667jOezO4Y3OccIV+4gpDahuV0a+hyvb8aWkNyMH59RV7dYAFEa8X/bbbeVSZMm2ZyUGEl/KY0jvGdJE+NyheKOLdZLs1io0ELO9++pCr1fDO8j8hn3YOHvfhYBNrxHzUeWdoSW7x4pn/kiRSH92JhyoJCxxvy+rIbxbux3QaktwusnHPNCr9HQ9BoqnCwidDXityt896BUKfZWt8lIi/6nQmVlk7Z4IKuxGF49oktDU0fzTMqoDmx9FUVRKgI7NSnNQ/gAnEVsi71kCR+Ei/WUKPQlU7HlZCGWd74HfideIn73TiwMuxfr7y0Sy9WGxuxXlS9deJx+6uv9d8yKWTUevsDOKs47SlVPR67rjLodkJiK0Dmw07dSIDERmjDWTz31lLzyyitGGGUvJ0TOr7/+WubMmdPAE3rzzTev35OY/YJHjhxZL9oiguJJ/fzzz5tVtoi3CMd4BHMcsZP9iJ0IjVcun+N9u+qqq8oJJ5xgPKARoAknjVe17wlNCG68q6+99lpp165d/ed4QHfu3Nl4Ot90003m7ymnnGL2o8J7GS9oxFTqHZ5H6Gn2qcYb+qGHHpKDDjrICNouDUIs7UAUxkvaHUM03mKLLUz7CRH+6quvmhDliPTOq7kQT2gnQrMyecCAAWYMgL6iTu48J0LzOfWifi58OOXRD7fffrvMnz/fjCle085THWMMCB2O4P7jjz+aMOUI7+RJOYj2Li2i9Mknn9xA1FYakvST0jjC+5zYy+vY76+7nwqPcb6/eC70cM73246dmZjLP+bJGt7PZRUVYvchfl13TCwsK8wrdl8Y67OsxPKjfW6xo1ug6B/Hwn4M72nCPMK2h30IWfqxseX4x8P+5/zwvi5271Wp493Y74JSe/jfl9h4h9dM2jWRFm0r7dpX0sk6f1Qb4bWk10YNYG91m4TQO/OQQw6p/zemIbkrE0Jwu9DPvvGMT/QyX1xmsfuYMWOi6XV8S4OK0CnY+iqKolQEdmpSmoesD8A+Tmh152CN8T7wH5QKEaEbU04WwrqU4oVRoXV2lm/1fFrd8qVrivrExrTQ9pSqnpDlGgutFGNfU9jpWymQmAiNMIkYi4DM/kx4/PLg+N577xkRmgcYlxbPWzyhFyxYYERoQnP7IvRhhx1m9irmZcLMmTONF3I+EdoZYcLxfkY45bxlllmm/hjeuQjKCOV4JSOcu2N/+9vf5NBDD5V77rnHCOC33HKLEX2PP/54I2wTdprz2N/a9yrG2P+aNrPPMnUnLLh/nD2hCceN1zAi9hprrFF/DLEZT2nKIIQ5Yb+dAI0hLBcqQrsQ4QjbwAP7gQceWH8efX3aaaeZsUGops7+wzx7ViNEDx482IwjfezyRlRmDAhnzvjRX0OHDjWiPeONVzTj6zzXMfrwk08+MXVRFifpI6Vx5Lufg/ClvX88/D2N/eYWcn7sPg0h8IPEiFSCqFeMeBqmyXrPhPltiomSYX8VQtj+mDgMoaAaqz/7Hp+bGH0ViqRhvWPnZxVnii0nvNZibXVpWMi5V2KxvqjU8W7sd0GpLcJrK3ad5nv2Ccm1yCO8VimPz/yFFrH9y6HYPdPD65lrnu9wuH0XEarCEPSxNFmjbbl2s5AkjGiV1sYsz37u+5hvXNLq09zRufzrI9+1pFQB9la3SfDDOeP5zPORL0rnEtNCAdt51r799ttmQbL/nER0KBYz58Kdx8Jid547l2dGFvmG+F7cPPcSHSskFAjTPLxDj/BQoE1rV69evcwi5BihWEx/hns4t2jRwjzDF0LMe51n4lxQf3+8sFzjW0x7S31NQFP1O/s6I9bzDsKl8dOG4j5kCYfuxiXsm3yRBnjfELaba5zvQvLvXL/R5fitKg7bFkVRlIrATk1K81DoA7AjfBD2H65jL9Uq0SMjH7naWCxhfzvD29nVLeb5E5adddzypctanzBN1vqE44jFXsw1Vz0x/7ohj/CFPJb1e7HEYKdvpUDw9t1www0bXF+Ijv/3f/9nHi7YSxkhFCEY798HH3ywgQjNA/lll11WL0IjrvrhuBGDnQiNyLnHHnvU7zm87rrr1ofjZl9iwmG7fDHqgfCMkEo9/GPsRX3FFVeYfZt58ELcdXs38yDEw1Tbtm2N1zZ1RExGYOYvaRGRv/rqKyOa+57BCLO0nc/Ij9Dg7hiG5zciNOGreaGAd7a/hzJtZp9ovKoR4f1zaQ9hwBGb8TZGAHbH8Op2IvSgQYPqhV8E9f79+zcQoXm4defR14jWPAgTMh0Pb+rojmP0HX1I6HC/rrQNUZqXGXib8+KAPqJv8ermuvA9z+kTQp+zv7cSJ+knpfHkE0L9eyHfCzTri/Hwd9f9Lofnp3mY5iPL/WJ4P5dL/Av7w88vFHqKrbMjrFfs/gjCNhZ6T5LvHguy9GM+cpUTjjdG/w1ILNdLtJBKHO/GfheU2iO8Tot59gnJNVeH12qW/ctjz5sxS3t+DtvIdzlXflzvsXnAt9h3Iuwn6sMLdP+80MLvfNh3MWuMCF0J0bmyXHNKFWFvdcsOopsfdYvnzvCzXEJZTHAcPXp0/X/HLE30zCLmYTyb+YQCc0yIjQm2ocCcTyBELPXFwNB4JubZPCQUQ3lm9svB8omRIWFdsXwCtIP+oq69e/c2W0eFoqqj2PaW8pqApur3MH2ahSHMyyFC867BF8tzWNpvdKl/q4rHtklRFKUisFOT0jwU+gDsyCfQVrpHRhbytbEYwv5Oyzdsf3hzkXXc8qUrZ31iYcbTXgQ2VT1zvcBxxF6QFHrt1Dx2+lYKBFGZ0Nd0YS7DwxaRlD2P/X2UEXURJhF18ZA988wzGwiXrIolpDYPOOxZ7J+LqEkoaIRV9nb293vOZQiniOJOmAW8oY888sjFPJdDQ5DmwdEJqU888YTZc9kJ5/mM/Hk4BkKQX3PNNaZNvsdzLiMsOGUS7hpx333evn17efLJJ00YcP+lBEL2EUccIc8++6wpE4/nrl271h+nr6k/D6nAQyMPvdtss40gprt0zhDWncCNIE1f0vcsRmD/6jC9Mx6A8cDGc15JJ+krpfHkulcKf3v938zY73IWc3nk+93PSr77xULF7rA//DY39r7Sp5B6FdtX3CMfm5jvcZh2ftb77hhZy8knBOGJgZAVbmXjU4nj3djvglJ7+M+Qaddgod/r8Lk017UaM/8ZrNBrNrZnevhdLJWF4mmx3y+/veUUobNaTBTOUq/Q0q6T8BooZA5XKhB7q1t2QuHNCbOhsJYmcMbE0CwWCsChkJzP/PrERE9fJAxFdWdhm8K+8IXRQuoXti2LuJlVQHZk9ewulsa0t1TXBDRVvxdaZ//aKLUIXUT/xX6jS/lb1ThsuxRFUSoCOzUpzUO+B600woemQh50spTZmJdhjmLb5ijEkyIrsZuB2A99vhdfWduWL1256hOzXGPYVPUMxzTtJiu8/tL6d4nFTt9KgSAsE+qa8FG+4Q3rDOEWj2EenBBKEXtdui5dusjkyZPlyy+/NHsFI2i2adPGHCOcNmIrXraIvngOcy5hqDnOw/e0adOMB/X06dONEMvneES3bt3arA7moR2RnAcfQk+3bNlShg0bZvIMIfQ2oakRYEmLqI0HMH/JAy/sq666ygi5jl9++cWIwuzvjPevK4sw23gU0xZW/frt9UOq4QFOSHH2uuY4nsScj5cz53E++XAMwZfQ5S+//LIR3xF9Xb6EuSZEOF7hrMx2fUR7EZVde+kr9mV255E/e1y/++679fs6I1iff/75pr2Uuc4665h+xNuasXYe43hC4+3M3tXz5s0zwv6mm25qBHk8sFkkQHsoh/DsLCJgnJV06mYjpZHEFl6538bwt7AxIoYz93ua73c/K/nuFwstJ1f6fPcYhVBIvbKmjYXVjVns/ELuu4stJ3atpRmhaGMCbSWOd5hHVstXN6U6yXoNFvq9dumc+dd+eK1iuRZghM9DpC10z/Twu4j5+aRFl8qXJt932hkifK5IVrH+zDLP5RuXtPo0d3SucH5NS6dUCfZWt+z4Alour9BQ2HWkCWZ4K7v0eHWGaULPV39RMJ6thD12ICKHnrR+XfN5bqeJkfk8WtOEw7B+d955Z4P8s5RPHrGw4VkJ65o2PsXQ2PaW6ppoyn6P9acL0831FXrSx/o7FMxj3t1hm8I6Q1hW2G62XIt4SWf97Sz0t6rx2HoriqJUBHZqUpqHfA9aaYQPr1l+rCrNIyMfxbQxH2F/F7s6Puu4FZpPqeoTs1z91xT1bAqvoyUGO30rBYKoiAB53333pRr7QLO3EeGev/jiCyP2umMIuAinPAxhiKHstcwxvKxfffVV80CEQIpIzbk8EHEc72UechBO+ct/8/n9998vjz32mPlvQl8TqpsHMUJNkydlIB6HUAbhrElz8803m/2TEM8JF85/005E3PBcyuehcNasWXLDDTc0KIs6uPa49uIB7YMXOHnfeuutRoTHeAjlPM6fO3euOZd284D79ddfyzvvvFPfXoxQ53xOeHG8oV0f4XlM3dxDJXVFrHbnUQZjwwMkY4NYzWdTp041QjeiNw+J5Ed5CPjO4xwRGoEcb27GhnPpb/oA73bEbfK47bbbjLCtAnR+6mYjpQSkLSz074PC38wsv/sxc7+npfqdrURRMguF1CtfWu5vYiIV+6P2TuwvieUrK8t9dynKIY/DEssnYGPF1LM5xjvMI6vlq5tSnYTXTZrHe7HXDRbOxzEROm3xdPgdKuS69hfvhvmEx6GYNGF/xeoR69PwOQ8L+yDf/AG55gSI1SeWT752hb+7WduUa97I9ZutKDHCa8y/lsNjWd+/hPk4cn0nwrJyfR+459grsfB4+J3y55q0qAP+9ylXe3Pl7Qjb588/hczRWSnHu0pHY9tbrnmy3P3Oe+RyR/PM9xsT5pE258f62O+fUo1B47HP7YqiKBWBnZqU5iHfj2AaWW56ivWUgCw/4I7GlJOLphChs95UhOnKlU/Wh4t8+cQs18NwU9QzXxk+haRdIrHTt1KDsP8yAnihIJoibrP3c1YQqIspy4GIjDUHr7/+uhGd+/btK4cccohZtUx4dAR1wm0jRvfs2bPeE/p//ud/pHPnzkZ49qEP8PAmvHpj+mJJpG42UkpA7MXKPxLzfwfDe6DG/k5m/V3PR777xawvUR1hX/gvY3IdK5RC6pWvr8OXdGcm5tcry1hlue8uRTk+KyaGIM3+tX6+voUvHCtxvBv7XVBqi6zPsOF1U4iFeYbXaq7rPny+zfVCPvzO++WG7Yxd92G9sqQJv2exfooJERDWKcwry9jk+z5nrU++tofjkLVNueaXrHkqiiO8TsNrJpwDYvNFKb4T4W83xjzGFh0bJpaFMH//+x1+N3xzdQ3b4eaPsG5p38HwfL/8sG757k2ykPVdZWx8Qss1FsW0txzXRHP3e1hOrD6l+I0p1W90KcagNNjndkVRlIrATk1K85DlxzQkdpPo/zhyvFo8MnIR/qhnPX9IYuzLEbtpztrf+dJVej5pFhtHaIp6Zs0DCkm7RGKnb0VZYsHr/Oyzzzbht/Fy/q//+i9hX2jCc7Vr186E5mYfaL4uGCHL8RTHK1spDWYyUkpB7L7u0uC/wxcX4TmFvtiJlRl7OZKPLPeLpXqhE76oSRMls5JVMMglQmS5X8nygilfP5aqnFwQFjAMARyOVSWOd2O/C0ptEV6jaddf+J3KaoTSDMn63Sv0Ws31HQjbGft+ZPkO5UtTyDNZvryyzB/5yguPp/VhrnwKGYdC2p9FMFQUH/+aiV2HWb7DpfhOQHj9hvZiYrxfWyWxGOH3ytU1LJeFb/5/u+9J2twdnp/V/L4K+zHX9zgr5RKhS9HeMI9irolK6fdSR/PM1eZS/kaXYgxKg31uV3IQxoMv1Fx8+LS9B9KMfeB69OhRH3s+C++//74Jgbj11lsvll+LFi1k6NChi8WqLzdZ4tyXCsJREoaR/QVqmVpuZ3KNKM1HMT864Y8d5r84C28gq8UjIyRfO2OEZYbnZK1TvnTh8bSbinw3XuWqD0adtk7Mv5HCYn1YaP7F1LNcD/xLJHb6VpQlFjy/CSHO/tQI0HwtnP3mN79p8N9/+tOfZN999zWhuwnxrZSGpG+V0pHr5V/ab2B4TqEvvMPzY/d67rfbLTAMXz5muV8M02S9h8D8e5ZcL3uKIWx/LL/w3gXz65/lfiUsJ5YmXz+Wohw8nw9KjBfAaX0X1iO8pip1vBv7XVBqh6zXQuz6S7M5ibFPutsvOCTf854jy/fYJ1f6LN/FLN+hfGkKqXO+tFnqnC+P8HgxL/ZL2SYfnYeUQgivrSz3ILHrvRTfCYjd76QZ82Hs99j/Drh6hHMMv/O+gOva7X/mtyGsd1bz25d1ji6E8Puedo+Spf5+fUrR3lJcE83V7+WO5llIm/PVt5C8iv1eNh773K7koLlEaN/cJvhpIEoOHDgwem7M/E3gy01TiNBOlHX9G9v0vRZYEtqZtEtpPor50QlX3RX6w5nlZiDfD3ipyslF2ou/tBcAkKtvIGt/50sXHk+7qcjXB+WqD+Ze5IVjGbtBLjT/YusZjk9MEIewzmnlLbHY6VtRlmi4R5s+fbr07t1btt12W7OYdIUVVpClllpKlltuOVlrrbVkm222Mcdvv/32gkKVK/mx05FSGsL7Bd9iL1Egdo6/IBDRkRc5eK+clFi+6DAYXn7ufO7Dwt/t8H4n7R6Dc51gHbufI5+OiTl2TCz0wg3bHbY37YVfVmLtJ093n4lncOyFrH9PEsuDers+6JFYOEaxe5p8/djYcmLXij/WQHvDMsL7tEod78Z+F5TaoVgRujHPGuH1l5ZXoWXmSh9+F2O/E1m+Q/nSFFLnfGmz1DlfHlnrkytdKdvkoyK0Ugjh9yGrhddVKb4TDn6/2aYj/D2NWez8cD6hrjFh2m87+fw1Mf++wZ+HwnpnNb9+WefoQgjHL+19YJb6+/UpRXtLcU00db9z7TVFNM9C2pyrvlCKvAots3Dsc7uSg0oQobHrr7/e1qghvPTafffdo+fkMlevctMUIvQDDzzQoG21KkIvCe1M2qU0H1l/dPhRZlVY+MIG829Es+QXPiDF0uT7AS9VOfmI3Zxzg0coIP8BOa1viqk35EsXe8EWE1SbSxT3j2epa2Py98mXLrwmYi9DYvVNK2+JxU7firLEg2fz/Pnz5ZZbbpFzzjlHjjzySDnwwAPliCOOMOG6J0+ebEJ3qwd06bHTkVIaYr99ztIWbEH4u5rPwpeXsfusXBaeH75g8s2/B4sJnLmMbVXC3/18YkkxFNp+LLwnCe/18lnsRWWWfmxsOYWen0Ww8q25x7ux3wWlNgivg7Rxzvpsk4Ws12o4z6eJFo5c+WZ52Z6lXvnShP2Uq8758spS56Z4Ji1kHAq5TrJee4oChf4mO8v3HS3mOxGDxVsI0kRPceeElu+d0m2J+d81V/dwrmBxmP/f/nen0HrHyDIXFkpYLyw2p8XI1aZStDdrHuWuRyH9Hs6f5YrmmSufUv5Gl2IMSoN9bldyUCkidEw0LlaAdtYUQrSK0KVDRWilzIQ/OoVa+CMVy48fX34M+VGtFI+MQij2Bj1WXilvBsJ6kcZ5z9AH7E3tH3dp/HxKVZ98x9PG09HY/B2F5oNRl0K8jpQEO30rimLBy/mtt94yW+o8+eST8swzzxhxmrDdSnmw05FSOmIiWq4XNo6s4lvaC/G2iYX3bDGL7YUavrDxLXz5w298bMFgaGlhHsvxEhHy9R/t9u/5stzb+IbAyotc/7PwxW2WfixFObF705il9W2lj3djvwtK9RM+81SSCA3h82OuazG8nv3vWJaX7VnqlS9NbN5JWxiVr05Z6pxvXLKOW7504ThkbVOu6yQcr7Q8FSX2vcpqoTBWqu9EPmK/6bH5K9e7O5c+170E5n93wrT5hMEY5bp/jLU1y/1FrrEoRXtLcU00Zb9nqW+YVyxNKX5jSvUbXYoxKA32uV0pglBUzifoFpIecTkMrx0Tb2MC+W9/+1uz9zMvuxxur+iYCJ4v1HdjURG6dKgIrZSZ8EenEEu7Ech14xezWD7hj7xv7se1FOVkId9NaszSyirlzUB4k5PFwnxKVZ98x2N96N/cNzZ/R5Z0WV8Q+pZW3hKLnb4VRVGaDTsdKaUjdu+V5WUW8HIwtofanMSIHhPu5RziPF4eT8w/n/DFFyaWaysU7jEQN/2yOY9yY8T2e+O+DTEyV5jkcr1EBNd/Lm+MEIAuhLR/zxu7J0nrAxZlUscsdc/Sj6Uoh7Yem1g41oyB3+Y0Kn28G/tdUKqbLC+hIeuzTRYKuVazipph/TD/2S1LO7PUK1+aWD1i+TAvhM+a4e9XKQSCrOOWL134PJq1Tbmuk/DdiIrQShrhdyHfvV54bZVD7OI+8KDE8HxOm8Oy1DtM45v/nUh7lxirf/h9zXpv7Cj2fiIfYb7OWBTIvZRfBvNJ2n7H+eanQttbrnmyXP2epb5hXWJpSvEbE+aRte+wQt6vOrKmKx773K4UQTlFaAjFW8TlRx55xB5d/HgsTcjbb7+92DmlEIVffPFFadu2bYN8e/ToYTxAsorQCO8I5VtvvXWDfLAWLVrIlClTFuuvLF7qocheTDk+9GHfvn1lk002aXAue//R5qeeesqmTMfl4V8PnM9e3f7iAUcx7axWkrYozUfsxyuLcWOT9kIwX56V5JFRCDHv6phRbprYXeqbAV7CuTQxK9R7ptj6ZMkn1w1VKfKHrOnCm0jfeDG5fWJZ8llisdO3oihKs2GnI0VRFEWpFEr50jsrhQgcsWdsnn0K3TM9y8v2LPXKlybsJ2f+uwjaFD4Tx/ozrLMri/Pd4pCmeiaNtYv6FBudKxxXxrSYxffKkkGhCxZyCXCl+E6E8wDGeyx/LuA7EX5nYvWOfbewsF7hfOAsy1yG+eGaEdARd1kQR2jvcIFbIXN0oaS1oxCjPn7fNLa9pbgmoKn6PXbNcB2Qlrm1VNE8IV+bw7kcK+Y3ulRj0Hjsc7tSBE0tQofibegVi6XtG+1T7HlphB7bviGKX3bZZXlF6LBv0izss0LF2WLLcWQNzY6YnMa1116bsw702bnnnmtT16EitNJExH5w04wf93xeAw5+PBvrKZGWR6k9MgqB8hC25yTm8sS4McjivVGOm4HwJoS6+ONUKSJ07IbKrWYsRf6QNR3Qb/4eQ/QbDzuxcO+58lkisdO3oihKs2GnI0VRFEWpFMLnnVI8s+Sj0OfdmJiTyxB8w7o1twidz2LiVFiWb67++cYl67hlSZdrUXSapZUXXneNfeeh1C7h9yDL3BP77rjvWKm+E2meyWmW6xqP5ZV1bkkT5Av9vvpeu1nmwsZQzFziLG1Lksa0tznnyWL7vdDrL7bQpxS/MVCK3+hSjkHjsM/tShGUU4TGUzbc6zkUGUNhMl/5jtg+0sUKmFlFWd9CETrm0Z3L/BDUhYizjSkHYuJ9Lov1aSF5+AsDVIRWFEVpNsKbMX2QD7DTt6IoSrNhpyNFURRFqST8l9mxF9VQyhe/xQgcvORuzJ7pzSVC009bJJb2oh9LC9kaWxDtrDlEaMglsHDtZI3OFfZjbDwUBcJrLsu1EvvuFCKqQZZ0+aL8Ocs3x8W+V+G8EGtTWt0dWQXRsKxi5uhCyTqnO0O4zOdcVGx7m3Ke9K0x/R7WJTT6qxzRPNPa3Njf6FKPQfHY53alCBorQhdisbyPOeaYBmkK2R+4Mec6Yu2hnoTghti+1lgoQsfEdD+PsK6xvsiyV3Jjy/GP461M2G4H548ePbrB+fnE9jCPO++8s0F/xjzGs7Sz2knapSiK0hRwA4unPPtLtk4s7SZUH+TzYKdvRVGUZsNOR4qiKIpSSYQCbZaQsY158dsYgaPYPdObU4Smn3hBH9abqGRp24U5EAlyRVrLNy7leLFfiuhcWa45RYmJZFmvlVAIdNdiqb8TfLePTezxxFxajO9FlsiDEM4raYuBwjZleecTm3uwOYkxj7iwyz6NmaMLxfUf9fHrh9F/aXVMo5j2lmOebIp+T/t9KGU0z0LaDMX+RpdjDIrDPrcrRdBUIvSgQYMWy7ex3swxQTZX3WNkzSMUd2PiKntK9+/fX1ZYYYXF9rQO+60x4myx5YT9HWurS8O+0pMmTVrseNhfsRDoYTvCMVURWlEUpWSED+hY/8R8uNELVx3qg3yAnb4VRVGaDTsdKYqiKEolEb7U1cWsxVP+F+SVTdj+NBHFF9OWtD5SFEVRKhX73K4UQVOJ0Bh7DPt5V4IIHYrLaftKh8JpTETORb69saEU4myucmL9jSfz0KFD5amnnjJpchGen9YHYR3CdqgIrSiKUjJyhchJM32Qj2Cnb0VRlGbDTkeKoiiKUmn4omA5vd5qnVoVoUsZnSt8vk0LR64oiqIoTYt9bleKoClFaMzPv7lF6LB8BNnQs9iRRUSOgdfy8OHDZZNNNqk/N+38xoizWcsJ+yy0tdde24jS8+fPt2csIuyDrBaOi4rQiqIoJYVQPln3y2Hvl3xh3ZZI7PStKIrSbNjpSFEURVEqDV88TAsFq+SnVkXoUkbn0mtNURRFqUzsc7tSBI0VoXOlf/XVV6P7KftCc+iJXIgg2ZhzoRBhOWtaxOC+ffvmFeobK0IXW05M+E+zHj16NBjbYkXosA4qQiuKopQcVoy7/bf81eWYv9+Qei2kYKdvRVGUZsNOR4qiKIpSiYxIzD1faEju4qhVEbqU0bl8r3u9zhRFUZTKwT63K0VQThHaEYrF/jmhZ24uIdgnJogW4kUNpRShEXcRhd1xZ+ytfOGFF8qnn36at6ws4mwpyiGPMWPG5BWwMf98FaGzk7RLURRFqSLs9K0oitJs2OlIURRFUSoRX0DV7X2Ko1ZFaChFdC69xhRFUZTKxT63K0XQFCJ0KDr654THsLR9mX2KPc+nlOG4QzF90KBBDfoli+CdRZwtRTk+77//vhGk27Zt2yBf31y/Fpp3GipCK4qiKJWGnb4VRVGaDTsdKYqiKEql4nupxkIpK7mpZREaGhudyw/rrXtBK4qiKJWFfW5XiqApROhcezfHvGtzicEQ1gErVhANvbTThOxQOPXLyyLOhnWOpcknzpaqnFy8/fbbssMOO9SfjzkP80JE+1yoCK0oiqIoiqIoiqIoiqIoiqIoiqJUPFb3UYqgnCI0ouXo0aPr0zoLRcdQpHbWq1cvmT9/vk1V57XLHtOhAI0VGorbkUsgd4TiK1aoCB2WUy4ROl859OHll19uPJ/Txi6sh9+3Yf7F9LuK0IqiKIqiKIqiKIqiKIqiKIqiKErFY3UfpQgaK0IXY6G3cUzkLcTy1TkXMU9s8nvuuefMcTyDY3XLJUJjCKvUibZde+21i/VZFhHatYs8EOMbW05s7BD6/b6jvWEZ/njF8vBDgiNys2f12muvLYMHD5annnrKfO6Tr521QNIuRVEURVEURVEURVEURVEURVEUpZqxuo9SBE0tQqflX6wQna++WQhF0SwWishhWO98FgtlnatvnbdwY8sp9PxY/6Z5rqdZ6C2dpZ3VTtIWRVEURVEURVEURVEURVEURVEUpZqxuo9SBE0pQm+wwQaLef/6IEQTbjt2bsxCL97GkE9YpSxfwA1F6JiXsm+0fcyYMQ0+K8Qj3ImzpSgnax/nuhayCtGxcN1Z2lntJG1RFEVRFEVRFEVRFEVRFEVRFEVRqhmr+yhFUG4RmrDMLVq0kClTpmQWjBEpEVK33nrrxfLjs6FDh5ZMfPYhFDWhpP3yXN0hlwgNTkT3+4f2Eyab+mbp67Q8aLOjFOXQ1uHDh8smm2xSnw7Dc9pvcy5cf/llYW6McoXWztLOaiZpj6IoiqIoiqIoiqIoiqIoiqIoilLNWN1HURSlIrBTk6IoiqIoiqIoiqIoiqIoiqIoilKtWN1HURSlIrBTk6IoiqIoiqIoiqIoiqIoiqIoilKtWN1HURSlIrBTk6IoiqIoiqIoiqIoiqIoiqIoilKtWN1HURSlIrBTk6IoiqIoiqIoiqIoiqIoiqIoilKtWN1HURSlIrBTk6IoiqIoiqIoiqIoiqIoiqIoilKtWN1HURSlIrBTk6IoiqIoiqIoiqIoiqIoiqIoilKtWN1HURSlIrBTk6IoiqIoiqIoiqIoiqIoiqIoilKtWN1HURSlIrBTk6IoiqIoiqIoiqIoiqIoiqIoilKtWN1HURSlIrBTk6IoiqIoiqIoiqIoiqIoiqIoilKtWN1HURSlIrBTk6IoiqIoiqIoiqIoiqIoiqIoilKtWN1HURSlIrBTk6IoiqIoiqIoiqIoiqIoiqIoilKtWN1HURSlIrBTk6IoiqIoiqIoiqIoiqIoiqIoilKtWN1HURSlIrBTk6IoiqIoiqIoiqIoiqIoiqIoilKtWN1HURSlIrBTk6IoiqIoiqIoiqIoiqIoiqIoilKtWN1HURSlIrBTk6IoiqIoiqIoiqIoiqIoiqIoilKtWN1HURSlIrBTk6IoiqIoiqIoiqIoiqIoiqIoilKtWN1HURSlIrBTk6IoiqIoiqIoiqIoiqIoiqIoilKtWN1HURSlIrBTk6IoiqIoiqIoiqIoiqIoiqIoilKtWN1HURSlIrBTk6IoiqIoiqIoiqIoiqIoiqIoilKtWN1HURSlIrBTk6IoiqIoiqIoiqIoiqIoiqIoilKtWN1HURSlIrBTk6IoiqIoiqIoiqIoiqIoiqIoilKtWN1HURSlIrBTk6IoiqIoiqIoiqIoiqIoiqIoilKtWN1HURSlIrBTk6IoiqIoiqIoiqIoiqIoiqIoilKtWN1HURSlIrBTk6IoiqIoiqIoiqIoiqIoiqIoilKtWN1HURSlIrBTk6IoiqIoiqIoiqIoiqIoiqIoilKtWN1HURSlIrBTk6IoiqIoiqIoiqIoiqIoiqIoilKtWN1HURSlIrBTk6IoiqIoiqIoiqIoiqIoiqIoilKtWN1HURSlIrBTk6IoiqIoiqIoiqIoiqIoiqIoilKtWN1HURSlIrBTk6IoiqIoiqIoiqIoiqIoiqIoilKtWN1HURSlIrBTk6IoiqIoiqIoiqIoiqIoiqIoilKtWN1HURSlIrBTk6IoiqIoiqIoiqIoiqIoiqIoilKV/H//3/8PpCA8hJZ+OEYAAAAASUVORK5CYII=;clipPath=inset(0% 0% 0% 12.67%);" parent="1" vertex="1">
          <mxGeometry x="-210" y="280" width="1758" height="301.95" as="geometry" />
        </mxCell>
        <mxCell id="zqFV1SUlhvz9hyw7UpEj-4" value="&lt;p style=&quot;margin-top: 0pt; margin-bottom: 0pt; margin-left: 0in; direction: ltr; unicode-bidi: embed; font-size: 24px;&quot;&gt;&lt;font style=&quot;font-size: 24px;&quot;&gt;&lt;span style=&quot;color: rgb(0, 142, 220); font-weight: bold;&quot;&gt;User Query: &lt;/span&gt;&lt;font style=&quot;font-size: 24px;&quot;&gt;&lt;span style=&quot;font-family: Consolas; font-weight: bold;&quot;&gt;R&lt;/span&gt;ecommend hotel based in Sarande Albania&amp;nbsp;&lt;/font&gt;&lt;/font&gt;&lt;/p&gt;&lt;font style=&quot;font-size: 24px;&quot;&gt;&lt;font style=&quot;font-size: 24px;&quot;&gt;&lt;font style=&quot;font-size: 24px;&quot;&gt;&lt;br&gt;&lt;/font&gt;&lt;/font&gt;&lt;font style=&quot;font-size: 24px;&quot;&gt;&lt;br&gt;&lt;/font&gt;&lt;/font&gt;&lt;p style=&quot;margin-top: 0pt; margin-bottom: 0pt; margin-left: 0in; direction: ltr; unicode-bidi: embed; font-size: 24px;&quot;&gt;&lt;/p&gt;&lt;div style=&quot;font-size: 24px;&quot;&gt;&lt;font style=&quot;font-size: 24px;&quot;&gt;&lt;span style=&quot;background-color: initial; color: rgb(0, 142, 220); font-weight: bold;&quot;&gt;Bot:&amp;nbsp;&lt;/span&gt;&lt;/font&gt;&lt;/div&gt;&lt;font style=&quot;font-size: 24px;&quot;&gt;The airflow requirements in A320-200 A230 neo are 50, 45, 40, 55, 60, 65, 70, 75, and 80 kg/min or lb/min, with specific conditions for each airflow rate as follows: 40 kg/min at -40 psia absolute pressure and -45°F (-43°C) outside air temperature, 45 kg/min at -20 psia absolute pressure and -35°F (-27°C) outside air temperature, 50 kg/min at 0 psia absolute pressure and -25°F (-32°C) outside air temperature, 55 kg/min at 20 psia absolute pressure and -15°F (-26°C) outside air temperature, 60 kg/min at 40 psia absolute pressure and -5°F (-21°C) outside air temperature, 65 kg/min at 60 psia absolute pressure and 5°F (-15°C) outside air temperature, 70 kg/min at 80 psia absolute pressure and 15°F (-9°C) outside air temperature, 75 kg/min at 100 psia absolute pressure and 25°F (-4°C) outside air temperature, and 80 kg/min at 120 psia absolute pressure and 35°F (2°C) outside air temperature.&lt;/font&gt;&lt;p&gt;&lt;/p&gt;" style="text;whiteSpace=wrap;html=1;" parent="1" vertex="1">
          <mxGeometry x="-500" y="600" width="2140" height="200" as="geometry" />
        </mxCell>
        <mxCell id="zqFV1SUlhvz9hyw7UpEj-12" value="" style="endArrow=classic;html=1;rounded=0;" parent="1" edge="1">
          <mxGeometry width="50" height="50" relative="1" as="geometry">
            <mxPoint x="810" y="450" as="sourcePoint" />
            <mxPoint x="900" y="450" as="targetPoint" />
            <Array as="points" />
          </mxGeometry>
        </mxCell>
        <mxCell id="zqFV1SUlhvz9hyw7UpEj-13" value="" style="endArrow=classic;startArrow=classic;html=1;rounded=0;" parent="1" edge="1">
          <mxGeometry width="50" height="50" relative="1" as="geometry">
            <mxPoint x="1100" y="440" as="sourcePoint" />
            <mxPoint x="1220" y="440" as="targetPoint" />
          </mxGeometry>
        </mxCell>
        <mxCell id="8gna0-SzCfryGzHACBwC-2" value="" style="shape=image;verticalLabelPosition=bottom;labelBackgroundColor=default;verticalAlign=top;aspect=fixed;imageAspect=0;image=data:image/webp,UklGRrCHAABXRUJQVlA4TKOHAAAv80ElEE3Ism23bpt1gAuCJIT5D5hyJKeP74j+TwD/gQKTfpGeyUySvnTddQN6gGwq+NZ9R3gEjzXlVRoP9CQTqmoMqxj2RED50F2v42MDGzKtrMqpqugnaALuQzf3dSSZDVCnQUR3P+PAHekHZ3Du3QGQFd3X+UwCyszsU+7MCTHKsADw7uvjMyQzrPAj5qwkkwiwSgfCr4tvCsBNzkioiLIEogG3sRanvTDn2ptTAlwMxfZVlb27gelVq6xJvQFoOvgAvBwHrVyQQKNZVbU47SXMoKtww+QO4sdr7rXoiHjtXDtx3hWALML9G1XF21UH/6ELSW4kOZJENHLE/1+Yh9EyRhUCiUCs3h59lqxq29w2ByHEh/kxXzov/2Xv/2qyCuJHCCcR4keZR2QpkuTaTvBomiPvD+9T+1+JljHyz2vkD4di6P8E4HM0t6N6q4/kprKMtrXVLNsHurOWWg7jISdL31K9A5MbLswg3ChTzucibXsgs0rzL0ziCJKNR5Jk4zWMfAMgr8LVnS938eUuvhSEhLtHd5F/Ate1sQdKC+MHDhHBlkICislGjZIkq02768kEQPEHwlXE1Y2r8OfCle0X5xAtWrrtddkBqytvofLae5ire7E4xRKLf1g2lUoGAJLZRaq0sZEJPhnkQN5AHhfmhasLGTJEi7Xidd/2XdvjdT857dppiTXWnIzvsb+5ABG5qgyho1q5KTtH11QVLQgCimKRYRGupCDMiH9kyO7IGGJgKXOZ6yx2l1gSmHNcA+CZV0ApcWYssVRURbXSq3ey1wQe1dj1jyTxEDGD4Tj+lSFDDksOI8c1KmCHy2mOJdbzMIILl1CJx8/oL/Gaa7rwSoxWenksvRxVY9lLL41JczVOJSRccQwZMsRyQgKuvLRGixbb6ZI+5PBY22x4KuH1zd1R/V56OcpRrXqsrGMa/diZIiYhZMjhKYcAuoE5lphz5fJK0M/6WX/qg//ctX1bni4W+7mUCzVhqjMQDuOsOnrpot+rjWn8tZQWW/Tj+DnAzLcuscYaa1RAshSrmUwayqNSrZaLsu33pwojCFhs2VtV51qGrfUqgzGNabS1xjrGXSzZ3eXCfoIAFTYjh8e92UUQFAX0hVJVujRNvQqApelNRXguonBX+rG6Gmoaf1piCaD8OTFOmIYcyljRrXuyQ+gOda00Z+ksvYVtUDa8sr4t/Vg9nh8/nj0XHs9IkZtWZUxjGtMMYxrTaKuAGM/TB4YAAyde22s7Gkhgb+NCAmR6LZTHeDxvAFyWjKq3nkymMY01VsZT/K/dRaG1hXFpy3rRTrmQ5L+KX89fDYCNjQxeW50A0ErQJQm+meqQ3EaSJEkM01/rzKxrZna/ETEBfsWZWebHqnzxnZoPdnyoPLzruhtzWK/MxS4jt5y03bD06L3ZqaG9npSnF1WYWa7CRp6P9jNdRRe9Oe3pDFUsYl6Q7De0okL7x9oqa1rRlvbeoHVRqnTkNSXlOOdKqrw6KPtxt4z/UC32/yvbLjn/676f532eFw6sZmbmtt1hmAA6zgB6RaLKFDhxzIyKmbGZmfHAi89zieu67/c9tfq9n1OqvuEcG9sow8xMMrK2vNaKuwOW/jJDYE4G0KrXenQ4Kfm4Xr9wck8gcGwyAGZVslfsbR+ZVgG7wzk2oBonECjbUfHd8rXNYMvugI3jxMYmqldcVCTTsa9MbGR2sDKC7kkEFbMtfVbUVqEx0AhqAmWjE1kyDG/A0g7JsgEVTWVDlm1N4FmrVL8TCJwxREeWbZcZlI1kOvYc6UeybdW2bdvyXGrvYyxmlBiCsuQVgqVi9Ja4bAWAVGZm3DhmbzVTrm1bta30sfbl4VKiRiCeAhETDFV3f3cvCtD+r0+bN6R4KLLlGo5bdvTQ7JC6u7u7u7u7u+SwufsGdXd3nA63/SFY6L9xIzIBVqX9Xy/J+X5/v9NwsLunZpmZUYajeHnXhdkxQ09Nq7hcQRSzY1pmZmY+PdQ055z/+f9+38Dy7r/Wpb52ImOZcw25kFOrWrcOn6q40alakrmC2CUblpyp41JpFXKjYyPxGmI78tiJjRwXydw3kEtIzT0ET41dGyb5t7GxzMl9RKJaUCN3bew/nKjcCmrycamWx+6orVzB4q2MCkPLBZW9hbHBe1k7Mp5Hh9T0jg9zLiVyb2HXroyd1HGjuoqObduqHWftc99n6YtZZu6AMwwdFWbmXG0w9AFDN4Aj5xUaUma2xfr16f137zmUbNtWtTVrn3vf9/G74JT4U3QcyqGYLoRSGpAeeNKB9CCDdsTdU3bH4fu/3z5792xKtG2btp251tp8tm385/f/j23brqWlxJJTTC2p2azZtlP6tm2+e7T3BHC+/3+1JGvKb+8j4RGZkVqZVXWrrpVcf6zd3d3dZ7jriH/A3dvdvfvex92ue8ktyUqNDD/n7P37DSIyH2udfQbIjUHbA7NYizbcC6m16sHdCmcP96Rt49Rw4zwxaPfE3aGwu9bGaatJ4ufOnt8EqY3XxQ/SVmvh0FaDe3FtKZxzh6e9CydwNk4MsPbug7tD9Vq0BO41qElLFB44gRMX/w3acNfE3V1rWshdKxLnXDzwTJzE2e19h1hbrdW4V7sXXhOkasYKfCMtmTgtWOA8Q6zdXWqxLu6WOBU4uVbbxqnEXQppw8lBTXAvpA33Z63aSEse/NG16gzaqvB2d+8u3B0SaSm8cG7iBENNkiQ5tm07Zh659j6X///BOYaHJmaBaWBGvIsWep/TQ/auDPcc2bZq27ZtpZRLbX1uptDWX6CtwqEww4IxWi2ZAmzbpiRpJeonymrbtu0e27Zt27Zt2/a0bdtGMTP/BBgSbuH/S2p2co71tgzOWUTdpa1VlowbrdwlPmmifAZg683NJk80AixZVHn5EuLcZarSv0wU3boAF8AU8EgYXUYA4K9i/zo/PtXhiGG6udcU02X/uxWrcu4iFhcvS5tYIVr5ciSiAGb2ZkBJMGS8XBgYETCYBFZxHzydl8e3A8bDm2O96zdvstHrUd/fSU/4uS5P+mVhT/4lahMgBRFSwSIgNCoiVFCUAVpd/Lsu/APtUDBa85lhrLzDpMODl5qcGJg8uO30ztuP84GBT/b1RjzZ5yRP9SPaA61gyuIi0iJWMZAiYKdP1W00IiCdqJVF6ZAHJ9Rs5y4xAVYJAizvDKrzx/2ZbJIfiaf+Kded+Pv5u5lpNQ8REOJBES3IRjEBD2ha1D2QkCBKgTgjB1yO9EqZHdhemSKgQgCfE2heoEMCbD8QAxcxDj9hASDmkSHODiiHWAyRgAp37tKrrW3yoOvcTf/vNLlXS5QeIe9Bf8yj1VL0MZKIpmSq2NAAQMzZUgCEe6J6rifFlSevvoRMirlxXm7SIfgAHPgUouuAxwFcipcEGv4LkNWFXC1ItKCFHoazgJoCyoHlMVS+vUkuTAHGYFZsRIMIvr9GofyQYmyeUnNwQQA4s4OVTeFImfh8yZJgDCNhjSbI9GoewihKhBdptVJH4dUzBJDWMLejsQI4Rvj61OXKkB3sTOpcQAMA+YDcQPyPEb4Ari70yxWfgH7UitOUxX26Vfl/cPnuJuUBJJA8SRLao1AFPymyusKukVkKNpfNAlhOzdE+LGdm1TPjPFjQiDURddcBiRzHZNojVax7xR8mws9qduCUbWFMYmJOdeMRDO6PGa2WrKQGU4Gk2lFiABpsT2te1F4gxhPGx7ZxV3I027lLdiZVBDweUDFwPrAHOAc4BJJ9AoutNQohljRyXR1yRMtsDGEXZgEkJ8lRwRLY7JtzZqJrmDILE5vdjjVzidK1aGgkYIGFSJaFegVNlLoo1G92ZQhkUlUAs4NIbHGJw9r7EhAnsXVUnjXaswaobCDmhIUxwM2z5QUxxAyxbXgANF7OoA845ErdRdWVSwikHQ3wSKtmayNoAzazbFTfyyL4SotmO3fIac7r1Iw3MdXbsP8ICgL3MkB8bAucP9Ft15e1F+vs2UST0ESnZCDKEAEcoYqQOJrcqBbu11IPoX6CPnQUYmJCLUBWdLbJAsITdroGMPpjJLQKyA00g1wgA+QAMUBRkLxVFO8tz/FMeSzdXpGGc97/CGUQxoEAEO9jYZMTfkV0+7JhbNwKIF5HQZpF6XyYKELSDZcgeYYSgSZKK0nBNjgA+5kWLl8QOhbKi6PzlRGvZgBqXNfPRQpyyGN88wuX9hHjfpRiTYVpRpLGPbVRyY4oXpicbJo3W8UptSaK6NZOp4ZOKO4EqU1beOENpMBGMa6MkxnoQhURICW+0w4ioa1g77SOABjYu3ajmLJA3U90ACpGWdSlpblcU5Lr060YfDDvYPXLVpPNZ887X52zMkZYMvv0cedGASy9FMeGjYi1uwNChe963HqSEGUMBgDYANC02tkUZtxJhezEB7ewg831jQMCHRRoahAfZzlML4Hjh8rcXlPN/0AQygah2URIkpRJEpsmblrFtvTakbRtWWxB2SYEizAUSFvUMMle+aS0YIOUIA2uniHt6lrrEYaO5SPkirZGWNHJEu1sRau12t5CRVoqGX7b5aXrY+HhdQLVD9piE25/f5eLAXD+XDAADfKELkWS5coZYpEMeosGTVzJJFqSQhOzV2sAuo0kzNhGSD24gh3sTKrHYFyhA/M9BdnhJvwpIRD/McrcRoVYMp7pxKBhI+p86MMkO09aLW2V0Is07Zm2JG0LKQ2W8WtdQ7pwQSJKJaWW6x7cPUqPeFIV8kINOv8Gd62gYHdrd0Zo/YxqS7PG3o60Q9AVDcgWO5Ku1ulxqFafTJI6VxCY86CrKUZ3qp/EnfTUg+WSABqHtz4k2nMmwoLHWm1tnT3qwvOAJAAPP3ZjAWTi2KEydnpwADvYmVSPvu/o9Yko25LHE+W+QoFhjISVhlXqHMleUryZtUiJGYpdKW0vx0KLEN3MQRayWvpKhwQxRuguM9OuCaGN0IVoM5YLCtrW9vSTB11r+3Nt5AZZib+hsz3o99baMqJFMCJtyAUhEpJtXmY2bJ+Z8l/+8Q6BrCVxGwPeR33q589T8MAhj3wqcjrCyo4BmdULJC44AHjIeMDetTcCy07QghCMebC79xNCEa9RIW/hWoEjaEXgXhEQP9uCZ090241lLbCR2GjS5dadBc3KKFMRTWVGhyYJxtAZoCT3MYLcdUv80CJf0I1VlqampEd0anmgLlxhsS6WKKhbyykStMqphN3jKgvt6zl9QTIrISEtaNRDjMtLqU7eLwcj6SQJHKmSBTV7Gz74u9Z77yTvnyRL4nib96iWc3RtG5LBc5SCF2oFjGpGKwAvJmzMeyyYeKP2ak0BqkSZPbBRggdbezXXNz7Wx0Uq5oBH/+ZXLh0gxn0oBSrCshGkcc9slNlpqkNlGeLqCGUOwhOERgkPiGLpxDVx1rWCNjgqVjHLzZFbqhBDw1aeXnAq2AXjIka/cMmFEjGRJc86vWMpUQv22p8RZpICi+2QplaRixXyShVSICHjT2OO/Y+VBsne/eWGokty6Oat6V33Kh57GnnpcWHJEgBCyLaHwXnYQFNLw6G9mkq1IlGwMUGMIWQr0fpewBE3Pauk1YN97WBzfePUgHdNBXwUzlGYuQROHilza13BqNeY0ohkq2QHpBcZb6babIZmlbQII0fI1MsiQAxkbPFr+8+/6pQcISvGooRwU2TRxlqURbfyWdaVZ08MsoWXIiyCVKNwrEGtkxfuv1aN9qJCriRHp3HyiNu3uEO6yveRU53JkOh7tEmJRTZWy1yhHZJBBqGFgC5v7mctCWPke3NlV3MeCQCQA/DEgCm4xQhrYgWwqNDJVhzIwEZmSlHegKxeaV0LTHTHoTRER6yt2sHOpBpPxxXeNMgOnZw/aVHgBY5RB2pBwbWRuqLAVtSdJdKbVsqARadyTVPxBEhjELRwfLdOXTQFSeHGhsmG2Bbb+tmDs2zj6znZOISu6IC1RsmWvfbgtbZwSa9kCrRLUilGWO2jRLEttXJoy9tfBiqjn1x4BxN1bam46pKkFwraziAE2A3mWrBYMoo+Qd70PQ0uq4qhKdsLZ0VcysLHvSwBbA0glLX+WNsMohWSjakRoFcuqKW7gA1g4x7RDFZARDhqjtZwllAwBnBxBcjapB3sTKpHXzdQCYgX2OAPXhzYzQNZhGU14PRI4BKB1rL4rvZEUcpUuF+7piA0pRRD6Fl/kxqS4SScyng6pgEbxXUS+ry4W+0qIXJtQ3SCXHSSrlQbE0ccsoCtAtolGSkhNM1SBXZ3WUKqCkmnn6eIckV2EXmUH/iXjlqocnyZH07BWdTdSwaqot9BT+xhUlCCUAwIAlSJvohUYUXvmshHo9fhogAPMH1dKsIjrkuBotYJditUoBcFmB40D1qx0ABIUWftibP9isosX6h4wB34/b/fuJ7f/uuS2/fbf533i17P7/99zPX8/t+9tv/MYkLbEZj7YC/HGD4hp/ee17rHOwqAwyABtsRzNlJlGyv6iom7ieJNED+mokySfJCOl8507ateuxBsz8YiWZjpv8Ec8HXTsjszLqXoYtmASpEOdlVQW312n2n3sQ6hsy01B2ci10VSakJKDEsIfrYva9OqLaupjf5cdnD5YD9b9Q4E0i1dfVa8WrOUUiRwUtqqpBrRB6lO5URilWipKwBIJDWlSV8CCx70gzH+fcoHAC1NkGXmD4lQCNLDviIiJ7JIpeSWXMkjeJm2kIooEuHoHI6uFzOLzX7G1C8Cb74pSKynSPA0gxcZvthcPt66l8Qov0PGbTKsITCb6SSlTDdythr7cf25gNa96vMKmHDgt3/F6KHUDgpGaGEYscBif2C07KOdoSefTdNrn2+NkM60tJdpkhjGlUfayK0+iWIoJ3RXkMX65e6q9SctIBW5UAqihlhAHrCWOjp5SCIOVq94lkS7ZgnKPhqNErncUKYtmx3SOoZolFs20AF6hV7JNUKmRjsYYBvDarFv+/GdHUgNJgI1GKCCm/6uxMFYWyW2B5Pc7HVBdwILTz/vZq/06duCJ7lcALy87ktGzxWjCghNJAAgqZCHDIBDTVkVBVT5w9EgBILFQzpJkEWNqmllJr5DQRDxRu1zuLN23Ow+5Iyq5wgRuguAFXSjqLNU3lTu0XbHKDIcW4FjDp+QzfWNj33XOn7OcpiFEAvluUgFqemPomGUpSPhBcVRzhrTYlYFk2QaJbWNTPP+BgmZjEU6xNFIDZKN3sJJSNEWKTrXDp/k04VoIxd9bsFXjcwSSpkpq88W8GgFJvKrNK0f3rKhDjeXGk0NCBokjWNtYfdjPRa3sQeyMJcrgXTjik9RvZA6suLhFaTKBIDtrK0cwKZsZnO8Y//00Hh1uqGdVO+3Eo8aAOAIvEhdyJEkkAkMaIeEBeBl9eKOyuqEuChH0ijA0cgdPX1Xo2AG6hpNAHxw7j5ujGO2H6U3XADgLsoloJHM46l5VNWtXm3WveNkv+DsdszhiAiQSXVozRU+Ot9jas7L8D/9xeUPIwYbii7HmmxJR4ZDI+fNCqUl7EnpMdMUlWbMKiZkbkNKGqhJJ4g6KssSJ7JKS+qFITFE90UatGu19CARHDXQTh4okSY1rFXWvuvpypEQKxihgxarDAM2ewrISSu9bXhlf5JEYknWWmm71CAXRqfblSRiN/LU1XBrcBJKVcPGYH+KPKEiNTLcUaIctHojcyR2XXlMxjm7+K1rat5IS4wbpxeMqe8TaQslYYVU3j8+AlyCXm9CAJ68A8CPDX/nEkeFKAG/1qi5GOja1loOaC+u/gMmBKY8B3cdwV04JACRlUsYJ/uoacdR2aTCpj05XA8M/ax1jOEu2ZlUj/E+68l9DSoB8QKHOC5+HqsoqwrHaSDZmL1mP+Wq7T6nsjsJpkkaU9IEuFt77o8BauN/hhDkXF2Dxy4lNwrJ1OlDlNJU6ohkyiULuqXry4RBV4EQbOXZabph6MgOaUPpfizt0oQWsASMJJStmIsEyY7jSGTYBCUFjXpE50GdHhkseLTkQZp1gRikQRK2F2ga5s1vgmpMlHedO3EkwHqkG+tOL++66/MkzA8rALp/JJAKGb7HJQRwYAFkgPw6hI2ICIMoeGxCF805ZgM9jDDuxoSrqke1HAlk8YQafwBKCZkAdwGUBVmQG5EsaIo8Sm3jIY6oH/N+VM82dMtomI2OsDQip/eeRbzI4/EhFQPnARsgvv8senddAXsaWdJIGgFWjtIZvc5DNK8VfZRzUkXMUNIwOPVvTdrb6ApsA2b0s0mBjWihkcbgYewqSQNWWOrCOZYKfaD/EJYxQC8+HHdA3ZBSheQqa1RLJTV7SFplV65F4dgVLrk4OOeSBZugu+aKxzbjVRfZlzRxNAvctcIuXF5aUMpeqxJtqX1BH9i0IGhXiSA3ICFhAgBRTivcuKyoa22eUUQBYgusojY2n1YwutwhGwJoh2S8UkARYSojWZFBO2BDzUUtpHoxWKxMmIGr4xdvJHBoR6gyZWtMQ33qZdgQU75o3PuXuX0lGNQR2lHcWCk8K4scUxw8KQMxxSEzwr0yjKPUMN7yxtncJvP4u84ykw3GxPUd1r3q824aZibAXAXORqpiY017JqlN2bpk+1BpnZMx94a6IdV4MaJxlTSEJasgBTZKx2J2NZbES5wH9AETtuu2r54jlbpj5aouNTi2IMguN7jVld7ytcwaZRdejiQGT7a9QW3ZUQv7gU4IcjFiD3hJJtSJl6GOIsX0qevlZ1ucowldMK8yx5F2Xx9bdQ8TwlVuPValUCiVUtEoJXZN2sNtRK0kSFIA4ACAg/ms20TSapph/Gsp3MWnz4xLAExkEWKwAhTIBmznBEppnGNtopfewRIh8R3DDEzArUntBejQSkTVRubYfwsSQunR2X55lYJY1LxXvXW8S7sfWId9HVZF4yA8AcTUA6BWxCHrJUZrzCvVMEoVYwpX9PRA3L3zrHGY/oRsru/QFOhgQFOB+IEjnBDPMaK2U0Voxj22jiZbKawWTi6Ko4SPVmWWck5RYgxQPzjl8crKeKXTAA4ojEQ7u8uG9su73FoR6CssGVAYfK1Ji8xhJwXL7UG5UA2LGYzFKkdIVWHVGastdoehsxvrqMV2SKqwZFBHv2RQ66NWgmtdOlfj1hSO8InnUEpM9NiERzRxsrxrUV9ijtOUVvsCE5JKnnAGDDoYwVHCNDCfPubTHOiOk3mjFOtZyvknBVsdj5vdAl51iFrQCSiD/UwuV0/R9rq64MbAq/+CFSJYB2AdEil2RZUM2noPyUQJashbpT3qPn/rUt8+FuhMNPSae9GUCLuqR1VEOQhPkVzxrOcaV2pUfOVkXAAZuBlTIONmADfjcj0rQ1zBvjqrHUtoMtnjzKuDeeuZoZkNDtOfkJ1JdWgNfHTAPn7OsY87YpygzK01BTSNkzSmOqt+uYnQYzJ03yR9fYrVffuon+1OoZOEHViS100iUzP603q+H2yXMClgLbbKCa/gknupyCKEkTuji6RcCrJikZpxvCLU4ChmWHTDFlmWkJ7VAbYy80Ndg1d2aQ6pV/KwX7wkZdYXf8n6S1Lbdl3P/x2qhRVV/3Tcgf8Rpd/jEDojrZyx0HaOsJ1+W4EVNsjf8BpLkCYE0Q02iIMWQky7Pq/n2VoJDLvxTEOBcPTIjXZArEpzztUinQaSmNGac18ptN5IdUA/tAPFQl782DSBExM3ZjMaF+j+uuPPI7w4PJ4yvuOK6kv47kuoM+qDfaQ7QoyiKrLFCCDjgouMi4wLcAFlQBmUtDoP9zhHHFO70lM6yrw7GE+N/NPZt+1Mqsd4n0Lu65AHuBQkBOJhQ4ixJtA4wUAamjDVSaUTGWe0SxO921u620WVLhK2X8eMNEUaSw1LhGZkr33FvTx1wdemKOXR1QCcNm4bRwwFa42CpncMLjpctVgXUWrKZh3u4ChZrB1eQQiri+zCqQxYrtXpyOdR27rB4rqjsOOG9jU+Y7NWxV4Tq9Lvxzn+X9BzFH8s4vEX0QlxNcCGoRODycEHbr+zBASMBw+rVxVypF40JCwAldojYK33o8WguZxxScOTUCkBSQkgkQqg6yPPtwuANzfas7n6CBQwmAWaiOW9VFHj0N62IrTwCoMU5Bc3Mhpu1T1ldhUaPiKKihI9ipUIElbbd1zK4M3BF1yv6hpxhtQR2lG0OCDDEDIuuO4iAxe9IoskEsAvGGEaJe2Y6hH543h+gBeG9rRzmP4ROb0LeQtF3OTx+ICCwPnAERD/f4jaXVdEU24ONU4xoKExe53VNCcWOLPQocSUEhPoTJJo83pZi80gz/JhqI1rsQm25Yokawg1wXb1kS5GqIF8QQVFLCu0WpAKSCu3wLNgsMrLrm0+6iMe8pXUQTrS6lnSZ2TtPmrQYImxD7k4uA+sYhmddC9iTD+Pxuc19e2Hul0zrNjWmMSkjIpdz2ADQp1R/G0RdTXlfFBBgIN4Rh2IVXZ5UaWIYQHecS+4UxEJWL+CKv4WW0ZlAwvz9k4Ceckhi7lAUnaxM4fUt1BqIATUCmnEDyQDpsmI0CLJDMhKjUiwv0odmLCai+eqzey1dD2hUkEiKFvFKc0X4JhZzBXWnKeOWYfGR2NPlVlh4huQGyJuxaNwtUd0dag4rEn8LXPRHx+6kjgeatFFL1qXKJBjigMZlJgYh6y8urhWNoNNdeOqGEf2uL0zHtxMrXovwZA1ldAiGllrkkP3J8T15wRaN8AFWpEjzmfKEWYCzJT/fFfd1Tu2BrNB64zQ1GrstKrT0KODKYVmKRghReN+YAJE4s9pRqXSLhOudZyvdkkV3YDC6k/10i13paXeIF6UkAXUlc5afawAKVIe2Roa9DrEwfKjbso4fVe2wV41tEqoilxQNKwPu8MH1zfskl6zjDm7Js1xYdZ2W3celKu7OB9lXWHq7LdkFHGpHldOvB1AY6tpRgU6oBHNKKREkWqi5hjjQbnA1JagAgkEjcsxtjPAHQMgE0ydLW6zGBAYf9OSb0RUSGFh0udDawAdkA0iImDDq8wApACmyO1k3QYAJAfLDM1HBjhiB9AMwIzaHU1bmtVZGlSdBSeEoo4IY4HSigcrX1XYiCw4Us3ip69bNDQWEUa4UQSujNZFK0AJILaWSIopDmT6tYJttPowrnqLipHutbwwqq6wQ5fTy9KkplRtRBqq5dm6NH5AkDXcYfoTshmAGtf92j43DrMQYqHufTvPuOlohc0ljZKdts5lNXMbSWXIRIuhaFybBkmqFdEABMATX2r3kDowsBeniHW1HZU9iFqMQVseeWRQMeB2Lj6OWTKigFGdckCrTBu6VQW2Iqz8SbY/OJBlUy7dccbarCbYC/QOsuikgTKKLYqiw3eoqhdXvQmhGOdrXTZxMeouooiRiMpR+Pk25vNXQvUIGbk3FcRuIFrgE2OJyYAYdcAYr0pVPRGNPje0VI+DfBCgDNelnfxn5uuOQdenIWnOalCTnL01QDFCSC31fFMRy0mFLldejXlwphtTNyAFAPoWP8PbQEuvakJeAJrN9YbE9kQnMmi6VfvA9215ovpcB/m+BfgJ6tv/VdacUFxEiB+bC8RErLiNp9BskB6hq2f28PlARhlAJAEZBGRAZIhJmSZ5Vq11lDSjqm9UPtLzY+m+0TTNu9r/RhnBRsJnakdN0zAq7w68jpI1dnk7s9aIZDkPmkMgIT9cI33bLgJKdWjFVT4G32EqdmSEn/7k8oeRG5pYReiNII2i2pwao0knm3S6U50iR3XT5rRpjEJDIFWmY0KJj5CBOgihCjzh1IEMkRNsZfwN7AZlkQR5FiWowO6PRmXIYhXplfKHjGsZbeguIOcNCUkdK4GCwa6YIaSn2DvoE7Qx2C9UH/L5ot5jKEeomeBmi+sGTeI+rO4YcbZo2hYNNmSMNC0qHeF92WoexwogB3PaX6nph6qrygRYIn2aZTqzjMf2y9MWABxUARy8dNIArbiqYUHIhBpYUAHqJDNQlnP+SdMLJSN/8SKC+yE1BCK8+CAUZRAG5agiKEWyyuXs/XUUAG4DyZKoDHmesDNmsm5WTQvImPi1ap4aO4eMuNox7lxFgZ8mABDcZdSeCVdcyGiPxxZd+LCEKprFy2i6apxxnO3D2o7nGhlAJJSIgydQpt+CHSAOmbIkA4zCPS7LaNUw3lVZVG2Q+x7/9a7k6HGGG1FGhKGge46mYda1mgofUab7qS+MsN0FmhM0D4Uh2LRG+badSfUYD+jTJSBe4Lt9wWRV5Y5Th5c6g/OpVaru+iB7NDtzwUQ0lWkKjULkIBjlWMCvnb00BgWoFW5UkxtV7SkMbcJttshkXfKxlrq6WEVcy3pIqtNdLkcdZBenKzboA215yHlD4ozkCvYUXwryiA6Gslmw0XH6IiMrTZHUs+pom916YNFdRRVVTV+lHqVdx/xwURe5a9+swPLmH4jt0fyt4p+4avUfKP91CE0nBoBs4auYafQ0t4Cx4ltDpV8A1YJtrk8f40clfoS8AKAdZGFyAQpCwRrLAcHDbgaDhSHhy4UHIL1bCBRHFUapWswIhK96MySigF2AGwAQQmMDwMyYSTRY11S3ABBHGdh4MbWomTX2xO9ma9T5cvxrXyNtlsAYAgHgpwXg/yqvfpf2Ez+3PV6kqfvdKnrcR1wuLy6f4bihOYZxDmtHjA2ChAAyIosMoAwiK4tMrzJq5BrJ3pb5cHM/Y4Q8k6fvh3+WRszVGB4o8dDdtpXkTYAaxDyUIP4hwrdrgMP0IaeIV6mQ93At/xFUDJwH/BQ/W+I9HamyzVUtJmlg0GnB1Mo6nVZ1gnQi49tSZrRyguRRihgA8A37shaAAPcib4i/GJSoTZODjn1AgY7/6w4uaIzCArIlLY4Xg3q/bdnSSs9qOlVstf9JHhW809DyuLURBpYUNCuXZ7dYIks75PeiN47LDYmjQl8u5TmEVJUWcyeeS+ReNGMxvdCUDFcSIhC1/1iz/17mOmZoa2u+jg3/xQp0M23A0K1yNSVqvosYdYlE8Y8CUGsHp7t9NDjeyx0e/7Q81hU+Bv9VigCfilAFIDmgEugNqXxuPTwVy5/UcoADltEOhFRVxxuIPCAHGuC5IBdNuaZTa9CqHEwgwox1bmDqRFHXXArIhFLlQQlQXLc7ldFXxyq1KqecQVniO378OJ/AsRIeS/T598gBoPkSNi3HBndQXUsOim6ERS80X2MgIZoXTRtPIbHjVLn6BMIqDWRcABnA7nYzLpCBCdPMmDAdoUYQkxJKIotGnhbPic3rcC+fcP9U/wBL1ih93rRYQ8XizIJglsoya2H10BhyxYy3/Ji4vnFdPxfpeQVMOPDbfTH6VmrbCkbSQjJYLZk7b8bclDwkmcmP/7A3qV3VtdMvTCDRk+/B8FLR75LU2uzgKmuRbaktix+vd2aGtZEhkXNWpFy6GBlSI7eLrdgEq7DKHtBZglxILDWH5Dq5SyXcXBe7r1PXzHE4UoY9wGbIWfRZ9hWZSLwN6PbfKc0x5u8eg8crb2Gnmo3YxI5oK2NrYuYMDmJkJojSaE5UewHA1A2UoCZkQkFERd+x4b+u8X+K17TTX6oFAEkIwA+EiLsW2RdnjSEmGg2iOYMKkEUAaDaHD1BxuoJxrwDwgwW964p635WobEUydEtIjrF3nOnH+HAyCD1iByZALpSpx83ucp9rvCs26Afk1VdaQgABdHddjVh6xB9XkSilFi8/Pgi3TBI0B97YUa8pY7oYBz5KAl8RuIjoBCa3fL4sImgOBCxIeCVchXSk4+GH1G5gits8IV7GnvWLmEE5SKPoVgTJSIebgYuWGRccyBBkZkzg0cGdySITk3xoprbxZhyP+lFqHndaV3ra9nm4GxKMhFY+FrDMJRSr6Jc+VeMvj8jm+sZ1v7aOj7P8X2CuPBcoqFKj2ZjqrUiyspbTXXuy6mVDeUTM0tqVko6SbUtrXrBY89U5ltCCAp4aTg3nOljLdZilbgQaW5HUGsscIJa68AAryy01cHM0KyVSLKGRLlL9cORzMQOnyl0dz374VL2b3VpJHUo00yMS1eTxgO6SjepPyPeyycclvw2F49kPLM3RrasWFLGo0NaMDvj15qBRHChTVv29YsruttvqUX01OuEK4M0Dh4k9HRA1A037C13uz48ER+io+Xs1fqt5tGS7GqiXk7qoiGWcFbzRlxFtbWnkigkcIV/1GGANuYCGAEEV3TYt/qEFsZmZfuGHaDgHJ0R4VXpr4+8a8ygHKciFNsigU2kluARgZ5A/UI1Uq3IVMUZ0E5AaJDgwXd1x5aICGVcVCCRLAnw3pagbVJ/6JjOxmCB0PID/n8C9RI5qaljL+IZhhiKhxIWZodSiuJWw9DCINp7DbkRpAHy1iAWxrnrjG0ySjlDjVYUpU4CLjAsAHGbG5BKConsE4fOAEsiTMspAHDIayTGSbiVaRzPa8Z4PK473qhPaENsmeVO0aaORcirGX3pMdibV2JqrfBC+oyA7PCJ/chmI+yRUmwodqpbMw3AwMLrGSdKR0kvJRxVVsOhnvkhRh5S5H5HwLp2tuna13V3ZFsvRdhy5oESerChIU4omDqVoFWVJhMaC4ySW3SZttZFdWps+sH53BtZ2uC6r2nx0eOSWzQg9uf/zPQjeAHUoUWOGnDG96963zgrK9uqa9H2Vb5AGKb6xkCVbykWBtWgrlpAOElPqFLVqizmAJd5xE+lJiU3URCCB0WzGzsxUloSwo3j20QDx4Lt4qot48YAUYwW7Nffvi94KvwUxACAQAAJKufXU9R9thjYoXvOrLyuumwipKDIBPEUS5TVoEgJRUOl1EEa6UcZW/K5LuhWeM0OULcIekYR0DtkQWMwK0bwrPhEBUku3MwBgiqOLGbv5aLXn2qUX0E3zDFq5cAGXM2rHVyVQBfUwTdpG4jj2/Pmk0PrdGka2MfKWgTOhwYPm7a24djnlqjtL6v+yAHAb1p6Pu0HVNhQh9ZBXRVWkAoAMXHCYHG4me3THc2Tws4AgixxbiEMmJpFBGVbC3szoxps4nmo2uXuCF0b2dEcZjMjOpIqA+waB84GfotiSQRhJGStakMY9nRoxlw0NOicpTsllaHgVpUZnTZMYI9cgQi8hTjcIB9oEwRpa1h0kKxWxK2/BEpoYOJ4Z8oNbZ7nkDVVAIqgYJBfXIAUDAlqBLHbt4rQIOrNDX88KdrH0uIWUse4k6ujSMeRy+zZVquaM8Fbp1rSMmyAmgAgKJTaqSorqvUo7pAZRlr0g+iUab8Te9L1M/6KtxVYIgA4NukEMgr722gw7BKICGZQPyq8oNYMw6ieei61s7LAy9aJBUcN4X8/0b9ekf4lJ/1ylPyFAAToFgax+lblWuaO219dTVo0xSrpe81kMVhwQAEAg3HUaQImQkiqNXtF1418jA2v+mG6maRVZRCjYMIsfxVz1UUOqE6GqPCq+pZtGBjbCRpEykzoAn6tUjAsigA7K0gHXlYAgqelvtf0gJcKWogzEpd0G2L01oCl5y+CH/GsSKOMCnkaQbooGrybqkJE/7YTo4kgAPmDxKzS7bq++aCIkhrwRvdijlyEgw01wkyMAAUoi0S8yNCKJHBNd5ZgAVrHZoh1vjc1UMNrlH26PjWLe8D0kTu89r+U/goqB84ANEB/bAuePdGh9TbtBmzQrsf1UzsIOGsqE0keNOiOVacqMksUg4Z6uIgRKgX4N36102q8lwXJpg1ULclmhMtiuU/M59I0InzxgC3bExYCetQfyfbQrqfudXs5zr3bS2uxAlgqCjpNSq0ZFnxKtlwp1a/uJyanGPR5IUInugGh6vl06xybFrU5Uf9huuzm62zjHNPBQw0EStS/NvYitPvIEAAAdpmPt1JpuNBbRaJLVawIVV0XRwzKccPGvV52Yu+FHxBuojAwCSFH8ReGXIMBa8dbQOzGN+irGGtOD+zZx15/XxVVTjju+uM5dISOM0GrgCvQHkRuRjVDwLz0s3Bw/2gfhdN28nHbxGqko6DlgLVFaDUAAyNh/XKmKbBlc7BY9I0RA86FJwsZwM+XqgIlsAMmCLrj6irq8tjn4nwHUDpqy0unmWsDsmHl1pTKMwQEEDpagl+C2Iq750+9RQjyzwSvEWArgO0eJTzBj6iYyttQS4j1tihqrhgS7kjYk4/U4JsAdeATcBQmQJ2VlZWVlZZTlKSZBBnkCZZFZCfMIUYgtKK3Izv0ycv00crO3Q22jYLSsoymtWxiVcJ/6sbTwQCujKA3ac8IkxjA0qEUn1/Ss1AT6fa9bvBspQBn8mVWMoBRXGOSqTwVDjLWw6yQ2wwZteKyhiySyENw+wnexfIQ80EXQ6dGLFVlXkAuqrD993YLErtCJZdujb3LCxU/z1p3xFlMbJKa19pj4uUpybOQoS8hdi7VYY4dnNBpFRo1xA2jbPKYTkzPKz/VvJ670kMCcFRA1mJBQirTgFCd2sxYcSIyoYonRWYFqLOAP9UyqHoxdbCwgI7S0QKk6deA+N1U0FPr9D7YE56reiYuJzQnB7vrXZQUEXRYAoSPQkiWoPQYSgQ1YQlA7MtzGDuM+p+3z19Sl8pzS/LHiMw5X+vqjfLVqanVqHjQvKK1KRaiIzHg9vkaQ7nMb/HXEt86wJbQOJnO5AAJz5KCmg22ynhE0AM1WnZXPUxpR8IAHmU9gOKYAcCf++KdGRA6Ot4fH7DgGqXCimJABfA7bUsWbUnsl1JER4nM70QIHXBDKt2Lip493NaSaRjk1OuSNumaMCJwEiAQoiwzIk8jEhLKysjwBMRGHLNhh5mzLEzJ8VFTanVvadjfe5Ens81q2mzD6ZHBaN9otTRRUx9phSewa644u3EUR+J62BJYAeUKl7Byt0m2MEv3OABntDbIihb1KH1kycrKtd8JIt7Fb4AsOXaBbfRD7dwlKrYhzHV4s6hc3bpxrFBIP1BizuAOpCDFj18To4auGFuoKiZ13/MCcPkqCj/GG/16zdvydVdZljBBxPa5LFMEGbyh66d0lRpWBpkghoBfSp/gYHVNMjkKGqmYacUq3kKjkQeWJR15+ccrf8ihkQ4OvQULqXC+wnW090I2tbm0U3Z+qHk1GH2ex+q/1F//wZSEAQFggSJeEQMFCLVoK9GC+G6qMKYaH0/jff7NrZXOgDnTHthY1FWoLLYupsjNe2Yknw4cGHwMftLoLJmBzebQOAEMgYoVqbfVWNQCA53np7Kypw5CPlR4HT//1Nkqnwmbn39vFva9SGPEY5WS/9KJeghIAwtRNnajcH5UQCrXiGYSrE+RK53Y34HpWBSjrxU5JfmseNFsKUkdH5vL87iruSkoCshbWQD5klOP8TEYZZeLQExN0ADGYmR1+oMcy9Qj4LI3XGx5kowNbmUAUgCfaf6m2W93Lqw9w6tpvuwXZ6DxKTZCu5V27MqJLt4fIgFzQiW6brViKNWBrQ2d4vpFdKV2pQurqEktGBrJ21lZ61fmzYSp28t9tvXVuR7O4f+hO75o4owEd+deHFLL+GbXzEV4tu8mvj4t9O3b4iNJcW30/fuw78IcunVGmZp1jA9YUxzZUiKr+1PQrluitBHJkzB0AlkHUQwWMaDG2y7KmITmjLGPixH8duloKfD0cpDCUeYX3kTjf5vzxH8b/zd81fvnZg9yambiTWUpCpe7BoJwLewAghoWC1SIQWCcEYAG2r8FoIXV+iiW1sZvT+1xy3qXva38NBPmZItePCPAnVFZFKhPgoYVcuT6sNYktljJ1UwdCE+UrIJACaUpfiMjEpOnlx4nH2BNziiQcNT8jcSgQfhThSbLim67+SM7N9/tfrY99U/TB0xl2/1freIDrI97TSt4kn6bL/PptH/CRik89RZoijROjO8JI6vB6gHxSNzMiFaNe4Z7NG0oPk/ooerCfm3HRMgPY3XAzaNVOuwAiA7jgro6W3EXL8KAU68ttWKHBQ91tZb/QWWUO5tyUGi1hBKXEAnVrgWqlFHGSO9jfq2wtVleB62rqBNvot2mRzKoJI5dbQS/IFjOYI3k6WWiUkb1q/9czMLogIMSSGkdV0bDj+lLX8Ypqj232uuDb6858+63yD819oYSjaKvvGuQuXXn9wForL3SOrYktwJT72l49622tmkTV4NHeKMCYvdT7rcEgXaUESxgfdE84aERXkVDd1SoedMEUGeWGXv6rJvwzRA6iL2DCn67Sn7F2wiZgCYDgyVwseNbTWW+vuHdVpfG+szzAjvsIfvY3ebESxNQCqACVk2y4ZywyLJzmz0+KL14ObaAODXQPfij6jMY0pqzkytdNyzOhHyFFSqFUmpAsuOvcdZGJ0hVskjJEdpn7bzOl50VUIqgo3mRe2cbUctC8RvaDORKvA0yErf6/COx41P9u3AliMruZl7jfWfMD5lF3X9nQFXXYvXEbH0DPCiVIWK9+xV8cdkRvyIYDjdtpO6mDtx8esw78JtU7bNKHTIRXPAOXC2TcjAsi0oALgJMRWQsXHC7ms8gqSTLlGpZN86IbvcJztZwtjBzbctUgyVapLmZIu1TGEkEX1OqklNk+MqqTXdTguXznkBg1hsSoGrGLHEWU+FFNVZ1hdt0mWIa1jEQD8SKUoVhbN8YVlYkdigdg3G3GrTzI0e2/mLzVnIilyhjhj8pcbfRKq9hePoDzn0O5r/EZJYk7dV87TnyTE7osjLFmqIueo8TxZBJGo6tKoWED8cZ0JKE86lD0DSJjyidKf1HxWcXvBZT/BAFgQJVtQiCYJu6j6x5VVWgG1yTGMzsiVmElAPZawdQVKr5bQcSe2tNQbKz5u5z+pe7ICz63cFe55RPCkTMixR7ho2f2b5PCF1xwiK+9LlgShI1wpX/HJlCxKj2h6wso8MxeE60uO0mvyCgTIYeCHEWlV8Q2/Vhp0grFwdBg8NpyonoeKx0h72t4N+/mQXl3sdsmzb3MvHxNUX6w28UY9s18DU4ePXmNCsVKjF79SIixR9FKUkjbmp9mKCMAfmDMioGnlbjhrmUer4dzHYApuO4C3HVETMrKyuAuwF1wuEWibJIpi2E5zYsShtQa7jmdqhFp0clabQPqor9bBaMHX/4zIzeOUg/ISqjG6aoo0CtqHZHV7AFvoGAnXXKhHoFdtSG7wj1ptehcpzqkrlOvTD12/fXjEyW7fvGLVpueYIv7keO6xDmK+oxL3te5iYiPJqt48XqXpFdQRvu1r6GBG8BcdQNoCjUT4GtEUV/bIGAzdIloh722FDfjuFGAjan4BjV6itRX8f7NDBLVrzDxz+orKz6r7KcKvTDxT18AIAIBsOol6NoADM/Za0zGiSJAtwS6PgkQU1oiAhFGtqDVduM3ZsLpeNG2LJYovgijnV+kVJikNewU3ZIaXNcSqcaiIdUPbqPlukmqxABgkqp30f59rSzYATiliRIVVuDMqDOagjyPxYpQGN5i5jL+FeEMZq5SqKmh7DNZOdrMq8a+NV4ZAvB6J5llBhM4jJQDiDaF5vfYut+T1wrvaMKVEBLxCb6qKGLAzAg/DQgf0CjVlIi3moM6RugBYUg3woSMMi4ASEh3uctzTBATHK2WDEoxWx7DCoiHlM1ZQzeWCE2okcGeEkPLaWqttFKE1W8z6vIjGu0gQi1EYYGWp2ho0D+p4GkUkMWKFWtZsUwk1SDHLgpDdmEoK7OuFL9oikpS6o5Lnpi19bM/rfu5606pqR511PMsjYZiqHiLzpAeXeNPX5YZMnUAvgXgMhkX6zovdTN5zLJKtyYXG2TMEFMAbqZrjjjTxEboPKyrf2SPvPnHC/aklIwwwdCjFb5dzFsAxBDPtw11TmTGrgAQuAPdvYyLbpUAOepUuhEY26yN8xt7jZvMiBdYGl24jmoCbrQwzW7AzGjhFW+Mmnbti/msIsYZJ1IlF0sBTwb0gm45ADtQgHBUiopRL3zgObzC2sqxEyVPNQeDZy5jA+g5AAHYhPhg9WN2W4m352Tv6Re6M7hf6hxAQgyO4ffY3AC4QsWiRBGnrhJdRY3oArZUAIDwNYC3xYt/v1k0VC8+dCO0IXU8fA4X81YGwCmzSsdcKQ0rNCYpybC6rt3FKMEYRwyOsMXryLGKWSexlZpKqnclyeLrYVdeSq5U5Y16VIDuSgpXDJopyz3JPqMjd/IKtYEUuaEGfasHxElMqKMGYWa2FhdDZz3jMX7ICeK8W5GMv+a9ff/ckySLOlYvyeaXYN6cJSwQ48a6pucAZontE1D2OnOOs3Zt0aVa57EmE/ZGAEDjjf/8VckIKKoMtAwEIL7KRjW22A/WkICmWC4TWhZ2RQl7mRIAS/RM2UPtjMK0Unc2Myk2r+mGgdkxAYdc+PlOqJRaDcL3CeI02mupUFpPVcwjWTaqJv7rpeah6MCybPxH0U+5AArAspm4zTt4Avd9X3P83sFZag064mVwrmIpwEFerc/O/1cSeJ3Ugz1IDjLskUyEQKGf9DS/hynN1/xEKy52oS2ntHGArJBmwNTB3YzgttQSu8RaTanYoskh5Qg9Q2qEd/QCrnIcshrDXctt7ocsibG/uNvItbm7uq5UZduyDLCCtlZo/SvWprN0L65uEC+6IQdfzxLGMrVV+gqyi648kRLieGetMGyH3IUstYbYLQx1+f3dufjRbCqMmoqb4duVJkYnfIKfYFi8sbGotMvUNJZB52Cf5V+tDy0DWwMXaP2BgTGoOmNHMJ1x7q4dE+/gWbqMswDA0LkBTP4NaGn4GqArCk6dxaiox4WtmzbuzqLaCIS7B6RwHsDUMb979HuPEJPXJIzc3zcuqY0fDSuz5fbbCxuIWGCeOLKUUodJXTYsU1eIb19ZJT38WpVE1cTDN3VABkmsMGM/0A5ICIAl13+alSyl19d8DfDzsNvrxf/tGG6UDJi4CuCb1eYBjz/kBG5g8TypFsCgMmMGWXtxLd+O9B2XpKaKjSRbXWOmDm5r4Ief1piKEJGFvmb1w9/vW1yocQgAPuRWiptQU+/p446Lp8oIsiHtIB1joVsdGBzKei6wnvWVVyCWVPV0tEkLBQmPrZbe5umnqpZgV8waOulKg9KDJ2ENupLai6ZS0so1jOSSwbxoQ8oVe6WMY6kgW/pxIz0Fe7TAEp1tS5esmTkKX8w+uE/8ZGpHkcdOvCKj8qLamHBiLlAbEesqZMGMfW6VRC7mvxViWHxG4hKLs1gfaELhkZ+zBYDDAAxwA60naVZDV1EG356lVaEbHNVSd6HYYnFXq8oEBE6PAHkJUHg0AoVdO3u/5w+DeizR43SlcbStzS20SDty5bjxgtnzAkvr6Ngge8wsq6ZQi85BHy0tP5fo0Koa5UehxWq55SW9jh97KVJN3+Ek4SYBFuPE/rmsLhAqfJi67/hYU1fUU6lm9BD0amE1DmR+HuDB1eDBjt8imtrZxhKiKQJzYzjt0iR5CdKysQ7hNtDjfX5TrDNhbopkQmMA1nquMYssDigiQoUNLEq0FOp1fJm77RxZwT8kBc49bUQGOEoyjqUDZSsmXv0LO77zXDgPz33leP2ZNvhvrcOQ7dHoLk1VI9mTF1IiteKUz1Y9Omm1e+2jB9pIQ6cUXaRXriAXQstbbMWMzKDIrtX3dtv6cqxBxRmaayG3QkJ7H61e7Mh/Sywi8zHL677wkykZj7h3Ch/l0XhGCDUskgepE5aygzKkKAvA1FsEbitccGFmYHAD4DBAjCsbMFAgXQAMFDTHgDqr4ctPKr79Uf0vP7lAsCWYdLEVIOo6HXdowVqP+NeaXAUABpos4FSA6Vt6YVdQAntkTrrCPk/dGreO5uX0/bzyXYrxP7PpmbKbmjQKoz3BsuGD2xogJUZClrwKGWEeJ4Y4gkO8DplKro4vdpjrLss2ADSaS4n460/ULF/ToHk+jGTqo1jOAgCYqBQDrDeSwFHxUnBzerDLzyMtbWvq1RPOy8f3+T+Ky2rcB2KnkOJJdpI2wv8Ab0ywxraAsbhMvgHRcE4AFwIqgGEwAb8Hhjmitr4LWtBUaEfYiHYcJN1gU4/GkRYkki+8I4UchBfrQzVkQ+SoBLV78SukXSzVQS40KgjFrkCp7P5D1FrNniqMkMXgsJph9QnJOoUZ9rDWYZ5xm6TqWOSOfmOr1QTdYx+dPNCHF7EMiWvVqXIX5Tgj2RZPKB1FFr3YMaOK+NfvF8eZwe1jLbiI2CxV+Ry7hE5FPo4rbq6LHcNw1c58Z7CAriU6mKid/gAIQAwgcHUgEEAgCpZPtySX+b6tfIwzxYNY3TmrOLqI2hCMN55wvrQhC+y5KsKlyLf0KHqMaCnEyQofgEakZnKvV7nVxWN8YxiYXe/1f/3bpIna5qdPp904UNQf55GiEIQsiQAAL9nbESL2+4vlkePN7jUXSOIeluWOZQVu8xKh29cBD60bMbU3AA0eUKcaA243b9oXS/ebw3vH57+8yqu0oYgZ7cxjC4lYGmAfobcRvwGwjJn5iBtqB3wJKK4COA/DFUBecwCjIFNt4gtOzFIXiIIIemy7+XL1kiQjdCFDKA2RZCBttZENHEx2dQ3cOrmrY0BtMcbQ+hxdkYoKtstMDSZ5Ch2LHs0iDFsaZahAVsO2NnzqKctOYp862aUd2FUbZo734PgzbtPNN3W0RS4uczS9cb6oEdz7Pe6I2CJ6GdGtkjeRO159KBG++hvoPUZGfleCEgBVgCoEtUJFnVYDAIFAIIDAVVnPtbhSxQ4i2lXmuMlW9Rybi6auGyvugCqfiKswCikCAAT0amHu/NgiA/XqYTYHJt1OQWgC4LBa5tXl2ebFT4d/evcGsy2BcPzwm2xK22z/RRU/EQmkU70AOgDIqK3XbPOSAA3UFbEA2BkoBMC3oGu+pkkVSyQIpUoCadvTPAB71u7SEdumiY6dv/eWIhubSRs4gLJggh0IrwJ8DlDwyh9xZVFBxJcEh0rHWgmThiMpGoVWrge58FdKhGL9ygmXOghXJVvlPUKCG/LVwSdf8Sib7WBTfQzQFmn9yhSI21yrpvqHcmKIocKuquplVySgFFkwIu/Cji+aNt63PZOVi4oIzNhLZViqxzBL0Gqoy9VX6fu8K/SMa9ZNFH0GfatLNA7cjDGt2H7iuoqiizlF+ah4IH0EGeXJqnCrBy8DULCCfnWAChUcoE4AMRAIAIFg1O1FxMy+bipxB4uw8WzLt84VXc4ojzYSRzbmKOt1tA+txTyFtFW8iAdzwTBMvVPpV8IrwvG631Y369w5+i8pRj2zL4EtG7l1jRrxQqOz/nhMfR69StRMfRdJyNTqJCAjfXXSS/arYqXma6AQSqAAfjc8+L6hUgnL8DDfqd9aQTyRROJ44FP8n3SaK/D4G2M636VaCD7SsATr2YnQZhs5qZa0uVR5vrxBUlwiCuGLxRLabeUt7/lVBKQAI4wl3ceTBqVWsIs+imiLrdp0epXP9Q2nzmAbXZS1P12kpUodnATqYECy6lc1N0gUQcWtEvAUZxrjrdCN1SOLOvTb1FRi0dofrput3IaJxsXYU/XEg8jY4mJDdekojs4h5EZ7CSUZmq+pjiVPQsMtThOgABMA9AWy9WjqEcrU135jU+ciZoEHkHUXOM5evAw5ut010kSkZaKlr/navGigNspbsAAfENV7+sV42PZ75oys+lIdY0be5D88v4+btL26iDRY4tAOuZUYNbkSCkDvarnogFh63ErN1+BrUHb+MAFYeViAlqhujxZoXfNaaABKVcbCM97ocuF5hl5RD3YAqNEzYho8PgTR2ZXIHnr4+lJm46VIP5aOqkIbocmxbkwIJHSkbBjhq/xfTMUhrp1eKi2wDFmWlc1evn0peSDYSo20X8u0VYPsus3eLFms4dKtFVSBUWsxLLmwaMcbj3FMMAA1kZyNvvDyFHuOkVXWO7HoOF817GV1KAgHN6VuZnX3raLGV7QBmhgpG1pkxgEnJzu6VrkEtOpp8BCmqIAJNMGhAgQAiKEkGnYFitqBtW8kcRNUIrqDSNlvDyK4/Y1ScdNqSzQRrQdg6gAKGuZZezA1wNRh0RWI0rd2XM3qcuPoaQ78NqORmfkPnUr/pJjPBBVRZMqtFYBixVrxqBfIqqPjVmo+NFP3oYEShcA1AAtixXM1bNxcfWxp3WnxuYYUMThevis1+Ao4/sYDsut5amAfF6l1/ZOPzuMxjR5GLNL97QqU1RcJzWPjhJBJh8EXXhxMJJlJZmd1iEWkjBCHkkaaDXI4ytayn9kSa5lNQdsypEazrMWQTR7QlLx1WuDSwujJQjuCoJRn9a9MrTuVfK6umcSaSVUO7oo4MQdNGEhX+UVQCBKkmzIuS0hEHFzAKjOuh3oddWCC8ewTKcL4p+VPrWMb6mvszQBaBl0a5r8EupUpEL0FeKbUa5a4XuOlL7i/g/MWZyNmc6U2mCPUVa9e2ZExESFCAihYmGfgttIrdBPQ0arTL8ZlX5tn3mjLaP903HhhtDFTE1i3YQjet0RQhKIJHYdghUmtBr7FXujXAQ0+twFAowBNMUfnqhEv3tNXmILXAyTRg1c20aj0CieUYnoxDQHYFN0ptQHxFGePzKS6khJOzVtsEBSbCtgPlAdcAhLmhJSPxzPK2wsIueH6Y65m4NtEXCIjm15gcTRxY0Koqu7UR7HY2d+RlN1HGn0sIUy2a9Q6bhFjCaESaGcMxsV6WFTsTroocqWILsgFSem36gkCWHGbhm4P6bkhDOB1kOiJzwBVW0UJc1+JUhkzsyo3ikTXsm9ta9XsIWf8y2998MomcWw/9Qw2aO33p+9GboEs1DNuUwQuiCIFAJ+7njY/SgCV6SsVSP84s2bHrq6HUAqmtaocH3ktr2LHS8/q+xGHFUAQw0KrKa0rBQwdjSBc7I9U6Xpo6dAVcvZ5bVmZm3miD7WRbjQwe0/6Iz9XJW1OyU9Wq3Vl8Qrf0+aqiQJCiWiwWI7g2Bp8DT66oTz/iT18BD9iM2gHNADwkK9Um6vqygAc4zJq6y389v/c+4gbV9dbzC4g5KMmecxnJ/VGHnxK0p1u9LK8L+CcJ+GlQBEbyouVGC1MdFjt8hNfv0SO4eWaOE3gUTeJAZNQUCkf59SXlFQPO3L6eh5tp+aM7E7FUPLrGVxrZtmqsEQN9lrh6svs7mXS1uBqscRaIU7GoJftcwUXo7q91hZJlxnkojGoKSYjqVBPyMWKT61ZjP8McuA1jO6D8TLKHecgrmsxBkUO1BtD8oH8LE09B2sIACBKw81jCUBhetF9lsvFOsRLXB7jeolkNKC3mVj4QqeojRIliYU6AoF5i/YFbBclKKWhZReHl/Rv+HEAFVgAJGQYPbDqljbr/jA6OmjcY0Y/mhn4/i4Fca3LBVtxXcba+mBHUUM1CbrNwijDysJoYmgcisbis6K3r08p0WAWYBY0X/PBEgBQmTifqt4FfJUAP5PFMdEjmZwzVVtgtjAwmqlZG8/cWRFhT5y/42/01BxoNKBhuchN+ElCoAw2FV1IR9bmxjXGiqVmqZYnVa90i8//j/P+uKGoelA9ZkrGeNIL0qZpE0szViVzDBmqWtbnirXKQLq4LWmLtrS8ukBKqnS6UJGR05YVRNdJy6jBGFm3Y3fSYquhU+1l7u4mTViL3MX1ganOR/bY1/F65lLFLUqJNbO9yjx+IOkDbGT97lc8d2OiWyvgmkZCMHwLFoiBQsYCAoGC1YoAEtRccHQNeGCs969YJRLXB+7GqqqYZY1hPDMAKKTRimNQoQTqShVo6dvdQDfgworddXxiBP+Ck1ZjX262f+2WLGb5p7tY+9VErWiK1EgHunRdAZSXLHQego9ulgAADfARiSoS0DQA5wSR1mitul51w8UMAStCVU+gWiA/uwJeDrq7pxmHNWN8+5v3JHibwKnzcdyNns4JDDwneTzUAzLTUeYua4JTg+KA5mWNNxPlFG5Vpc5DaJzSrpJpaJLBUWnTIIW3nhYndRXIxdJFD085kB59PQuz/jXWDg+QDTVBei0hwcCClCMEUsnXkUI2R41TR6miO6jDvWVr0SLqwQiy6MjqSsUcbtYLV3VW6HmxVseAtKspI5LHqX7fo12hDRhDiV53RNcSPQKmlzZgvdJ1CCxYAiCGZepoVWnNtJSIUjty3d9WZTF2xvMtn1HqOHNiM1HpCCm0DCAkJAoWsCgxdYoB5HtYonu029dGMz7QDaBbV3+NPk1ouLvJ5RO3zSVm/Ed6sbCn9+g/bvAtAnDhw06hd3mentZ9YEMxRVUAjjs2miyA6sTtAjuAU0ZrGcZoQs0q8FAAqQH0YLTwKG4c1EWn7rA5ZcJh+2bn6zgCv7U2+6DxIYGHBFUCjlgpk/MnlWKxqDS6wyptrhQezUbEuTo4AyI6EsIA9D6WcYa0YqlhjQW3RguXCraiXaRxTXLFCjVatbqP7FptDVyJLzMGdFv06W1Skcu29btiYFnfMvYE20EdbIMyXJUx/KcfdNiCA9cniB03mlE00anJ6Gm9HpbhdqiVWtAipKSnGHWlUYGWSgACp9JfAdwwXulju4q8qPwdMiWAgBiYNwU/YmrGjPsQ1ewlowqPIjU2Y2rGT12M5MRDKJ2HhXk7Atk1yi0qAKA4qtwqQi+w2NAyEZV+U7x0AAA+wGoWoFJxKhYum26349um/15lC3i5GTfj46SOqYy60LqycjwHy/NAN0tofgtc5TqpY2zAioBzqN8emW4fxTO6T5gYANsQwOK8MwKgTsBAI3Xju7ajuPUCqg7rJX132uOzBNYAp9k3zw6SBSb3fNeXrZ+plnWro6QGzPNWQ3WpDp1OwQgi6fmlhE7CsYySxLCe1emCGOounW5QQS9c7XWMsE+MdhxFLYlIqJDQL3/FYBlZjIz0DR0hjXKpXFvOXr5qdW44e+rQPsMdtqYGtR7kLumosXHBjNKoKccDt2oTH0eUOgwLcqEutuUmh28j8lQB4AwAPIESJym6RhGIRrqqYg9OS/yo0t8CIIbQAOhmqiE6vVw91RsY1HdVGne0KE34Y6qJGUXRCb/80QACCCAQAMQa5aIdQFhUoipRVTwHaBwGNwrWXAQlQ6WgAdj7wXMkAJu1NdttO5Vx7OK80crWsOae8xsaJ0x0HQT4iEx/KJw5h3mfOziGoM9/h6JaTARGZqIDL2PU5Jvcdb4zrjuqaEERtQoAR9QC8iaQhnFxdEGwhQpTGdOItnvCk8nN9VOBJVCVZTkJf7De7IBSmdWKczA8S9IgYsEiUBK4Ekvg1g1HtcFNDdCIPKt9/XEuWWTXuoxlu0MfdHOv2NXTWhQtPj9vdV/O8HddO6otzA2vtVy2cqnIZZlj2anLXE3NSBRPvIFxgxHrqJiodz1w9PmNBxsXGyZKt3yPPCCJNxXyUBqfeAJRohYUMWQg0JInlABMQFWP6A8dHR6rbAfKBgCLUCqVWvdnP9dxKCZu0GpGd6KIR9NBYqJs1zmr0gJHP4cA8yZIB3CasnXLAIpG46bGqlKU13z05NHNEt0GcCEUompSNQMA0PZbrhaAYbK4bTv1/n+/mWGIbBnfyv/+X01nfJ6+wNjRXw/slJ3CTun0TorGiXJwY4uM7aMyMXbL5hcuGlFE3FEBsxtNXZcACaEb1XeVtnjmxPO1NnEgVph6uQGgsguoDTTgXSxV57QqW8SA0e07XfjP+VVg9IExgBoEif6igO41ZICy0K4y1zaIBdpx6ii5RBHXXiDWdSah77TVFLyDUcbTjCxmdS2aaOSGxToqTlrBKSVdpdZ15FKnaMLN5VhD3ZqVo4mRjBkXcbBq8WxQlah+rpJi0zPGqZ2LV0VXSzOqB0WS0VDJHTSHDRwYzShawbcA3wKoOwNUOd6heg/aTDBhrgMxgMMv55ppfQQ3MbGt664uKhyzhKomGGOIu7LrhyUZEVVAAfM2dSB1jLJgLaBoYuyrql8qnZCKPKBJyDB1jlHA+sS2KaLEKwR8cFw9B0sG47LNptqP735t6NlSNtycOPM5Ac8Ui/FRd2b6lYnXVOha4eJgO4Du0XEFb241nvGLYzTTbewkMPqHTRc2EoltxU4KHGftdZV/2UhWIKAyUcCi2bsyAMD/4qmqe5Qb3KQCA7XAEG3DbUAG6I6lgcyI9wEC/ycXdAo8q71PDaSVMtFHCcZiN4i1igr+WAMsSg7OYBVvVBhtQ2b7Nn47Ew9k162+NcFzzGCik1MA7ZqsZXcevl2CGPUc95PYXpU6zAtUEWNSMTkaU8gn5I2yLonw96FVh8oY6sLxtiygUo3RHy9HZXtYBOmcAcy3I8BxoSoYpOAGoCflXkDhg7rpxGXFeao1V/hmQ2LQ3W+/Ko/9gHVAMC+I05TWI8mg+MSYV6mp2TMavc6jKirh5IEeAyh0s4RVaL/wvRpGRyQCaNiPY94My6g3y45Nub+Xf8i4HVvO2XvOjq+g8bGveLT3Hhz9X+RJoXAf8DAw2j366i9YANhKPHAE4HmeKzBHLwF+dmATY2oBRfxgl6wuVNQmjIxfqeYI5MPoxb3ATRC6t0Gjoy2ASWIL441WsiafNVhb8CbQOY2e6HzNP1c7lzmArAByon3tYNsQTs92qx7EpV7JYsheyDrSHSQlZl3J6IX6aLOm3as8o0wJtjKsIRBqedCWU4OGRQikY1szqB9y2uf11v7nf1OZsZEqGU3ZmpCY5JgYTd56AdGFTPjqjmWUWJRlDrT0frQma7r1e1+9SI1hYP5rAKqYXAVAFnID8K1Td7eQKUvcyeLcjecpKQCBKACwIGABQSsLlNZjFYicGPd2SW9jZtSgwlU5oyDPtdmKw4fmIA/A4sa2YFqx/S84EMzgO8sg0s1UZP84em6foTY8bEXPfnpnoDg0VFXFGImn+wXbraXhQys/wRJ8lE9svbJuAJoP3GkBo73SOgF4LAY+/1+8Z2QNgBsyGok7GJS2bKAn3dvjWL0CvUpc+MB7vN43vuaBXvgEjiTREGCykbRo1/Y5fRFzmaeowcPLHzvSCbVC26I2hlxx66pQHPSBeqt+8HLaOtUGe7A8EYQv1JWKOu0M7ZCs4/fulM+YTdwAj0PC0TYd78AcZ7fGnvEuTlhEW0881PIDsjVOfMvvtJFho5gvzkMFqg/HghOD37/aSCCgTmpJDAvzqYv1wBVJCo4FBGmcw0U+gAhy6nYBBRQAFNICzhGJ6hWkcCvVp6IvzR7MtpzKjoqrKDD17V/YoqvCEBYU0TUw/ihEld6KT331y87Yty8Hg31Ly4hvjMNsWUsV97UMc4L/7C+eAG4FQBIsAcB/KI7xXxijk8BoNwBo/p0S4CG1AXG+CNWJnXm3hhGEVRrN4AYY3hd8PvAJ5nvyJy5ITDs+H177S5/ytL/8ylRwBxdHkRFZEYrc9SQEFRKxNyMM+ZE6OJlSSTBACyJW5chCQJCiU1x+7wXyjIdWJB7mI9n9eKlRp14UvVpwTV1NNFVFW+wcOxazjbMWjauLGGcOSquwMbGahP7hkT5yoV3jiSP5WRcLEL0uprYEok4gBgIBAIGAfgXxpD+nOb0mEcBQGgYkNCyABAKoAAstLQDq4hilAK/8goqs2teYzbWmrFF5oxi5ANCg6Ly2BI6AInD+BZVNFK+aJ3Dp1Stf9l5H9rrd+ofYwl6IJi3hThMDIpHUgSpVLtC6hurKUMSMrW4+ldXNEi2AqYlTzhRkMv/fuEhpGVahAjzPJvDjv5/59KWNaQh4ZRta5ephza5O3ARTWlEAnOvE3X5WtEhejVF9tiHco1YZNiuS9pBwtdQQFdQ4PntN1ci1731r9CJxS37AVsc/8b2Hv0ri6KRRp1db3VB1HUX5YIfGtipWVJzYtDjGjERjol8uvfqJ709uFAAgTrEQWILaIjDRKjEsJYq1nueiy4iYdbZia/XAsu7xAo4mRQDwis2Ayc6UDkQCKbeyKHth7EE8mJERT0UZFY9KCe6Cu3AE3+Fgc14rgEtCLAFj8uA7hpp6OReSv77/X8wWFxQTQUU7/zkJDSVWNXJa8cclzPQLnK1GjadZnQCA7lEAkxRsDbVIpYhhhNEdBABBztZH0wCkKg8g6XEKT7gHUfWV4V1LJeSiA1SRRyPGKs01bC2dFcvaxNpVa8W+tMq2uy8jTPSzYuCJn6JshRf99EKyFDU7o/lEhNhiKz5RYpz4y8lE96nyFd1Q8hDgcFtAnVTxCddvc7IFTcc+c7oqiDnUBYM7WETVxXs1ZZyntb6eNcaAQQX3AcOC0KnbDlT1EMMUCootlAqh0fi5wi/NnPGzh6oyomwjhFzuogXA66NEXgeFoDjF4GNYnyOzSK+S7kpl30sNE1ve1vj+Nt4II6HlbZ+b44IS0QKP2BitjX72zx94PYDm43kmRJc/LrIzfhPCxZEBOFb+g7q02qmQCtuDVOXRgzhFKIBGgeKuuznHWSr5Ls99vpYL49i2pLuQGYNJCrRlR7CrnGqIjiwtFqirJy4RdVa0oovDVGWHisapSONUGjjl6M73+r747Y7a+lNc9uKfeAczAFPnLQTUCVNevw1CoAnBoplUJfr9Z7Hu/Rl3kSjf62Zm3JHnVZ54hYMvYD0AtPVaAJ4f6jZqgW5lrsM6/gk3r24Z5W+qOKvuNWpYKOso3/jcXG4KgMPlgMs7pnm18+QPCwFGYUrwiBOv7InV+wj8gy3w5Em+RXB9Ow8chony1QYzWoyN4CgrzI6gTWpdBahOTKY+yx2iixURtYXImJ9eI8BOxRufIX4tvTYxu5rdQkupMQIguUPcAWJCJJTQ8g6M7uhFhPV89WRbjyCFi34xQi6QJQv31i2VoA1KpFhxhePbl9Kt2ISbH1yrLsyrhxvW6Wwl36poeGuH1athhWF2oHWOFgjf7bEEmqBEr9MNQKm5Qk00dt37l+7Y6pyNFdtakxfP8xWWCFkBAUQB0K7hwz9g7RqwDdSOoKZPiz+VuLBe1MR3hL7UHCtelHKMeSrqAXC43G0FEhLgbv3EE+/hUC6oFArGpqoWM9/nZ2nuZ3iwY0OcHoR62H7SgeFsuTqXEY6Q/uu5UZ26w9QmtzhLnDi5la6MrpsqGIi1wupEOyEuVAGjt3LBFc9rHPkW80x7TJ8e1Xxgw+Cu3arIGBA+WxlAllwYq7QVejLnisVv8mlhrnFhXrFdmvt8WfU/R6/cDoh4wpVHo7rqcPtoAgACACAK8+8d0acEygOI4dWeO4pa618OiSbxQK0aYnOPhr6e6vOEimQRmDoQCLRUD5zoRRkYSxWJ4xcc+X8AJOuCOBf48XeJ32pH2UsTvtTcL9qWJTUq9yivBO/qEWjJTYHWefZJBstfKYHC1uTulEv95qdvfrcON69LPTXpMpZKb5t5nh1OZakqWW24+kJQZBsHj93ct0fmZBj5WwYugQfqGQ50aLyHTzRu/6ra+FLDiClevetpGjovTIwMf0trCmFw0mKJzJzRjaMEAAA/DyLyac1D0gN68i2AFDuhMDkdddzF3+JsJ0RHUoCt4BoaLSQipe9+e20MzEqdv98iRl2ve+9PiGOhwlCD9U1dMmO1oIKusjGWvPGdswQAoiwA8AMgmA9RQX0n+yyHM+QnP+Mxr5fVhipudHS9iQo1xahSVfuqFAvR0tQxTwekCN6/02pEHYIbEr0Kr/ojjzqcKPj4V415XzMH9YsJPCbdR3nhApwZaVN3uQtwl8MUAIdrHlyWJ2sgxzVpLCmer5q34P+nx9m7HcZ1O0hthzmlwc3l0V6fuH3/ukM3/T9X4zGlKIeA7c3f8PtwAUfgyAVHdpXH03CjZuZ5h+98rDTkc6uyz3SzcPFDgmfCOKqstO2zhMk2Vz1jcXEC2ZgT+NUrI31DweF/Id/PU7i3x6PwdD8PT/fr8kx//AahoASBtIdKARJTpkABTYLh6GAjwmcFo0S2I2WJVPMuQrCMWdWFuc7XKEt9hdcf3JmNH2guqI7+Yl3wQ5nj1UmsD5utyEacoRCyoF8AzrQCFiACzD8xLL19N/ePvpg6X9eOaLupO7DxMl/pRF65eL/QzOVD/vM9ug1wkr6F+fXprSvcshU6NeH1bf36yVMM/u0hDy46hjFkUGTpQ4oeHSqAx03X+cITqaPBue9LUH6pzYqmUrXRba2jFzRwsCgNm+eBdDEmJ5CyIiilMWAmajnMsqnI0tab+r8bi4aoIewradoR2PxgIO/g549VVhFGpEWClY9J2YQ8D9/QrLwS9kh7c6tKk94QLLQ/1tA3FLXSG8WnjkacOB0LwBKjjs1zTKDw7S7TmhWcMs44L4Gv8rLgKb9DjkMGQgHCXiqQSICYqM5JhoJMT6mmnih+igI7Sz0SqmZxYt183ERRPo+i1g7P65O/2xzjjfeuSVXcK/CIIcRJrGgmavaV6AB27w23EhOvqqdWpvdBCjmQLRQAiFbM1vZJtP64wy8XjW1VJqazblLcEaLESESlxScP9Pp0oqYF5mnqAPLsrlijHdFTk95/FX/FTtTLHjqGX/wviEKcTZwF4R5RNGGaMM3lMat4AYNbqO2U3t+vMfZKrjSud6VHoHETOlAxukO9Np0RLnzL9BiLEVQoqb0T1RNuFp/sFWafKr2sJdDiwSTe4T9kRq8WVYOqJcoU0WRj6SZq2ANykwUSPrgAstnKBs3z3GRoWtUYRYbjFKCmXHR7aTgGlBWoPNXGBVsANmX877VFOtNVBuScDWJi6qhzbY9IYQKE4nv406tb4xGNbp117bR1f8HGHk/xAq1NQOVdsRl1QYURuSvjdgxKi0Gq+keBWa5EIlIAxAgZ6hZATCuNaMAe0SI84JW/1zoLAcxWAFBQ3xU/R9WuP3prcN484l337+C8T21hBM2tMiFlYN7OtFKi6wgT3HCY0nGwenGFHpS9rolfvtSeMa2linHERT384ZxTVgaRBHhjkIODc84RIuLROoCbZpU1HTXeKH+UcTMwdbAobXPky4o7JM6aWiwZwCATA1dSUAIligOVrWbjlA+64VRjoG5NwucIXPxgCO/gn1S3NNvX6G6olIcmyANFtOB7yYtgDsqWRVkkahCLoMUyG1qzQhM5rTRNaFrlN1Fp6Kcaw2k0AwYZxEgbTookIM4ILgJOQXoUiIlAYXqFDhDoTQVITA4FkA8gRV7x80kO7Seoqc4EKqlN8kM1JStpF5tgBshdyjzYLrY1ilYbrGaqgiH+9cPjVAUAlZPUEBVFgCsitjot9qGyXwAI6MDgYQuVxNy+ourPv8FgB3GXLj7/v/IOEx9BLas0KkImAgFQQgl0BagDFUAsRgQaqXQg71hKK46oQPWXb2PerznV9CCoZFQu0FUrRCIJQA4eFU3XNR0MU1dx5QMZSSQborGfJROm4ExpIELjplE5cV2Ns6tfHnw1S5GLNiX1xOOtU5pnJO56igmH2vWMmihVAGEMx0MbAqtmgXd4uG4MaCXbTbrGCoY9Mvcg/2G1CZF8L/k9gOQMllhmpZi87LDLYtkaGH7J6gwNTa2pvOnnWLbspe/ag/qco2eRBCyW4BmWC2VpB174NWbfBSCdOYWFrqCQCPQKlQkQ9hItgPhivKjKCs8xJVESHVHKksGwQQmy69jdMZ9qVFPMpFafGEFliQgRMFFABXwtIhLiCZvMgrrSAyB1G4Nmrfgf3o2ZrPs1OrOqau38r49BlIpFpWg3AKYOmOtIKJUwAVXhFbCGjlrZNSAhaCN/unJBKQmNe6uyo1nEpxhqVXKUUet1F5QjGRKJlOTRgQgA1/zCm5ULcJ+PYU0jtO8rY+qm7nKDy0YVOnd1ltcoVc4gTIpSSqBUh//0r+AVxKNsrKuB9T8b0GBIVdlk4eVngXewyzSm7l7DNg73yH9YzEVy9iAXJfbmoShTliyWkIC6JH/+v5guhmt0DTFZs5otNopMZU2USaU7MLt7/rcPgJiWBR9M3b5cdOlWCq0qT5UAIv1WoBI6JEA9oTBR83BKYx5Tz1VcBG5WaajEYCAw70AEGIdUo3e9DriaAAhAw0I7Dw2ZQAAf+Q0HDa0TdrKud+Js6CN4mlMcUaPLgqkHAvOvxCRwMZCWMHquSBaAddo7kZNHE63oT5pB1Z9X7xjG7WKdi5YJRL9S9A5wwIG0I85rD+6Dv8B9mwehKLRwM4DroxiNW413/PtVATuDH/WZpdRiwRXi1a8cS6i3nqLaaHI1iOM8TUPL9RO3zWYBeIf/CPsQrboYyY3t1Sp2NzPszTVXHrwoU1AqgoQrQd2uAZTEXf7duc+1TzSD4EOJdBOBz5jMITAnDN/NwK4GWCImmUgxkR4F6hMXbjW2RpUBlEOZ0D0LJAgUSOwR6SYAJVAieEibHjzM+MBln49xc+2heGRdtCQGYKFgoWUQAtDReq0IqHRNnVS6BoBVABALdmDFRWnioz4rGEMUqfGO381HwUIggAACKFitdEWtqOyx+3u2F2n3KteyofelTjHCYuLUuHfMyDXj/SKryjseKntAJ2jjBL4OGTI5CnVAxOiAycHDqPnIk5HPfbtssJPION0uMi6X1SSroqN4cD5xwLfoYcHuf/4psY7DfwJF7HNKE+tzakcf4GkYcaCN0S9ng9538I/IhhltZnxDr7nm1hgoInHDQmlvrrSXfIiL7RpAZAYfftalwXN9/73g0GS5bi8RIWkoMOmuZg6c5UQdh4ScFA3H4KYqZmdtw3iGXxEoykwOgJhYIBACiaHTTUz00r7ppX1kYotLfQ9pYsKbdsN8mj6sQJhw0TJwBVSm1THEAYBlrCsEqDbuSqPKERIhVWIsXB/KQMtAoNXA1QHKMpVA91xhMf+17UJYMG8N/3Fp2mtjFym8nA1SE07tl9/pfDl8ocZaqRUNO5r3YyJaB0AasmISAvCYoiuapuOGevwkxQ4fPPP31O1oekN0g3dpHJiSKje092/TQcVEJVitBmqhtJo5drlCokFvLY1v1Z8Ru+vgPgDwNAAYcUrI3hkCaOhuWveNHXcpeVV1SSoS7lXywYWAERweeOmKA66HZAZ2N4TpaRzAnP24+NcANN9AS+6G1YSz/uK+LpkFz0MeICLR1fzWulkCrYbC1GECiKQEN1Se5d7P2DeBb7bwAaK/AAQIAFiYf99Y3wLCEghxVO3fYEoxuQDFtwDA5EysF34SPW3Jvisu+cwMjW2s1kAN/qo3eGH8eyCA63NgQ2JDx8aNTdHn9BhNVyJDTpDlHYADLsC5XFCxXzeIkWHGdj+w1aOKR4DGdzvbwWaDcgVjSrDgkIShGIlFHMUy4gZdfRd2U1H/DmU17AHwPOQ5RylFIzyzxWe6tbHubhaLzN64nTIg7XpKLgTFq+NVkvz3HA1OiPUOQdrVuetpMDOuDg5b8yyEiIt+/5jziTzAbQ6pUTxVJY7sbaOVcJJTCfQAgGgL8nUdaH4r8ytyX6DQBJNQolvREcNFV7inU0DTAcfXoHYcAW4eFfUyBGD1LW6hw9ThCAdQFUAFBGKiD4w4dm+e9xlDe7ltAyOryQVRf0MfzePZo+TEBu+qfkVaIHB97iIQ8I9sXgwfkiF3BMokcsfljuAmzBCjKVVccGS6aOuGvgbrKl3Y3NPLLbWLUaTAfnusjDsSlrojzjiNCtW4Zv2JGKUGSwAPnqeNOM5ugBDgiI2fKYAXNF4Z2+9maWZDVoPJhCqZghJFDODg4vegkeHYwtEVRwbh6sQwEV5wAW5rRGi6qXOXw05D5biJfxxttgOE0XjkJR1DqgQAA+WpUJQHQA5AAd2w56X5rSjTXyBAIkAooUBgrwLUpD1NB4CtgTqYQWDOI2hBUQ2VAJiNbiRHYw4CgBWSAhxopg4IUyCmV4ECyEc+jbRngzwQw7m9VpJbK/K2fg3pgjTYAaQ3TT2YcBRCIAa46wMaAs7Bo9SXWVoQJCBmQSbHhODCccHhmHKhFnqv71u4xFft9KzySmSY0Y3axUUT0yMyQDbf3rxoiiIdlLqaStSfeoWutIEkPEAD1sMDlkDYQDlrALcz8o1DLT0appl+NkS55KVQXO6OKo7rJVYy/K1De/gpaxRrHye8ko0ICDUO0bnwIbWEyQEhIYZmPh+XrjIhYjySUc8KbwieBsADMKFRBZKAoBR6tRbdGEU3RkEoTAzQZKEAFEITJHp7QLPVT+IZAHT6K2CiVRFPCCiJWawjmlv34zymgZIZZeoSYE8AIg0YvrbOTwvfQq9AqAOFfj3dbetCsMWIexyrdLYh/D5zZAkJUBZt+FqP403tgmhHFEW3igxP85MeNAHgBdao4gUESaAMMUHmcNFqRjZ2OQHdHPG7bvyfikcrmBqQEI3WZV2KhYGYETfUIFGpEUk1GAlrCeAlPUDzAA8AJZRSCkdkn0EAw3WTcdro3TC5Id1o8t2lZFmED4jq4JIUfysAse8i1WpPH3nlW7kytzVP4wxx4fzF2/CoiBof2IgFcFwd8yaqHExteSCDkEZbeWVbCFXd7AMDLZVR7ikoM1kJIOxdW0AVyDeA6QsBOP4EArRaCGLWhayX8RC0t/2l53kuxw8ZvAfnQ3/kCwT8tl4AVptmARZaSkl0y+In0C0F4A4bgjEw5A4N7XXS8SulDH2J1DgYFWpKVVlAAO1x9RT3LEVlgQkdAeD7fq/9fz8H0StQRmQTrbqmXCmIsU6EAG722zHrPKqeC77uu9Sqe4Nub1ekbVXYJ7Oj5mDNI5cMMJHzPurSQenVQ60QleD0EqWINgACIQQ2q2U26b60kfYDG3q3cbKVMDdRpFolIQnRZpDXtDB1DohhxTpNdTFCBpGt/U+UNzhDPIQimfoiE6EQ/6CnfWquQQsSoHVTh08K+MnByYP3lm4OGejGBLGZsfGzJMOaLq6f42WkWaTBAkAZCCQmBiYrFeQdANOspgBgolMBE4zaJZBU+5xeohq87YOZrHE57tnVDhGlNm1tmKOIEU6UJIqN9YBlXwPAAUUvSQgAiLLO+V4BOF+XZvGXmDsipGU6x1owlugj7IbuLlkvfBKhZWU0dfGETA9pdGm6c9js6t0oUvABcN7dzcupD6WsIRwc4pAhgw7wVCq1tCn1TsSodhMcszdu9p/WMyhagZsZUXdACjPdEBSNuiHYC9LqWMfzUBFsYP1ZZS3b18arMWJsVarK0LEfxQiFQimN9Rg1swtg/GyMNUIsm/i/GopwuZBElbzKHRnhJzOu1y3A1Uil1pjUIijc+KhLPTVRkhTavm+wWdUTDavYINeKqQPQ4Gg6qqt7eRQdKOB/5OZb4yq0/Cg+oDaUnRFlkUNZXbjwvnhPb+Ppf1lKQJMoE5QAaulJogZ9igAOiKubUYhqmHHjQVQ9h3rrvr6wXXSvqkClXtl1VkVbxnN4DkejdRrw6OohPAT1KvGJpwrYnrTA/98rJm5/nt0Qnu9nFgj8mc3GbX3R7tgwWBSxIj9KLshIkAaxkNYAYCyaUnzUeYAUgIOuNMSeNWDcRLgIujg4bBfOw/qOSa5EHBwiw/NvWBKDdtViW3m5kghJpfYlLp0ojmLrxv8W9N2q8T25aDcsoGK22mj60sxhuo4QURR4I462PzxUHW3GevKarzlglooYWE8SHiGUiV95WQjhHPvC8oIzDRgtxj/GDEPR0LFh7482BQuSCZerSj6YGcFdAMjAzUCYoUQoZpkNKY1HN76tBcpWAl29iXhYf/7eba3A09DSALB6jvt64rB6FQI+5tkXZzNKW9wAuAFwo9Bt0Pse31oe/xMUEoQ+hQkQCv09gJd8WNMWVAie5cgMGsElwY0FJTNw/7I2AOUeU4wJBC3GgZCCJB7jeiAgBoJWtJ5fPiEeP7nQB0AB12kqWeZtI6U2YRtXhfSqG2v48ZtdrrOJjR6u3hhc9Vmf5bNeQ68yhMA6NiE/xSrHA1Ga4Yz/N5pEPE8dcAwU0mCGBQDTFa4FXwNcX+d4gR/4kMCHPAzwLD/mhMuGpYaJyEWIOEhqgLsVG/WqxDgRgm/8tjs2/d05Tb2xTbDGVW5jc2u61hPc9HebS5+Nl1wUXzzNEghLuFUS5Ho1D9i/YrT5SxOFBsBfyAo1UqxEIkbEqlf422urQwmhsLwnV2AmNo61TGvsxo+XknYlEy6cvGno0D1ue93Iy609oqE2BAnT6qBAoX6CPY9uHN/4inYLkf4IVYOpo9XXckNgOlGZ2CLYdNd3DACSEAEgYIkC4GvwtScEBGXCREEBiGdDAZSAe3rkIxpWSE2jbiiglLkj+Fm0O+g4R1FEyKKKuPaauJ7pfQ1gQYAlEEOnS5WwLYiU0NpFdnQzy4sW2zi7+G92BGlYeZNcUNGbPSTFCbF2sYAHHCxdScYmr1fllEJs32NWj4NCFJmirLN5AbA1gCgUV0MdPiABO20DfCzrjcZBlGCIuy7c/3R0luOWjcEP2HdgVYwEgIA2xRUiAP9Lv5FNq8s9ryqOd0a3AfToAMzPaOPPIwEwWDralDGZkJBjazoDdENVieBhxlexIvHgt1duHb5Pe7MOAeDsxdyejcDQGCnGnIZFphstjrQQNTtwHN1BntsZhEAkhhGTlWhcW88SFNBiz0QrvhUnjrn8kuuvBpxIrICvwddaARMzxbVGLQCSEAAxHADoDqW2mV9s9PyOvAGTFPgtkglCYfq2iPQqIRITa69mPViwvXVjE+dZlCGV2gz8w2UZZYndQBwFE3TV4RwAAtfw9CWC3UrlhpILyQUJ6JZarMWinCrIrmuHxJlblQC4GncDtvKSgfCSAOC5itVVcz9Kg+36Qz2qS9WPGpCBclZjBlGaDQdAb1kVQ1n4PAkNDOmY1JrZMXHDhUgEX8ybahJ/7zfuKyArAVk5Nb7hGxj0fYdNNA/orufikZap21zPOzDSmNJRtscz3MiY2ggpX/PF2mzCpeyIL+JbV49fxKm4gy4UJfLJA0UpwMVy3Kt7flYCXukzfoGGmQ2XGkwM7FYbpgHN5v4eUVonl2DEpoqC/q/n1SdQ4q6rx4WyuG27IgEDxAQVAF8DHFGw0GrBKmREIcQKs97BYq6IcBhRnJrwNhr2m7wBRwfKCwfACk1SogycSl0LZWvaRyiuMY67vKgyUGLICQQBCpjMwRkADD6yJClsRgm6yg4ce42Tpa5lvan0EGtpAKUgFBQ2Aw6QhrZumFiAl4QLjhFXKZqM+qk9LkXUBPGRtIIOW4piHIlHmoR6NBuIRzWpV/jC5IjDA8yMwEQrERyozEh0KcEHHyHG3jESQIakjBwOTyS49nPSfjma+0THuxEiMqbuC6TzPR6s/2bjfWx4tZEjigAd+6irU46JL+JFbLVLolJWHSmwKumIUYbvRYkX5nju1/3meWYowMgzDtzN0jTTbw0isrmT1hc6RZWcZKQlnlKJK57WRltr9l50irqlqMPYwW2BSrfiAHwNrRPDAvjSIl8vR6aE0qFcvEE1mP3StyZ0uvGSVAHAAFBCjAAlMTm2FhJdpQlKhALBB+Z81jdaUe0mAAjc3PlAlktEShtmYBkV5EJo+hDSNjTLBlFCqkIT1E2LALgINABw1w3xFvz4V9jwKmWjJut4M+3r15AXkIniq6qtZb4tsMvsxKxEeFHdKEK7SwhppjSAH6Owvvu5R0WrosY3IBHgQAbIghY8bczyJTp57PzJJsTx74bNiYBlZ/JI58c0JjHGrs5GlRuaYxT2OW5NrIpR337s0as/8LjDXEIZSbS8TfhQ99Rx3r/XPy50NzNr3/km4+QtLU02vnq8eaMnTISZjJojZuK7t1FKIY6nt1Sjvf0zo4VNt1giRQKoAaARkV5fQ+svKRJ8/i9poHBY8z36AUD8618PMRBbhHqoLJuA1ssrFAL9SvQLJXoDhW4o+JqGxo2mW3oAFIBCAIE63M/78A3bZ49WrO23mYtsiLRLFmQgNQYB3wfgeHTTXltwzLeXBBgHzfUDHw+JENhfWmF9WPxaJYupWVNf7CpO11Kc1POrzPaaNpeMxhdfy84HDNvcTjOQYL3CA41vYEJwmY2KFTjgAuySUVYmfbe1wZ/mw/mMaon4rF/rL9btDGDqpqzGEhM6ioiS1pYqqvS2gX13iQ/iKt5IPNUsDqdbdIcysA2yQqs+Y3HIeO5XFQ+c52xjnuGcubovbaQQiBR5Ti3OmRnKycQn8UbUsKhPPLxUSqnoEbtFX9Ev/gbSYFN9AAiVaSstez+jSMaR9po/v9kDrQdoa+YKGaQFRoQcSkIznbzWwgsJFUCdXgUSCSAUQgEQia7vZ77UuQ0TAQK0Wqly8GN367mcaM8JdgcN+kyBPkkZaNUHYDugXCt6vSQAl6NHeABnE36bKnYhFokkI7SQApkRsaJLriRkSiWIXDdFu6tmLbZ/KJl2bdD87PTZbs2vUs3j94q0TM6jVT1IU+q9O0Z7qJXVHgKP/HG/QBcceTfvAmRl0NHTcK8bMIn6Gmur2IFcyQ3d1GHqCAfjGRM4BnHkucEeYF3xNz2rNU0n9nxxr+DVp9a4YCLpa60BLoxHRoyRyaxe016yTemtSnzg6o1V42f94myLnlAJqetg1pBYtgH4FoAaABKNqEBcm/jIdBEdhJS9vN4vB0b3BwsAzIwBAEGz5b+vQOizNF8Xlgbg/bqUsRXKAgFCR4l+dbqhTBJapUX95wIKMAFUemtec91cZyrFCHKBLJDOw+VwOVpfbxMlJvborPIMHGHoPXYgEe6VpQy5i3iQC/pSaCOiYSTJRvbWF8Xqkmd3RU7qy7GNRLZcrq2aw7a/xA8aTXtoVftU3UXz541EpXLsnkgpQyMKHAvDao1dsqpahIkMGEBhPPqXJ63gwiWDp90MEI9YDgSHPHBgRRKNSp36tgDYXC8+mPheY97CAbARVbEVGfS/E28qLmIdCZeyoVjK0V50hpV0hCMcYeqtbaBgZn/0m3eG3vTgAXVdf1YsJRfKCfUpZUQZYNR6Q4cJHXBgAIixkijr8AfPHZi46LxcdAZDnbqpLmr4WUl/K7IDX8gLI4WPW6YAmp9gxHYtKmFA7MusV4+Wi7YaXbqY1UjCg5JUmCwgMWUo9AdmZDLgGRM38g9KoWXARO57S1WhUurGXrDJwu1lAw2eBpejVQ/JQxAKIBKkwuDGYrbhOZpHCL3XkwZyW8PeZod82STpBvm6UX2xRDoukJ+Zz97YOeF+F0/Fs+QluNhQvf2l7f8w0FA1ueJF1ZvuzG/X3f8XDca/5mjD0znn/gHZkqocCR0AxxTrRqpsLwgCkHfJu510bC4XN2T65WIOUqw9wKIMUP6GSW8qfxc03TGw6SIUiHgiXiVE4iJx8E6QR1fTvSE4AoAj0Gpko8Jnt3veO9hiqpG46FZtQJ6lnkGJVAgQsQnl9xgwPQc+HDzDMHU0w8iyPlg7408kF4QJJSj+CWOBiVINsRXaYLRBtDGxCbFhsFGwidgkqHy7pmWNu49IxYG54HE+wON8GCdulusKoQAkuhECCkyrGziVf2ETbmDaznatwriMzgIlg1xI36ZrFa8kEtgLXLgNGGB2Xu2kuUs1c6K6JtkAEcACttwoluiZju22uXBDVyWF4AAp9gjPLTpiqxYbdKp7RW4LqlVL0bohkjsoLUqiy1E57Y5u/rPDi+/3/RfW2ksuLfSr2TrGqPMEG7USicugi7RKR3dNqkIxDYIyBlRxSZY7uFqQ8ENFPSNEcBMZl0eP0eEgIxFNRzv7ei8tmqy8cAocknh3x7409kAWaNmpPvWvJ4rDxZHiyIpX+93nqFSoTNuCn1DQ7LZu+5rQG6068K9TYUAJlBANtOoAxeqqlHVYmCoe7T9jNUhOBEBHrHhmAQangUTM4DIj5mKz0HPAZTLGPo9IA8PbiAcm7h+AUOgVqMNZ2IMwRU6oL5QeJQTH9/L8qaezzZx2NtrOBCgD/9mIY2lmTtymOt315QmwAJrhYBTsxrfZraaKkw2YAVWByq5CBikK4ZmQVIjIhWeSlFDRXjBSko5DsB1aLEDtnboVO6mwIAoLaFnSqSxAJ0uQByXdKknW6WEmVtbzoG/HgnKn8NW7xbK7F+Ji//9/a8l9r47FTjQht9qAkuA80ZnBt3+JxCVbMWTq4yfuOtRJMQDA0c7w1Lk8pyUAOMLgJymqeMZ077ib4Cc2g5+418eHPSuhToQJ7hODM8Ux8w2f/3UflaAWdR1cvbCf+1naBoGpK+pQNqZ2M9vFPdKxTYbumFcHEBOTfQ1/2DvjrjGLRcVLY4/kQYGskhEIkE2ICiB0H2IuBCBTRT0oMFFonJ9VPlG8snDBrusvdiq6M1MnEAEgFSYGIDMxFAglUFjAVXQ728w9mcKwX3ppjcEOuqFTQAj0jFWSCro4aTQhBgQS/ZOf74/4JDgFQAb4qMBBo2NkHCePHJ09ZFpAeUFnbxOukm7VEjZKqN0SHaQiSLEo1a3IqPSZq7ikU0mw3UoqDxLXIpOcepZF6yiMdQr3d0tF6DkVTe+sF3M8TRj8jffjnG+9G8fiduRCiEVv/C9zvnp3P8FlvsVHIxI9r2l01m7DWMxeXDKXXFOKAqDzOzTHlmn4GxtG06Ap2IT1YrXAq/D5Y5ilSgzT5K5GuDeG6BnufuE1cxUT4Ac0F41HkdaPzdOObhqfVt2UUWZdz9sIIwAMJDJ6rnYj3VoR3tPrlRCaCp/VjLB1/DzTsD9wmOYAhdA5IGLs1fhS7ztYfvCfFI3kyG03McCZRB4CV7K6gv0C4WIR6pksE6PURYTNXGX9Lf4LAfiggVGASAISBAKJAoiJpUOIZ3XtDQMkpozkBBxP2FydfpsK0NGMAESCDKALz9oyAQkASsiVipRR53oMcY5BDtJBQhk4x8F8CFBKHnt14ahIJIgTIhKITMki+aM0pzpHJtQy3VImS2a6IpMTMtVRhm2lWaXPwqXm0ERuDKPw/X8UoJRQsrkVYGcc3D93RWB6v8i6VJjzqavhULc/C2f68BU8mgshJgEir8L76e8ClpxN4B5Fdl4I9l9s6WEAMPUpR9e5qoq+45fSMNWUKiVKVxeLV44qAOf+I1kULjKuu7tidNeUkUrs18v51zjnRJtMQAdMIrTZLyiUjQngLAmYAPLp0BOBSldQ6UbyrPZK98S3RS3uQxE00L1A9zYv4n4UBnBQGYKZcgUcx4+LM7mcGWrGZ0Z81w+JLtKqZ8hosRNaqS4NZiyLCrSMI8yvACygFAFBnGRJSqAEoNQRMOfqxErv9m4RbZ+R4ojOnFQoEe7CTLEHUQqRxwHv2QncCVokVEi0Reoqmei2ElyQKimTRiZSyUjKIDLXikx2nElFZowjzxouMjWLzKyjMDpR+KZHAbcigJcQKUTYyzDg5w7B55dCG2oc7s445Px5LCz3AnH0W8QzfnQL/Gjm7ZMAkVf9/czv7ozFo2+qhJcp3UCQT1rcGJO4ztbkCHNYl4rK3mrLVdmKA7wiBOAxzBElhc+j410gtGpm/W5ASer1xgdFGxwYhS+aU7UHSEpCf+TVCiZuPiUcECRGWGc1GvZPzmRseKAppBOvvDLIRzeehVZ//PHCdGA7cIRDyEpZZ0Qmm4gqDJO0iHEmlzNZuXVRZ4Grq/CnAHCAMwvohgyEkjoQIAEF1FNChxxbC4ASIBKwoOs35ACywsFlHHaJdQD/tm3K9+FWbAhV3ue6mx06tRay6gEFoOWiZCYisn0lmZlGLqfKojbMs62lBspd6jPwLjfvRgHrBCgRAhBK81LIHR5GLF0InTrCQzW0uaxxuL//DrknhGWfJY7+BvFMt15G3aOZeXtOxu/Dq+Pd/F+/+0lqxxumDm4XWedOnL0Vj7YBl1aztyAHdykxWXCIQZLgnIdVHSETMjI9xuhAZjCecfR6YYar+mjQKZjcKShW4zTXrFEdpsF3AJtGHC0r1EqNHQecCtQKY+yGbmYzxHF1BgD7b3hsZUWb5fhxOJZlYKJjTKUOEHBgAiZABAIorMFBBBoixeQyDTYgCZgwDJjG9RAbUEArmDICFpRAb6JPApQIhVMotDbP90dfiRsBVjMzw2tjmeejU9b3/UFZuDewoeESiGnI9lLkHB/ErWFTITIjwp7DgF87VBxMoqxLyBo/HVr+9FeEaxfCaB98FFGBMw5fAnAbY93ajsxc+DoxnYzfh9egd/N//rbLz2zqph6B6N0IQyPxVlWXXHS75yI4nEqKCZh6SXA3ZpQBADktHC5syEUTVdyCe4zRqTyEEtTnxv2KWTM/kYjCCBgd0+6rcnezl1UzSdpD0nOAq2MsasHprzgCRGXivmhhdh8vT9FQRdrcWFBtVVFVR8+oBKZ+QhOQ4wg4MHkWMCx2oNsvQA+EZJGV6hkWJgVNr2+DOuAXAEQTd8JxdmGXPgnaLgSA0gMKQKK/gK4t04X9i/bg2f2GvW0aZYTfiVdylod+o+aM6RBvwwutQTO9cAOD83Uc7TbxTB/eAj+ame/J+8fvw2va+5nfVjL9oEmWXP9SMsMcRdoA3DB14Mu8ExljKK+oDsA5UCrmGNHKlHt052rSi4rdQgr7lU1+Sbzvf2fqvnqW8Mh1hyvvdDvh7rcHnOtk8fSfnmTjmTw4Bjd1G3xG9EIAcAFOBUS/0xWVfZE9w3Xf9Z0TbCnqUtpfnoZHSnSg8DLRFDOLBrTQCEbgquODX6JFuHzAfUOW5MIlEo64/3pW+pzDhZ+BCLDRYb9IdY+gpAToUfcL78sTYHkj3WWisJwTCqDESd4mzSt55jw7+yfDmqm1KniGeG7k3GRYmf59Pv2thK/LM49v4Ovklx7ObDLXkA4+OGDWYRRxabbj+noJfefhemIrbPS2ak6XM0NqXWbHnHyU3RUK5EqOMqqL5KJB2LXPZW2GC8VzDJfMpL6ee/bbzwSwhXmKmdunCX02fcQUycQxDJHkcEmxYV1UEl0BeB8RaAMCz3g2ceNk4Ix3ku/6+g9Vg38bwUYUllRHPeMhyyV3QHKBQ3DBRSCIkQHcyz3xv/dCotcHsCA88Xl4j3O5C92gOZNDIZRQIOwlCHtJCXdS7ocjqorI5GSBxEZNpGXoUJNxPR33/+ZNhp5nzh8gv0e02t/YnExjK1v03qA1BICnr+4WVy7dl0ftlb5NlG8luR51ncfH0kswM13d7m3MIlSqjbTaDi1OFTFKxKv+A4kNrr1L/fCmqTVanvc+fPZZ9kxL+X5Boo+ZGYqJgRuGuS7BTWCyM32slTsdZxNbUEs5Do5wqqpwDpuDA0GXZa4TW9358SY/mWR2tbHCGGLqanRt6fq9LXUN3PSC9D7CEmyZqCUw36YuWwvxbGwpfkFmyTf10zcKK+F6H566Oryz/Rz4liLwUce/m7+nZbg7UHDBhbkOwucCQYv2uP37LXcuvd1wGJpP9k3h084ZnzPix2C4keNcKV/EAU9xcZltV+sUUHti7RBo5G6kYytqrHJV4UVe5dXxOXd9mBzuOqj4xf2Al+7jsJ7AEuPbW3/XXmbmpkRLxbDcftHLt6Q/dPzL3+70r1274du0lGCszru48AFStlL9+tL0+0e55xYZsjsadYYT4Mn+rUcqPKuqkrySAk/oGJIQphD9FWcOrHX1q5HFltSYbbwVLWjXhUSVuIDpwfQzrmQ/2dY88ub8Gfuf2L+5L7O34TDy7wzcCOgEd1QdPruzv2fdJm/pQ9qmbiLMbNxuq5FNN8bOfnv6tZFAkkCt8dH48JHoPc6/5ceo3BD2bGGjGpiK0lex58WcITMnQgUEDkRqpFIhsA/d+vjKuMbW1PjetLTCoiJ3Ksqcmxmf8/eI4EsPHN5/mwb/LIFt7xiBHGZyK41Z6XDj9QCsQrNvzY4/P9dv9S/5nUD0e35XngmBGgJVj/KJcbKn/Iey+75NztAEMeJF/mKww0lX4AAVB+OosYet6kv/duNV9SB5dUfCB3cfJYFPaujt9+C3X+4kUIIzznhieDD0dibKMpnudHfpIDi37sXJN/7vXf6uvCvfM26ef9XaWY0vhjlzH1ZmgeGk6tfdH8JF2X8OaLxxji2s8YNpye6gJOGqyPUnQ+HbueGOt/TL121v+09f/9+f//bufWJnENiLB3N/p+tV2XQrGNA1zsyHhJ75+eAWdB/CKNzBow+sNwB8qvGwHbLZF06nLzo10FhklLK1Ne61PDENyLsJdlOgldDYS0/Ek0d57NeCFpnh/UU+mWH4uszyr8VXyluFImgj3VjHFb2S/lsJlwaYv0axBvRfv82+XsPKaB6PmpVDxXhc/rtshS1zwOrxLr5Lm9FaPTlmn73bk9dv9nZ645NP0eIyal6cmd+bAFLDeWMLV/xIwr1lcu4nXj9k9+Z6WA4M84HLG/H/7eLeapYbGes4CpoZMzRdm3GLrbPx5NZmB9/xP7d6+qhrn73JO2j+vuH7mQzDL78dW8DfAUOy9NDYzs3i3zV63ZItu9mljzGC3+idWowgI9Cw82lf/KewNXzBYa4WkzHnzjcTW/rbv9E7iYbPV737R2LraCImLE4+L1d63pWt5XArt7IaKdy8PVorsnBYPfxMN3e7u5HILfx/Cw8CAA==;" vertex="1" parent="1">
          <mxGeometry x="-540" y="370.97" width="396.77" height="119.03" as="geometry" />
        </mxCell>
        <mxCell id="8gna0-SzCfryGzHACBwC-4" value="&lt;font style=&quot;font-size: 29px;&quot;&gt;&lt;b&gt;AirBus Data&lt;/b&gt;&lt;/font&gt;" style="text;html=1;strokeColor=none;fillColor=none;align=center;verticalAlign=middle;whiteSpace=wrap;rounded=0;" vertex="1" parent="1">
          <mxGeometry x="-430" y="510" width="170" height="30" as="geometry" />
        </mxCell>
      </root>
    </mxGraphModel>
  </diagram>
</mxfile>
